<svg fill="none" height="500" viewBox="0 0 1920 500" width="1920" xmlns="http://www.w3.org/2000/svg" xmlns:xlink="http://www.w3.org/1999/xlink"><linearGradient id="a" gradientUnits="userSpaceOnUse" x1="1454.41" x2="2460.05" y1="1521.59" y2="-707.071"><stop offset="0" stop-color="#f1f4ff"/><stop offset=".29452" stop-color="#f8faff"/><stop offset="1" stop-color="#fff"/></linearGradient><linearGradient id="b"><stop offset="0" stop-color="#fafcff"/><stop offset="1" stop-color="#f3f6ff"/></linearGradient><linearGradient id="c" gradientUnits="userSpaceOnUse" x1="1652" x2="1652" xlink:href="#b" y1="0" y2="500"/><linearGradient id="d" gradientUnits="userSpaceOnUse" x1="369.5" x2="369.5" xlink:href="#b" y1="316" y2="500"/><g clip-rule="evenodd" fill-rule="evenodd"><path d="m0 500h674 1246v-500h-1920z" fill="url(#a)"/><path d="m1920 117.692c-25.69-8.242-53.07-12.692-81.5-12.692-147.18 0-266.5 119.316-266.5 266.5 0 46.593 11.96 90.393 32.97 128.5h-202.55c-11.99-40.747-18.42-83.872-18.42-128.5 0-153.49 76.09-289.2099 192.6-371.5h343.4z" fill="url(#c)"/><path d="m734.776 500c-82.813-111.644-215.595-184-365.276-184s-282.4628 72.356-365.27539 184h467.27539z" fill="url(#d)"/></g></svg>