<svg fill="none" height="835" viewBox="0 0 1920 835" width="1920" xmlns="http://www.w3.org/2000/svg" xmlns:xlink="http://www.w3.org/1999/xlink"><linearGradient id="a"><stop offset="0" stop-color="#e9edfb"/><stop offset=".376054" stop-color="#f6f8fd"/><stop offset="1" stop-color="#fff"/></linearGradient><linearGradient id="b" gradientUnits="userSpaceOnUse" x1="721" x2="572.03" xlink:href="#a" y1="892.712" y2="-536.638"/><linearGradient id="c" gradientUnits="userSpaceOnUse" x1="-9.66407" x2="-356.729" xlink:href="#a" y1="1225.17" y2="-223.054"/><linearGradient id="d" gradientUnits="userSpaceOnUse" x1="1917.04" x2="1699.78" xlink:href="#a" y1="264.29" y2="-642.28"/><linearGradient id="e" gradientUnits="userSpaceOnUse" x1="1131.36" x2="947.349" xlink:href="#a" y1="802.333" y2="-141.539"/><linearGradient id="f" gradientUnits="userSpaceOnUse" x1="73.887" x2="-123.371" xlink:href="#a" y1="452.765" y2="-370.348"/><clipPath id="g"><path d="m0 0h1920v835h-1920z"/></clipPath><g clip-path="url(#g)"><path clip-rule="evenodd" d="m0 835h674l1246-328v-507h-1920z" fill="url(#b)" fill-rule="evenodd"/><circle cx="100.5" cy="721.5" opacity=".5" r="333" stroke="url(#c)" stroke-width="219"/><circle cx="1986" cy="-51" opacity=".4" r="200" stroke="url(#d)" stroke-width="154"/><path clip-rule="evenodd" d="m1561.52 601.005c2.95-18.233 4.48-36.94 4.48-56.005 0-192.195-155.8-348-348-348s-348 155.805-348 348c0 82.547 28.741 158.382 76.762 218.043l193.798-51.083c-62.93-29.236-106.56-93.002-106.56-166.96 0-101.62 82.38-184 184-184s184 82.38 184 184c0 39.958-12.74 76.94-34.37 107.11z" fill="url(#e)" fill-rule="evenodd"/><circle cx="136.5" cy="166.5" opacity=".8" r="184" stroke="url(#f)" stroke-width="135"/></g></svg>