<svg fill="none" height="500" viewBox="0 0 1366 500" width="1366" xmlns="http://www.w3.org/2000/svg" xmlns:xlink="http://www.w3.org/1999/xlink"><linearGradient id="a" gradientUnits="userSpaceOnUse" x1="106.363" x2="630.884" y1="556.364" y2="-586.792"><stop offset="0" stop-color="#4816af"/><stop offset=".29452" stop-color="#6233df"/><stop offset="1" stop-color="#849bff"/></linearGradient><linearGradient id="b"><stop offset="0" stop-color="#4816af"/><stop offset=".489583" stop-color="#6233df"/><stop offset=".958333" stop-color="#849bff"/><stop offset=".958433" stop-color="#849bff"/></linearGradient><linearGradient id="c" gradientUnits="userSpaceOnUse" x1="848" x2="1969.62" xlink:href="#b" y1="1457.94" y2="893.187"/><linearGradient id="d" gradientUnits="userSpaceOnUse" x1="-284.5" x2="-59.6067" xlink:href="#b" y1="776.5" y2="-118.818"/><g clip-rule="evenodd" fill-rule="evenodd"><path d="m0 500h479.523 886.477v-500h-1366z" fill="url(#a)"/><g fill-opacity=".7"><path d="m1091.93 500h241.14c-25.02-42.114-39.25-90.52-39.25-142.012 0-71.024 27.08-136.176 72.18-187.044v-170.944h-134.46c-99.71 91.1103-161.54 217.847-161.54 357.988 0 49.321 7.66 96.981 21.93 142.012z" fill="url(#c)"/><path d="m0 500h256.004 262.996c-82.725-103.149-215.366-170-364.888-170-54.103 0-105.9949 8.752-154.112 24.81z" fill="url(#d)"/></g></g></svg>