<svg xmlns="http://www.w3.org/2000/svg" xmlns:xlink="http://www.w3.org/1999/xlink" width="1366" height="808" fill="none"><style><![CDATA[.B{fill-opacity:.1}.C{fill:#c4c4c4}]]></style><mask id="A" mask-type="alpha" maskUnits="userSpaceOnUse" x="0" y="0" width="1366" height="808"><path d="M0 0h1366v808H0z" class="C"/></mask><g mask="url(#A)"><mask id="B" mask-type="alpha" maskUnits="userSpaceOnUse" x="0" y="0" width="1366" height="808"><path d="M0 0h1366v808H0z" class="C"/></mask><g mask="url(#B)"><mask id="C" mask-type="alpha" maskUnits="userSpaceOnUse" x="-277" y="-16" width="1920" height="840"><path d="M-277-16h1920v840H-277z" class="C"/></mask><g mask="url(#C)"><path d="M-277 93.56L1643-15v728.955L-277 823V93.56z" fill="url(#D)"/><g fill-rule="evenodd" fill="#23282d" class="B"><use xlink:href="#E"/><use xlink:href="#E" x="-10.729"/><use xlink:href="#E" x="-21.458"/><use xlink:href="#F"/><use xlink:href="#F" x="-10.728"/><use xlink:href="#F" x="-21.448"/><use xlink:href="#G"/><use xlink:href="#E" x="-75.105"/><use xlink:href="#E" x="-85.833"/><use xlink:href="#F" x="-64.375"/><use xlink:href="#E" y="-10.728"/><use xlink:href="#E" x="-10.729" y="-10.728"/><use xlink:href="#E" x="-21.458" y="-10.728"/><use xlink:href="#F" y="-10.728"/><use xlink:href="#F" x="-10.728" y="-10.728"/><use xlink:href="#F" x="-21.448" y="-10.728"/><use xlink:href="#G" y="-10.728"/><use xlink:href="#E" x="-75.105" y="-10.728"/><use xlink:href="#E" x="-85.833" y="-10.728"/><use xlink:href="#F" x="-64.375" y="-10.728"/><use xlink:href="#E" y="-21.458"/><use xlink:href="#E" x="-10.729" y="-21.458"/><use xlink:href="#E" x="-21.458" y="-21.458"/><use xlink:href="#F" y="-21.458"/><use xlink:href="#F" x="-10.728" y="-21.458"/><use xlink:href="#F" x="-21.448" y="-21.458"/><use xlink:href="#G" y="-21.458"/><use xlink:href="#E" x="-75.105" y="-21.458"/><use xlink:href="#E" x="-85.833" y="-21.458"/><use xlink:href="#F" x="-64.375" y="-21.458"/><use xlink:href="#E" y="-32.188"/><use xlink:href="#E" x="-10.729" y="-32.188"/><use xlink:href="#E" x="-21.458" y="-32.188"/><use xlink:href="#F" y="-32.188"/><use xlink:href="#F" x="-10.728" y="-32.188"/><use xlink:href="#F" x="-21.448" y="-32.188"/><use xlink:href="#G" y="-32.188"/><use xlink:href="#E" x="-75.105" y="-32.188"/><use xlink:href="#E" x="-85.833" y="-32.188"/><use xlink:href="#F" x="-64.375" y="-32.188"/><use xlink:href="#E" y="-42.916"/><use xlink:href="#E" x="-10.729" y="-42.916"/><use xlink:href="#E" x="-21.458" y="-42.916"/><use xlink:href="#F" y="-42.916"/><use xlink:href="#F" x="-10.728" y="-42.916"/><use xlink:href="#F" x="-21.448" y="-42.916"/><use xlink:href="#G" y="-42.916"/><use xlink:href="#E" x="-75.105" y="-42.916"/><use xlink:href="#E" x="-85.833" y="-42.916"/><use xlink:href="#F" x="-64.375" y="-42.916"/><use xlink:href="#H"/><use xlink:href="#H" x="-10.729"/><use xlink:href="#H" x="-21.458"/><use xlink:href="#I"/><use xlink:href="#I" x="-10.728"/><use xlink:href="#I" x="-21.448"/><use xlink:href="#J"/><use xlink:href="#H" x="-75.105"/><use xlink:href="#H" x="-85.833"/><path d="M297.073 575.062c.592 0 1.073-.48 1.073-1.072s-.48-1.073-1.073-1.073S296 573.397 296 574s.48 1.072 1.073 1.072z"/><use xlink:href="#K"/><use xlink:href="#K" x="-10.729"/><use xlink:href="#K" x="-21.458"/><use xlink:href="#L"/><use xlink:href="#L" x="-10.728"/><use xlink:href="#L" x="-21.448"/><use xlink:href="#M"/><use xlink:href="#K" x="-75.105"/><use xlink:href="#K" x="-85.833"/><use xlink:href="#L" x="-64.375"/><use xlink:href="#E" y="-75.104"/><use xlink:href="#E" x="-10.729" y="-75.104"/><use xlink:href="#E" x="-21.458" y="-75.104"/><use xlink:href="#F" y="-75.104"/><use xlink:href="#F" x="-10.728" y="-75.104"/><use xlink:href="#F" x="-21.448" y="-75.104"/><use xlink:href="#G" y="-75.104"/><use xlink:href="#E" x="-75.105" y="-75.104"/><use xlink:href="#E" x="-85.833" y="-75.104"/><use xlink:href="#F" x="-64.375" y="-75.104"/><use xlink:href="#E" y="-85.833"/><use xlink:href="#E" x="-10.729" y="-85.833"/><use xlink:href="#E" x="-21.458" y="-85.833"/><use xlink:href="#F" y="-85.833"/><use xlink:href="#F" x="-10.728" y="-85.833"/><use xlink:href="#F" x="-21.448" y="-85.833"/><use xlink:href="#G" y="-85.833"/><use xlink:href="#E" x="-75.105" y="-85.833"/><use xlink:href="#E" x="-85.833" y="-85.833"/><use xlink:href="#F" x="-64.375" y="-85.833"/><use xlink:href="#E" y="-96.562"/><path d="M382.906 532.146c.593 0 1.073-.48 1.073-1.073S383.5 530 382.906 530s-1.073.48-1.073 1.073.48 1.073 1.073 1.073z"/><use xlink:href="#E" x="-21.458" y="-96.562"/><use xlink:href="#F" y="-96.562"/><path d="M350.72 532.146c.592 0 1.073-.48 1.073-1.073S351.3 530 350.72 530s-1.073.48-1.073 1.073.48 1.073 1.073 1.073zm-10.72 0c.592 0 1.073-.48 1.073-1.073A1.08 1.08 0 0 0 340 530a1.08 1.08 0 0 0-1.073 1.073c0 .593.48 1.073 1.073 1.073z"/><use xlink:href="#G" y="-96.562"/><use xlink:href="#E" x="-75.105" y="-96.562"/><use xlink:href="#E" x="-85.833" y="-96.562"/><use xlink:href="#F" x="-64.375" y="-96.562"/><use xlink:href="#N"/><use xlink:href="#O"/><use xlink:href="#P"/><use xlink:href="#P" x="-10.73"/><use xlink:href="#P" x="-21.47"/><use xlink:href="#P" x="-32.19"/><use xlink:href="#P" x="-42.92"/><use xlink:href="#Q"/><use xlink:href="#F" x="632.646" y="-194.708"/><use xlink:href="#G" x="654.104" y="-194.708"/><use xlink:href="#E" x="579" y="-194.708"/><use xlink:href="#E" x="568.271" y="-194.708"/><use xlink:href="#F" x="589.729" y="-194.708"/><use xlink:href="#F" x="579" y="-194.708"/><use xlink:href="#F" x="568.272" y="-194.708"/><use xlink:href="#G" x="589.73" y="-194.708"/><use xlink:href="#G" x="579" y="-194.708"/><use xlink:href="#E" x="503.895" y="-194.708"/><use xlink:href="#F" x="525.354" y="-194.708"/><use xlink:href="#F" x="514.625" y="-194.708"/><use xlink:href="#R"/><use xlink:href="#S"/><use xlink:href="#T"/><use xlink:href="#T" x="-10.73"/><use xlink:href="#T" x="-21.47"/><use xlink:href="#T" x="-32.19"/><use xlink:href="#T" x="-42.92"/><use xlink:href="#U"/><use xlink:href="#F" x="632.646" y="-205.438"/><use xlink:href="#G" x="654.104" y="-205.438"/><use xlink:href="#E" x="579" y="-205.438"/><use xlink:href="#E" x="568.271" y="-205.438"/><use xlink:href="#F" x="589.729" y="-205.438"/><use xlink:href="#F" x="579" y="-205.438"/><use xlink:href="#F" x="568.272" y="-205.438"/><use xlink:href="#G" x="589.73" y="-205.438"/><use xlink:href="#G" x="579" y="-205.438"/><use xlink:href="#E" x="503.895" y="-205.438"/><use xlink:href="#F" x="525.354" y="-205.438"/><use xlink:href="#F" x="514.625" y="-205.438"/><use xlink:href="#R" y="-10.728"/><use xlink:href="#S" y="-10.728"/><use xlink:href="#T" y="-10.728"/><use xlink:href="#T" x="-10.73" y="-10.728"/><use xlink:href="#T" x="-21.47" y="-10.728"/><use xlink:href="#T" x="-32.19" y="-10.728"/><use xlink:href="#T" x="-42.92" y="-10.728"/><use xlink:href="#U" y="-10.728"/><use xlink:href="#F" x="632.646" y="-216.166"/><use xlink:href="#G" x="654.104" y="-216.166"/><use xlink:href="#E" x="579" y="-216.166"/><use xlink:href="#E" x="568.271" y="-216.166"/><use xlink:href="#F" x="589.729" y="-216.166"/><use xlink:href="#F" x="579" y="-216.166"/><use xlink:href="#F" x="568.272" y="-216.166"/><use xlink:href="#G" x="589.73" y="-216.166"/><use xlink:href="#G" x="579" y="-216.166"/><use xlink:href="#E" x="503.895" y="-216.166"/><use xlink:href="#F" x="525.354" y="-216.166"/><use xlink:href="#F" x="514.625" y="-216.166"/><use xlink:href="#V"/><use xlink:href="#W"/><use xlink:href="#X"/><use xlink:href="#X" x="-10.73"/><use xlink:href="#X" x="-21.47"/><use xlink:href="#X" x="-32.19"/><use xlink:href="#X" x="-42.92"/><use xlink:href="#Y"/><use xlink:href="#I" x="632.646" y="-173.25"/><use xlink:href="#J" x="654.104" y="-173.25"/><use xlink:href="#H" x="579" y="-173.25"/><use xlink:href="#H" x="568.271" y="-173.25"/><use xlink:href="#I" x="589.729" y="-173.25"/><use xlink:href="#I" x="579" y="-173.25"/><use xlink:href="#I" x="568.272" y="-173.25"/><use xlink:href="#J" x="589.73" y="-173.25"/><use xlink:href="#J" x="579" y="-173.25"/><use xlink:href="#H" x="503.895" y="-173.25"/><use xlink:href="#I" x="525.354" y="-173.25"/><use xlink:href="#I" x="514.625" y="-173.25"/><path d="M1079.93 391.083a1.07 1.07 0 0 0 0-2.145c-.6 0-1.08.48-1.08 1.072s.48 1.073 1.08 1.073z"/><use xlink:href="#Z"/><use xlink:href="#X" y="-10.729"/><use xlink:href="#X" x="-10.73" y="-10.729"/><use xlink:href="#X" x="-21.47" y="-10.729"/><use xlink:href="#X" x="-32.19" y="-10.729"/><use xlink:href="#X" x="-42.92" y="-10.729"/><path d="M1004.82 391.083c.6 0 1.08-.48 1.08-1.073s-.48-1.072-1.08-1.072a1.07 1.07 0 0 0 0 2.145z"/><use xlink:href="#L" x="632.646" y="-173.25"/><use xlink:href="#M" x="654.104" y="-173.25"/><use xlink:href="#K" x="579" y="-173.25"/><use xlink:href="#K" x="568.271" y="-173.25"/><use xlink:href="#L" x="589.729" y="-173.25"/><use xlink:href="#L" x="579" y="-173.25"/><use xlink:href="#L" x="568.272" y="-173.25"/><use xlink:href="#M" x="589.73" y="-173.25"/><use xlink:href="#M" x="579" y="-173.25"/><use xlink:href="#K" x="503.895" y="-173.25"/><use xlink:href="#L" x="525.354" y="-173.25"/><path d="M876.073 391.083c.592 0 1.073-.48 1.073-1.073s-.48-1.072-1.073-1.072S875 389.418 875 390s.48 1.073 1.073 1.073z"/><use xlink:href="#a"/><use xlink:href="#b"/><use xlink:href="#c"/><use xlink:href="#c" x="-10.73"/><use xlink:href="#c" x="-21.47"/><use xlink:href="#c" x="-32.19"/><use xlink:href="#c" x="-42.92"/><use xlink:href="#d"/><use xlink:href="#F" x="632.646" y="-248.354"/><use xlink:href="#G" x="654.104" y="-248.354"/><use xlink:href="#E" x="579" y="-248.354"/><use xlink:href="#E" x="568.271" y="-248.354"/><use xlink:href="#F" x="589.729" y="-248.354"/><use xlink:href="#F" x="579" y="-248.354"/><use xlink:href="#F" x="568.272" y="-248.354"/><use xlink:href="#G" x="589.73" y="-248.354"/><use xlink:href="#G" x="579" y="-248.354"/><use xlink:href="#E" x="503.895" y="-248.354"/><use xlink:href="#F" x="525.354" y="-248.354"/><use xlink:href="#F" x="514.625" y="-248.354"/><use xlink:href="#N" y="-64.375"/><use xlink:href="#O" y="-64.375"/><use xlink:href="#P" y="-64.375"/><use xlink:href="#P" x="-10.73" y="-64.375"/><use xlink:href="#P" x="-21.47" y="-64.375"/><use xlink:href="#P" x="-32.19" y="-64.375"/><use xlink:href="#P" x="-42.92" y="-64.375"/><use xlink:href="#Q" y="-64.375"/><use xlink:href="#F" x="632.646" y="-259.083"/><use xlink:href="#G" x="654.104" y="-259.083"/><use xlink:href="#E" x="579" y="-259.083"/><use xlink:href="#E" x="568.271" y="-259.083"/><use xlink:href="#F" x="589.729" y="-259.083"/><use xlink:href="#F" x="579" y="-259.083"/><use xlink:href="#F" x="568.272" y="-259.083"/><use xlink:href="#G" x="589.73" y="-259.083"/><use xlink:href="#G" x="579" y="-259.083"/><use xlink:href="#E" x="503.895" y="-259.083"/><use xlink:href="#F" x="525.354" y="-259.083"/><use xlink:href="#F" x="514.625" y="-259.083"/><use xlink:href="#R" y="-64.374"/><use xlink:href="#S" y="-64.374"/><use xlink:href="#T" y="-64.374"/><use xlink:href="#T" x="-10.73" y="-64.374"/><use xlink:href="#T" x="-21.47" y="-64.374"/><use xlink:href="#T" x="-32.19" y="-64.374"/><use xlink:href="#T" x="-42.92" y="-64.374"/><use xlink:href="#U" y="-64.374"/><use xlink:href="#F" x="632.646" y="-269.812"/><use xlink:href="#G" x="654.104" y="-269.812"/><use xlink:href="#E" x="579" y="-269.812"/><use xlink:href="#E" x="568.271" y="-269.812"/><use xlink:href="#F" x="589.729" y="-269.812"/><use xlink:href="#F" x="579" y="-269.812"/><use xlink:href="#F" x="568.272" y="-269.812"/><use xlink:href="#G" x="589.73" y="-269.812"/><use xlink:href="#G" x="579" y="-269.812"/><use xlink:href="#E" x="503.895" y="-269.812"/><use xlink:href="#F" x="525.354" y="-269.812"/><use xlink:href="#F" x="514.625" y="-269.812"/><use xlink:href="#R" y="-75.103"/><use xlink:href="#S" y="-75.103"/><use xlink:href="#T" y="-75.103"/><use xlink:href="#T" x="-10.73" y="-75.103"/><use xlink:href="#T" x="-21.47" y="-75.103"/><use xlink:href="#T" x="-32.19" y="-75.103"/><use xlink:href="#T" x="-42.92" y="-75.103"/><use xlink:href="#U" y="-75.103"/><use xlink:href="#F" x="632.646" y="-280.541"/><use xlink:href="#G" x="654.104" y="-280.541"/><use xlink:href="#E" x="579" y="-280.541"/><use xlink:href="#E" x="568.271" y="-280.541"/><use xlink:href="#F" x="589.729" y="-280.541"/><use xlink:href="#F" x="579" y="-280.541"/><use xlink:href="#F" x="568.272" y="-280.541"/><use xlink:href="#G" x="589.73" y="-280.541"/><use xlink:href="#G" x="579" y="-280.541"/><use xlink:href="#E" x="503.895" y="-280.541"/><use xlink:href="#F" x="525.354" y="-280.541"/><use xlink:href="#F" x="514.625" y="-280.541"/><use xlink:href="#V" y="-64.375"/><use xlink:href="#W" y="-64.375"/><use xlink:href="#X" y="-64.375"/><use xlink:href="#X" x="-10.73" y="-64.375"/><use xlink:href="#X" x="-21.47" y="-64.375"/><use xlink:href="#X" x="-32.19" y="-64.375"/><use xlink:href="#X" x="-42.92" y="-64.375"/><use xlink:href="#Y" y="-64.375"/><use xlink:href="#I" x="632.646" y="-237.625"/><use xlink:href="#J" x="654.104" y="-237.625"/><use xlink:href="#H" x="579" y="-237.625"/><use xlink:href="#H" x="568.271" y="-237.625"/><use xlink:href="#I" x="589.729" y="-237.625"/><use xlink:href="#I" x="579" y="-237.625"/><use xlink:href="#I" x="568.272" y="-237.625"/><use xlink:href="#J" x="589.73" y="-237.625"/><use xlink:href="#J" x="579" y="-237.625"/><use xlink:href="#H" x="503.895" y="-237.625"/><use xlink:href="#I" x="525.354" y="-237.625"/><use xlink:href="#I" x="514.625" y="-237.625"/><use xlink:href="#a" y="-53.646"/><use xlink:href="#b" y="-53.646"/><use xlink:href="#c" y="-53.646"/><use xlink:href="#c" x="-10.73" y="-53.646"/><use xlink:href="#c" x="-21.47" y="-53.646"/><use xlink:href="#c" x="-32.19" y="-53.646"/><use xlink:href="#c" x="-42.92" y="-53.646"/><use xlink:href="#d" y="-53.646"/><use xlink:href="#F" x="632.646" y="-302"/><use xlink:href="#G" x="654.104" y="-302"/><use xlink:href="#E" x="579" y="-302"/><use xlink:href="#E" x="568.271" y="-302"/><use xlink:href="#F" x="589.729" y="-302"/><use xlink:href="#F" x="579" y="-302"/><use xlink:href="#F" x="568.272" y="-302"/><use xlink:href="#G" x="589.73" y="-302"/><use xlink:href="#G" x="579" y="-302"/><use xlink:href="#E" x="503.895" y="-302"/><use xlink:href="#F" x="525.354" y="-302"/><use xlink:href="#F" x="514.625" y="-302"/><use xlink:href="#a" y="-64.374"/><use xlink:href="#b" y="-64.374"/><use xlink:href="#c" y="-64.374"/><use xlink:href="#c" x="-10.73" y="-64.374"/><use xlink:href="#c" x="-21.47" y="-64.374"/><use xlink:href="#c" x="-32.19" y="-64.374"/><use xlink:href="#c" x="-42.92" y="-64.374"/><use xlink:href="#d" y="-64.374"/><use xlink:href="#F" x="632.646" y="-312.728"/><use xlink:href="#G" x="654.104" y="-312.728"/><use xlink:href="#E" x="579" y="-312.728"/><use xlink:href="#E" x="568.271" y="-312.728"/><use xlink:href="#F" x="589.729" y="-312.728"/><use xlink:href="#F" x="579" y="-312.728"/><use xlink:href="#F" x="568.272" y="-312.728"/><use xlink:href="#G" x="589.73" y="-312.728"/><use xlink:href="#G" x="579" y="-312.728"/><use xlink:href="#E" x="503.895" y="-312.728"/><use xlink:href="#F" x="525.354" y="-312.728"/><use xlink:href="#F" x="514.625" y="-312.728"/><use xlink:href="#N" y="-128.75"/><use xlink:href="#O" y="-128.75"/><use xlink:href="#P" y="-128.75"/><use xlink:href="#P" x="-10.73" y="-128.75"/><use xlink:href="#P" x="-21.47" y="-128.75"/><use xlink:href="#P" x="-32.19" y="-128.75"/><use xlink:href="#P" x="-42.92" y="-128.75"/><use xlink:href="#Q" y="-128.75"/><use xlink:href="#F" x="632.646" y="-323.458"/><use xlink:href="#G" x="654.104" y="-323.458"/><use xlink:href="#E" x="579" y="-323.458"/><use xlink:href="#E" x="568.271" y="-323.458"/><use xlink:href="#F" x="589.729" y="-323.458"/><use xlink:href="#F" x="579" y="-323.458"/><use xlink:href="#F" x="568.272" y="-323.458"/><use xlink:href="#G" x="589.73" y="-323.458"/><use xlink:href="#G" x="579" y="-323.458"/><use xlink:href="#E" x="503.895" y="-323.458"/><use xlink:href="#F" x="525.354" y="-323.458"/><use xlink:href="#F" x="514.625" y="-323.458"/><use xlink:href="#R" y="-128.75"/><use xlink:href="#S" y="-128.75"/><use xlink:href="#T" y="-128.75"/><use xlink:href="#T" x="-10.73" y="-128.75"/><use xlink:href="#T" x="-21.47" y="-128.75"/><use xlink:href="#T" x="-32.19" y="-128.75"/><use xlink:href="#T" x="-42.92" y="-128.75"/><use xlink:href="#U" y="-128.75"/><use xlink:href="#F" x="632.646" y="-334.188"/><use xlink:href="#G" x="654.104" y="-334.188"/><use xlink:href="#E" x="579" y="-334.188"/><use xlink:href="#E" x="568.271" y="-334.188"/><use xlink:href="#F" x="589.729" y="-334.188"/><use xlink:href="#F" x="579" y="-334.188"/><use xlink:href="#F" x="568.272" y="-334.188"/><use xlink:href="#G" x="589.73" y="-334.188"/><use xlink:href="#G" x="579" y="-334.188"/><use xlink:href="#E" x="503.895" y="-334.188"/><use xlink:href="#F" x="525.354" y="-334.188"/><use xlink:href="#F" x="514.625" y="-334.188"/><use xlink:href="#R" y="-139.478"/><use xlink:href="#S" y="-139.478"/><use xlink:href="#T" y="-139.478"/><use xlink:href="#T" x="-10.73" y="-139.478"/><use xlink:href="#T" x="-21.47" y="-139.478"/><use xlink:href="#T" x="-32.19" y="-139.478"/><use xlink:href="#T" x="-42.92" y="-139.478"/><use xlink:href="#U" y="-139.478"/><use xlink:href="#F" x="632.646" y="-344.916"/><use xlink:href="#G" x="654.104" y="-344.916"/><use xlink:href="#E" x="579" y="-344.916"/><use xlink:href="#E" x="568.271" y="-344.916"/><use xlink:href="#F" x="589.729" y="-344.916"/><use xlink:href="#F" x="579" y="-344.916"/><use xlink:href="#F" x="568.272" y="-344.916"/><use xlink:href="#G" x="589.73" y="-344.916"/><use xlink:href="#G" x="579" y="-344.916"/><use xlink:href="#E" x="503.895" y="-344.916"/><use xlink:href="#F" x="525.354" y="-344.916"/><use xlink:href="#F" x="514.625" y="-344.916"/><use xlink:href="#V" y="-128.75"/><use xlink:href="#W" y="-128.75"/><use xlink:href="#X" y="-128.75"/><use xlink:href="#X" x="-10.73" y="-128.75"/><use xlink:href="#X" x="-21.47" y="-128.75"/><use xlink:href="#X" x="-32.19" y="-128.75"/><use xlink:href="#X" x="-42.92" y="-128.75"/><use xlink:href="#Y" y="-128.75"/><use xlink:href="#I" x="632.646" y="-302"/><use xlink:href="#J" x="654.104" y="-302"/><use xlink:href="#H" x="579" y="-302"/><use xlink:href="#H" x="568.271" y="-302"/><use xlink:href="#I" x="589.729" y="-302"/><use xlink:href="#I" x="579" y="-302"/><use xlink:href="#I" x="568.272" y="-302"/><use xlink:href="#J" x="589.73" y="-302"/><use xlink:href="#J" x="579" y="-302"/><use xlink:href="#H" x="503.895" y="-302"/><use xlink:href="#I" x="525.354" y="-302"/><path d="M876.073 273.062c.592 0 1.073-.48 1.073-1.072s-.48-1.073-1.073-1.073S875 271.397 875 272s.48 1.072 1.073 1.072zm203.857-10.73a1.073 1.073 0 0 0 0-2.145c-.6 0-1.08.48-1.08 1.072s.48 1.073 1.08 1.073z"/><use xlink:href="#Z" y="-128.75"/><use xlink:href="#X" y="-139.479"/><use xlink:href="#X" x="-10.73" y="-139.479"/><use xlink:href="#X" x="-21.47" y="-139.479"/><use xlink:href="#X" x="-32.19" y="-139.479"/><use xlink:href="#X" x="-42.92" y="-139.479"/><path d="M1004.82 262.333c.6 0 1.08-.48 1.08-1.073s-.48-1.072-1.08-1.072a1.07 1.07 0 0 0 0 2.145z"/><use xlink:href="#L" x="632.646" y="-302"/><use xlink:href="#M" x="654.104" y="-302"/><use xlink:href="#K" x="579" y="-302"/><use xlink:href="#K" x="568.271" y="-302"/><use xlink:href="#L" x="589.729" y="-302"/><use xlink:href="#L" x="579" y="-302"/><use xlink:href="#L" x="568.272" y="-302"/><use xlink:href="#M" x="589.73" y="-302"/><use xlink:href="#M" x="579" y="-302"/><use xlink:href="#K" x="503.895" y="-302"/><use xlink:href="#L" x="525.354" y="-302"/><use xlink:href="#L" x="514.625" y="-302"/><use xlink:href="#a" y="-128.75"/><use xlink:href="#b" y="-128.75"/><use xlink:href="#c" y="-128.75"/><use xlink:href="#c" x="-10.73" y="-128.75"/><use xlink:href="#c" x="-21.47" y="-128.75"/><use xlink:href="#c" x="-32.19" y="-128.75"/><use xlink:href="#c" x="-42.92" y="-128.75"/><use xlink:href="#d" y="-128.75"/><use xlink:href="#F" x="632.646" y="-377.104"/><use xlink:href="#G" x="654.104" y="-377.104"/><use xlink:href="#E" x="579" y="-377.104"/><use xlink:href="#E" x="568.271" y="-377.104"/><use xlink:href="#F" x="589.729" y="-377.104"/><use xlink:href="#F" x="579" y="-377.104"/><use xlink:href="#F" x="568.272" y="-377.104"/><use xlink:href="#G" x="589.73" y="-377.104"/><use xlink:href="#G" x="579" y="-377.104"/><use xlink:href="#E" x="503.895" y="-377.104"/><use xlink:href="#F" x="525.354" y="-377.104"/><use xlink:href="#F" x="514.625" y="-377.104"/><path d="M1079.93 240.875a1.073 1.073 0 0 0 0-2.146c-.6 0-1.08.48-1.08 1.073s.48 1.073 1.08 1.073zm-10.73 0a1.073 1.073 0 0 0 0-2.146 1.08 1.08 0 0 0-1.08 1.073 1.08 1.08 0 0 0 1.08 1.073z"/><use xlink:href="#e"/><use xlink:href="#e" x="-10.73"/><use xlink:href="#e" x="-21.47"/><use xlink:href="#e" x="-32.19"/><use xlink:href="#e" x="-42.92"/><path d="M1004.82 240.875c.6 0 1.08-.48 1.08-1.073s-.48-1.073-1.08-1.073a1.07 1.07 0 0 0 0 2.146z"/><use xlink:href="#F" x="632.646" y="-387.833"/><use xlink:href="#G" x="654.104" y="-387.833"/><use xlink:href="#E" x="579" y="-387.833"/><use xlink:href="#E" x="568.271" y="-387.833"/><use xlink:href="#F" x="589.729" y="-387.833"/><use xlink:href="#F" x="579" y="-387.833"/><use xlink:href="#F" x="568.272" y="-387.833"/><use xlink:href="#G" x="589.73" y="-387.833"/><use xlink:href="#G" x="579" y="-387.833"/><use xlink:href="#E" x="503.895" y="-387.833"/><use xlink:href="#F" x="525.354" y="-387.833"/><use xlink:href="#F" x="514.625" y="-387.833"/><use xlink:href="#R" y="-193.124"/><use xlink:href="#S" y="-193.124"/><use xlink:href="#T" y="-193.124"/><use xlink:href="#T" x="-10.73" y="-193.124"/><use xlink:href="#T" x="-21.47" y="-193.124"/><use xlink:href="#T" x="-32.19" y="-193.124"/><use xlink:href="#T" x="-42.92" y="-193.124"/><use xlink:href="#U" y="-193.124"/><use xlink:href="#F" x="632.646" y="-398.562"/><use xlink:href="#G" x="654.104" y="-398.562"/><use xlink:href="#E" x="579" y="-398.562"/><path d="M961.906 230.146c.593 0 1.073-.48 1.073-1.073S962.5 228 961.906 228s-1.073.48-1.073 1.073.48 1.073 1.073 1.073z"/><use xlink:href="#F" x="589.729" y="-398.562"/><use xlink:href="#F" x="579" y="-398.562"/><path d="M929.72 230.146c.592 0 1.073-.48 1.073-1.073S930.31 228 929.72 228s-1.073.48-1.073 1.073.48 1.073 1.073 1.073z"/><use xlink:href="#G" x="589.73" y="-398.562"/><use xlink:href="#G" x="579" y="-398.562"/><use xlink:href="#E" x="503.895" y="-398.562"/><use xlink:href="#F" x="525.354" y="-398.562"/><use xlink:href="#F" x="514.625" y="-398.562"/></g></g></g></g><defs><linearGradient id="D" x1="1177.41" y1="1528.81" x2="2207.51" y2="-721.198" gradientUnits="userSpaceOnUse"><stop stop-color="#f1f4ff"/><stop offset=".295" stop-color="#f8faff"/><stop offset="1" stop-color="#fff"/></linearGradient><path id="E" d="M393.635 628.708c.593 0 1.073-.48 1.073-1.073s-.48-1.073-1.073-1.073-1.073.48-1.073 1.073.48 1.073 1.073 1.073z"/><path id="F" d="M361.448 628.708c.592 0 1.073-.48 1.073-1.073s-.48-1.073-1.073-1.073-1.073.48-1.073 1.073.48 1.073 1.073 1.073z"/><path id="G" d="M329.26 628.708c.593 0 1.073-.48 1.073-1.073s-.48-1.073-1.073-1.073-1.072.48-1.072 1.073.48 1.073 1.072 1.073z"/><path id="H" d="M393.635 575.062c.593 0 1.073-.48 1.073-1.072s-.48-1.073-1.073-1.073-1.073.48-1.073 1.073.48 1.072 1.073 1.072z"/><path id="I" d="M361.448 575.062c.592 0 1.073-.48 1.073-1.072s-.48-1.073-1.073-1.073-1.073.48-1.073 1.073.48 1.072 1.073 1.072z"/><path id="J" d="M329.26 575.062c.593 0 1.073-.48 1.073-1.072s-.48-1.073-1.073-1.073-1.072.48-1.072 1.073a1.07 1.07 0 0 0 1.072 1.072z"/><path id="K" d="M393.635 564.333c.593 0 1.073-.48 1.073-1.073s-.48-1.072-1.073-1.072-1.073.48-1.073 1.072.48 1.073 1.073 1.073z"/><path id="L" d="M361.448 564.333c.592 0 1.073-.48 1.073-1.073s-.48-1.072-1.073-1.072-1.073.48-1.073 1.072.48 1.073 1.073 1.073z"/><path id="M" d="M329.26 564.333c.593 0 1.073-.48 1.073-1.073s-.48-1.072-1.073-1.072a1.07 1.07 0 0 0-1.072 1.072c0 .593.48 1.073 1.072 1.073z"/><path id="N" d="M1079.93 434a1.07 1.07 0 1 0 0-2.146c-.6 0-1.08.48-1.08 1.073s.48 1.073 1.08 1.073z"/><path id="O" d="M1069.2 434a1.07 1.07 0 1 0 0-2.146 1.08 1.08 0 0 0-1.08 1.073 1.08 1.08 0 0 0 1.08 1.073z"/><path id="P" d="M1058.47 434a1.07 1.07 0 1 0 0-2.146 1.07 1.07 0 1 0 0 2.146z"/><path id="Q" d="M1004.82 434c.6 0 1.08-.48 1.08-1.073s-.48-1.073-1.08-1.073a1.07 1.07 0 1 0 0 2.146z"/><path id="R" d="M1079.93 423.27c.6 0 1.07-.48 1.07-1.073a1.07 1.07 0 0 0-1.07-1.073c-.6 0-1.08.48-1.08 1.073s.48 1.073 1.08 1.073z"/><path id="S" d="M1069.2 423.27c.6 0 1.07-.48 1.07-1.073a1.07 1.07 0 0 0-1.07-1.073 1.08 1.08 0 0 0-1.08 1.073 1.08 1.08 0 0 0 1.08 1.073z"/><path id="T" d="M1058.47 423.27c.6 0 1.07-.48 1.07-1.073a1.07 1.07 0 1 0-2.14 0c0 .592.48 1.073 1.07 1.073z"/><path id="U" d="M1004.82 423.27c.6 0 1.08-.48 1.08-1.073s-.48-1.073-1.08-1.073a1.07 1.07 0 0 0-1.07 1.073c0 .592.48 1.073 1.07 1.073z"/><path id="V" d="M1079.93 401.812a1.07 1.07 0 0 0 0-2.145c-.6 0-1.08.48-1.08 1.073s.48 1.072 1.08 1.072z"/><path id="W" d="M1069.2 401.812a1.07 1.07 0 0 0 0-2.145 1.08 1.08 0 0 0-1.08 1.073 1.08 1.08 0 0 0 1.08 1.072z"/><path id="X" d="M1058.47 401.812a1.07 1.07 0 0 0 0-2.145 1.07 1.07 0 0 0 0 2.145z"/><path id="Y" d="M1004.82 401.812c.6 0 1.08-.48 1.08-1.072s-.48-1.073-1.08-1.073a1.07 1.07 0 0 0 0 2.145z"/><path id="Z" d="M1069.2 391.083a1.07 1.07 0 0 0 0-2.145 1.08 1.08 0 0 0-1.08 1.072 1.08 1.08 0 0 0 1.08 1.073z"/><path id="a" d="M1079.93 380.354a1.07 1.07 0 0 0 1.07-1.073c0-.592-.48-1.073-1.07-1.073-.6 0-1.08.48-1.08 1.073s.48 1.073 1.08 1.073z"/><path id="b" d="M1069.2 380.354a1.07 1.07 0 0 0 1.07-1.073c0-.592-.48-1.073-1.07-1.073a1.08 1.08 0 0 0-1.08 1.073 1.08 1.08 0 0 0 1.08 1.073z"/><path id="c" d="M1058.47 380.354a1.07 1.07 0 0 0 1.07-1.073c0-.592-.48-1.073-1.07-1.073s-1.07.48-1.07 1.073a1.07 1.07 0 0 0 1.07 1.073z"/><path id="d" d="M1004.82 380.354c.6 0 1.08-.48 1.08-1.073s-.48-1.073-1.08-1.073c-.6 0-1.07.48-1.07 1.073a1.07 1.07 0 0 0 1.07 1.073z"/><path id="e" d="M1058.47 240.875a1.07 1.07 0 0 0 0-2.146 1.07 1.07 0 0 0 0 2.146z"/></defs></svg>