<svg xmlns="http://www.w3.org/2000/svg" width="1920" height="810" fill="none"><g fill-rule="evenodd"><path d="M0 810h782.5L1920 551.5V0H0v810z" fill="url(#A)"/><path d="M1705 357.5c0 147.184-119.32 266.5-266.5 266.5S1172 504.684 1172 357.5 1291.32 91 1438.5 91 1705 210.316 1705 357.5zm-535.62 366.294l671.12-154.046c33.52-63.354 52.5-135.584 52.5-212.248 0-145.08-67.98-274.286-173.82-357.5h-561.36C1051.98 83.214 984 212.42 984 357.5c0 150.296 72.95 283.554 185.38 366.294z" fill="url(#B)"/><path d="M416.978 0C405.08 136.177 290.765 243 151.5 243 95.22 243 43.017 225.555 0 195.778v209.36C47.386 421.887 98.38 431 151.5 431c243.132 0 441.674-190.908 453.903-431H416.978z" fill="url(#C)"/></g><defs><linearGradient id="A" x1="1454.41" y1="1542.89" x2="2483.49" y2="-706.242" gradientUnits="userSpaceOnUse"><stop stop-color="#f1f4ff"/><stop offset=".295" stop-color="#f8faff"/><stop offset="1" stop-color="#fff"/></linearGradient><linearGradient id="B" x1="1438.5" y1="0" x2="1438.5" y2="723.794" gradientUnits="userSpaceOnUse"><stop stop-color="#fafcff"/><stop offset=".922" stop-color="#eff3ff"/></linearGradient><linearGradient id="C" x1="302.701" y1="0" x2="302.701" y2="431" gradientUnits="userSpaceOnUse"><stop stop-color="#fafcff"/><stop offset="1" stop-color="#f1f4ff"/></linearGradient></defs></svg>