<svg enable-background="new 0 0 1920 720" viewBox="0 0 1920 720" xmlns="http://www.w3.org/2000/svg" xmlns:xlink="http://www.w3.org/1999/xlink"><clipPath id="a"><path d="m0 0h1920.1v720.3h-1920.1z"/></clipPath><linearGradient id="b" gradientUnits="userSpaceOnUse" x1="1030.483" x2="708.1869" y1="948.3578" y2="-332.5103"><stop offset=".2625" stop-color="#ffc388"/><stop offset=".3318" stop-color="#e5a2af"/><stop offset=".4283" stop-color="#c479e1"/><stop offset=".4761" stop-color="#b769f4"/><stop offset=".4844" stop-color="#b467f1"/><stop offset=".6468" stop-color="#7d4cc4"/><stop offset=".7867" stop-color="#5538a3"/><stop offset=".8972" stop-color="#3c2c8e"/><stop offset=".9647" stop-color="#332787"/></linearGradient><linearGradient id="c" gradientUnits="userSpaceOnUse" x1="1007.5961" x2="811.459" y1="840.6566" y2="-479.5461"><stop offset=".2514" stop-color="#fa8"/><stop offset=".2993" stop-color="#e592af"/><stop offset=".3661" stop-color="#c475e1"/><stop offset=".3991" stop-color="#b769f4"/><stop offset=".4059" stop-color="#b467f1"/><stop offset=".5368" stop-color="#7d4cc4"/><stop offset=".6496" stop-color="#5538a3"/><stop offset=".7387" stop-color="#3c2c8e"/><stop offset=".7931" stop-color="#332787"/></linearGradient><linearGradient id="d"><stop offset=".2015" stop-color="#1a1468"/><stop offset="1" stop-color="#1a1468" stop-opacity="0"/></linearGradient><linearGradient id="e" gradientTransform="matrix(.9886 -.1504 .1504 .9886 -252.2185 -376.1834)" gradientUnits="userSpaceOnUse" x1="1138.4232" x2="1138.4232" xlink:href="#d" y1="786.5197" y2="852.726"/><linearGradient id="f" gradientUnits="userSpaceOnUse" x1="265.8692" x2="265.8692" xlink:href="#d" y1="-200.5284" y2="244.8164"/><linearGradient id="g" gradientUnits="userSpaceOnUse" x1="107.4819" x2="107.4819" xlink:href="#d" y1="182.9841" y2="340.8909"/><linearGradient id="h" gradientTransform="matrix(.9923 -.1242 .1242 .9923 352.5318 -85.094)" gradientUnits="userSpaceOnUse" x1="-187.5618" x2="-187.5618" y1="217.4577" y2="627.3531"><stop offset=".2015" stop-color="#4b2395"/><stop offset="1" stop-color="#4b2395" stop-opacity="0"/></linearGradient><linearGradient id="i"><stop offset="0" stop-color="#b669d6" stop-opacity="0"/><stop offset="1" stop-color="#0c051e"/></linearGradient><linearGradient id="j" gradientTransform="matrix(.9994 .03350958 -.03350958 .9994 80.3221 97.4374)" gradientUnits="userSpaceOnUse" x1="674.9727" x2="674.9727" xlink:href="#i" y1="354.8456" y2="290.1765"/><linearGradient id="k"><stop offset="0" stop-color="#ff76ef" stop-opacity="0"/><stop offset="1" stop-color="#ff76ef"/></linearGradient><linearGradient id="l" gradientTransform="matrix(.991 -.1338 .1338 .991 -311.437 -332.7597)" gradientUnits="userSpaceOnUse" x1="424.6776" x2="424.6776" xlink:href="#k" y1="807.5891" y2="987.0183"/><linearGradient id="m" gradientTransform="matrix(.991 -.1338 .224 1.6597 -549.2313 -2094.6062)" gradientUnits="userSpaceOnUse" x1="552.4702" x2="552.4702" xlink:href="#k" y1="1462.0038" y2="1604.5471"/><linearGradient id="n" gradientTransform="matrix(.991 -.1338 .1176 .8714 -268.8995 -17.5947)" gradientUnits="userSpaceOnUse" x1="756.7883" x2="756.7883" xlink:href="#k" y1="603.3198" y2="768.6089"/><linearGradient id="o" gradientTransform="matrix(.991 -.1338 .1888 1.3986 -456.3893 -1406.7289)" gradientUnits="userSpaceOnUse" x1="841.324" x2="841.324" xlink:href="#k" y1="1287.1294" y2="1527.0531"/><linearGradient id="p" gradientTransform="matrix(.991 -.1338 .1871 1.3859 -451.8669 -1373.2218)" gradientUnits="userSpaceOnUse" x1="644.5911" x2="644.5911" xlink:href="#k" y1="1274.774" y2="1473.5881"/><linearGradient id="q" gradientTransform="matrix(.991 -.1338 .1338 .991 -311.437 -332.7597)" gradientUnits="userSpaceOnUse" x1="997.1945" x2="997.1945" xlink:href="#k" y1="822.061" y2="982.3947"/><linearGradient id="r"><stop offset=".227" stop-color="#674cc4" stop-opacity="0"/><stop offset=".8837" stop-color="#674cc4" stop-opacity=".8"/></linearGradient><linearGradient id="s" gradientTransform="matrix(.991 -.1338 .3995 2.9601 -1011.6377 -5520.6313)" gradientUnits="userSpaceOnUse" x1="1051.9188" x2="1051.9188" xlink:href="#r" y1="2015.7405" y2="2085.3984"/><linearGradient id="t" gradientTransform="matrix(.991 -.1338 .1338 .991 -311.437 -332.7597)" gradientUnits="userSpaceOnUse" x1="367.8779" x2="367.8779" xlink:href="#k" y1="900.9987" y2="957.1749"/><linearGradient id="u" gradientTransform="matrix(-.991 .1338 .1338 .991 -12483.4893 1310.0873)" gradientUnits="userSpaceOnUse" x1="-12981.9033" x2="-12981.9033" y1="1038.0854" y2="855.8056"><stop offset=".003836464" stop-color="#b669d6"/><stop offset="1" stop-color="#0c051e"/></linearGradient><linearGradient id="v"><stop offset="0" stop-color="#b669d6"/><stop offset="1" stop-color="#4b2395"/></linearGradient><linearGradient id="w" gradientTransform="matrix(-.991 .1338 .1338 .991 -12483.4893 1310.0873)" gradientUnits="userSpaceOnUse" x1="-12981.8896" x2="-12981.8896" xlink:href="#v" y1="805.8776" y2="869.6557"/><linearGradient id="x"><stop offset="0" stop-color="#4b2395" stop-opacity="0"/><stop offset="1" stop-color="#0c051e"/></linearGradient><linearGradient id="y" gradientTransform="matrix(.991 -.1338 .1338 .991 -311.437 -332.7597)" gradientUnits="userSpaceOnUse" x1="919.2962" x2="919.2962" xlink:href="#x" y1="946.3741" y2="784.9523"/><linearGradient id="z" gradientTransform="matrix(.9994 .03350958 -.03350958 .9994 80.3221 97.4374)" gradientUnits="userSpaceOnUse" x1="618.7347" x2="618.7347" xlink:href="#i" y1="337.5039" y2="238.9749"/><linearGradient id="A"><stop offset="0" stop-color="#4b2395"/><stop offset="1" stop-color="#0c051e"/></linearGradient><linearGradient id="B" gradientTransform="matrix(.991 -.1338 .1338 .991 -311.437 -332.7597)" gradientUnits="userSpaceOnUse" x1="734.0467" x2="734.0467" xlink:href="#A" y1="944.61" y2="890.0626"/><linearGradient id="C"><stop offset="0" stop-color="#37135f" stop-opacity="0"/><stop offset="1" stop-color="#37135f"/></linearGradient><linearGradient id="D" gradientTransform="matrix(.991 -.1338 .1338 .991 -311.437 -332.7597)" gradientUnits="userSpaceOnUse" x1="962.7941" x2="962.7941" xlink:href="#C" y1="945.096" y2="891.7082"/><linearGradient id="E" gradientTransform="matrix(.991 -.1338 .1338 .991 -311.437 -332.7597)" gradientUnits="userSpaceOnUse" x1="451.2625" x2="451.2625" xlink:href="#x" y1="944.9026" y2="898.2925"/><linearGradient id="F" gradientTransform="matrix(.991 -.1338 .1338 .991 -311.437 -332.7597)" gradientUnits="userSpaceOnUse" x1="1016.24" x2="1016.24" xlink:href="#C" y1="943.8988" y2="897.2979"/><linearGradient id="G"><stop offset="0" stop-color="#4b2395" stop-opacity="0"/><stop offset="1" stop-color="#37135f"/></linearGradient><linearGradient id="H" gradientTransform="matrix(.991 -.1338 .1338 .991 -311.437 -332.7597)" gradientUnits="userSpaceOnUse" x1="968.5635" x2="968.5635" xlink:href="#G" y1="957.4441" y2="919.9687"/><linearGradient id="I"><stop offset="0" stop-color="#b669d6" stop-opacity="0"/><stop offset="1" stop-color="#37135f"/></linearGradient><linearGradient id="J" gradientTransform="matrix(.991 -.1338 .1338 .991 -311.437 -332.7597)" gradientUnits="userSpaceOnUse" x1="624.2428" x2="624.2428" xlink:href="#I" y1="932.8489" y2="892.051"/><linearGradient id="K" gradientTransform="matrix(.991 -.1338 .1338 .991 -311.437 -332.7597)" gradientUnits="userSpaceOnUse" x1="807.7701" x2="807.7701" xlink:href="#I" y1="926.9132" y2="889.3892"/><linearGradient id="L" gradientTransform="matrix(.991 -.1338 .1338 .991 -311.437 -332.7597)" gradientUnits="userSpaceOnUse" x1="883.0164" x2="883.0164" y1="939.506" y2="866.2832"><stop offset="0" stop-color="#4b2395"/><stop offset="1" stop-color="#37135f"/></linearGradient><linearGradient id="M" gradientTransform="matrix(.991 -.1338 .1338 .991 -311.437 -332.7597)" gradientUnits="userSpaceOnUse" x1="893.1715" x2="893.1715" xlink:href="#v" y1="880.8169" y2="954.0397"/><linearGradient id="N" gradientTransform="matrix(.991 -.1338 .1338 .991 -311.437 -332.7597)" gradientUnits="userSpaceOnUse" x1="805.3437" x2="798.7521" y1="969.7684" y2="934.3656"><stop offset="0" stop-color="#b669d6"/><stop offset="1" stop-color="#0c051e"/></linearGradient><linearGradient id="O" gradientTransform="matrix(.991 -.1338 .1338 .991 -311.437 -332.7597)" gradientUnits="userSpaceOnUse" x1="787.6362" x2="787.6362" xlink:href="#A" y1="912.6682" y2="930.7598"/><linearGradient id="P" gradientTransform="matrix(.991 -.1338 .1338 .991 -311.437 -332.7597)" gradientUnits="userSpaceOnUse" x1="506.928" x2="506.928" xlink:href="#G" y1="946.7993" y2="853.8148"/><linearGradient id="Q" gradientTransform="matrix(.991 -.1338 .1338 .991 -311.437 -332.7597)" gradientUnits="userSpaceOnUse" x1="532.044" x2="532.044" xlink:href="#i" y1="938.9217" y2="854.4651"/><linearGradient id="R" gradientTransform="matrix(.991 -.1338 .1338 .991 -1217.3938 -210.4839)" gradientUnits="userSpaceOnUse" x1="1495.9456" x2="1495.9456" y1="920.1394" y2="869.7633"><stop offset=".002682718" stop-color="#0c051e"/><stop offset="1" stop-color="#37135f"/></linearGradient><linearGradient id="S" gradientTransform="matrix(.991 -.1338 .1338 .991 -1217.3938 -210.4839)" gradientUnits="userSpaceOnUse" x1="1502.8264" x2="1502.8264" xlink:href="#v" y1="854.7341" y2="937.1913"/><linearGradient id="T" gradientTransform="matrix(-.991 .1338 .1338 .991 -13698.0957 1474.0212)" gradientUnits="userSpaceOnUse" x1="-14068.3301" x2="-14076.5088" y1="889.8387" y2="867.71"><stop offset="0" stop-color="#b669d6"/><stop offset="1" stop-color="#37135f"/></linearGradient><linearGradient id="U" gradientTransform="matrix(.991 -.1338 .1338 .991 -311.437 -332.7597)" gradientUnits="userSpaceOnUse" x1="640.213" x2="640.213" y1="951.6608" y2="905.9321"><stop offset="0" stop-color="#b669d6"/><stop offset=".1389" stop-color="#9351b5"/><stop offset=".2976" stop-color="#723b96"/><stop offset=".4611" stop-color="#58297e"/><stop offset=".6293" stop-color="#461d6d"/><stop offset=".8049" stop-color="#3b1562"/><stop offset="1" stop-color="#37135f"/></linearGradient><linearGradient id="V" gradientTransform="matrix(.991 -.1338 .1338 .991 -311.437 -332.7597)" gradientUnits="userSpaceOnUse" x1="604.9897" x2="604.9897" y1="944.7726" y2="902.4073"><stop offset="0" stop-color="#b669d6"/><stop offset=".009120822" stop-color="#b367d2"/><stop offset=".1384" stop-color="#874da3"/><stop offset=".2716" stop-color="#61377a"/><stop offset=".407" stop-color="#422559"/><stop offset=".5451" stop-color="#2a173f"/><stop offset=".6871" stop-color="#190d2d"/><stop offset=".8353" stop-color="#0f0722"/><stop offset="1" stop-color="#0c051e"/></linearGradient><linearGradient id="W" gradientTransform="matrix(.991 -.1338 .1338 .991 -311.437 -332.7597)" gradientUnits="userSpaceOnUse" x1="372.7998" x2="372.7998" xlink:href="#G" y1="954.7886" y2="926.037"/><linearGradient id="X" gradientTransform="matrix(.991 -.1338 .1338 .991 -311.437 -332.7597)" gradientUnits="userSpaceOnUse" x1="1135.0779" x2="1135.0779" xlink:href="#k" y1="806.0187" y2="985.448"/><linearGradient id="Y" gradientTransform="matrix(.991 -.1338 .1338 .991 -311.437 -332.7597)" gradientUnits="userSpaceOnUse" x1="1078.2782" x2="1078.2782" xlink:href="#k" y1="899.4283" y2="955.6046"/><linearGradient id="Z" gradientTransform="matrix(.991 -.1338 .1338 .991 -311.437 -332.7597)" gradientUnits="userSpaceOnUse" x1="1167.5421" x2="1159.1718" xlink:href="#x" y1="943.4643" y2="878.1877"/><linearGradient id="aa" gradientTransform="matrix(-.9905 .1379 .1379 .9905 -4420.6143 230.9199)" gradientUnits="userSpaceOnUse" x1="-5362.6841" x2="-5362.6841" xlink:href="#v" y1="850.7588" y2="988.4197"/><linearGradient id="ab" gradientTransform="matrix(-.9905 .1379 .1379 .9905 -4420.6143 230.9199)" gradientUnits="userSpaceOnUse" x1="-5337.5684" x2="-5337.5684" xlink:href="#i" y1="950.9987" y2="827.7198"/><linearGradient id="ac" gradientTransform="matrix(.991 -.1338 .1338 .991 -311.437 -332.7597)" gradientUnits="userSpaceOnUse" x1="1083.2001" x2="1083.2001" xlink:href="#G" y1="953.2183" y2="924.4667"/><linearGradient id="ad" gradientUnits="userSpaceOnUse" x1="584.3707" x2="615.7286" y1="257.617" y2="598.1046"><stop offset=".2488" stop-color="#674cc4" stop-opacity="0"/><stop offset=".8069" stop-color="#674cc4" stop-opacity=".8"/></linearGradient><linearGradient id="ae" gradientUnits="userSpaceOnUse" x1="204.391" x2="220.0213" xlink:href="#r" y1="392.8101" y2="562.5261"/><linearGradient id="af" gradientUnits="userSpaceOnUse" x1="640.402" x2="671.2437" xlink:href="#r" y1="191.6171" y2="526.5011"/><linearGradient id="ag" gradientUnits="userSpaceOnUse" x1="217.4485" x2="1451.0212" y1="503.8029" y2="503.8029"><stop offset="0" stop-color="#d16aea"/><stop offset="1" stop-color="#674cc4"/></linearGradient><linearGradient id="ah"><stop offset="0" stop-color="#4b2395" stop-opacity="0"/><stop offset="1" stop-color="#4b2395"/></linearGradient><linearGradient id="ai" gradientUnits="userSpaceOnUse" x1="420.955" x2="305.1367" xlink:href="#ah" y1="661.6559" y2="567.9017"/><linearGradient id="aj" gradientTransform="matrix(.4827 .08728782 .08728782 .9853 -1693.3566 285.7448)" gradientUnits="userSpaceOnUse" x1="4411.333" x2="4395.9688" xlink:href="#ah" y1="-21.6803" y2="-154.825"/><linearGradient id="ak" gradientUnits="userSpaceOnUse" x1="439.8485" x2="1440.5508" y1="-363.4889" y2="1453.8844"><stop offset=".3233" stop-color="#ffc388"/><stop offset=".3912" stop-color="#e5a2af"/><stop offset=".4858" stop-color="#c479e1"/><stop offset=".5326" stop-color="#b769f4"/><stop offset=".537" stop-color="#b467f1"/><stop offset=".6236" stop-color="#7d4cc4"/><stop offset=".6982" stop-color="#5538a3"/><stop offset=".7572" stop-color="#3c2c8e"/><stop offset=".7931" stop-color="#332787"/></linearGradient><linearGradient id="al"><stop offset=".1558" stop-color="#fff"/><stop offset=".8818" stop-color="#fff" stop-opacity="0"/></linearGradient><radialGradient id="am" cx="989.0963" cy="657.5151" gradientTransform="matrix(.9959 .09042914 -.09042914 .9959 358.1136 -143.618)" gradientUnits="userSpaceOnUse" r="160.2055" xlink:href="#al"/><radialGradient id="an" cx="905.32" cy="674.801" gradientTransform="matrix(.9959 .09042914 -.09042914 .9959 358.1136 -143.618)" gradientUnits="userSpaceOnUse" r="160.613" xlink:href="#al"/><linearGradient id="ao" gradientTransform="matrix(.9959 .09042914 -.09042914 .9959 358.1136 -143.618)" gradientUnits="userSpaceOnUse" x1="1144.026" x2="916.6686" y1="563.7142" y2="618.8732"><stop offset="0" stop-color="#0c051e" stop-opacity="0"/><stop offset="1" stop-color="#0c051e"/></linearGradient><linearGradient id="ap" gradientTransform="matrix(.9959 .09042914 -.09042914 .9959 358.1136 -143.618)" gradientUnits="userSpaceOnUse" x1="863.6105" x2="734.842" y1="818.0844" y2="608.1464"><stop offset="0" stop-color="#fff"/><stop offset="1" stop-color="#fff" stop-opacity="0"/></linearGradient><linearGradient id="aq" gradientTransform="matrix(.9969 -.07901101 .07901101 .9969 -19.1872 -389.9399)" gradientUnits="userSpaceOnUse" x1="1700.425" x2="1404.1104" xlink:href="#C" y1="1040.2899" y2="1040.2899"/><linearGradient id="ar" gradientTransform="matrix(.9969 -.07901101 .07901101 .9969 -19.1872 -389.9399)" gradientUnits="userSpaceOnUse" x1="1278.2208" x2="1278.2208" xlink:href="#A" y1="1060.9727" y2="1048.2266"/><linearGradient id="as"><stop offset="0" stop-color="#37135f"/><stop offset="1" stop-color="#0c051e"/></linearGradient><linearGradient id="at" gradientTransform="matrix(.9969 -.07901101 .07901101 .9969 -19.1872 -389.9399)" gradientUnits="userSpaceOnUse" x1="1177.9067" x2="1177.9067" xlink:href="#as" y1="1060.9208" y2="1048.7953"/><linearGradient id="au"><stop offset="0" stop-color="#fff"/><stop offset="1" stop-color="#37135f"/></linearGradient><linearGradient id="av" gradientTransform="matrix(.9969 -.07901101 .07901101 .9969 -19.1872 -389.9399)" gradientUnits="userSpaceOnUse" x1="1204.8822" x2="1270.3065" xlink:href="#au" y1="994.3282" y2="994.3282"/><linearGradient id="aw" gradientTransform="matrix(.9969 -.07901101 .07901101 .9969 -19.1872 -389.9399)" gradientUnits="userSpaceOnUse" x1="1383.8075" x2="1383.8075" xlink:href="#A" y1="1042.5918" y2="1027.644"/><linearGradient id="ax"><stop offset="0" stop-color="#ff5297"/><stop offset="1" stop-color="#ff5297" stop-opacity="0"/></linearGradient><linearGradient id="ay" gradientTransform="matrix(.9969 -.07901101 .07901101 .9969 -19.1872 -389.9399)" gradientUnits="userSpaceOnUse" x1="1429.8071" x2="1595.9885" xlink:href="#ax" y1="1010.9861" y2="1010.9861"/><linearGradient id="az" gradientTransform="matrix(.9969 -.07901101 .07901101 .9969 -19.1872 -389.9399)" gradientUnits="userSpaceOnUse" x1="1308.1132" x2="1330.5051" xlink:href="#au" y1="1044.2446" y2="1014.0881"/><linearGradient id="aA" gradientTransform="matrix(.9969 -.07901101 .07901101 .9969 -19.1872 -389.9399)" gradientUnits="userSpaceOnUse" x1="1263.7328" x2="1339.2916" y1="994.0717" y2="994.0717"><stop offset="0" stop-color="#fff"/><stop offset="1" stop-color="#b669d6"/></linearGradient><linearGradient id="aB" gradientTransform="matrix(.9969 -.07901101 .07901101 .9969 -19.1872 -389.9399)" gradientUnits="userSpaceOnUse" x1="1227.4873" x2="1300.9285" xlink:href="#au" y1="1027.1217" y2="986.8965"/><linearGradient id="aC" gradientTransform="matrix(.9969 -.07901101 .07901101 .9969 -19.1872 -389.9399)" gradientUnits="userSpaceOnUse" x1="1242.2516" x2="1204.2238" y1="1014.5963" y2="1053.5342"><stop offset="0" stop-color="#fff"/><stop offset="1" stop-color="#4b2395"/></linearGradient><linearGradient id="aD" gradientTransform="matrix(.9969 -.07901101 .07901101 .9969 -19.1872 -389.9399)" gradientUnits="userSpaceOnUse" x1="1372.842" x2="1413.1006" xlink:href="#au" y1="970.7839" y2="1009.609"/><linearGradient id="aE" gradientTransform="matrix(.9969 -.07901101 .07901101 .9969 -19.1872 -389.9399)" gradientUnits="userSpaceOnUse" x1="1432.3785" x2="1432.3785" xlink:href="#au" y1="1044.6445" y2="1022.433"/><linearGradient id="aF" gradientTransform="matrix(.9969 -.07901101 .07901101 .9969 -19.1872 -389.9399)" gradientUnits="userSpaceOnUse" x1="1247.9559" x2="1227.8372" xlink:href="#A" y1="986.7879" y2="1006.9067"/><linearGradient id="aG" gradientTransform="matrix(.9969 -.07901101 .07901101 .9969 -19.1872 -389.9399)" gradientUnits="userSpaceOnUse" x1="1335.8383" x2="1859.8384" xlink:href="#ax" y1="1010.9861" y2="1010.9861"/><linearGradient id="aH" gradientTransform="matrix(.9969 -.07901101 .07901101 .9969 -19.1872 -389.9399)" gradientUnits="userSpaceOnUse" x1="1175.4167" x2="1155.7275" xlink:href="#as" y1="1026.3896" y2="1046.0789"/><linearGradient id="aI"><stop offset="0" stop-color="#fff"/><stop offset="1" stop-color="#0c051e"/></linearGradient><linearGradient id="aJ" gradientTransform="matrix(.9969 -.07901101 .07901101 .9969 -19.1872 -389.9399)" gradientUnits="userSpaceOnUse" x1="1162.7355" x2="1162.7355" xlink:href="#aI" y1="1054.3051" y2="1034.7375"/><linearGradient id="aK" gradientTransform="matrix(.9969 -.07901101 .07901101 .9969 -19.1872 -389.9399)" gradientUnits="userSpaceOnUse" x1="1166.58" x2="1166.58" xlink:href="#aI" y1="1030.3037" y2="1048.2773"/><linearGradient id="aL" gradientTransform="matrix(.9969 -.07901101 .07901101 .9969 -19.1872 -389.9399)" gradientUnits="userSpaceOnUse" x1="1270.8055" x2="1249.3287" xlink:href="#A" y1="1024.0825" y2="1045.5593"/><linearGradient id="aM" gradientTransform="matrix(.9969 -.07901101 .07901101 .9969 -19.1872 -389.9399)" gradientUnits="userSpaceOnUse" x1="1257.5575" x2="1257.5575" xlink:href="#aI" y1="1053.2385" y2="1033.6711"/><linearGradient id="aN" gradientTransform="matrix(.9969 -.07901101 .07901101 .9969 -19.1872 -389.9399)" gradientUnits="userSpaceOnUse" x1="1261.8325" x2="1261.8325" xlink:href="#aI" y1="1029.2373" y2="1047.2109"/><linearGradient id="aO"><stop offset="0" stop-color="#b669d6"/><stop offset=".3003" stop-color="#d09fe5" stop-opacity=".8799"/><stop offset=".6225" stop-color="#e9d3f3" stop-opacity=".751"/><stop offset=".8658" stop-color="#f9f3fc" stop-opacity=".6537"/><stop offset="1" stop-color="#fff" stop-opacity=".6"/></linearGradient><linearGradient id="aP" gradientUnits="userSpaceOnUse" x1="1881.1526" x2="303.677" xlink:href="#aO" y1="406.1201" y2="697.1467"/><linearGradient id="aQ" gradientUnits="userSpaceOnUse" x1="1891.4636" x2="287.8268" xlink:href="#aO" y1="453.4772" y2="749.3303"/><linearGradient id="aR"><stop offset="0" stop-color="#fff"/><stop offset="1" stop-color="#fff" stop-opacity=".1"/></linearGradient><linearGradient id="aS" gradientUnits="userSpaceOnUse" x1="2187.7939" x2="456.2332" xlink:href="#aR" y1="792.7318" y2="540.3348"/><linearGradient id="aT" gradientUnits="userSpaceOnUse" x1="1597.8405" x2="250.0009" xlink:href="#aR" y1="993.2139" y2="511.5536"/><linearGradient id="aU" gradientUnits="userSpaceOnUse" x1="488.4607" x2="485.7293" xlink:href="#aO" y1="561.1475" y2="561.6514"/><linearGradient id="aV" gradientUnits="userSpaceOnUse" x1="574.7531" x2="572.0949" xlink:href="#aO" y1="548.0795" y2="548.5699"/><linearGradient id="aW" gradientUnits="userSpaceOnUse" x1="661.5881" x2="659.2916" xlink:href="#aO" y1="535.0208" y2="535.4445"/><linearGradient id="aX" gradientUnits="userSpaceOnUse" x1="748.0714" x2="745.5312" xlink:href="#aO" y1="522.3905" y2="522.8591"/><linearGradient id="aY" gradientUnits="userSpaceOnUse" x1="503.0422" x2="2103.8608" xlink:href="#aR" y1="581.8566" y2="299.4264"/><linearGradient id="aZ" gradientUnits="userSpaceOnUse" x1="845.3463" x2="842.907" xlink:href="#aO" y1="507.312" y2="507.762"/><linearGradient id="a0" gradientUnits="userSpaceOnUse" x1="931.6366" x2="929.2711" xlink:href="#aO" y1="494.234" y2="494.6704"/><linearGradient id="a1" gradientUnits="userSpaceOnUse" x1="1018.4759" x2="1016.4409" xlink:href="#aO" y1="481.1356" y2="481.511"/><linearGradient id="a2" gradientUnits="userSpaceOnUse" x1="1104.8634" x2="1102.64" xlink:href="#aO" y1="468.0968" y2="468.507"/><linearGradient id="a3" gradientUnits="userSpaceOnUse" x1="322.9489" x2="-116.5013" xlink:href="#aO" y1="589.5181" y2="670.5917"/><linearGradient id="a4" gradientUnits="userSpaceOnUse" x1="60.0455" x2="56.9332" xlink:href="#aO" y1="626.3564" y2="626.9306"/><linearGradient id="a5" gradientUnits="userSpaceOnUse" x1="166.3402" x2="163.3172" xlink:href="#aO" y1="610.2796" y2="610.8373"/><linearGradient id="a6" gradientUnits="userSpaceOnUse" x1="-42.1198" x2="-45.3092" xlink:href="#aO" y1="624.3518" y2="624.9402"/><linearGradient id="a7" gradientUnits="userSpaceOnUse" x1="2128.7593" x2="-159.1542" xlink:href="#aO" y1="328.8887" y2="750.9832"/><linearGradient id="a8" gradientUnits="userSpaceOnUse" x1="1888.9663" x2="-481.0042" xlink:href="#aO" y1="405.8548" y2="843.0879"/><linearGradient id="a9" gradientUnits="userSpaceOnUse" x1="1728.6649" x2="-1266.1638" xlink:href="#aO" y1="556.8148" y2="1109.3273"/><linearGradient id="ba" gradientUnits="userSpaceOnUse" x1="2129.4058" x2="-1185.2239" xlink:href="#aO" y1="433.8052" y2="1045.3174"/><linearGradient id="bb" gradientUnits="userSpaceOnUse" x1="2330.2329" x2="-1066.8943" xlink:href="#aO" y1="363.8692" y2="990.6012"/><linearGradient id="bc" gradientUnits="userSpaceOnUse" x1="507.1249" x2="433.503" xlink:href="#aO" y1="520.23" y2="533.8124"/><linearGradient id="bd" gradientTransform="matrix(-1 0 0 1 -5488.3774 0)" gradientUnits="userSpaceOnUse" x1="-5586.2876" x2="-5742.5269" xlink:href="#aO" y1="549.3209" y2="578.1453"/><linearGradient id="be" gradientUnits="userSpaceOnUse" x1="595.7416" x2="264.4179" xlink:href="#aR" y1="942.512" y2="604.213"/><linearGradient id="bf" gradientUnits="userSpaceOnUse" x1="207.0767" x2="169.2107" xlink:href="#aO" y1="769.9119" y2="776.8978"/><linearGradient id="bg" gradientUnits="userSpaceOnUse" x1="165.5447" x2="-61.9769" xlink:href="#aO" y1="757.3371" y2="799.3123"/><linearGradient id="bh" gradientUnits="userSpaceOnUse" x1="1196.0952" x2="1193.934" xlink:href="#aO" y1="454.8338" y2="455.2325"/><linearGradient id="bi" gradientUnits="userSpaceOnUse" x1="1273.8127" x2="1271.7124" xlink:href="#aO" y1="442.8132" y2="443.2007"/><linearGradient id="bj" gradientUnits="userSpaceOnUse" x1="1351.6215" x2="1349.5985" xlink:href="#aO" y1="431.1245" y2="431.4977"/><linearGradient id="bk" gradientUnits="userSpaceOnUse" x1="1408.766" x2="1397.7145" xlink:href="#aO" y1="425.693" y2="427.7319"/><linearGradient id="bl" gradientUnits="userSpaceOnUse" x1="1486.6815" x2="1484.5204" xlink:href="#aO" y1="414.3161" y2="414.7148"/><linearGradient id="bm" gradientUnits="userSpaceOnUse" x1="1560.2292" x2="1558.3823" xlink:href="#aO" y1="398.9575" y2="399.2982"/><linearGradient id="bn" gradientUnits="userSpaceOnUse" x1="1627.7808" x2="1625.99" xlink:href="#aO" y1="388.8248" y2="389.1552"/><linearGradient id="bo" gradientUnits="userSpaceOnUse" x1="1690.4702" x2="1688.7294" xlink:href="#aO" y1="379.381" y2="379.7021"/><linearGradient id="bp" gradientUnits="userSpaceOnUse" x1="1750.496" x2="1748.7935" xlink:href="#aO" y1="370.5229" y2="370.8369"/><linearGradient id="bq" gradientUnits="userSpaceOnUse" x1="1803.1248" x2="1801.4662" xlink:href="#aO" y1="362.5583" y2="362.8643"/><linearGradient id="br" gradientUnits="userSpaceOnUse" x1="1855.613" x2="1853.9982" xlink:href="#aO" y1="354.615" y2="354.9129"/><linearGradient id="bs" gradientUnits="userSpaceOnUse" x1="1915.5801" x2="1914.0189" xlink:href="#aO" y1="345.4694" y2="345.7574"/><linearGradient id="bt" gradientUnits="userSpaceOnUse" x1="1968.2161" x2="1966.697" xlink:href="#aO" y1="337.5401" y2="337.8203"/><path d="m-729.2 442.6h235.5v228.8h-235.5z" fill="#efedf4"/><image height="275" overflow="visible" transform="translate(-774.045 414.4882)" width="331" xlink:href="../Downloads/http___pluspng.com_img-png_joomla-logo-png-vertical-logo-light-background-en-png-331.png"/><g clip-path="url(#a)"><path d="m1763.1 349.5v-.9h-376.7l136.8-37.2h237v-.9h-233.6l188.3-51.2h45.3v-.9h-41.8l41.9-11.4-.2-.9-45.3 12.3h-379.9l155-58.5h270.3v-.9h-267.8l215.3-81.2h52.5v-.9h-50l50.2-18.9-.3-.9-52.5 19.8h-337.2l204.2-102.6h186.6v-.9h-184.7l139.8-70.3-.4-.8-141.5 71.1h-290.4l106.6-70.3-.5-.8-107.8 71.1h-249.9l78-70.4-.6-.7-78.8 71.1h-265.2l47.7-70.4-.8-.5-48.1 71h-208l23.9-70.6-.9-.3-24 70.9h-189.2l2.1-67.5h-.9l-2.1 67.6h-175.7l-18.1-70.8-.9.2 18 70.6h-245.2v.9h245.4l26.2 102.6h-218.8l-54.3-79.4-.8.5 53.9 78.9h-53.5v.9h54.2l55.5 81.2h-109.7v.9h110.4l40 58.5h-148.5v.9h149.1l35 51.2h-153.7l-32-27.7-.6.7 31.1 26.7h-28.9v.9h30l43.4 37.2h-73.4v.9h74.5l37.5 32.1h-112v.9h113.2l35.5 30.6h-148.7v.9h149.8l27.9 23.9h-177.7v.9h178.8l222.1 190.3-400.7-162.6-.4.9 403.5 163.7.2-.4.1.5 707.2-192.2h571.1v-.9h-567.6l88-23.9h535.2v-1.1h-531.7l111.9-30.4h492.7v-.9h-489.2l118.2-32.1h380.1zm-380.3-.9h-287l98.5-37.2h325.3zm-400-38.2h-149.5l77.6-51.2h173.8zm103.9-51.1h243l-135.6 51.2h-209.2zm-610.3 179.5-127.8 188.6 63.9-188.6zm-63.6-.9 8.1-23.9h72.3l-16.2 23.9zm64.7.9h81.5l-209.4 188.8zm.6-.9 16.2-23.9h92.2l-26.5 23.9zm16.9-24.9 20.6-30.4h105.7l-33.7 30.4zm21.2-31.4 21.8-32.1h120l-35.6 32.1zm22.4-33 25.2-37.2h136.4l-41.2 37.2zm25.9-38.2 34.7-51.2h158.8l-56.7 51.2zm-1.2 0h-107.3l17.3-51.2h124.7zm-.6 1-25.2 37.2h-94.4l12.6-37.2zm-25.8 38.1-21.8 32.1h-83.2l10.9-32.1zm-22.4 33.1-20.6 30.4h-72.6l10.3-30.4zm-94.3 30.4h-66.1l.9-30.4h75.4zm-.3.9-8.1 23.9h-58.4l.7-23.9zm-8.4 24.9-63.9 188.6 5.8-188.6zm148.9 0h76.5l-284.9 187.9zm1-.9 26.5-23.9h86.7l-36.3 23.9zm27.6-24.9 33.7-30.4h99.5l-46.1 30.4zm34.8-31.4 35.6-32.1h112.9l-48.7 32.1zm36.6-33 41.2-37.2h128.5l-56.4 37.2zm42.3-38.2 56.7-51.2h149.7l-77.6 51.2zm57.8-52.1 64.9-58.5h173.9l-88.7 58.5zm-1.4 0h-159.3l39.6-58.5h184.5zm-160.5 0h-125l19.8-58.5h144.8zm-126 0h-113.7l1.8-58.5h131.7zm-.3 1-17.3 51.1h-97.7l1.6-51.2h113.4zm-17.7 52.1-12.6 37.2h-85.9l1.1-37.2zm-12.9 38.1-10.9 32.1h-75.7l1-32.1zm-87.5 32.1h-70.3l-8.2-32.1h79.5zm0 1-.9 30.4h-61.3l-7.8-30.4zm-1 31.3-.7 23.9h-54.2l-6.1-23.9zm-.8 24.9-5.8 188.4-48.1-188.4zm286.2 0h88.8l-373.4 187.7zm1.5-.9 36.3-23.9h100.6l-47.6 23.9zm37.7-24.9 46.1-30.4h115.4l-60.5 30.4zm47.5-31.4 48.7-32.1h131.1l-63.9 32.1zm50.2-33 56.4-37.2h149.1l-74 37.2zm136.8-90.3 88.7-58.5h201.9l-116.4 58.5zm90.1-59.4 123.1-81.2h240.8l-161.6 81.2zm-1.7 0h-174.3l90.1-81.2h207.4zm-175.7 0h-185l55-81.2h220zm-186.1 0h-145.2l27.5-81.2h172.6zm-146.2 0h-132l2.5-81.2h157zm-132.9 0h-122.6l-20.8-81.2h145.8zm0 .9-1.8 58.5h-105.6l-14.9-58.5zm-1.9 59.5-1.6 51.2h-90.6l-13.1-51.2zm-1.6 52.1-1.1 37.2h-79.7l-9.5-37.2zm-81.8 37.2h-119.6l-25.4-37.2h135.5zm.2.9 8.2 32.1h-105.4l-22-32.1zm8.5 33.1 7.8 30.4h-92.1l-20.8-30.4zm8 31.3 6.1 23.9h-81.4l-16.4-23.9zm6.4 24.9 48.4 189.3-129.4-189.3zm432 0h124.3l-498.6 188.1zm1.8-.9 47.6-23.9h140.8l-63.4 23.9zm49.5-24.9 60.5-30.4h161.5l-80.6 30.4zm62.4-31.4 63.9-32.1h183.3l-85.1 32.1zm65.8-33 73.9-37.2h208.5l-98.5 37.2zm802.2-89.3-188.3 51.1h-326.3l135.6-51.2h379zm-379.1-1h-243.6l116.4-58.5h282.2zm372.8-140.6-215.3 81.2h-282.9l161.6-81.2zm-132.6-103.6-204.2 102.6h-241.2l155.6-102.6zm-291.5 0-155.6 102.6h-207.8l113.8-102.6zm-251 0-113.8 102.6h-220.4l69.5-102.6h264.7zm-265.8 0-69.5 102.6h-173l34.8-102.6zm-208.8 0-34.8 102.6h-157.3l3.1-102.6zm-365.3 0h175.4l-3.1 102.6h-146.1zm-192.9 103.6h218.4l20.8 81.2h-183.7zm56.1 82.1h183.3l14.9 58.5h-158.2zm40.6 59.5h157.8l13.1 51.2h-135.9zm-118.7 52.1h153.2l25.4 37.2h-135.2zm44.5 38.1h134.7l22 32.1h-119.2zm38.6 33.1h118.8l20.8 30.4h-104zm36.7 31.3h103.6l16.4 23.9h-92zm120.5 24.9 129.2 189.1-220.7-189.1zm141.1 188.7 500.1-188.7h194.2zm697.7-189.6h-195.1l63.4-23.9h219.8zm91.5-24.9h-220.7l80.6-30.4h252zm115.4-31.4h-253l85.1-32.1h286.1z" fill="url(#b)"/><path d="m-104.6-168.3h2080.6v1050.1h-2080.6z" fill="url(#c)"/><path d="m1144.8 267.9c-20.1 2.7-61.1 4.6-97.7.1-37-4.4-62.7 5.6-62.7 5.6-18 5.5-33.9 13.2-48.8 18.9-18.8 7.1-39.7 6.5-64.2 8.1-23.6 1.5-61 22.4-61 22.4l151.7-23.1 13.1-2 29.7-4.5 8.1-1.2 179.2-27.3c-.1 0-27.3.3-47.4 3z" fill="url(#e)"/><path d="m361.1 146.5c-85.9 6.6-83.4-30.2-143.2-12.5-37.4 11-52.8-9.7-75.2-29.6 0 0-.4-.4-1.2-1-10.4-9.1-22.3-17.8-38.6-23.1-20.1-8.3-46.8-14.5-77.6-9.3-42.3 7.1-63.7 27-86.4 41.8v120.2l169.7-25.8 24.6-3.7 459.6-69.9s-145.7 6.3-231.7 12.9z" fill="url(#f)"/><path d="m-61.1 336.7 337.1-51.3c-4.5-.8-33.8-6.1-59.2-3.5-11.4 1.1-19.1 2.9-19.1 2.9-9.5 2.2-12 4.1-20.8 5.5-6.9 1.1-12.5 2-19.3 1.4-10.6-1-12.2-4.7-23.6-6.6-6.7-1.1-12.1-.8-17.6-.5-24.7 1.6-32.3 10.5-50.4 12.4-18.6 2-18.9-6.6-60.8-14.3-14.1-2.6-22.5-4.1-34.6-4.1-6 0-16.1.3-31.7 3.7z" fill="url(#g)"/><path d="m-88.6 552.8c18.8-126.8 145-135.1 169.8-131.6 36.3 5.1 104.6 30.2 149.8 58.2 9.4 5.8 27.8 17.9 45.9 12.3 10.9-3.4 13.4-10.6 29.8-15.2 9.1-2.5 17.7-3 28.1-3.5 14.8-.8 20.6.6 28.1-3.5 7.2-3.9 12.4-9.4 18.7-13.8 9.5-6.7 21.9-4.5 31.4-2.3 27.5 6.3 35.1 15 53.5 21.1 19.3 6.4 60.4 20.1 90.7 3.4 4.8-2.6 13.1-8.2 26.9-13.2 16.7-6.1 26.3-5.9 31-5.5 6.3.5 10.6 1.9 18 4.3 21.8 7 22 13 31.6 12.4 9.4-.6 13.2-6.5 26.1-6.5 2.8 0 5.6 0 9.1 1 5.9 1.8 6.8 4.4 12.3 5.6 3.6.8 6.5.3 10-.2 4.5-.6 5.8-1.8 10.7-3 0 0 4-.9 9.9-1.2 13.1-.7 28.3 4.1 30.7 4.9l-789.2 98.8-272 41.2c66.8-21.7 94.5-69.4 121.7-61.1 58.7 18 77.4-2.6 77.4-2.6z" fill="url(#h)"/><path d="m356.4 406.2 3.2 24.7" fill="none" stroke="#674cc4" stroke-miterlimit="10" stroke-width="1.1972"/><path d="m397 400.7 4.1 29.8" fill="none" stroke="#674cc4" stroke-miterlimit="10" stroke-width="1.1972"/><path d="m751.1 452.6-6.8 1-6.4-46.9 6.9-.9z" fill="url(#j)"/><path d="m212.7 548.6 45.9-6.2-21.3-157.4-45.9 6.2z" fill="url(#l)"/><path d="m350.8 530 22.9-3.1-42.6-316-22.9 3.1z" fill="url(#m)"/><path d="m542.2 504.2 45.1-6.1-20.1-148.7-45 6.1z" fill="url(#n)"/><path d="m637.1 491.3 22.9-3-37.7-279.3-22.9 3.1z" fill="url(#o)"/><path d="m433.4 518.8 40.3-5.4-32.9-244-40.3 5.4z" fill="url(#p)"/><path d="m783.9 471.5 38.2-5.1-18.9-140.7-38.3 5.1z" fill="url(#q)"/><path d="m849.2 462.7 16.1-2.2-24.6-182.6-16.2 2.2z" fill="url(#s)"/><path d="m160 555.7 38.7-5.2-6.7-49.3-38.6 5.2z" fill="url(#t)"/><path d="m461.4 515.1-1.5.2-7.4-55.1c-1-7.6 4.3-14.6 11.9-15.7l.2 1.5c-6.8.9-11.6 7.2-10.7 14z"/><path d="m511.6 395.7c.6-.1 1-.6.9-1.2l-4.2-31.3c-.1-.6-.6-1-1.2-.9-.6.1-1 .6-.9 1.2l4.2 31.3c0 .6.6 1 1.2.9z" fill="#4b2395"/><path d="m454.8 372.7 19 140.7 68.4-9.2-12.2-91-9.1 1.2-40-34.2z" fill="url(#u)"/><path d="m513.1 361.1-55.6 7.5c-1.9.3-3.2 2.2-2.7 4.1l13.2 49c.4 1.6 1.9 2.6 3.6 2.4l55.6-7.5c1.9-.3 3.2-2.2 2.7-4.1l-13.2-49c-.5-1.6-2-2.6-3.6-2.4z" fill="url(#w)"/><path d="m469.7 375.7 1.1-.2-2.8-8.3-1 .1z"/><path d="m475.8 374.8 1-.1-2.7-8.3-1 .1z" fill="#fff"/><path d="m481.9 374 1-.1-2.7-8.3-1 .1z"/><path d="m488 373.2 1-.2-2.7-8.3-1 .2z"/><path d="m494.1 372.4 1-.2-2.7-8.3-1 .1z"/><path d="m747.4 476.5-43.1 5.8-17.4-128.3 43.1-5.9z" fill="url(#y)"/><path d="m704 482.3-13.5 1.8-17.3-128.3 13.5-1.8z" fill="url(#z)"/><circle cx="702.2" cy="381.2" fill="#0c051e" r=".7"/><circle cx="706.6" cy="375.4" fill="#0c051e" r=".7"/><circle cx="711" cy="369.7" fill="#fff" r=".7"/><circle cx="715.4" cy="363.9" fill="#fff" r=".7"/><circle cx="719.8" cy="358.2" fill="#0c051e" r=".7"/><circle cx="706.7" cy="414.2" fill="#0c051e" r=".7"/><circle cx="711.1" cy="408.4" fill="#0c051e" r=".7"/><circle cx="715.5" cy="402.7" fill="#0c051e" r=".7"/><circle cx="719.8" cy="396.9" fill="#0c051e" r=".7"/><circle cx="724.2" cy="391.1" fill="#0c051e" r=".7"/><circle cx="711.1" cy="447.2" fill="#0c051e" r=".7"/><circle cx="715.5" cy="441.4" fill="#0c051e" r=".7"/><circle cx="719.9" cy="435.6" fill="#0c051e" r=".7"/><circle cx="724.3" cy="429.9" fill="#fff" r=".7"/><circle cx="728.7" cy="424.1" fill="#0c051e" r=".7"/><path d="m566 500.9-47.5 6.5-6.4-47.6 47.5-6.4z" fill="url(#B)"/><path d="m548.9 503.2-1.5.2-1.6-12.2c-1.1-8.2 4.7-15.8 12.9-17l5-.7.2 1.5-5 .7c-7.4 1-12.7 7.9-11.7 15.3z" fill="#df7f95"/><path d="m754 475.6 29.9-4.1-9.4-69.7-30 4z" fill="url(#D)"/><path d="m241.6 544.7 40.8-5.5-8.3-60.9-40.7 5.5z" fill="url(#E)"/><path d="m794.6 470.1 54.6-7.4-5.6-41.4-54.6 7.4z" fill="url(#F)"/><path d="m836 422.3h1.3v3.1h-1.3z" fill="#fff" transform="matrix(.991 -.1338 .1338 .991 -49.1724 115.7117)"/><path d="m831 422.9h1.3v3.1h-1.3z" transform="matrix(.991 -.1338 .1338 .991 -49.3066 115.0538)"/><path d="m826 423.6h1.3v3.1h-1.3z" fill="#fff" transform="matrix(.991 -.1338 .1338 .991 -49.4409 114.3959)"/><path d="m821.1 424.3h1.3v3.1h-1.3z" transform="matrix(.991 -.1338 .1338 .991 -49.5751 113.7379)"/><path d="m816.1 424.9h1.3v3.1h-1.3z" transform="matrix(.991 -.1338 .1338 .991 -49.7093 113.08)"/><path d="m747.4 476.5 54.5-7.4-3.1-22.9-54.5 7.4z" fill="url(#H)"/><path d="m468 478.2-29.1 3.9-2.4-17.4-35.1 4.7-22.8 29.9s3.4 25.1 3.6 26.4 102.4-13.8 102.4-13.8" fill="url(#J)"/><path d="m637.1 491.3-43.6 5.9-8.7-64.1 43.7-5.9z" fill="url(#K)"/><path d="m617.2 479.3h62.3v10.5h-62.3z" fill="#0c051e" transform="matrix(.991 -.1338 .1338 .991 -58.9817 91.0785)"/><path d="m744.8 476.8-1.5.2-.1-.6c-.9-6.8-7.2-11.6-14-10.7l-7.2 1-.2-1.5 7.2-1c7.6-1 14.7 4.3 15.7 12z" fill="#808080"/><path d="m736.6 477.9-1.5.2-3.8-28.4c-.8-6.3-6.7-10.7-13-9.9l-2.9.4-.2-1.5 2.9-.4c7.1-1 13.7 4 14.6 11.1z"/><path d="m719.7 480.2-59.8 8.1-10.6-78.8c-.3-2.5 1.4-4.8 3.9-5.1l50.7-6.8c2.5-.3 4.8 1.4 5.1 3.9z" fill="url(#L)"/><path d="m725.9 479.4-52 7-10.6-78.8c-.3-2.5 1.4-4.8 3.9-5.1l43-5.8c2.5-.3 4.8 1.4 5.1 3.9z" fill="url(#M)"/><path d="m656.1 416h1.1v3h-1.1z" transform="matrix(.991 -.1338 .1338 .991 -49.9487 91.5828)"/><path d="m657.1 423.3h1.1v3h-1.1z" fill="#fff" transform="matrix(.991 -.1338 .1338 .991 -50.9094 91.7787)"/><path d="m658.1 430.5h1.1v3h-1.1z" transform="matrix(.991 -.1338 .1338 .991 -51.87 91.9747)"/><path d="m659 437.8h1.1v3h-1.1z" fill="#fff" transform="matrix(.991 -.1338 .1338 .991 -52.8307 92.1707)"/><path d="m660 445h1.1v3h-1.1z" fill="#fff" transform="matrix(.991 -.1338 .1338 .991 -53.7914 92.3667)"/><circle cx="682.4" cy="427.1" r=".9"/><circle cx="689.1" cy="426.2" r=".9"/><circle cx="695.7" cy="425.3" r=".9"/><circle cx="702.3" cy="424.4" r=".9"/><circle cx="686.5" cy="431.9" r=".9"/><circle cx="693.1" cy="431" r=".9"/><circle cx="699.7" cy="430.1" r=".9"/><circle cx="683.8" cy="437.5" r=".9"/><circle cx="690.5" cy="436.6" r=".9"/><circle cx="697.1" cy="435.8" r=".9"/><circle cx="703.7" cy="434.9" r=".9"/><circle cx="687.9" cy="442.3" r=".9"/><circle cx="694.5" cy="441.4" r=".9"/><circle cx="701.1" cy="440.5" r=".9"/><circle cx="685.3" cy="448" r=".9"/><circle cx="691.9" cy="447.1" r=".9"/><circle cx="698.5" cy="446.2" r=".9"/><circle cx="705.1" cy="445.3" r=".9"/><circle cx="689.3" cy="452.8" r=".9"/><circle cx="695.9" cy="451.9" r=".9"/><circle cx="702.5" cy="451" r=".9"/><path d="m660.9 468.8h5.8v3.3h-5.8z" transform="matrix(.991 -.1338 .1338 .991 -56.9597 93.014)"/><path d="m666.7 468.3h1.5v3.3h-1.5z" fill="#333" transform="matrix(-.991 .1338 -.1338 -.991 1391.6608 846.4195)"/><path d="m658.6 477.9 11.6 8.9-10.2 1.5z" fill="#0c051e"/><path d="m571.1 484.6 66.9-9 2.1 15.3-66.9 9.1z" fill="url(#N)"/><path d="m585.1 469.5c-.9.1-1.7-.5-1.8-1.4l-6.1-45.2c-.1-.9.5-1.7 1.4-1.8.9-.1 1.7.5 1.8 1.4l6.1 45.2c0 .9-.6 1.7-1.4 1.8z" fill="#0c051e"/><path d="m563.6 464.8 53.9-7.3c5.7-.8 10.9 3.2 11.7 8.9.8 5.7-3.2 10.9-8.9 11.7l-53.9 7.3c-5.7.8-10.9-3.2-11.7-8.9-.8-5.7 3.2-11 8.9-11.7z" fill="url(#O)"/><path d="m583.5 462.1 53.9-7.3c5.7-.8 10.9 3.2 11.7 8.9.8 5.7-3.2 10.9-8.9 11.7l-53.9 7.3c-5.7.8-10.9-3.2-11.7-8.9-.8-5.7 3.2-11 8.9-11.7z" fill="#b669d6"/><path d="m578.3 430.5h3.2v1.9h-3.2z" fill="#4b2395" transform="matrix(.991 -.1338 .1338 .991 -52.4969 81.4444)"/><path d="m644.4 473.8c3.3-2.1 5.2-6 4.6-10.1-.8-5.7-6-9.7-11.7-8.9l-15.2 2z" fill="#0c051e"/><circle cx="586" cy="472.2" fill="#0c051e" r="2.2"/><circle cx="601.5" cy="470.2" fill="#0c051e" r=".9"/><circle cx="608.2" cy="469.3" fill="#0c051e" r=".9"/><circle cx="615" cy="468.4" fill="#fff" r=".9"/><circle cx="621.7" cy="467.5" fill="#0c051e" r=".9"/><circle cx="628.5" cy="466.6" fill="#fff" r=".9"/><path d="m315 423-1.6-11.1-2.1.3 1.5 11.1-3.3.4-.6-4.4-11.9 1.6.6 4.5-30.1 4 14.9 110.4 69.6-9.4-14.9-110.4z" fill="url(#P)"/><path d="m352 530.4-19.8 2.7-14.9-110.4 19.8-2.7z" fill="url(#Q)"/><path d="m275.7 438.4h1v3.6h-1z" fill="#fff" transform="matrix(.991 -.1338 .1338 .991 -56.3916 40.8944)"/><path d="m282.5 437.4h1v3.6h-1z" transform="matrix(.991 -.1338 .1338 .991 -56.2082 41.7935)"/><path d="m289.3 436.5h1v3.6h-1z" fill="#fff" transform="matrix(.991 -.1338 .1338 .991 -56.0248 42.6926)"/><path d="m296 435.6h1v3.6h-1z" fill="#fff" transform="matrix(.991 -.1338 .1338 .991 -55.8414 43.5917)"/><path d="m302.8 434.7h1v3.6h-1z" transform="matrix(.991 -.1338 .1338 .991 -55.658 44.4908)"/><path d="m309.6 433.8h1v3.6h-1z" transform="matrix(.991 -.1338 .1338 .991 -55.4745 45.3899)"/><path d="m294.8 477.3h1v3.6h-1z" fill="#fff" transform="matrix(.991 -.1338 .1338 .991 -61.4252 43.7943)"/><path d="m315.1 474.5h1v3.6h-1z" transform="matrix(.991 -.1338 .1338 .991 -60.8749 46.4916)"/><path d="m286.2 519.9h1v3.6h-1z" fill="#fff" transform="matrix(.991 -.1338 .1338 .991 -67.2054 43.0342)"/><path d="m293 519h1v3.6h-1z" transform="matrix(.991 -.1338 .1338 .991 -67.022 43.9333)"/><path d="m299.8 518.1h1v3.6h-1z" fill="#fff" transform="matrix(.991 -.1338 .1338 .991 -66.8386 44.8324)"/><path d="m753.6 412.7h1.1v2.3h-1.1z" transform="matrix(.991 -.1338 .1338 .991 -48.5784 104.5872)"/><path d="m754.4 419.1h1.1v2.3h-1.1z" transform="matrix(.991 -.1338 .1338 .991 -49.4289 104.7607)"/><path d="m755.3 425.5h1.1v2.3h-1.1z" fill="#fff" transform="matrix(.991 -.1338 .1338 .991 -50.2794 104.9342)"/><path d="m756.2 431.9h1.1v2.3h-1.1z" transform="matrix(.991 -.1338 .1338 .991 -51.1299 105.1077)"/><path d="m757 438.3h1.1v2.3h-1.1z" transform="matrix(.991 -.1338 .1338 .991 -51.9804 105.2812)"/><path d="m402.7 463.3c.9-.1 1.5-.9 1.4-1.8l-6.1-45.2c-.1-.9-.9-1.5-1.8-1.4-.9.1-1.5.9-1.4 1.8l6.1 45.2c.1.9.9 1.5 1.8 1.4z" fill="#37135f"/><path d="m396 424.2h3.2v1.9h-3.2z" fill="#0c051e" transform="matrix(.991 -.1338 .1338 .991 -53.303 56.9974)"/><path d="m421.2 520.5-59.8 8.1-12.6-93.6c-.4-2.7 1.5-5.2 4.3-5.6l49.9-6.7c2.7-.4 5.2 1.5 5.6 4.3z" fill="url(#R)"/><path d="m424.2 520.1-52 7-12.6-93.6c-.4-2.7 1.5-5.2 4.3-5.6l42.2-5.7c2.7-.4 5.2 1.5 5.6 4.3z" fill="url(#S)"/><path d="m360.3 439.3 9.1 4.7c.6.3 1.1 1 1.2 1.7l3.4 24.9c.1.6-.1 1.3-.5 1.8l-7.5 8.6z" fill="url(#T)"/><path d="m410.6 434.9 2-.3-.3-2.4-2 .3c-.7.1-1.1.7-1 1.3.1.8.7 1.2 1.3 1.1z" fill="#37135f"/><path d="m411.6 442.2 2-.3-.3-2.4-2 .3c-.7.1-1.1.7-1 1.3.1.8.7 1.2 1.3 1.1z" fill="#fff"/><path d="m412.6 449.6 2-.3-.3-2.4-2 .3c-.7.1-1.1.7-1 1.3 0 .7.7 1.1 1.3 1.1z" fill="#37135f"/><path d="m413.6 456.9 2-.3-.3-2.4-2 .3c-.7.1-1.1.7-1 1.3 0 .7.6 1.1 1.3 1.1z" fill="#fff"/><path d="m414.6 464.2 2-.3-.3-2.4-2 .3c-.7.1-1.1.7-1 1.3 0 .7.6 1.2 1.3 1.1z" fill="#fff"/><path d="m494.9 510.5-91.4 12.4-4.7-35.3 91.4-12.4z" fill="url(#U)"/><path d="m425.1 520-21.6 2.9-4.7-35.3 21.6-2.9z" fill="url(#V)"/><path d="m475.6 477.1h1.6v2h-1.6z" fill="#fff" transform="matrix(.991 -.1338 .1338 .991 -59.6655 68.0141)"/><path d="m469.5 477.9h1.6v2h-1.6z" fill="#fff" transform="matrix(.991 -.1338 .1338 .991 -59.8302 67.2066)"/><path d="m477.4 490.9h1.6v2h-1.6z" fill="#fff" transform="matrix(.991 -.1338 .1338 .991 -61.4905 68.3864)"/><path d="m471.4 491.7h1.6v2h-1.6z" transform="matrix(.991 -.1338 .1338 .991 -61.6552 67.5789)"/><path d="m479.3 504.6h1.6v2h-1.6z" transform="matrix(.991 -.1338 .1338 .991 -63.3155 68.7587)"/><path d="m473.2 505.5h1.6v2h-1.6z" fill="#fff" transform="matrix(.991 -.1338 .1338 .991 -63.4802 67.9512)"/><path d="m463.4 478.7h1.6v2h-1.6z" transform="matrix(.991 -.1338 .1338 .991 -59.9949 66.3992)"/><path d="m457.3 479.6h1.6v2h-1.6z" transform="matrix(.991 -.1338 .1338 .991 -60.1596 65.5917)"/><path d="m451.2 480.4h1.6v2h-1.6z" transform="matrix(.991 -.1338 .1338 .991 -60.3243 64.7843)"/><path d="m445.1 481.2h1.6v2h-1.6z" transform="matrix(.991 -.1338 .1338 .991 -60.4891 63.9768)"/><path d="m439 482h1.6v2h-1.6z" transform="matrix(.991 -.1338 .1338 .991 -60.6538 63.1693)"/><path d="m153.4 539.3 57-7.7 2.4 17.6-57 7.7z" fill="url(#W)"/><path d="m243.9 488.8h2.7v1.6h-2.7z" transform="matrix(.991 -.1338 .1338 .991 -63.2868 37.2023)"/><path d="m252.8 495.9h2.7v1.6h-2.7z" fill="#fff" transform="matrix(.991 -.1338 .1338 .991 -64.149 38.4656)"/><path d="m261.8 502.9h2.7v1.6h-2.7z" fill="#fff" transform="matrix(.991 -.1338 .1338 .991 -65.0112 39.729)"/><path d="m247.8 517.7h2.7v1.6h-2.7z" fill="#fff" transform="matrix(.991 -.1338 .1338 .991 -67.1158 37.9834)"/><path d="m256.7 524.7h2.7v1.6h-2.7z" transform="matrix(.991 -.1338 .1338 .991 -67.978 39.2467)"/><path d="m265.7 531.8h2.7v1.6h-2.7z" fill="#fff" transform="matrix(.991 -.1338 .1338 .991 -68.8402 40.5101)"/><path d="m916.5 452.1 45.9-6.2-21.3-157.5-45.8 6.2z" fill="url(#X)"/><path d="m863.8 459.2 38.7-5.3-6.7-49.3-38.6 5.3z" fill="url(#Y)"/><path d="m947.2 448.1 40.7-5-8.2-61.4-40.7 5.5z" fill="url(#Z)"/><path d="m994.8 329.9-1.6-11.1 2.2-.3 1.5 11.1 3.3-.4-.6-4.5 11.9-1.7.6 4.5 30-4.2 15.4 110.3-69.5 9.7-15.4-110.3z" fill="url(#aa)"/><path d="m988 443.3 19.8-2.7-15.4-110.4-19.8 2.8z" fill="url(#ab)"/><path d="m1036.2 334.2h1v3.6h-1z" fill="#fff" transform="matrix(-.9904 .1379 -.1379 -.9904 2109.8845 525.8038)"/><path d="m1029.5 335.1h1v3.6h-1z" transform="matrix(-.9904 .1379 -.1379 -.9904 2096.5203 528.6176)"/><path d="m1022.7 336.1h1v3.6h-1z" fill="#fff" transform="matrix(-.9904 .1379 -.1379 -.9904 2083.156 531.4314)"/><path d="m1015.9 337h1v3.6h-1z" fill="#fff" transform="matrix(-.9904 .1379 -.1379 -.9904 2069.7917 534.2452)"/><path d="m1009.1 338h1v3.6h-1z" transform="matrix(-.9904 .1379 -.1379 -.9904 2056.4275 537.059)"/><path d="m1002.3 338.9h1v3.6h-1z" transform="matrix(-.9904 .1379 -.1379 -.9904 2043.0634 539.8727)"/><path d="m1028.4 376.8h1v3.6h-1z" fill="#fff" transform="matrix(-.9904 .1379 -.1379 -.9904 2100.0569 611.7026)"/><path d="m1008 379.6h1v3.6h-1z" transform="matrix(-.9904 .1379 -.1379 -.9904 2059.9641 620.144)"/><path d="m990 423.3h1v3.6h-1z" fill="#fff" transform="matrix(.991 -.1338 .1338 .991 -47.9635 136.3049)"/><path d="m996.8 422.4h1v3.6h-1z" transform="matrix(.991 -.1338 .1338 .991 -47.78 137.204)"/><path d="m1003.6 421.5h1v3.6h-1z" fill="#fff" transform="matrix(.991 -.1338 .1338 .991 -47.5966 138.1031)"/><path d="m857.3 442.7 56.9-7.6 2.4 17.5-57 7.7z" fill="url(#ac)"/><path d="m949.5 392.2h2.7v1.6h-2.7z" transform="matrix(.991 -.1338 .1338 .991 -44.0278 130.7131)"/><path d="m958.4 399.3h2.7v1.6h-2.7z" fill="#fff" transform="matrix(.991 -.1338 .1338 .991 -44.89 131.9765)"/><path d="m967.4 406.3h2.7v1.6h-2.7z" fill="#fff" transform="matrix(.991 -.1338 .1338 .991 -45.7522 133.2398)"/><path d="m953.4 421.1h2.7v1.6h-2.7z" fill="#fff" transform="matrix(.991 -.1338 .1338 .991 -47.8568 131.4942)"/><path d="m962.3 428.2h2.7v1.6h-2.7z" transform="matrix(.991 -.1338 .1338 .991 -48.719 132.7576)"/><path d="m971.3 435.2h2.7v1.6h-2.7z" fill="#fff" transform="matrix(.991 -.1338 .1338 .991 -49.5812 134.021)"/><path d="m400.7 502.1-18.5 23.7 21.3-2.9z" fill="#0c051e"/><path d="m505.6 473.8h10.6v34.4h-10.6z" fill="#0c051e" transform="matrix(.991 -.1338 .1338 .991 -61.087 72.7513)"/><path d="m336.6 531.9-1.5.2-2.7-19.8c-1.2-9.2 5.2-17.7 14.4-18.9l9.7-1.3.2 1.5-9.7 1.3c-8.4 1.1-14.3 8.9-13.1 17.3z" fill="#b669d6"/><path d="m250.3 481.8-13-96.5-45.9 6.1 19 140.5-14 1.9-4.4-32.3-38.6 5.2 4.3 32.3-4.3.6 2.4 17.6 57-7.7-.1-.6 28.9-3.9 11.7-1.6 5.3-.7 23.8-3.2-8.3-60.9z" fill="url(#ad)"/><path d="m1042.1 323.6-30.1 4.2-.6-4.5-11.9 1.7.6 4.5-3.3.5-1.6-11.1-2.2.3 1.6 11.1-22.1 3.1 6.8 48.8-25.2 3.4-7.4-54.7-45.9 6.2 13.5 100.1-.2-1.8-14 1.9-4.4-32.3-37.4 5-10.8-80.2-16.2 2.2 14.8 109.7-2.7-20-6.5.9h-.3l-4.6.6-1.3.2-4.2.6-.8.1-4.7.6h-.3l-3.6.5-.7.1-7.9-58.6-38.3 5.2 9.4 69.6-5.3-39.4-29.6 4-6.9.9-7.9-58.5-43.1 5.8 6.1 45h-.2l-6.1-45-13.5 1.8 6.1 45-26 3.5c-2.5.3-4.3 2.6-3.9 5.1l6.4 47.7-33.5-248.2-22.9 3.1 29 215.1-43.6 5.9 3.8 28.3-3 .4-4.2-31.2v-.3l-1-7.8c-.1-.8-.8-1.4-1.6-1.4h-.2c-.9 0-1.5.7-1.4 1.6l1.1 8 .2 1.8-21.5-159.7-45.1 6.1 18.2 134.4c0-.2 0-.5-.1-.7l-13.2-49c-.4-1.6-1.9-2.6-3.6-2.4l-5 .7-21.8 2.9h-.3l-6.3.9-.5.1-11.1 1.5h-.2l-10.4 1.4c-1.9.3-3.2 2.2-2.7 4.1l9.7 71.8-23.6-175.1-40.3 5.4 25.8 191.3-9.2 1.2-.5-3.4-.2-1.8-.7-5.5-.3-2.4-.7-4.9-.2-1.8-.7-5.5-.3-2.4-1.8-13.1c-.4-2.7-2.9-4.6-5.6-4.3l-7.4 1-3.2.4-16.8 2.3-18.1 2.4-29.4-217.5-22.9 3.1 27.6 206.3-21 2.8-1.5-11.1-2.2.3 1.5 11.1-3.3.4-.6-4.5-11.9 1.6.6 4.5-30.1 4.1 14.9 110.4 38.8-5.2 11-1.5 19.8-2.7v-.1l37.8-5.2c13.3-1.5 41.6-5.5 63.8-8.7l177.4-24.2 9.1-1.2 19.9-2.7 42.1-5.7 2-.3 15.7-2.1 27.6-3.7 6.6-.9 24.9-3.4 15.7-2.1 54.6-7.4-.1-.4.1.4 16.2-2.2-.1-.4 122.7-16.8 19.8-2.8 49.8-6.9zm-409.8 132.2-1.5-11zm-53.8-22.9 4 29.6zm-113.8 13.4 4.3 32.1-4.3-32.1c-.1 0 0 0 0 0z" fill="url(#ad)"/><path d="m250.3 481.8-13-96.5-45.9 6.1 19 140.5-14 1.9-4.4-32.3-38.6 5.2 4.3 32.3-4.3.6 2.4 17.6 57-7.7-.1-.6 28.9-3.9 11.7-1.6 5.3-.7 23.8-3.2-8.3-60.9z" fill="url(#ae)"/><path d="m1042.1 323.6-30.1 4.2-.6-4.5-11.9 1.7.6 4.5-3.3.5-1.6-11.1-2.2.3 1.6 11.1-22.1 3.1 6.8 48.8-25.2 3.4-7.4-54.7-45.9 6.2 13.5 100.1-.2-1.8-14 1.9-4.4-32.3-37.4 5-10.8-80.2-16.2 2.2 14.8 109.7-2.7-20-6.5.9h-.3l-4.6.6-1.3.2-4.2.6-.8.1-4.7.6h-.3l-3.6.5-.7.1-7.9-58.6-38.3 5.2 9.4 69.6-5.3-39.4-29.6 4-6.9.9-7.9-58.5-43.1 5.8 6.1 45h-.2l-6.1-45-13.5 1.8 6.1 45-26 3.5c-2.5.3-4.3 2.6-3.9 5.1l6.4 47.7-33.5-248.2-22.9 3.1 29 215.1-43.6 5.9 3.8 28.3-3 .4-4.2-31.2v-.3l-1-7.8c-.1-.8-.8-1.4-1.6-1.4h-.2c-.9 0-1.5.7-1.4 1.6l1.1 8 .2 1.8-21.5-159.7-45.1 6.1 18.2 134.4c0-.2 0-.5-.1-.7l-13.2-49c-.4-1.6-1.9-2.6-3.6-2.4l-5 .7-21.8 2.9h-.3l-6.3.9-.5.1-11.1 1.5h-.2l-10.4 1.4c-1.9.3-3.2 2.2-2.7 4.1l9.7 71.8-23.6-175.1-40.3 5.4 25.8 191.3-9.2 1.2-.5-3.4-.2-1.8-.7-5.5-.3-2.4-.7-4.9-.2-1.8-.7-5.5-.3-2.4-1.8-13.1c-.4-2.7-2.9-4.6-5.6-4.3l-7.4 1-3.2.4-16.8 2.3-18.1 2.4-29.4-217.5-22.9 3.1 27.6 206.3-21 2.8-1.5-11.1-2.2.3 1.5 11.1-3.3.4-.6-4.5-11.9 1.6.6 4.5-30.1 4.1 14.9 110.4 38.8-5.2 11-1.5 19.8-2.7v-.1l37.8-5.2c13.3-1.5 41.6-5.5 63.8-8.7l177.4-24.2 9.1-1.2 19.9-2.7 42.1-5.7 2-.3 15.7-2.1 27.6-3.7 6.6-.9 24.9-3.4 15.7-2.1 54.6-7.4-.1-.4.1.4 16.2-2.2-.1-.4 122.7-16.8 19.8-2.8 49.8-6.9zm-409.8 132.2-1.5-11zm-53.8-22.9 4 29.6zm-113.8 13.4 4.3 32.1-4.3-32.1c-.1 0 0 0 0 0z" fill="url(#af)"/><path d="m-59.2 706.4-1.9-52.1v-71.2l2082.6-281.9v88.1z" fill="url(#ag)"/><path d="m458 618.4-212.9 35.9-12.5-74.3 213.3-33.1z" fill="url(#ai)"/><path d="m458 618.4-53.4 9-12.2-72.2 53.5-8.3z" fill="url(#aj)"/><path d="m2021.5 881.1v-523.1l-2080.7 348.4v174.7z" fill="url(#ak)"/><path d="m1321.9 567.4 4.2-46 11.5-5.1c-9.4-29.2-35.5-51.4-68-54.4-43.4-3.9-81.8 28.1-85.8 71.5-1.4 15.5 1.8 30.4 8.5 43.4z" fill="url(#am)"/><path d="m1237.2 573.7 4.2-46 11.5-5.1c-9.4-29.2-35.5-51.4-68-54.4-43.4-3.9-81.8 28.1-85.8 71.5-1.4 15.5 2.8 33.5 9.5 46.5z" fill="url(#an)"/><path d="m1237.2 573.7c-.7-2.7 58-81.8 58-81.8l363.5-29.1-7.2 79.7z" fill="url(#ao)"/><path d="m1241 573.5 8.5-22-56.7-8.6-319.5 69.4 311.8-34.6" fill="url(#ap)"/><path d="m1434.3 516.3c-9.2.7-15.9 10.6-14.9 22.1.9 11.5 9.1 20.2 18.2 19.5l476.2-35.3 4-44.4z" fill="url(#aq)"/><path d="m1451.2 512.8-15.7 1.2c-9.6.8-16.7 11.2-15.7 23.2 1 12.1 9.5 21.2 19.2 20.5l15.7-1.2c9.6-.8 16.7-11.2 15.7-23.2-1-12.1-9.6-21.3-19.2-20.5z" fill="#0c051e"/><path d="m1339.1 521.7-24.4 1.9 3.5 43.7 24.4-1.9c9.3-.7 16.1-11.1 15.1-23.2s-9.3-21.2-18.6-20.5z" fill="url(#ar)"/><path d="m1236.2 532-15.8 1.3 3.3 41.5 15.8-1.3c8-.6 13.7-10.4 12.8-21.9s-8.1-20.2-16.1-19.6z" fill="url(#at)"/><path d="m1240 518.6 47.5-24.4c2.4-1.2 5.1-2 7.8-2.2l37-2.9-34 33.7" fill="#0c051e"/><path d="m1287.4 494.2-47.5 24.4 3.4.2.9-.6 47.3-24.4 38.7-3.1 1.8-1.8-37 2.9c-2.5.4-5.2 1.1-7.6 2.4z" fill="url(#av)"/><path d="m1385.5 547 91.7-7.2-1.8-22.9-113.1 8.9" fill="#0c051e"/><path d="m1465.8 540.7-.7-8.8-81.6 6.5 26.9-31.5 88.1-7-7.4 19.7" fill="url(#aw)"/><path d="m1484.8 493.1-4.3 6.2.8 12 5.3 5.5 167.9-13.3-1.9-23.7z" fill="url(#ay)"/><path d="m1328.9 500.4-.9-11.1 96-7.6.8 11.1" fill="#4b2395"/><path d="m1392.1 516.8-44.4-17.9 77.1-6.1 55.7 6.5"/><path d="m1403.4 499.6-28 8.2 1 11.7 28.9 3.7 5.7-8.1-.6-8.2z" fill="#fff"/><path d="m1484.8 493.1 28.9 3.8.9 11.6-28 8.3-6.9-7.1-.7-8.3z" fill="#fff"/><path d="m1404.2 501.6h94.8v12h-94.8z" fill="#fff" transform="matrix(.9969 -.07901069 .07901069 .9969 -35.572 116.2762)"/><path d="m1376.4 519.5 28.9 3.7-19.8 23.8-42.4 3.4z" fill="url(#az)"/><path d="m1295.3 514.2 32.7-24.9 75.4 10.3-28 8.2" fill="url(#aA)"/><path d="m1317.2 501.6h30v.4h-30z" fill="#0c051e" transform="matrix(.7287 -.6849 .6849 .7287 17.7657 1048.5747)"/><path d="m1240 518.6-47.2 24.3.6 8 12.1 10.4 4.3-.3-.7-1.8c-2.8-8.1-.4-21.6 7.9-24.8 8.4-3.2 18.4 2.7 22.3 13.2l4 10.8 57.5-4.6c-3.5-12.7-.6-25.3 9.6-29.2 10.9-4.2 23.9 3.5 29 17.1l3.3 8.8 7.2-.6 26.5-30.4-.9-11.6z" fill="url(#aB)"/><path d="m1289.8 531.9c-15.8 1.2-30.4 8.4-40.7 20l-5.6 6.3 57.3-4.5c-2.4-8.5-1.1-17 2.6-22.9z" fill="url(#aC)"/><path d="m1424 481.7 60.8 11.4-4.3 6.2-55.7-6.5z" fill="url(#aD)"/><path d="m1514.6 508.5-27 30.4-21.8 1.8 20.8-23.9" fill="url(#aE)"/><path d="m1266.6 544.5-20 1.6-2.2-27.9h.4l2.2 27.4 19.4-1.5 30.3-30.2.3.3z" fill="#0c051e"/><path d="m1270.9 516.1 18.4-11.8c.7-.4 1.4-.7 2.2-.7l19.4-1.5-14.3 12z" fill="url(#aF)"/><path d="m1403.4 499.6-28 8.2 1 11.7 28.9 3.7 512.2-41.2 2.1-23.3z" fill="url(#aG)"/><path d="m1240.7 548.9h59v.4h-59z" fill="#0c051e" transform="matrix(.9969 -.07901069 .07901069 .9969 -39.4159 102.0781)"/><path d="m1266.6 544.5 10.1-10.1c-.3.1-.6.2-.9.3l-9.5 9.4-9.7.8c-.2.2-.4.3-.6.5z" fill="#fff"/><path d="m1250.5 550.5c-.1.2-.3.3-.4.5l49.6-3.9v-.4z" fill="#fff"/><path d="m1356.7 538.9h36.7v.4h-36.7z" fill="#0c051e" transform="matrix(.9969 -.07901069 .07901069 .9969 -38.2944 110.3263)"/><path d="m1474 530.1h21.9v.4h-21.9z" fill="#0c051e" transform="matrix(.9969 -.07901069 .07901069 .9969 -37.2624 118.9835)"/><path d="m1236.4 552.9c.9 11.5-4.8 21.3-12.8 21.9s-15.1-8.2-16.1-19.6c-.9-11.5 4.8-21.3 12.8-21.9 8-.7 15.2 8.1 16.1 19.6z" fill="url(#aH)"/><path d="m1231.7 553.3c.6 7.7-3.2 14.3-8.6 14.7s-10.2-5.5-10.8-13.2 3.2-14.3 8.6-14.7c5.4-.5 10.2 5.4 10.8 13.2z" fill="url(#aJ)"/><path d="m1224.8 540.9c-3.3 2.4-5.3 7.5-4.8 13.3.5 5.7 3.3 10.5 6.9 12.4 3.3-2.4 5.3-7.5 4.8-13.3s-3.3-10.5-6.9-12.4z" fill="url(#aK)"/><path d="m1332.7 544.1c1 12.1-5.8 22.4-15.1 23.2s-17.6-8.4-18.6-20.5 5.8-22.4 15.1-23.2 17.7 8.4 18.6 20.5z" fill="url(#aL)"/><path d="m1327.2 544.6c.6 7.7-3.7 14.3-9.7 14.8-5.9.5-11.3-5.4-11.9-13.1s3.7-14.3 9.7-14.8 11.3 5.4 11.9 13.1z" fill="url(#aM)"/><path d="m1319.7 532.3c-3.7 2.4-6 7.6-5.5 13.3s3.5 10.5 7.5 12.3c3.7-2.4 6-7.6 5.5-13.3-.4-5.7-3.5-10.5-7.5-12.3z" fill="url(#aN)"/><path d="m668.5 583.8 1350.8-157.1" fill="url(#aP)"/><path d="m581.6 598.2 1439.9-71.8" fill="url(#aQ)"/><path d="m495.5 612.6 1526 89.4" fill="url(#aS)"/><path d="m374.3 632.9 1124.9 248.2" fill="url(#aT)"/><path d="m478.1 510.2 17.4 102.5" fill="url(#aU)" opacity=".5"/><path d="m581.6 598.2-17-99.7" fill="url(#aV)" opacity=".5"/><path d="m668.5 583.8-16.7-97" fill="url(#aW)" opacity=".5"/><path d="m754.6 570.3-16.2-95.2" fill="url(#aX)" opacity=".5"/><path d="m487.8 567.4 1533.7-236.3" fill="url(#aY)" opacity=".25"/><path d="m851.6 553.3-15.5-91.4" fill="url(#aZ)" opacity=".5"/><path d="m937.7 538.8-15.1-88.6" fill="url(#a0)" opacity=".5"/><path d="m1024.6 524.4-14.8-86" fill="url(#a1)" opacity=".5"/><path d="m1110.6 510-14.2-83.3" fill="url(#a2)" opacity=".25"/><path d="m-59.2 657.9 225.4-37.4" fill="url(#a3)" opacity=".5"/><path d="m68.1 685.1-19.9-116.7" fill="url(#a4)" opacity=".5"/><path d="m174.1 667.3-19.3-113.4" fill="url(#a5)" opacity=".5"/><path d="m-33.9 684.5-20.4-119.6" fill="url(#a6)" opacity=".5"/><path d="m-59.2 741.3 1026.9-207" fill="url(#a7)"/><path d="m-59.2 804.4 1168.8-293.9" fill="url(#a8)"/><path d="m1925.3 374.3-1167.3 507.8" fill="url(#a9)"/><path d="m1490.7 446.4-1215.5 434.7" fill="url(#ba)"/><path d="m1251 487-1302.1 392.2" fill="url(#bb)"/><path d="m478.1 510.2-32.2 36.7" fill="url(#bc)" opacity=".5"/><path d="m154.8 553.9 77.8 26.1" fill="url(#bd)" opacity=".5"/><path d="m279.7 649.6 283.2 229.6" fill="url(#be)"/><path d="m193.6 881.1-19.5-213.8" fill="url(#bf)"/><path d="m-16 881.1 84.1-196" fill="url(#bg)"/><path d="m1201.7 495.6-13.8-81" fill="url(#bh)" opacity=".25"/><path d="m1279.2 482.4-13.4-78.7" fill="url(#bi)" opacity=".25"/><path d="m1356.8 469.3-12.9-75.9" fill="url(#bj)" opacity=".25"/><path d="m1412.7 469.3-21.4-84.7" fill="url(#bk)" opacity=".15"/><path d="m1492.3 455.1-13.8-81.1" fill="url(#bl)" opacity=".15"/><path d="m1565 433.8-11.8-69.3" fill="url(#bm)" opacity=".15"/><path d="m1632.4 422.6-11.4-67.1" fill="url(#bn)" opacity=".15"/><path d="m1695 412.2-11.2-65.3" fill="url(#bo)" opacity=".15"/><path d="m1754.9 402.6-10.9-63.8" fill="url(#bp)" opacity=".15"/><path d="m1807.4 393.8-10.6-62.1" fill="url(#bq)" opacity=".15"/><path d="m1859.8 385.1-10.3-60.6" fill="url(#br)" opacity=".15"/><path d="m1919.6 374.9-10-58.5" fill="url(#bs)" opacity=".15"/><path d="m1972.1 366.2-9.7-57" fill="url(#bt)" opacity=".15"/><g fill="#f9f9f9"><path d="m373.5 399.2c.3 1.9-.3 3.5-2.2 3.8s-2.9-1.1-3.2-3l-.9-6.4-3.4.5.9 6.4c.5 3.7 3.4 6.3 7.1 5.8 3.7-.6 5.7-3.9 5.2-7.6l-.9-6.4-3.4.5z"/><path d="m407.8 383.4h3.5v16.8h-3.5z" transform="matrix(.9892 -.1465 .1465 .9892 -52.9869 64.2229)"/><path d="m412.6 383.5 1-.2.4 2.7.7-.1-.4-2.7 1-.1-.1-.6-2.7.4z"/><path d="m418.1 382.1-.4 2.3-1.1-2.1-1 .1.5 3.3.6-.1-.3-2.3 1.1 2.2.6-.1.4-2.4h.1l.3 2.3.7-.1-.5-3.3z"/><path d="m356.3 397.5c0 .1 0 .1-.2.1-.1 0-.1-.1-.1-.1l-.7-2.2-3.1.5 1.9 12.7 3.4-.5-1-6.9c-.1-.6 1-3.5 4.1-3.2 1.6.1 2.3.7 2.3.7s-.4-2.5-.6-3.9c-.6-.2-1-.3-1.5-.3-3-.3-4.4 2.9-4.5 3.1z"/><path d="m384 390.8c-3.8.6-6.4 4-5.8 7.7 0 0 1.4 9.2 1.5 10.4l3.5-.5-.7-4.6-.3-1.7s0-.1.1-.2c.1 0 .1.1.2.1.4.6 2.2 2.9 5.2 1.6 2.7-1.2 4.4-4.1 4-7.2-.5-3.6-4-6.1-7.7-5.6zm1.5 10.2c-1.9.3-3.7-1-3.9-2.9-.3-1.9 1-3.6 2.9-3.9s3.7 1 3.9 2.9-1 3.6-2.9 3.9z"/><path d="m398.9 388.6c-3.8.6-6.4 4-5.8 7.7.5 3.1 2.9 5.4 5.9 5.7 3.3.3 4.4-2.4 4.5-3.1 0-.1 0-.1.1-.2.1 0 .2.1.2.1l.3 2.1 3.5-.5-.9-6.3c-.6-3.5-4-6-7.8-5.5zm1.5 10.2c-1.9.3-3.7-1-3.9-2.9-.3-1.9 1-3.6 2.9-3.9s3.7 1 3.9 2.9-1 3.6-2.9 3.9z"/><path d="m341.1 393.4-4.2.6 2.5 16.6 3.9-.6c5.2-.8 9.1-2.4 8-9.7-1-7.3-5.1-7.6-10.2-6.9zm2.8 13.7-1.4.2-1.6-10.9 1.4-.2c3.2-.5 4.9-.3 5.6 4.7.7 5.2-1.1 5.8-4 6.2z"/><path d="m366.4 356.3c-4.3.6-7.3 4.7-6.7 9s4.7 7.3 9 6.7 7.3-4.7 6.7-9c-.7-4.3-4.7-7.3-9-6.7z"/><path d="m375.9 353.4c2.7 2.1 4.6 5.1 5.1 8.8.7 4.6-1 9-4.1 11.9 6.2-2.9 10.8-8.6 12.3-14.8 2.1-8.6-1.9-14.3-7.9-19.1.3.7.5 1.4.6 2.2.7 4.7-1.9 9.1-6 11z"/><path d="m365.6 344.8c.5 3.3 3.6 5.6 6.9 5.1s5.6-3.6 5.1-6.9-3.6-5.6-6.9-5.1-5.6 3.6-5.1 6.9z"/><path d="m358.5 374.4c-2.3-2.1-4-4.9-4.5-8.2-1-6.9 3.3-13.4 9.9-15.1-1.4-1.5-2.4-3.4-2.7-5.6-.8-5.7 3.1-11 8.8-11.8.5-.1.9-.1 1.4-.1-3.8-2.4-7.6-4.9-10.7-7.7 3.4 13.9-11.5 10.9-14.9 24.7-2.2 9.2 2.6 19.5 12.7 23.8z"/></g><path d="m-7.6-10.4h1930.1v733h-1930.1z" fill="#131415" opacity=".15"/></g></svg>