<svg enable-background="new 0 0 1920 720" viewBox="0 0 1920 720" xmlns="http://www.w3.org/2000/svg" xmlns:xlink="http://www.w3.org/1999/xlink"><clipPath id="a"><path d="m-.1 0h1920.1v720h-1920.1z"/></clipPath><linearGradient id="b" gradientTransform="matrix(1 0 0 -1 0 722)" gradientUnits="userSpaceOnUse" x1="1030.453" x2="708.1569" y1="-226.3653" y2="1054.5028"><stop offset=".2625" stop-color="#ffc388"/><stop offset=".3318" stop-color="#e5a2af"/><stop offset=".4283" stop-color="#c479e1"/><stop offset=".4761" stop-color="#b769f4"/><stop offset=".4844" stop-color="#b467f1"/><stop offset=".6468" stop-color="#7d4cc4"/><stop offset=".7867" stop-color="#5538a3"/><stop offset=".8972" stop-color="#3c2c8e"/><stop offset=".9647" stop-color="#332787"/></linearGradient><linearGradient id="c" gradientTransform="matrix(1 0 0 -1 0 722)" gradientUnits="userSpaceOnUse" x1="1007.5922" x2="811.455" y1="-118.6572" y2="1201.5455"><stop offset=".2514" stop-color="#fa8"/><stop offset=".2993" stop-color="#e592af"/><stop offset=".3661" stop-color="#c475e1"/><stop offset=".3991" stop-color="#b769f4"/><stop offset=".4059" stop-color="#b467f1"/><stop offset=".5368" stop-color="#7d4cc4"/><stop offset=".6496" stop-color="#5538a3"/><stop offset=".7387" stop-color="#3c2c8e"/><stop offset=".7931" stop-color="#332787"/></linearGradient><linearGradient id="d"><stop offset=".2015" stop-color="#1a1468"/><stop offset="1" stop-color="#1a1468" stop-opacity="0"/></linearGradient><linearGradient id="e" gradientTransform="matrix(.9886 -.1504 -.1504 -.9886 -85.4471 290.973)" gradientUnits="userSpaceOnUse" x1="1073.9641" x2="1073.9641" xlink:href="#d" y1="-101.8523" y2="-168.0586"/><linearGradient id="f" gradientTransform="matrix(1 0 0 -1 0 722)" gradientUnits="userSpaceOnUse" x1="265.85" x2="265.85" xlink:href="#d" y1="922.5284" y2="477.1836"/><linearGradient id="g" gradientTransform="matrix(1 0 0 -1 0 722)" gradientUnits="userSpaceOnUse" x1="107.45" x2="107.45" xlink:href="#d" y1="539.0159" y2="381.1091"/><linearGradient id="h" gradientTransform="matrix(.9923 -.1242 -.1242 -.9923 490.7295 593.5532)" gradientUnits="userSpaceOnUse" x1="-240.0568" x2="-240.0568" y1="473.0694" y2="63.174"><stop offset=".2015" stop-color="#4b2395"/><stop offset="1" stop-color="#4b2395" stop-opacity="0"/></linearGradient><linearGradient id="i"><stop offset="0" stop-color="#b669d6" stop-opacity="0"/><stop offset="1" stop-color="#0c051e"/></linearGradient><linearGradient id="j" gradientTransform="matrix(.9994 .03350958 .03350958 -.9994 42.2889 828.1086)" gradientUnits="userSpaceOnUse" x1="688.4904" x2="688.4904" xlink:href="#i" y1="376.7178" y2="441.3869"/><linearGradient id="k"><stop offset="0" stop-color="#ff76ef" stop-opacity="0"/><stop offset="1" stop-color="#ff76ef"/></linearGradient><linearGradient id="l" gradientTransform="matrix(.991 -.1338 -.1338 -.991 -162.754 341.7401)" gradientUnits="userSpaceOnUse" x1="367.5373" x2="367.5373" xlink:href="#k" y1="-119.2546" y2="-298.6838"/><linearGradient id="m" gradientTransform="matrix(.991 -.1338 -.224 -1.6597 -298.6223 -664.4753)" gradientUnits="userSpaceOnUse" x1="495.407" x2="495.407" xlink:href="#k" y1="-595.7222" y2="-738.2656"/><linearGradient id="n" gradientTransform="matrix(.991 -.1338 -.1176 -.8714 -138.5225 521.7571)" gradientUnits="userSpaceOnUse" x1="699.7162" x2="699.7162" xlink:href="#k" y1="24.3919" y2="-140.8972"/><linearGradient id="o" gradientTransform="matrix(.991 -.1338 -.1888 -1.3986 -245.5563 -271.6411)" gradientUnits="userSpaceOnUse" x1="784.2078" x2="784.2078" xlink:href="#k" y1="-470.0794" y2="-710.0031"/><linearGradient id="p" gradientTransform="matrix(.991 -.1338 -.1871 -1.3859 -242.9549 -252.485)" gradientUnits="userSpaceOnUse" x1="587.4401" x2="587.4401" xlink:href="#k" y1="-460.5914" y2="-659.4055"/><linearGradient id="q" gradientTransform="matrix(.991 -.1338 -.1338 -.991 -162.754 341.7401)" gradientUnits="userSpaceOnUse" x1="940.1033" x2="940.1033" xlink:href="#k" y1="-133.7265" y2="-294.0602"/><linearGradient id="r"><stop offset=".227" stop-color="#674cc4" stop-opacity="0"/><stop offset=".8837" stop-color="#674cc4" stop-opacity=".8"/></linearGradient><linearGradient id="s" gradientTransform="matrix(.991 -.1338 -.3995 -2.9601 -562.7137 -2621.0486)" gradientUnits="userSpaceOnUse" x1="994.9066" x2="994.9066" xlink:href="#r" y1="-1033.605" y2="-1103.2629"/><linearGradient id="t" gradientTransform="matrix(.991 -.1338 -.1338 -.991 -162.754 341.7401)" gradientUnits="userSpaceOnUse" x1="310.7503" x2="310.7503" xlink:href="#k" y1="-212.6642" y2="-268.8405"/><linearGradient id="u" gradientTransform="matrix(-.991 .1338 -.1338 -.991 -12887.7842 2059.2476)" gradientUnits="userSpaceOnUse" x1="-13482.9365" x2="-13482.9365" y1="-349.751" y2="-167.4711"><stop offset=".003836464" stop-color="#b669d6"/><stop offset="1" stop-color="#0c051e"/></linearGradient><linearGradient id="v"><stop offset="0" stop-color="#b669d6"/><stop offset="1" stop-color="#4b2395"/></linearGradient><linearGradient id="w" gradientTransform="matrix(-.991 .1338 -.1338 -.991 -12887.7842 2059.2476)" gradientUnits="userSpaceOnUse" x1="-13482.9336" x2="-13482.9336" xlink:href="#v" y1="-117.5431" y2="-181.3212"/><linearGradient id="x"><stop offset="0" stop-color="#4b2395" stop-opacity="0"/><stop offset="1" stop-color="#0c051e"/></linearGradient><linearGradient id="y" gradientTransform="matrix(.991 -.1338 -.1338 -.991 -162.754 341.7401)" gradientUnits="userSpaceOnUse" x1="862.1636" x2="862.1636" xlink:href="#x" y1="-258.0396" y2="-96.6178"/><linearGradient id="z" gradientTransform="matrix(.9994 .03350958 .03350958 -.9994 42.2889 828.1086)" gradientUnits="userSpaceOnUse" x1="632.2645" x2="632.2645" xlink:href="#i" y1="394.0595" y2="492.5885"/><linearGradient id="A"><stop offset="0" stop-color="#4b2395"/><stop offset="1" stop-color="#0c051e"/></linearGradient><linearGradient id="B" gradientTransform="matrix(.991 -.1338 -.1338 -.991 -162.754 341.7401)" gradientUnits="userSpaceOnUse" x1="676.9463" x2="676.9463" xlink:href="#A" y1="-256.2755" y2="-201.7281"/><linearGradient id="C"><stop offset="0" stop-color="#37135f" stop-opacity="0"/><stop offset="1" stop-color="#37135f"/></linearGradient><linearGradient id="D" gradientTransform="matrix(.991 -.1338 -.1338 -.991 -162.754 341.7401)" gradientUnits="userSpaceOnUse" x1="905.6651" x2="905.6651" xlink:href="#C" y1="-256.7615" y2="-203.3737"/><linearGradient id="E" gradientTransform="matrix(.991 -.1338 -.1338 -.991 -162.754 341.7401)" gradientUnits="userSpaceOnUse" x1="394.1497" x2="394.1497" xlink:href="#x" y1="-256.5681" y2="-209.958"/><linearGradient id="F" gradientTransform="matrix(.991 -.1338 -.1338 -.991 -162.754 341.7401)" gradientUnits="userSpaceOnUse" x1="959.1234" x2="959.1234" xlink:href="#C" y1="-255.5643" y2="-208.9634"/><linearGradient id="G"><stop offset="0" stop-color="#4b2395" stop-opacity="0"/><stop offset="1" stop-color="#37135f"/></linearGradient><linearGradient id="H" gradientTransform="matrix(.991 -.1338 -.1338 -.991 -162.754 341.7401)" gradientUnits="userSpaceOnUse" x1="911.4426" x2="911.4426" xlink:href="#G" y1="-269.1096" y2="-231.6342"/><linearGradient id="I"><stop offset="0" stop-color="#b669d6" stop-opacity="0"/><stop offset="1" stop-color="#37135f"/></linearGradient><linearGradient id="J" gradientTransform="matrix(.991 -.1338 -.1338 -.991 -162.754 341.7401)" gradientUnits="userSpaceOnUse" x1="567.0898" x2="567.0898" xlink:href="#I" y1="-244.5144" y2="-203.7165"/><linearGradient id="K" gradientTransform="matrix(.991 -.1338 -.1338 -.991 -162.754 341.7401)" gradientUnits="userSpaceOnUse" x1="750.6625" x2="750.6625" xlink:href="#I" y1="-238.5787" y2="-201.0547"/><linearGradient id="L" gradientTransform="matrix(.991 -.1338 -.1338 -.991 -162.754 341.7401)" gradientUnits="userSpaceOnUse" x1="825.8269" x2="825.8269" y1="-251.1715" y2="-177.9487"><stop offset="0" stop-color="#4b2395"/><stop offset="1" stop-color="#37135f"/></linearGradient><linearGradient id="M" gradientTransform="matrix(.991 -.1338 -.1338 -.991 -162.754 341.7401)" gradientUnits="userSpaceOnUse" x1="836.0365" x2="836.0365" xlink:href="#v" y1="-192.4824" y2="-265.7052"/><linearGradient id="N" gradientTransform="matrix(.991 -.1338 -.1338 -.991 -162.754 341.7401)" gradientUnits="userSpaceOnUse" x1="748.2172" x2="741.6255" y1="-281.4392" y2="-246.0365"><stop offset="0" stop-color="#b669d6"/><stop offset="1" stop-color="#0c051e"/></linearGradient><linearGradient id="O" gradientTransform="matrix(.991 -.1338 -.1338 -.991 -162.754 341.7401)" gradientUnits="userSpaceOnUse" x1="730.5686" x2="730.5686" xlink:href="#A" y1="-224.3337" y2="-242.4253"/><linearGradient id="P" gradientTransform="matrix(.991 -.1338 -.1338 -.991 -162.754 341.7401)" gradientUnits="userSpaceOnUse" x1="449.7731" x2="449.7731" xlink:href="#G" y1="-258.4648" y2="-165.4803"/><linearGradient id="Q" gradientTransform="matrix(.991 -.1338 -.1338 -.991 -162.754 341.7401)" gradientUnits="userSpaceOnUse" x1="474.8977" x2="474.8977" xlink:href="#i" y1="-250.5872" y2="-166.1306"/><linearGradient id="R" gradientTransform="matrix(.991 -.1338 -.1338 -.991 -1068.7108 464.0159)" gradientUnits="userSpaceOnUse" x1="1438.8069" x2="1438.8069" y1="-231.8049" y2="-181.4288"><stop offset=".002682718" stop-color="#0c051e"/><stop offset="1" stop-color="#37135f"/></linearGradient><linearGradient id="S" gradientTransform="matrix(.991 -.1338 -.1338 -.991 -1068.7108 464.0159)" gradientUnits="userSpaceOnUse" x1="1445.8282" x2="1445.8282" xlink:href="#v" y1="-166.3996" y2="-248.8568"/><linearGradient id="T" gradientTransform="matrix(-.991 .1338 -.1338 -.991 -14102.3906 2223.1814)" gradientUnits="userSpaceOnUse" x1="-14569.5977" x2="-14577.7764" y1="-201.6391" y2="-179.5105"><stop offset="0" stop-color="#b669d6"/><stop offset="1" stop-color="#37135f"/></linearGradient><linearGradient id="U" gradientTransform="matrix(.991 -.1338 -.1338 -.991 -162.754 341.7401)" gradientUnits="userSpaceOnUse" x1="583.0792" x2="583.0792" y1="-263.3264" y2="-217.5976"><stop offset="0" stop-color="#b669d6"/><stop offset=".1389" stop-color="#9351b5"/><stop offset=".2976" stop-color="#723b96"/><stop offset=".4611" stop-color="#58297e"/><stop offset=".6293" stop-color="#461d6d"/><stop offset=".8049" stop-color="#3b1562"/><stop offset="1" stop-color="#37135f"/></linearGradient><linearGradient id="V" gradientTransform="matrix(.991 -.1338 -.1338 -.991 -162.754 341.7401)" gradientUnits="userSpaceOnUse" x1="547.8571" x2="547.8571" y1="-256.4381" y2="-214.0728"><stop offset="0" stop-color="#b669d6"/><stop offset=".009120822" stop-color="#b367d2"/><stop offset=".1384" stop-color="#874da3"/><stop offset=".2716" stop-color="#61377a"/><stop offset=".407" stop-color="#422559"/><stop offset=".5451" stop-color="#2a173f"/><stop offset=".6871" stop-color="#190d2d"/><stop offset=".8353" stop-color="#0f0722"/><stop offset="1" stop-color="#0c051e"/></linearGradient><linearGradient id="W" gradientTransform="matrix(.991 -.1338 -.1338 -.991 -162.754 341.7401)" gradientUnits="userSpaceOnUse" x1="315.6507" x2="315.6507" xlink:href="#G" y1="-266.4541" y2="-237.7025"/><linearGradient id="X" gradientTransform="matrix(.991 -.1338 -.1338 -.991 -162.754 341.7401)" gradientUnits="userSpaceOnUse" x1="1077.9507" x2="1077.9507" xlink:href="#k" y1="-117.6842" y2="-297.1135"/><linearGradient id="Y" gradientTransform="matrix(.991 -.1338 -.1338 -.991 -162.754 341.7401)" gradientUnits="userSpaceOnUse" x1="1021.1462" x2="1021.1462" xlink:href="#k" y1="-211.0938" y2="-267.2701"/><linearGradient id="Z" gradientTransform="matrix(.991 -.1338 -.1338 -.991 -162.754 341.7401)" gradientUnits="userSpaceOnUse" x1="1110.394" x2="1102.0237" xlink:href="#x" y1="-255.1363" y2="-189.8597"/><linearGradient id="aa" gradientTransform="matrix(-.9905 .1379 -.1379 -.9905 -4820.1367 980.659)" gradientUnits="userSpaceOnUse" x1="-5861.5034" x2="-5861.5034" xlink:href="#v" y1="-163.3097" y2="-300.9706"/><linearGradient id="ab" gradientTransform="matrix(-.9905 .1379 -.1379 -.9905 -4820.1367 980.659)" gradientUnits="userSpaceOnUse" x1="-5836.4092" x2="-5836.4092" xlink:href="#i" y1="-263.5496" y2="-140.2707"/><linearGradient id="ac" gradientTransform="matrix(.991 -.1338 -.1338 -.991 -162.754 341.7401)" gradientUnits="userSpaceOnUse" x1="1026.0651" x2="1026.0651" xlink:href="#G" y1="-264.8839" y2="-236.1322"/><linearGradient id="ad"><stop offset=".2488" stop-color="#674cc4" stop-opacity="0"/><stop offset=".8069" stop-color="#674cc4" stop-opacity=".8"/></linearGradient><linearGradient id="ae" gradientTransform="matrix(1 0 0 -1 0 722)" gradientUnits="userSpaceOnUse" x1="195.2354" x2="226.5933" xlink:href="#ad" y1="428.5449" y2="88.0573"/><linearGradient id="af" gradientTransform="matrix(1 0 0 -1 0 722)" gradientUnits="userSpaceOnUse" x1="645.9857" x2="677.3435" xlink:href="#ad" y1="470.0575" y2="129.5699"/><linearGradient id="ag" gradientTransform="matrix(1 0 0 -1 0 722)" gradientUnits="userSpaceOnUse" x1="204.3858" x2="220.0161" xlink:href="#r" y1="329.1894" y2="159.4734"/><linearGradient id="ah" gradientTransform="matrix(1 0 0 -1 0 722)" gradientUnits="userSpaceOnUse" x1="640.4297" x2="671.2714" xlink:href="#r" y1="530.3854" y2="195.5015"/><linearGradient id="ai" gradientTransform="matrix(1 0 0 -1 0 722)" gradientUnits="userSpaceOnUse" x1="217.4485" x2="1451.0212" y1="218.2" y2="218.2"><stop offset="0" stop-color="#d16aea"/><stop offset="1" stop-color="#674cc4"/></linearGradient><linearGradient id="aj"><stop offset="0" stop-color="#4b2395" stop-opacity="0"/><stop offset="1" stop-color="#4b2395"/></linearGradient><linearGradient id="ak" gradientTransform="matrix(1 0 0 -1 0 722)" gradientUnits="userSpaceOnUse" x1="420.943" x2="305.1247" xlink:href="#aj" y1="60.3293" y2="154.0835"/><linearGradient id="al" gradientTransform="matrix(.4827 .08728782 -.08728782 -.9853 -1739.048 1015.4871)" gradientUnits="userSpaceOnUse" x1="4643.8457" x2="4628.4814" xlink:href="#aj" y1="782.9136" y2="916.0583"/><linearGradient id="am" gradientTransform="matrix(1 0 0 -1 0 722)" gradientUnits="userSpaceOnUse" x1="439.856" x2="1440.5582" y1="1085.493" y2="-731.8804"><stop offset=".3233" stop-color="#ffc388"/><stop offset=".3912" stop-color="#e5a2af"/><stop offset=".4858" stop-color="#c479e1"/><stop offset=".5326" stop-color="#b769f4"/><stop offset=".537" stop-color="#b467f1"/><stop offset=".6236" stop-color="#7d4cc4"/><stop offset=".6982" stop-color="#5538a3"/><stop offset=".7572" stop-color="#3c2c8e"/><stop offset=".7931" stop-color="#332787"/></linearGradient><linearGradient id="an"><stop offset=".1558" stop-color="#fff"/><stop offset=".8818" stop-color="#fff" stop-opacity="0"/></linearGradient><radialGradient id="ao" cx="1024.8494" cy="91.3853" gradientTransform="matrix(.9959 .09042914 .09042914 -.9959 254.7847 598.9787)" gradientUnits="userSpaceOnUse" r="160.2055" xlink:href="#an"/><radialGradient id="ap" cx="941.073" cy="74.0993" gradientTransform="matrix(.9959 .09042914 .09042914 -.9959 254.7847 598.9787)" gradientUnits="userSpaceOnUse" r="160.613" xlink:href="#an"/><linearGradient id="aq" gradientTransform="matrix(.9959 .09042914 .09042914 -.9959 254.7847 598.9787)" gradientUnits="userSpaceOnUse" x1="1179.7683" x2="952.4109" y1="185.2304" y2="130.0713"><stop offset="0" stop-color="#0c051e" stop-opacity="0"/><stop offset="1" stop-color="#0c051e"/></linearGradient><linearGradient id="ar" gradientTransform="matrix(.9959 .09042914 .09042914 -.9959 254.7847 598.9787)" gradientUnits="userSpaceOnUse" x1="899.3726" x2="770.6041" y1="-69.1785" y2="140.7595"><stop offset="0" stop-color="#fff"/><stop offset="1" stop-color="#fff" stop-opacity="0"/></linearGradient><linearGradient id="as" gradientTransform="matrix(.9969 -.07901101 -.07901101 -.9969 69.2303 306.513)" gradientUnits="userSpaceOnUse" x1="1667.3108" x2="1370.9961" xlink:href="#C" y1="-339.0575" y2="-339.0575"/><linearGradient id="at" gradientTransform="matrix(.9969 -.07901101 -.07901101 -.9969 69.2303 306.513)" gradientUnits="userSpaceOnUse" x1="1245.0898" x2="1245.0898" xlink:href="#A" y1="-359.7295" y2="-346.9834"/><linearGradient id="au"><stop offset="0" stop-color="#37135f"/><stop offset="1" stop-color="#0c051e"/></linearGradient><linearGradient id="av" gradientTransform="matrix(.9969 -.07901101 -.07901101 -.9969 69.2303 306.513)" gradientUnits="userSpaceOnUse" x1="1144.8" x2="1144.8" xlink:href="#au" y1="-359.6776" y2="-347.5521"/><linearGradient id="aw"><stop offset="0" stop-color="#fff"/><stop offset="1" stop-color="#37135f"/></linearGradient><linearGradient id="ax" gradientTransform="matrix(.9969 -.07901101 -.07901101 -.9969 69.2303 306.513)" gradientUnits="userSpaceOnUse" x1="1171.7679" x2="1237.1923" xlink:href="#aw" y1="-292.9623" y2="-292.9623"/><linearGradient id="ay" gradientTransform="matrix(.9969 -.07901101 -.07901101 -.9969 69.2303 306.513)" gradientUnits="userSpaceOnUse" x1="1350.6458" x2="1350.6458" xlink:href="#A" y1="-341.3486" y2="-326.4008"/><linearGradient id="az"><stop offset="0" stop-color="#ff5297"/><stop offset="1" stop-color="#ff5297" stop-opacity="0"/></linearGradient><linearGradient id="aA" gradientTransform="matrix(.9969 -.07901101 -.07901101 -.9969 69.2303 306.513)" gradientUnits="userSpaceOnUse" x1="1396.6929" x2="1562.8743" xlink:href="#az" y1="-309.7255" y2="-309.7255"/><linearGradient id="aB" gradientTransform="matrix(.9969 -.07901101 -.07901101 -.9969 69.2303 306.513)" gradientUnits="userSpaceOnUse" x1="1274.99" x2="1297.382" xlink:href="#aw" y1="-342.9948" y2="-312.8383"/><linearGradient id="aC" gradientTransform="matrix(.9969 -.07901101 -.07901101 -.9969 69.2303 306.513)" gradientUnits="userSpaceOnUse" x1="1230.6185" x2="1306.1774" y1="-292.7812" y2="-292.7812"><stop offset="0" stop-color="#fff"/><stop offset="1" stop-color="#b669d6"/></linearGradient><linearGradient id="aD" gradientTransform="matrix(.9969 -.07901101 -.07901101 -.9969 69.2303 306.513)" gradientUnits="userSpaceOnUse" x1="1194.3793" x2="1267.8204" xlink:href="#aw" y1="-325.8899" y2="-285.6646"/><linearGradient id="aE" gradientTransform="matrix(.9969 -.07901101 -.07901101 -.9969 69.2303 306.513)" gradientUnits="userSpaceOnUse" x1="1209.0917" x2="1171.0638" y1="-313.3086" y2="-352.2465"><stop offset="0" stop-color="#fff"/><stop offset="1" stop-color="#4b2395"/></linearGradient><linearGradient id="aF" gradientTransform="matrix(.9969 -.07901101 -.07901101 -.9969 69.2303 306.513)" gradientUnits="userSpaceOnUse" x1="1339.7349" x2="1379.9934" xlink:href="#aw" y1="-269.5333" y2="-308.3585"/><linearGradient id="aG" gradientTransform="matrix(.9969 -.07901101 -.07901101 -.9969 69.2303 306.513)" gradientUnits="userSpaceOnUse" x1="1399.2601" x2="1399.2601" xlink:href="#aw" y1="-343.4013" y2="-321.1898"/><linearGradient id="aH" gradientTransform="matrix(.9969 -.07901101 -.07901101 -.9969 69.2303 306.513)" gradientUnits="userSpaceOnUse" x1="1214.7893" x2="1194.6705" xlink:href="#A" y1="-285.4923" y2="-305.6111"/><linearGradient id="aI" gradientTransform="matrix(.9969 -.07901101 -.07901101 -.9969 69.2303 306.513)" gradientUnits="userSpaceOnUse" x1="1302.724" x2="1826.7241" xlink:href="#az" y1="-309.7247" y2="-309.7247"/><linearGradient id="aJ" gradientTransform="matrix(.9969 -.07901101 -.07901101 -.9969 69.2303 306.513)" gradientUnits="userSpaceOnUse" x1="1142.2382" x2="1122.549" xlink:href="#au" y1="-325.1203" y2="-344.8095"/><linearGradient id="aK"><stop offset="0" stop-color="#fff"/><stop offset="1" stop-color="#0c051e"/></linearGradient><linearGradient id="aL" gradientTransform="matrix(.9969 -.07901101 -.07901101 -.9969 69.2303 306.513)" gradientUnits="userSpaceOnUse" x1="1129.5787" x2="1129.5787" xlink:href="#aK" y1="-353.0619" y2="-333.4944"/><linearGradient id="aM" gradientTransform="matrix(.9969 -.07901101 -.07901101 -.9969 69.2303 306.513)" gradientUnits="userSpaceOnUse" x1="1133.4403" x2="1133.4403" xlink:href="#aK" y1="-329.0605" y2="-347.0341"/><linearGradient id="aN" gradientTransform="matrix(.9969 -.07901101 -.07901101 -.9969 69.2303 306.513)" gradientUnits="userSpaceOnUse" x1="1237.6761" x2="1216.1993" xlink:href="#A" y1="-322.8114" y2="-344.2882"/><linearGradient id="aO" gradientTransform="matrix(.9969 -.07901101 -.07901101 -.9969 69.2303 306.513)" gradientUnits="userSpaceOnUse" x1="1224.3606" x2="1224.3606" xlink:href="#aK" y1="-351.9953" y2="-332.4279"/><linearGradient id="aP" gradientTransform="matrix(.9969 -.07901101 -.07901101 -.9969 69.2303 306.513)" gradientUnits="userSpaceOnUse" x1="1228.6748" x2="1228.6748" xlink:href="#aK" y1="-327.9941" y2="-345.9677"/><g clip-path="url(#a)"><path d="m1763.1 349.5v-.9h-376.7l136.8-37.2h237v-.9h-233.6l188.3-51.2h45.3v-.9h-41.8l41.9-11.4-.2-.9-45.3 12.3h-379.9l155-58.5h270.3v-.9h-267.8l215.3-81.2h52.5v-.9h-50l50.2-18.9-.3-.9-52.5 19.8h-337.2l204.2-102.6h186.6v-.9h-184.7l139.8-70.3-.4-.8-141.5 71.1h-290.4l106.6-70.3-.5-.8-107.8 71.1h-249.9l78-70.4-.6-.7-78.8 71.1h-265.2l47.7-70.4-.8-.5-48.1 71h-208l23.9-70.6-.9-.3-24 70.9h-189.2l2.1-67.5h-.9l-2.1 67.6h-175.7l-18.1-70.8-.9.2 18 70.6h-245.2v.9h245.4l26.2 102.6h-218.8l-54.3-79.4-.8.5 53.9 78.9h-53.5v.9h54.2l55.5 81.2h-109.7v.9h110.4l40 58.5h-148.5v.9h149.1l35 51.2h-153.7l-32-27.7-.6.7 31.1 26.7h-28.9v.9h30l43.4 37.2h-73.4v.9h74.5l37.5 32.1h-112v.9h113.2l35.5 30.6h-148.7v.9h149.8l27.9 23.9h-177.7v.9h178.8l222.1 190.3-400.7-162.6-.4.9 403.5 163.7.2-.4.1.5 707.2-192.2h571.1v-.9h-567.6l88-23.9h535.2v-1.1h-531.7l111.9-30.4h492.7v-.9h-489.2l118.2-32.1h380.1zm-380.3-.9h-287l98.5-37.2h325.3zm-400-38.2h-149.5l77.6-51.2h173.8zm103.9-51.1h243l-135.6 51.2h-209.2zm-610.3 179.5-127.8 188.6 63.9-188.6zm-63.6-.9 8.1-23.9h72.3l-16.2 23.9zm64.7.9h81.5l-209.4 188.8zm.6-.9 16.2-23.9h92.2l-26.5 23.9zm16.9-24.9 20.6-30.4h105.7l-33.7 30.4zm21.2-31.4 21.8-32.1h120l-35.6 32.1zm22.4-33 25.2-37.2h136.4l-41.2 37.2zm25.9-38.2 34.7-51.2h158.8l-56.7 51.2zm-1.2 0h-107.3l17.3-51.2h124.7zm-.6 1-25.2 37.2h-94.4l12.6-37.2zm-25.8 38.1-21.8 32.1h-83.2l10.9-32.1zm-22.4 33.1-20.6 30.4h-72.6l10.3-30.4zm-94.3 30.4h-66.1l.9-30.4h75.4zm-.3.9-8.1 23.9h-58.4l.7-23.9zm-8.4 24.9-63.9 188.6 5.8-188.6zm148.9 0h76.5l-284.9 187.9zm1-.9 26.5-23.9h86.7l-36.3 23.9zm27.6-24.9 33.7-30.4h99.5l-46.1 30.4zm34.8-31.4 35.6-32.1h112.9l-48.7 32.1zm36.6-33 41.2-37.2h128.5l-56.4 37.2zm42.3-38.2 56.7-51.2h149.7l-77.6 51.2zm57.8-52.1 64.9-58.5h173.9l-88.7 58.5zm-1.4 0h-159.3l39.6-58.5h184.5zm-160.5 0h-125l19.8-58.5h144.8zm-126 0h-113.7l1.8-58.5h131.7zm-.3 1-17.3 51.1h-97.7l1.6-51.2h113.4zm-17.7 52.1-12.6 37.2h-85.9l1.1-37.2zm-12.9 38.1-10.9 32.1h-75.7l1-32.1zm-87.5 32.1h-70.3l-8.2-32.1h79.5zm0 1-.9 30.4h-61.3l-7.8-30.4zm-1 31.3-.7 23.9h-54.2l-6.1-23.9zm-.8 24.9-5.8 188.4-48.1-188.4zm286.2 0h88.8l-373.4 187.7zm1.5-.9 36.3-23.9h100.6l-47.6 23.9zm37.7-24.9 46.1-30.4h115.4l-60.5 30.4zm47.5-31.4 48.7-32.1h131.1l-63.9 32.1zm50.2-33 56.4-37.2h149.1l-74 37.2zm136.8-90.3 88.7-58.5h201.9l-116.4 58.5zm90.1-59.4 123.1-81.2h240.8l-161.6 81.2zm-1.7 0h-174.3l90.1-81.2h207.4zm-175.7 0h-185l55-81.2h220zm-186.1 0h-145.2l27.5-81.2h172.6zm-146.2 0h-132l2.5-81.2h157zm-132.9 0h-122.6l-20.8-81.2h145.8zm0 .9-1.8 58.5h-105.6l-14.9-58.5zm-1.9 59.5-1.6 51.2h-90.6l-13.1-51.2zm-1.6 52.1-1.1 37.2h-79.7l-9.5-37.2zm-81.8 37.2h-119.6l-25.4-37.2h135.5zm.2.9 8.2 32.1h-105.4l-22-32.1zm8.5 33.1 7.8 30.4h-92.1l-20.8-30.4zm8 31.3 6.1 23.9h-81.4l-16.4-23.9zm6.4 24.9 48.4 189.3-129.4-189.3zm432 0h124.3l-498.6 188.1zm1.8-.9 47.6-23.9h140.8l-63.4 23.9zm49.5-24.9 60.5-30.4h161.5l-80.6 30.4zm62.4-31.4 63.9-32.1h183.3l-85.1 32.1zm65.8-33 73.9-37.2h208.5l-98.5 37.2zm802.2-89.3-188.3 51.1h-326.3l135.6-51.2h379zm-379.1-1h-243.6l116.4-58.5h282.2zm372.8-140.6-215.3 81.2h-282.9l161.6-81.2zm-132.6-103.6-204.2 102.6h-241.2l155.6-102.6zm-291.5 0-155.6 102.6h-207.8l113.8-102.6zm-251 0-113.8 102.6h-220.4l69.5-102.6c0 0 264.7 0 264.7 0zm-265.8 0-69.5 102.6h-173l34.8-102.6zm-208.8 0-34.8 102.6h-157.3l3.1-102.6zm-365.3 0h175.4l-3.1 102.6h-146.1zm-192.9 103.6h218.4l20.8 81.2h-183.7zm56.1 82.1h183.3l14.9 58.5h-158.2zm40.6 59.5h157.8l13.1 51.2h-135.9zm-118.7 52.1h153.2l25.4 37.2h-135.2zm44.5 38.1h134.7l22 32.1h-119.2zm38.6 33.1h118.8l20.8 30.4h-104zm36.7 31.3h103.6l16.4 23.9h-92zm120.5 24.9 129.2 189.1-220.7-189.1zm141.1 188.7 500.1-188.7h194.2zm697.7-189.6h-195.1l63.4-23.9h219.8zm91.5-24.9h-220.7l80.6-30.4h252zm115.4-31.4h-253l85.1-32.1h286.1z" fill="url(#b)"/><path d="m-104.6-168.3h2080.6v1050.1h-2080.6z" fill="url(#c)"/><path d="m1144.8 267.9c-20.1 2.7-61.1 4.6-97.7.1-37-4.4-62.7 5.6-62.7 5.6-18 5.5-33.9 13.2-48.8 18.9-18.8 7.1-39.7 6.5-64.2 8.1-23.6 1.5-61 22.4-61 22.4l151.7-23.1 13.1-2 29.7-4.5 8.1-1.2 179.2-27.3c-.1 0-27.3.3-47.4 3z" fill="url(#e)"/><path d="m361.1 146.5c-85.9 6.6-83.4-30.2-143.2-12.5-37.4 11-52.8-9.7-75.2-29.6 0 0-.4-.4-1.2-1-10.4-9.1-22.3-17.8-38.6-23.1-20.1-8.3-46.8-14.5-77.6-9.3-42.3 7.1-63.7 27-86.4 41.8v120.2l169.7-25.8 24.6-3.7 459.6-69.9s-145.7 6.3-231.7 12.9z" fill="url(#f)"/><path d="m-61.1 336.7 337.1-51.3c-4.5-.8-33.8-6.1-59.2-3.5-11.4 1.1-19.1 2.9-19.1 2.9-9.5 2.2-12 4.1-20.8 5.5-6.9 1.1-12.5 2-19.3 1.4-10.6-1-12.2-4.7-23.6-6.6-6.7-1.1-12.1-.8-17.6-.5-24.7 1.6-32.3 10.5-50.4 12.4-18.6 2-18.9-6.6-60.8-14.3-14.1-2.6-22.5-4.1-34.6-4.1-6 0-16.1.3-31.7 3.7z" fill="url(#g)"/><path d="m-88.6 552.8c18.8-126.8 145-135.1 169.8-131.6 36.3 5.1 104.6 30.2 149.8 58.2 9.4 5.8 27.8 17.9 45.9 12.3 10.9-3.4 13.4-10.6 29.8-15.2 9.1-2.5 17.7-3 28.1-3.5 14.8-.8 20.6.6 28.1-3.5 7.2-3.9 12.4-9.4 18.7-13.8 9.5-6.7 21.9-4.5 31.4-2.3 27.5 6.3 35.1 15 53.5 21.1 19.3 6.4 60.4 20.1 90.7 3.4 4.8-2.6 13.1-8.2 26.9-13.2 16.7-6.1 26.3-5.9 31-5.5 6.3.5 10.6 1.9 18 4.3 21.8 7 22 13 31.6 12.4 9.4-.6 13.2-6.5 26.1-6.5 2.8 0 5.6 0 9.1 1 5.9 1.8 6.8 4.4 12.3 5.6 3.6.8 6.5.3 10-.2 4.5-.6 5.8-1.8 10.7-3 0 0 4-.9 9.9-1.2 13.1-.7 28.3 4.1 30.7 4.9l-789.2 98.8-272 41.2c66.8-21.7 94.5-69.4 121.7-61.1 58.7 18 77.4-2.6 77.4-2.6z" fill="url(#h)"/><path d="m362.9 405.5 3.3 24.7" fill="none" stroke="#674cc4" stroke-miterlimit="10" stroke-width="1.1972"/><path d="m390.9 401.5 4 29.8" fill="none" stroke="#674cc4" stroke-miterlimit="10" stroke-width="1.1972"/><path d="m751.1 452.6-6.8 1-6.4-46.9 6.9-.9z" fill="url(#j)"/><path d="m212.7 548.6 45.9-6.2-21.3-157.4-45.9 6.2z" fill="url(#l)"/><path d="m350.8 530 22.9-3.1-42.6-316-22.9 3.1z" fill="url(#m)"/><path d="m542.2 504.2 45.1-6.1-20.1-148.7-45 6.1z" fill="url(#n)"/><path d="m637.1 491.3 22.9-3-37.7-279.3-22.9 3.1z" fill="url(#o)"/><path d="m433.4 518.8 40.3-5.4-32.9-244-40.3 5.4z" fill="url(#p)"/><path d="m783.9 471.5 38.2-5.1-18.9-140.7-38.3 5.1z" fill="url(#q)"/><path d="m849.2 462.7 16.1-2.2-24.6-182.6-16.2 2.2z" fill="url(#s)"/><path d="m160 555.7 38.7-5.2-6.7-49.3-38.6 5.2z" fill="url(#t)"/><path d="m461.4 515.1-1.5.2-7.4-55.1c-1-7.6 4.3-14.6 11.9-15.7l.2 1.5c-6.8.9-11.6 7.2-10.7 14z"/><path d="m511.6 395.7c.6-.1 1-.6.9-1.2l-4.2-31.3c-.1-.6-.6-1-1.2-.9-.6.1-1 .6-.9 1.2l4.2 31.3c0 .6.6 1 1.2.9z" fill="#4b2395"/><path d="m454.8 372.7 19 140.7 68.4-9.2-12.2-91-9.1 1.2-40-34.2z" fill="url(#u)"/><path d="m513.1 361.1-55.6 7.5c-1.9.3-3.2 2.2-2.7 4.1l13.2 49c.4 1.6 1.9 2.6 3.6 2.4l55.6-7.5c1.9-.3 3.2-2.2 2.7-4.1l-13.2-49c-.5-1.6-2-2.6-3.6-2.4z" fill="url(#w)"/><path d="m469.7 375.7 1.1-.2-2.8-8.3-1 .1z"/><path d="m475.8 374.8 1-.1-2.7-8.3-1 .1z" fill="#fff"/><path d="m481.9 374 1-.1-2.7-8.3-1 .1z"/><path d="m488 373.2 1-.2-2.7-8.3-1 .2z"/><path d="m494.1 372.4 1-.2-2.7-8.3-1 .1z"/><path d="m747.4 476.5-43.1 5.8-17.4-128.3 43.1-5.9z" fill="url(#y)"/><path d="m704 482.3-13.5 1.8-17.3-128.3 13.5-1.8z" fill="url(#z)"/><circle cx="702.2" cy="381.2" fill="#0c051e" r=".7"/><circle cx="706.6" cy="375.4" fill="#0c051e" r=".7"/><circle cx="711" cy="369.7" fill="#fff" r=".7"/><circle cx="715.4" cy="363.9" fill="#fff" r=".7"/><circle cx="719.8" cy="358.2" fill="#0c051e" r=".7"/><circle cx="706.7" cy="414.2" fill="#0c051e" r=".7"/><circle cx="711.1" cy="408.4" fill="#0c051e" r=".7"/><circle cx="715.5" cy="402.7" fill="#0c051e" r=".7"/><circle cx="719.8" cy="396.9" fill="#0c051e" r=".7"/><circle cx="724.2" cy="391.1" fill="#0c051e" r=".7"/><circle cx="711.1" cy="447.2" fill="#0c051e" r=".7"/><circle cx="715.5" cy="441.4" fill="#0c051e" r=".7"/><circle cx="719.9" cy="435.6" fill="#0c051e" r=".7"/><circle cx="724.3" cy="429.9" fill="#fff" r=".7"/><circle cx="728.7" cy="424.1" fill="#0c051e" r=".7"/><path d="m566 500.9-47.5 6.5-6.4-47.6 47.5-6.4z" fill="url(#B)"/><path d="m548.9 503.2-1.5.2-1.6-12.2c-1.1-8.2 4.7-15.8 12.9-17l5-.7.2 1.5-5 .7c-7.4 1-12.7 7.9-11.7 15.3z" fill="#df7f95"/><path d="m754 475.6 29.9-4.1-9.4-69.7-30 4z" fill="url(#D)"/><path d="m241.6 544.7 40.8-5.5-8.3-60.9-40.7 5.5z" fill="url(#E)"/><path d="m794.6 470.1 54.6-7.4-5.6-41.4-54.6 7.4z" fill="url(#F)"/><path d="m836 422.3h1.3v3.1h-1.3z" fill="#fff" transform="matrix(.991 -.1338 .1338 .991 -49.1823 115.7566)"/><path d="m831 422.9h1.3v3.1h-1.3z" transform="matrix(.991 -.1338 .1338 .991 -49.3084 115.0919)"/><path d="m826 423.6h1.3v3.1h-1.3z" fill="#fff" transform="matrix(.991 -.1338 .1338 .991 -49.4476 114.4298)"/><path d="m821.1 424.3h1.3v3.1h-1.3z" transform="matrix(.991 -.1338 .1338 .991 -49.5841 113.7809)"/><path d="m816.1 424.9h1.3v3.1h-1.3z" transform="matrix(.991 -.1338 .1338 .991 -49.7102 113.1161)"/><path d="m747.4 476.5 54.5-7.4-3.1-22.9-54.5 7.4z" fill="url(#H)"/><path d="m468 478.2-29.1 3.9-2.4-17.4-35.1 4.7-22.8 29.9s3.4 25.1 3.6 26.4 102.4-13.8 102.4-13.8" fill="url(#J)"/><path d="m637.1 491.3-43.6 5.9-8.7-64.1 43.7-5.9z" fill="url(#K)"/><path d="m617.2 479.3h62.3v10.5h-62.3z" fill="#0c051e" transform="matrix(.991 -.1338 .1338 .991 -58.9991 91.1088)"/><path d="m744.8 476.8-1.5.2-.1-.6c-.9-6.8-7.2-11.6-14-10.7l-7.2 1-.2-1.5 7.2-1c7.6-1 14.7 4.3 15.7 12z" fill="#808080"/><path d="m736.6 477.9-1.5.2-3.8-28.4c-.8-6.3-6.7-10.7-13-9.9l-2.9.4-.2-1.5 2.9-.4c7.1-1 13.7 4 14.6 11.1z"/><path d="m719.7 480.2-59.8 8.1-10.6-78.8c-.3-2.5 1.4-4.8 3.9-5.1l50.7-6.8c2.5-.3 4.8 1.4 5.1 3.9z" fill="url(#L)"/><path d="m725.9 479.4-52 7-10.6-78.8c-.3-2.5 1.4-4.8 3.9-5.1l43-5.8c2.5-.3 4.8 1.4 5.1 3.9z" fill="url(#M)"/><path d="m656.1 416h1.1v3h-1.1z" transform="matrix(.991 -.1338 .1338 .991 -49.9529 91.6147)"/><path d="m657.1 423.3h1.1v3h-1.1z" fill="#fff" transform="matrix(.991 -.1338 .1338 .991 -50.9201 91.815)"/><path d="m658.1 430.5h1.1v3h-1.1z" transform="matrix(.991 -.1338 .1338 .991 -51.8742 92.0127)"/><path d="m659 437.8h1.1v3h-1.1z" fill="#fff" transform="matrix(.991 -.1338 .1338 .991 -52.8441 92.1999)"/><path d="m660 445h1.1v3h-1.1z" fill="#fff" transform="matrix(.991 -.1338 .1338 .991 -53.7981 92.3976)"/><circle cx="682.4" cy="427.1" r=".9"/><circle cx="689.1" cy="426.2" r=".9"/><circle cx="695.7" cy="425.3" r=".9"/><circle cx="702.3" cy="424.4" r=".9"/><circle cx="686.5" cy="431.9" r=".9"/><circle cx="693.1" cy="431" r=".9"/><circle cx="699.7" cy="430.1" r=".9"/><circle cx="683.8" cy="437.5" r=".9"/><circle cx="690.5" cy="436.6" r=".9"/><circle cx="697.1" cy="435.8" r=".9"/><circle cx="703.7" cy="434.9" r=".9"/><circle cx="687.9" cy="442.3" r=".9"/><circle cx="694.5" cy="441.4" r=".9"/><circle cx="701.1" cy="440.5" r=".9"/><circle cx="685.3" cy="448" r=".9"/><circle cx="691.9" cy="447.1" r=".9"/><circle cx="698.5" cy="446.2" r=".9"/><circle cx="705.1" cy="445.3" r=".9"/><circle cx="689.3" cy="452.8" r=".9"/><circle cx="695.9" cy="451.9" r=".9"/><circle cx="702.5" cy="451" r=".9"/><path d="m660.9 468.8h5.8v3.3h-5.8z" transform="matrix(.991 -.1338 .1338 .991 -56.973 93.0487)"/><path d="m666.6 468.4h1.5v3.3h-1.5z" fill="#333" transform="matrix(.991 -.1338 .1338 .991 -56.8865 93.5168)"/><path d="m658.6 477.9 11.6 8.9-10.2 1.5z" fill="#0c051e"/><path d="m571.1 484.6 66.9-9 2.1 15.3-66.9 9.1z" fill="url(#N)"/><path d="m585.1 469.5c-.9.1-1.7-.5-1.8-1.4l-6.1-45.2c-.1-.9.5-1.7 1.4-1.8.9-.1 1.7.5 1.8 1.4l6.1 45.2c0 .9-.6 1.7-1.4 1.8z" fill="#0c051e"/><path d="m563.6 464.8 53.9-7.3c5.7-.8 10.9 3.2 11.7 8.9.8 5.7-3.2 10.9-8.9 11.7l-53.9 7.3c-5.7.8-10.9-3.2-11.7-8.9-.8-5.7 3.2-11 8.9-11.7z" fill="url(#O)"/><path d="m583.5 462.1 53.9-7.3c5.7-.8 10.9 3.2 11.7 8.9.8 5.7-3.2 10.9-8.9 11.7l-53.9 7.3c-5.7.8-10.9-3.2-11.7-8.9-.8-5.7 3.2-11 8.9-11.7z" fill="#b669d6"/><path d="m578.3 430.5h3.2v1.9h-3.2z" fill="#4b2395" transform="matrix(.991 -.1338 .1338 .991 -52.5101 81.4721)"/><path d="m644.4 473.8c3.3-2.1 5.2-6 4.6-10.1-.8-5.7-6-9.7-11.7-8.9l-15.2 2z" fill="#0c051e"/><circle cx="586" cy="472.2" fill="#0c051e" r="2.2"/><circle cx="601.5" cy="470.2" fill="#0c051e" r=".9"/><circle cx="608.2" cy="469.3" fill="#0c051e" r=".9"/><circle cx="615" cy="468.4" fill="#fff" r=".9"/><circle cx="621.7" cy="467.5" fill="#0c051e" r=".9"/><circle cx="628.5" cy="466.6" fill="#fff" r=".9"/><path d="m315 423-1.6-11.1-2.1.3 1.5 11.1-3.3.4-.6-4.4-11.9 1.6.6 4.5-30.1 4 14.9 110.4 69.6-9.4-14.9-110.4z" fill="url(#P)"/><path d="m352 530.4-19.8 2.7-14.9-110.4 19.8-2.7z" fill="url(#Q)"/><path d="m275.7 438.4h1v3.6h-1z" fill="#fff" transform="matrix(.991 -.1338 .1338 .991 -56.4124 40.9167)"/><path d="m282.5 437.4h1v3.6h-1z" transform="matrix(.991 -.1338 .1338 .991 -56.2174 41.816)"/><path d="m289.3 436.5h1v3.6h-1z" fill="#fff" transform="matrix(.991 -.1338 .1338 .991 -56.0354 42.718)"/><path d="m296 435.6h1v3.6h-1z" fill="#fff" transform="matrix(.991 -.1338 .1338 .991 -55.8562 43.6068)"/><path d="m302.8 434.7h1v3.6h-1z" transform="matrix(.991 -.1338 .1338 .991 -55.6743 44.5088)"/><path d="m309.6 433.8h1v3.6h-1z" transform="matrix(.991 -.1338 .1338 .991 -55.4923 45.4107)"/><path d="m294.8 477.3h1v3.6h-1z" fill="#fff" transform="matrix(.991 -.1338 .1338 .991 -61.4448 43.8219)"/><path d="m315.1 474.5h1v3.6h-1z" transform="matrix(.991 -.1338 .1338 .991 -60.8885 46.512)"/><path d="m286.2 519.9h1v3.6h-1z" fill="#fff" transform="matrix(.991 -.1338 .1338 .991 -67.223 43.054)"/><path d="m293 519h1v3.6h-1z" transform="matrix(.991 -.1338 .1338 .991 -67.0411 43.9559)"/><path d="m299.8 518.1h1v3.6h-1z" fill="#fff" transform="matrix(.991 -.1338 .1338 .991 -66.8592 44.8579)"/><path d="m753.6 412.7h1.1v2.3h-1.1z" transform="matrix(.991 -.1338 .1338 .991 -48.5866 104.628)"/><path d="m754.4 419.1h1.1v2.3h-1.1z" transform="matrix(.991 -.1338 .1338 .991 -49.437 104.7924)"/><path d="m755.3 425.5h1.1v2.3h-1.1z" fill="#fff" transform="matrix(.991 -.1338 .1338 .991 -50.2846 104.9701)"/><path d="m756.2 431.9h1.1v2.3h-1.1z" transform="matrix(.991 -.1338 .1338 .991 -51.1323 105.1477)"/><path d="m757 438.3h1.1v2.3h-1.1z" transform="matrix(.991 -.1338 .1338 .991 -51.9826 105.3122)"/><path d="m402.7 463.3c.9-.1 1.5-.9 1.4-1.8l-6.1-45.2c-.1-.9-.9-1.5-1.8-1.4-.9.1-1.5.9-1.4 1.8l6.1 45.2c.1.9.9 1.5 1.8 1.4z" fill="#37135f"/><path d="m396 424.2h3.2v1.9h-3.2z" fill="#0c051e" transform="matrix(.991 -.1338 .1338 .991 -53.3066 57.0224)"/><path d="m421.2 520.5-59.8 8.1-12.6-93.6c-.4-2.7 1.5-5.2 4.3-5.6l49.9-6.7c2.7-.4 5.2 1.5 5.6 4.3z" fill="url(#R)"/><path d="m424.2 520.1-52 7-12.6-93.6c-.4-2.7 1.5-5.2 4.3-5.6l42.2-5.7c2.7-.4 5.2 1.5 5.6 4.3z" fill="url(#S)"/><path d="m360.3 439.3 9.1 4.7c.6.3 1.1 1 1.2 1.7l3.4 24.9c.1.6-.1 1.3-.5 1.8l-7.5 8.6z" fill="url(#T)"/><path d="m410.6 434.9 2-.3-.3-2.4-2 .3c-.7.1-1.1.7-1 1.3.1.8.7 1.2 1.3 1.1z" fill="#37135f"/><path d="m411.6 442.2 2-.3-.3-2.4-2 .3c-.7.1-1.1.7-1 1.3.1.8.7 1.2 1.3 1.1z" fill="#fff"/><path d="m412.6 449.6 2-.3-.3-2.4-2 .3c-.7.1-1.1.7-1 1.3 0 .7.7 1.1 1.3 1.1z" fill="#37135f"/><path d="m413.6 456.9 2-.3-.3-2.4-2 .3c-.7.1-1.1.7-1 1.3 0 .7.6 1.1 1.3 1.1z" fill="#fff"/><path d="m414.6 464.2 2-.3-.3-2.4-2 .3c-.7.1-1.1.7-1 1.3 0 .7.6 1.2 1.3 1.1z" fill="#fff"/><path d="m494.9 510.5-91.4 12.4-4.7-35.3 91.4-12.4z" fill="url(#U)"/><path d="m425.1 520-21.6 2.9-4.7-35.3 21.6-2.9z" fill="url(#V)"/><path d="m475.6 477.1h1.6v2h-1.6z" fill="#fff" transform="matrix(.991 -.1338 .1338 .991 -59.6823 68.0438)"/><path d="m469.5 477.9h1.6v2h-1.6z" fill="#fff" transform="matrix(.991 -.1338 .1338 .991 -59.8444 67.2344)"/><path d="m477.4 490.9h1.6v2h-1.6z" fill="#fff" transform="matrix(.991 -.1338 .1338 .991 -61.5135 68.4095)"/><path d="m471.4 491.7h1.6v2h-1.6z" transform="matrix(.991 -.1338 .1338 .991 -61.6729 67.6133)"/><path d="m479.3 504.6h1.6v2h-1.6z" transform="matrix(.991 -.1338 .1338 .991 -63.3289 68.7856)"/><path d="m473.2 505.5h1.6v2h-1.6z" fill="#fff" transform="matrix(.991 -.1338 .1338 .991 -63.5041 67.979)"/><path d="m463.4 478.7h1.6v2h-1.6z" transform="matrix(.991 -.1338 .1338 .991 -60.0065 66.4251)"/><path d="m457.3 479.6h1.6v2h-1.6z" transform="matrix(.991 -.1338 .1338 .991 -60.1818 65.6184)"/><path d="m451.2 480.4h1.6v2h-1.6z" transform="matrix(.991 -.1338 .1338 .991 -60.3439 64.8091)"/><path d="m445.1 481.2h1.6v2h-1.6z" transform="matrix(.991 -.1338 .1338 .991 -60.506 63.9997)"/><path d="m439 482h1.6v2h-1.6z" transform="matrix(.991 -.1338 .1338 .991 -60.6682 63.1903)"/><path d="m153.4 539.3 57-7.7 2.4 17.6-57 7.7z" fill="url(#W)"/><path d="m243.9 488.8h2.7v1.6h-2.7z" transform="matrix(.991 -.1338 .1338 .991 -63.3012 37.2189)"/><path d="m252.8 495.9h2.7v1.6h-2.7z" fill="#fff" transform="matrix(.991 -.1338 .1338 .991 -64.1722 38.4746)"/><path d="m261.8 502.9h2.7v1.6h-2.7z" fill="#fff" transform="matrix(.991 -.1338 .1338 .991 -65.0274 39.7409)"/><path d="m247.8 517.7h2.7v1.6h-2.7z" fill="#fff" transform="matrix(.991 -.1338 .1338 .991 -67.1328 38.0009)"/><path d="m256.7 524.7h2.7v1.6h-2.7z" transform="matrix(.991 -.1338 .1338 .991 -67.9907 39.254)"/><path d="m265.7 531.8h2.7v1.6h-2.7z" fill="#fff" transform="matrix(.991 -.1338 .1338 .991 -68.8591 40.5229)"/><path d="m916.5 452.1 45.9-6.2-21.3-157.5-45.8 6.2z" fill="url(#X)"/><path d="m863.8 459.2 38.7-5.3-6.7-49.3-38.6 5.3z" fill="url(#Y)"/><path d="m947.2 448.1 40.7-5-8.2-61.4-40.7 5.5z" fill="url(#Z)"/><path d="m994.8 329.9-1.6-11.1 2.2-.3 1.5 11.1 3.3-.4-.6-4.5 11.9-1.7.6 4.5 30-4.2 15.4 110.3-69.5 9.7-15.4-110.3z" fill="url(#aa)"/><path d="m988 443.3 19.8-2.7-15.4-110.4-19.8 2.8z" fill="url(#ab)"/><path d="m1036.3 334.2h1v3.6h-1z" fill="#fff" transform="matrix(.9904 -.1379 .1379 .9904 -36.4288 146.1919)"/><path d="m1029.4 335.2h1v3.6h-1z" transform="matrix(.9904 -.1379 .1379 .9904 -36.632 145.2564)"/><path d="m1022.7 336.1h1v3.6h-1z" fill="#fff" transform="matrix(.9904 -.1379 .1379 .9904 -36.8188 144.3316)"/><path d="m1015.9 337.1h1v3.6h-1z" fill="#fff" transform="matrix(.9904 -.1379 .1379 .9904 -37.0191 143.4096)"/><path d="m1009.2 337.9h1v3.6h-1z" transform="matrix(.9904 -.1379 .1379 .9904 -37.2059 142.4848)"/><path d="m1002.4 338.9h1v3.6h-1z" transform="matrix(.9904 -.1379 .1379 .9904 -37.4062 141.5629)"/><path d="m1028.3 376.8h1v3.6h-1z" fill="#fff" transform="matrix(.9904 -.1379 .1379 .9904 -42.3843 145.4991)"/><path d="m1008.1 379.7h1v3.6h-1z" transform="matrix(.9904 -.1379 .1379 .9904 -42.9717 142.7304)"/><path d="m990 423.3h1v3.6h-1z" fill="#fff" transform="matrix(.991 -.1338 .1338 .991 -47.9658 136.352)"/><path d="m996.8 422.3h1v3.6h-1z" transform="matrix(.991 -.1338 .1338 .991 -47.7839 137.254)"/><path d="m1003.6 421.4h1v3.6h-1z" fill="#fff" transform="matrix(.991 -.1338 .1338 .991 -47.6019 138.156)"/><path d="m857.3 442.7 56.9-7.6 2.4 17.5-57 7.7z" fill="url(#ac)"/><path d="m949.5 392.2h2.7v1.6h-2.7z" transform="matrix(.991 -.1338 .1338 .991 -44.0276 130.7579)"/><path d="m958.4 399.3h2.7v1.6h-2.7z" fill="#fff" transform="matrix(.991 -.1338 .1338 .991 -44.8987 132.0136)"/><path d="m967.4 406.3h2.7v1.6h-2.7z" fill="#fff" transform="matrix(.991 -.1338 .1338 .991 -45.7539 133.2799)"/><path d="m953.4 421.1h2.7v1.6h-2.7z" fill="#fff" transform="matrix(.991 -.1338 .1338 .991 -47.8593 131.5399)"/><path d="m962.3 428.2h2.7v1.6h-2.7z" transform="matrix(.991 -.1338 .1338 .991 -48.7303 132.7957)"/><path d="m971.3 435.2h2.7v1.6h-2.7z" fill="#fff" transform="matrix(.991 -.1338 .1338 .991 -49.5856 134.0619)"/><path d="m400.7 502.1-18.5 23.7 21.3-2.9z" fill="#0c051e"/><path d="m505.6 473.8h10.6v34.4h-10.6z" fill="#0c051e" transform="matrix(.991 -.1338 .1338 .991 -61.0988 72.7752)"/><path d="m336.6 531.9-1.5.2-2.7-19.8c-1.2-9.2 5.2-17.7 14.4-18.9l9.7-1.3.2 1.5-9.7 1.3c-8.4 1.1-14.3 8.9-13.1 17.3z" fill="#b669d6"/><path d="m250.3 481.8-13-96.5-45.9 6.1 19 140.5-14 1.9-4.4-32.3-38.6 5.2 4.3 32.3-4.3.6 2.4 17.6 57-7.7-.1-.6 28.9-3.9 11.7-1.6 5.3-.7 23.8-3.2-8.3-60.9z" fill="url(#ae)"/><path d="m1042.1 323.6-30.1 4.2-.6-4.5-11.9 1.7.6 4.5-3.3.5-1.6-11.1-2.2.3 1.6 11.1-22.1 3.1 6.8 48.8-25.2 3.4-7.4-54.7-45.9 6.2 13.5 100.1-.2-1.8-14 1.9-4.4-32.3-37.4 5-10.8-80.2-16.2 2.2 14.8 109.7-2.7-20-6.5.9h-.3l-4.6.6-1.3.2-4.2.6-.8.1-4.7.6h-.3l-3.6.5-.7.1-7.9-58.6-38.3 5.2 9.4 69.6-5.3-39.4-29.6 4-6.9.9-7.9-58.5-43.1 5.8 6.1 45h-.2l-6.1-45-13.5 1.8 6.1 45-26 3.5c-2.5.3-4.3 2.6-3.9 5.1l6.4 47.7-33.5-248.2-22.9 3.1 29 215.1-43.6 5.9 3.8 28.3-3 .4-4.2-31.2v-.3l-1-7.8c-.1-.8-.8-1.4-1.6-1.4h-.2c-.9 0-1.5.7-1.4 1.6l1.1 8 .2 1.8-21.5-159.7-45.1 6.1 18.2 134.4c0-.2 0-.5-.1-.7l-13.2-49c-.4-1.6-1.9-2.6-3.6-2.4l-5 .7-21.8 2.9h-.3l-6.3.9-.5.1-11.1 1.5h-.2l-10.4 1.4c-1.9.3-3.2 2.2-2.7 4.1l9.7 71.8-23.6-175.1-40.3 5.4 25.8 191.3-9.2 1.2-.5-3.4-.2-1.8-.7-5.5-.3-2.4-.7-4.9-.2-1.8-.7-5.5-.3-2.4-1.8-13.1c-.4-2.7-2.9-4.6-5.6-4.3l-7.4 1-3.2.4-16.8 2.3-18.1 2.4-29.4-217.5-22.9 3.1 27.6 206.3-21 2.8-1.5-11.1-2.2.3 1.5 11.1-3.3.4-.6-4.5-11.9 1.6.6 4.5-30.1 4.1 14.9 110.4 38.8-5.2 11-1.5 19.8-2.7v-.1l37.8-5.2c13.3-1.5 41.6-5.5 63.8-8.7l177.4-24.2 9.1-1.2 19.9-2.7 42.1-5.7 2-.3 15.7-2.1 27.6-3.7 6.6-.9 24.9-3.4 15.7-2.1 54.6-7.4-.1-.4.1.4 16.2-2.2-.1-.4 122.7-16.8 19.8-2.8 49.8-6.9zm-409.8 132.2-1.5-11zm-53.8-22.9 4 29.6zm-113.8 13.4 4.3 32.1-4.3-32.1c-.1 0 0 0 0 0z" fill="url(#af)"/><path d="m250.3 481.8-13-96.5-45.9 6.1 19 140.5-14 1.9-4.4-32.3-38.6 5.2 4.3 32.3-4.3.6 2.4 17.6 57-7.7-.1-.6 28.9-3.9 11.7-1.6 5.3-.7 23.8-3.2-8.3-60.9z" fill="url(#ag)"/><path d="m1042.1 323.6-30.1 4.2-.6-4.5-11.9 1.7.6 4.5-3.3.5-1.6-11.1-2.2.3 1.6 11.1-22.1 3.1 6.8 48.8-25.2 3.4-7.4-54.7-45.9 6.2 13.5 100.1-.2-1.8-14 1.9-4.4-32.3-37.4 5-10.8-80.2-16.2 2.2 14.8 109.7-2.7-20-6.5.9h-.3l-4.6.6-1.3.2-4.2.6-.8.1-4.7.6h-.3l-3.6.5-.7.1-7.9-58.6-38.3 5.2 9.4 69.6-5.3-39.4-29.6 4-6.9.9-7.9-58.5-43.1 5.8 6.1 45h-.2l-6.1-45-13.5 1.8 6.1 45-26 3.5c-2.5.3-4.3 2.6-3.9 5.1l6.4 47.7-33.5-248.2-22.9 3.1 29 215.1-43.6 5.9 3.8 28.3-3 .4-4.2-31.2v-.3l-1-7.8c-.1-.8-.8-1.4-1.6-1.4h-.2c-.9 0-1.5.7-1.4 1.6l1.1 8 .2 1.8-21.5-159.7-45.1 6.1 18.2 134.4c0-.2 0-.5-.1-.7l-13.2-49c-.4-1.6-1.9-2.6-3.6-2.4l-5 .7-21.8 2.9h-.3l-6.3.9-.5.1-11.1 1.5h-.2l-10.4 1.4c-1.9.3-3.2 2.2-2.7 4.1l9.7 71.8-23.6-175.1-40.3 5.4 25.8 191.3-9.2 1.2-.5-3.4-.2-1.8-.7-5.5-.3-2.4-.7-4.9-.2-1.8-.7-5.5-.3-2.4-1.8-13.1c-.4-2.7-2.9-4.6-5.6-4.3l-7.4 1-3.2.4-16.8 2.3-18.1 2.4-29.4-217.5-22.9 3.1 27.6 206.3-21 2.8-1.5-11.1-2.2.3 1.5 11.1-3.3.4-.6-4.5-11.9 1.6.6 4.5-30.1 4.1 14.9 110.4 38.8-5.2 11-1.5 19.8-2.7v-.1l37.8-5.2c13.3-1.5 41.6-5.5 63.8-8.7l177.4-24.2 9.1-1.2 19.9-2.7 42.1-5.7 2-.3 15.7-2.1 27.6-3.7 6.6-.9 24.9-3.4 15.7-2.1 54.6-7.4-.1-.4.1.4 16.2-2.2-.1-.4 122.7-16.8 19.8-2.8 49.8-6.9zm-409.8 132.2-1.5-11zm-53.8-22.9 4 29.6zm-113.8 13.4 4.3 32.1-4.3-32.1c-.1 0 0 0 0 0z" fill="url(#ah)"/><path d="m-59.2 706.4-1.9-52.1v-71.2l2082.6-281.9v88.1z" fill="url(#ai)"/><path d="m458 618.4-212.9 35.9-12.5-74.3 213.3-33.1z" fill="url(#ak)"/><path d="m458 618.4-53.4 9-12.2-72.2 53.5-8.3z" fill="url(#al)"/><path d="m2021.5 881.1v-523.1l-2080.7 348.4v174.7z" fill="url(#am)"/><path d="m1321.9 567.4 4.2-46 11.5-5.1c-9.4-29.2-35.5-51.4-68-54.4-43.4-3.9-81.8 28.1-85.8 71.5-1.4 15.5 1.8 30.4 8.5 43.4z" fill="url(#ao)"/><path d="m1237.2 573.7 4.2-46 11.5-5.1c-9.4-29.2-35.5-51.4-68-54.4-43.4-3.9-81.8 28.1-85.8 71.5-1.4 15.5 2.8 33.5 9.5 46.5z" fill="url(#ap)"/><path d="m1237.2 573.7c-.7-2.7 58-81.8 58-81.8l363.5-29.1-7.2 79.7z" fill="url(#aq)"/><path d="m1241 573.5 8.5-22-56.7-8.6-319.5 69.4 311.8-34.6" fill="url(#ar)"/><path d="m1434.3 516.3c-9.2.7-15.9 10.6-14.9 22.1.9 11.5 9.1 20.2 18.2 19.5l476.2-35.3 4-44.4z" fill="url(#as)"/><path d="m1451.2 512.8-15.7 1.2c-9.6.8-16.7 11.2-15.7 23.2 1 12.1 9.5 21.2 19.2 20.5l15.7-1.2c9.6-.8 16.7-11.2 15.7-23.2-1-12.1-9.6-21.3-19.2-20.5z" fill="#0c051e"/><path d="m1339.1 521.7-24.4 1.9 3.5 43.7 24.4-1.9c9.3-.7 16.1-11.1 15.1-23.2s-9.3-21.2-18.6-20.5z" fill="url(#at)"/><path d="m1236.2 532-15.8 1.3 3.3 41.5 15.8-1.3c8-.6 13.7-10.4 12.8-21.9s-8.1-20.2-16.1-19.6z" fill="url(#av)"/><path d="m1240 518.6 47.5-24.4c2.4-1.2 5.1-2 7.8-2.2l37-2.9-34 33.7" fill="#0c051e"/><path d="m1287.4 494.2-47.5 24.4 3.4.2.9-.6 47.3-24.4 38.7-3.1 1.8-1.8-37 2.9c-2.5.4-5.2 1.1-7.6 2.4z" fill="url(#ax)"/><path d="m1385.5 547 91.7-7.2-1.8-22.9-113.1 8.9" fill="#0c051e"/><path d="m1465.8 540.7-.7-8.8-81.6 6.5 26.9-31.5 88.1-7-7.4 19.7" fill="url(#ay)"/><path d="m1484.8 493.1-4.3 6.2.8 12 5.3 5.5 167.9-13.3-1.9-23.7z" fill="url(#aA)"/><path d="m1328.9 500.4-.9-11.1 96-7.6.8 11.1" fill="#4b2395"/><path d="m1392.1 516.8-44.4-17.9 77.1-6.1 55.7 6.5"/><path d="m1403.4 499.6-28 8.2 1 11.7 28.9 3.7 5.7-8.1-.6-8.2z" fill="#fff"/><path d="m1484.8 493.1 28.9 3.8.9 11.6-28 8.3-6.9-7.1-.7-8.3z" fill="#fff"/><path d="m1404.2 501.6h94.8v12h-94.8z" fill="#fff" transform="matrix(.9969 -.07900862 .07900862 .9969 -35.5677 116.2784)"/><path d="m1376.4 519.5 28.9 3.7-19.8 23.8-42.4 3.4z" fill="url(#aB)"/><path d="m1295.3 514.2 32.7-24.9 75.4 10.3-28 8.2" fill="url(#aC)"/><path d="m1317.2 501.6h30v.4h-30z" fill="#0c051e" transform="matrix(.7287 -.6849 .6849 .7287 17.8008 1048.5559)"/><path d="m1240 518.6-47.2 24.3.6 8 12.1 10.4 4.3-.3-.7-1.8c-2.8-8.1-.4-21.6 7.9-24.8 8.4-3.2 18.4 2.7 22.3 13.2l4 10.8 57.5-4.6c-3.5-12.7-.6-25.3 9.6-29.2 10.9-4.2 23.9 3.5 29 17.1l3.3 8.8 7.2-.6 26.5-30.4-.9-11.6z" fill="url(#aD)"/><path d="m1289.8 531.9c-15.8 1.2-30.4 8.4-40.7 20l-5.6 6.3 57.3-4.5c-2.4-8.5-1.1-17 2.6-22.9z" fill="url(#aE)"/><path d="m1424 481.7 60.8 11.4-4.3 6.2-55.7-6.5z" fill="url(#aF)"/><path d="m1514.6 508.5-27 30.4-21.8 1.8 20.8-23.9" fill="url(#aG)"/><path d="m1266.6 544.5-20 1.6-2.2-27.9h.4l2.2 27.4 19.4-1.5 30.3-30.2.3.3z" fill="#0c051e"/><path d="m1270.9 516.1 18.4-11.8c.7-.4 1.4-.7 2.2-.7l19.4-1.5-14.3 12z" fill="url(#aH)"/><path d="m1403.4 499.6-28 8.2 1 11.7 28.9 3.7 512.2-41.2 2.1-23.3z" fill="url(#aI)"/><path d="m1240.7 548.9h59v.4h-59z" fill="#0c051e" transform="matrix(.9969 -.07900862 .07900862 .9969 -39.4141 102.0758)"/><path d="m1266.6 544.5 10.1-10.1c-.3.1-.6.2-.9.3l-9.5 9.4-9.7.8c-.2.2-.4.3-.6.5z" fill="#fff"/><path d="m1250.5 550.5c-.1.2-.3.3-.4.5l49.6-3.9v-.4z" fill="#fff"/><path d="m1356.7 538.9h36.7v.4h-36.7z" fill="#0c051e" transform="matrix(.9969 -.07900862 .07900862 .9969 -38.2958 110.3291)"/><path d="m1474 530.1h21.9v.4h-21.9z" fill="#0c051e" transform="matrix(.9969 -.07900862 .07900862 .9969 -37.2571 118.9843)"/><path d="m1236.4 552.9c.9 11.5-4.8 21.3-12.8 21.9s-15.1-8.2-16.1-19.6c-.9-11.5 4.8-21.3 12.8-21.9 8-.7 15.2 8.1 16.1 19.6z" fill="url(#aJ)"/><path d="m1231.7 553.3c.6 7.7-3.2 14.3-8.6 14.7s-10.2-5.5-10.8-13.2 3.2-14.3 8.6-14.7c5.4-.5 10.2 5.4 10.8 13.2z" fill="url(#aL)"/><path d="m1224.8 540.9c-3.3 2.4-5.3 7.5-4.8 13.3.5 5.7 3.3 10.5 6.9 12.4 3.3-2.4 5.3-7.5 4.8-13.3s-3.3-10.5-6.9-12.4z" fill="url(#aM)"/><path d="m1332.7 544.1c1 12.1-5.8 22.4-15.1 23.2s-17.6-8.4-18.6-20.5 5.8-22.4 15.1-23.2 17.7 8.4 18.6 20.5z" fill="url(#aN)"/><path d="m1327.2 544.6c.6 7.7-3.7 14.3-9.7 14.8-5.9.5-11.3-5.4-11.9-13.1s3.7-14.3 9.7-14.8 11.3 5.4 11.9 13.1z" fill="url(#aO)"/><path d="m1319.7 532.3c-3.7 2.4-6 7.6-5.5 13.3s3.5 10.5 7.5 12.3c3.7-2.4 6-7.6 5.5-13.3-.4-5.7-3.5-10.5-7.5-12.3z" fill="url(#aP)"/><g fill="none"><path d="m668.5 583.8 1350.8-157.1"/><path d="m581.6 598.2 1439.9-71.8"/><path d="m495.5 612.6 1526 89.4"/><path d="m374.3 632.9 1124.9 248.2"/><path d="m478.1 510.2 17.4 102.5"/><path d="m581.6 598.2-17-99.7"/><path d="m668.5 583.8-16.7-97"/><path d="m754.6 570.3-16.2-95.2"/><path d="m487.8 567.4 1533.7-236.3"/><path d="m851.6 553.3-15.5-91.4"/><path d="m937.7 538.8-15.1-88.6"/><path d="m1024.6 524.4-14.8-86"/><path d="m1110.6 510-14.2-83.3"/><path d="m-59.2 657.9 225.4-37.4"/><path d="m68.1 685.1-19.9-116.7"/><path d="m174.1 667.3-19.3-113.4"/><path d="m-59.2 741.3 1026.9-207"/><path d="m-59.2 804.4 1168.8-293.9"/><path d="m1925.3 374.3-1167.3 507.8"/><path d="m1490.7 446.4-1215.5 434.7"/><path d="m1251 487-1302.1 392.2"/><path d="m478.1 510.2-32.2 36.7"/><path d="m154.8 553.9 77.8 26.1"/><path d="m279.7 649.6 283.2 229.6"/><path d="m193.6 881.1-19.5-213.8"/><path d="m-16 881.1 84.1-196"/><path d="m1201.7 495.6-13.8-81"/><path d="m1279.2 482.4-13.4-78.7"/><path d="m1356.8 469.3-12.9-75.9"/><path d="m1412.7 469.3-21.4-84.7"/><path d="m1492.3 455.1-13.8-81.1"/><path d="m1565 433.8-11.8-69.3"/><path d="m1632.4 422.6-11.4-67.1"/><path d="m1695 412.2-11.2-65.3"/><path d="m1754.9 402.6-10.9-63.8"/><path d="m1807.4 393.8-10.6-62.1"/><path d="m1859.8 385.1-10.3-60.6"/><path d="m1919.6 374.9-10-58.5"/></g><g fill="#f9f9f9" opacity=".9"><path d="m355.4 402.6c.3 2.5-1.9 4-4.9 4.4s-5.6-.5-5.9-3 1.9-4 4.9-4.4 5.5.5 5.9 3zm-6.1-4.2c-3.9.5-6.8 2.8-6.4 5.8s3.8 4.4 7.7 3.9 6.8-2.8 6.4-5.8c-.4-2.9-3.8-4.4-7.7-3.9z"/><path d="m370 400.6c.3 2.5-1.9 4-4.9 4.4s-5.6-.5-5.9-3 1.9-4 4.9-4.4c3.1-.4 5.6.6 5.9 3zm-6-4.1c-3.9.5-6.8 2.8-6.4 5.8s3.8 4.4 7.7 3.9 6.8-2.8 6.4-5.8-3.8-4.4-7.7-3.9z"/><path d="m392.5 388.4h1.7v13.8h-1.7z" transform="matrix(.9914 -.1308 .1308 .9914 -48.3262 54.8447)"/><path d="m407.3 390.9.2 1.6c-1.4-.9-3.3-1.3-5.5-1-3.9.5-6.8 2.8-6.4 5.8s3.8 4.4 7.7 3.9c2.1-.3 3.9-1.1 5-2.2l.2 1.4 1.7-.2-1.2-9.4zm-4.1 9.1c-3 .4-5.6-.5-5.9-3s1.9-4 4.9-4.4 5.4.8 5.8 3.5l.1 1.1c-.4 1-2.5 2.5-4.9 2.8z"/><path d="m389.4 394.2c-.9-.4-2-.8-3.6-.5-1.7.2-2.8.8-3.5 1.5-.3.3-.6.6-.8.8-.3-.2-.6-.5-.9-.6-.8-.4-2-.7-3.6-.5s-2.6.8-3.4 1.4l-.1-.8-1.7.2 1.2 9.4 1.7-.2-.9-6.6c.3-.6 1-1.9 3.2-2.2 3-.4 3.8 1.5 3.8 1.5l.8 6.4 1.7-.2-.8-6.2c0-.1 0-2.2 3.3-2.6 3.1-.4 3.8 1.8 3.8 1.8l.8 6.1 1.5-.2-.8-6.4c0-.7-.6-1.5-1.7-2.1z"/><path d="m342.1 404.7-1.2-9.4-1.7.2 1.2 9.5s.2 1.3-.5 2.2c-.6.7-1.4 1.2-3 1.3-1 .1-2.3 0-3.5 0-.2 0-.4 0-.6 0l-.5 1.3h1.1c1.1 0 2.3.1 3.3 0 2-.2 3.4-.6 4.4-1.8 1.3-1.2 1.1-3 1-3.3z"/><path d="m412.6 385.8-1.7.2 1.4 10.7 1.7-.2zm.7 12.1c-.7.1-1.2.6-1.2 1.1.1.6.7.9 1.4.8s1.2-.6 1.2-1.1c-.1-.6-.7-.9-1.4-.8z"/><path d="m378.1 340.1c-.6.9-1 1.9-1.1 2.9-3.2-.2-6.3 1.2-8.3 3.7-.1.1-.2.2-.3.4l-8 10.7 5.6 4.2 7.8-10.6c.5-.7 1.3-1.2 2.1-1.3s1.6.1 2.2.6c1.4 1 1.6 3 .5 4.4l-.1.1 5.6 4.2.2-.2c.1-.1.2-.2.3-.4 1.8-2.7 2.2-6 1.1-9 .9-.5 1.8-1.1 2.4-1.9 2.1-2.8 1.5-6.7-1.3-8.8-2.7-2.4-6.6-1.8-8.7 1z"/><path d="m366.9 347c-.1-.1-.3-.2-.5-.3-2.6-1.5-5.7-1.9-8.6-.8-.5-.9-1.1-1.8-1.9-2.4-2.8-2.1-6.7-1.5-8.8 1.3s-1.5 6.7 1.3 8.8c.9.6 1.9 1 2.9 1.1-.2 3 1.1 6 3.3 8 .1.1.3.2.4.4.1.1.2.2.4.3l10.7 7.9 4.2-5.6-10.6-7.8c-.4-.3-.6-.5-.8-.9-.7-1.1-.7-2.5 0-3.5.8-1.1 2.1-1.4 3.3-1.1.4.1.7.3 1.1.5l.1.1 4.2-5.6-.2-.2c-.3-.1-.4-.1-.5-.2z"/><path d="m369.8 357.8 10.6 7.8c.4.3.6.5.8.9.7 1.1.7 2.5 0 3.5-.8 1.1-2.1 1.4-3.3 1.1-.4-.1-.7-.3-1.1-.5l-.1-.1-4.2 5.6.6.4c.1.1.3.2.5.3 2.6 1.5 5.7 1.9 8.6.8.5.9 1.1 1.8 1.9 2.4 2.8 2.1 6.7 1.5 8.8-1.3s1.5-6.7-1.3-8.8c-.9-.6-1.9-1-2.9-1.1.2-3-1.1-6-3.3-8-.1-.1-.3-.2-.4-.4-.1-.1-.2-.2-.4-.3l-10.7-7.9z"/><path d="m366.1 372.1c-.3.4-.5.6-.9.8-1.1.7-2.5.7-3.5 0-1.1-.8-1.4-2.1-1.1-3.3.1-.4.3-.7.5-1.1l.1-.1-5.2-3.8-.2.2c-.1.1-.2.2-.3.4s-.2.3-.3.5c-1.5 2.5-1.7 5.4-.8 8 .1.2.1.4.2.5-.2.1-.4.1-.5.2-.8.4-1.6 1-2.2 1.8-1.9 2.6-1.4 6.1 1.2 8s6.1 1.4 8-1.2c.6-.8.9-1.7 1.1-2.6h.6c3 .2 5.9-1.1 8-3.3.1-.1.2-.3.4-.4.1-.1.2-.2.3-.4l7.9-10.7-5.6-4.2z"/></g><path d="m-6.3-8.5h1930.1v733h-1930.1z" fill="#131415" opacity=".15"/></g></svg>