<svg width="626" height="308" viewBox="0 0 626 308" fill="none" xmlns="http://www.w3.org/2000/svg">
<path d="M335.739 97.402C339.048 109.351 343.744 120.979 349.723 131.86C349.936 132.181 350.15 132.607 350.47 132.714C350.79 132.82 351.218 132.714 351.538 132.607C364.989 128.553 378.333 124.606 391.783 120.553C395.413 119.486 399.15 118.311 401.925 115.752C397.868 103.803 393.919 91.8545 390.289 79.7992C372.248 84.3866 354.314 89.7207 336.699 95.6951" fill="white"/>
<path d="M435.125 41.4999C438.648 55.7955 443.025 69.9843 448.47 83.7465C451.992 81.5062 456.262 80.7594 460.425 79.9059C477.186 76.3854 493.626 71.478 509.425 65.0769C509.959 64.8636 510.493 64.6502 510.814 64.2235C511.347 63.5834 511.24 62.6232 511.027 61.8764C509.212 50.568 506.009 39.4729 501.633 28.8045C501.419 28.3778 501.205 27.8444 500.778 27.631C500.352 27.4177 499.818 27.4177 499.284 27.5244C477.72 30.7249 456.369 35.0989 435.339 40.6464" fill="white"/>
<path d="M434.805 282.285C437.58 289.325 440.356 296.366 443.025 303.408C443.132 303.834 443.345 304.261 443.772 304.368C444.093 304.475 444.52 304.368 444.84 304.261C457.01 300.207 469.287 296.153 481.456 291.993C482.203 291.779 483.057 291.46 483.271 290.713C483.484 290.179 483.271 289.539 483.058 288.899C481.029 283.565 478.468 278.337 475.372 273.536C474.837 272.682 474.304 271.83 473.45 271.402C472.489 270.763 471.208 270.763 470.033 270.763C464.589 270.976 459.358 272.79 454.234 274.603C447.722 276.951 441.21 279.191 434.699 281.538" fill="white"/>
<path d="M109.529 270.656C111.984 282.604 115.186 294.552 118.923 306.182C137.818 301.274 156.393 295.406 174.754 288.579C171.232 277.377 167.709 266.281 164.186 255.08C164.079 254.653 163.866 254.12 163.546 253.907C163.118 253.586 162.478 253.693 161.944 253.907C144.33 258.174 126.93 263.402 109.848 269.375" fill="white"/>
<path d="M27.9692 207.073C30.6381 219.981 33.9474 232.676 37.8973 245.265C38.1108 245.799 38.2175 246.332 38.7513 246.545C39.0715 246.759 39.4986 246.653 39.9256 246.545C59.1412 243.451 78.1432 239.29 96.825 234.063C97.679 233.85 98.6397 233.53 98.96 232.676C99.2803 232.037 99.0667 231.29 98.8532 230.649C95.7575 220.301 92.1278 210.059 88.0712 200.032C87.6442 199.071 87.2172 198.111 86.3632 197.577C85.5092 197.044 84.4416 197.257 83.4808 197.364C65.1193 200.032 46.8645 202.806 28.503 205.472" fill="white"/>
<path d="M439.93 181.255C439.93 178.268 441.424 175.6 443.026 173.041C448.683 163.759 455.622 154.477 456.477 143.703C456.796 139.329 456.049 134.741 457.223 130.474C457.864 128.34 459.465 125.993 461.814 126.206C463.628 126.42 464.802 128.127 465.55 129.833C466.617 128.127 468.859 127.38 470.781 127.914C472.702 128.553 473.983 130.58 473.877 132.501C475.051 131.647 476.759 131.754 477.933 132.607C479.001 133.461 479.428 135.168 478.894 136.555C479.428 135.488 481.029 135.062 482.097 135.701C483.164 136.342 483.591 137.835 482.844 138.902C484.445 138.902 485.94 140.289 485.94 141.782C485.94 142.636 485.619 143.382 485.406 144.236C482.31 152.131 479.214 160.025 476.118 168.026C475.905 168.667 475.585 169.306 475.051 169.734C474.304 170.266 473.45 170.16 472.596 170.266C469.82 170.48 467.365 172.293 464.802 173.254C461.921 174.427 458.825 174.64 455.836 175.387C451.352 176.454 447.189 178.481 443.132 180.721C442.278 181.255 441.21 181.788 440.25 181.362" fill="white"/>
<path d="M483.805 151.17C489.997 147.01 496.295 142.743 502.487 138.582C503.02 138.155 503.661 137.835 503.981 137.195C504.408 136.448 504.408 135.488 504.408 134.634C504.515 132.714 504.835 130.793 505.583 128.981C505.796 128.234 506.116 127.593 506.65 127.06C508.251 125.459 511.347 126.526 512.521 128.447C513.695 130.474 513.589 132.927 513.482 135.168C513.375 134.208 513.162 133.141 513.482 132.181C513.695 131.221 514.549 130.261 515.51 130.261C517.432 130.154 518.286 132.501 518.5 134.315C518.606 133.461 518.819 132.501 519.354 131.86C519.887 131.221 521.061 130.901 521.702 131.541C522.129 131.968 522.129 132.607 522.236 133.141C522.45 139.436 521.489 145.836 519.247 151.811C515.83 152.984 512.521 154.477 509.425 156.398C504.515 159.492 488.288 166.106 485.086 166.64C481.67 167.279 478.36 168.454 475.372 170.16C476.546 163.866 478.788 157.784 482.097 152.344" fill="white"/>
<path d="M316.522 215.607C327.945 206.219 339.474 196.938 350.897 187.55C355.275 184.029 359.545 180.508 364.135 177.308C367.978 174.641 372.142 172.293 376.731 171.12C380.788 170.16 384.952 170.16 389.008 169.306C392.424 168.56 395.733 167.279 399.15 166.427C402.138 165.68 405.234 165.36 408.33 165.039C422.102 163.546 435.98 161.945 449.751 160.452C447.081 165.36 444.413 170.373 441.744 175.281C440.783 176.988 439.823 178.694 438.541 180.189C436.941 182.002 434.806 183.389 432.671 184.456C428.4 186.589 423.809 187.869 419.22 189.149C397.015 195.337 374.81 201.098 352.499 206.966C348.762 207.926 345.026 208.886 341.183 209.953C333.604 211.98 326.023 213.9 318.338 215.927" fill="#EE91AD"/>
<path d="M99.2803 86.5203C119.136 120.659 138.886 154.905 158.742 189.043C178.384 222.969 212.225 261.375 247.667 278.231C264 286.018 301.791 288.258 319.833 289.005C363.815 290.819 375.984 277.377 415.804 258.494C455.622 239.611 493.733 216.247 526.933 187.336C539.743 176.134 551.593 164.079 561.308 149.89C544.334 148.183 531.844 145.943 516.791 150.744C501.739 155.544 487.862 163.333 473.45 169.627C457.971 176.454 441.744 181.682 425.624 186.803C389.756 198.324 353.779 209.846 316.737 216.994C327.945 204.832 339.261 192.777 350.47 180.615C324.103 181.042 301.577 163.119 279.8 148.29C257.275 133.035 233.148 120.125 207.848 110.204C180.093 99.2157 150.628 91.4277 125.969 74.465C123.834 73.0782 121.592 71.478 119.029 71.5847C117.214 71.6913 115.507 72.6515 113.905 73.7183C108.781 77.1322 103.977 81.1862 99.7073 85.6669" fill="white"/>
<path d="M241.796 238.438C249.588 246.866 257.915 254.866 266.669 262.335C275.743 270.122 285.35 277.377 295.705 283.351C301.044 286.445 306.701 289.218 312.466 291.459C314.387 292.206 315.242 289.112 313.32 288.365C302.965 284.525 293.357 278.55 284.283 272.149C274.569 265.215 265.494 257.427 256.954 249.319C252.471 245.052 248.201 240.678 244.037 236.197C242.65 234.703 240.407 236.944 241.796 238.438Z" fill="#F5BDCE"/>
<path d="M283.109 228.516C292.183 238.544 303.179 246.545 314.815 253.48C326.771 260.521 339.368 266.709 352.071 272.363C359.758 275.776 367.657 278.87 375.877 280.79C377.905 281.218 378.76 278.124 376.731 277.697C362.533 274.496 349.403 267.776 336.486 261.375C324.636 255.507 312.787 249.106 302.112 241.211C296.026 236.731 290.475 231.716 285.35 226.169C283.963 224.675 281.721 227.023 283.109 228.516Z" fill="#F5BDCE"/>
<path d="M333.817 214.434C344.599 222.541 355.701 230.116 367.444 236.944C379.401 243.878 391.998 249.96 405.234 254.12C412.174 256.254 419.219 257.854 426.479 258.707C428.507 258.92 428.507 255.72 426.479 255.507C413.454 254.12 400.858 249.853 389.008 244.518C376.518 238.864 364.561 231.929 353.139 224.355C347.161 220.408 341.289 216.14 335.525 211.767C333.817 210.487 332.215 213.261 333.817 214.434Z" fill="#F5BDCE"/>
<path d="M393.278 198.218C414.308 209.1 436.299 219.875 459.786 224.355C466.191 225.635 472.596 226.276 479.107 226.276C481.136 226.276 481.136 223.075 479.107 223.075C467.685 223.075 456.369 220.728 445.374 217.42C433.951 213.9 422.848 209.207 412.067 204.086C406.302 201.312 400.537 198.431 394.772 195.444C393.065 194.483 391.463 197.257 393.278 198.218Z" fill="#F5BDCE"/>
<path d="M444.306 184.028C454.661 188.403 465.123 192.671 476.225 195.017C485.619 196.938 495.441 197.791 505.049 197.471C510.386 197.257 515.724 196.618 520.955 195.23C522.983 194.698 522.129 191.604 520.1 192.137C511.027 194.591 501.42 194.698 492.132 194.057C481.99 193.31 472.169 191.283 462.561 187.869C456.69 185.842 450.925 183.389 445.161 181.042C444.306 180.721 443.452 181.362 443.239 182.109C442.919 182.962 443.452 183.709 444.306 184.028Z" fill="#F5BDCE"/>
<path d="M493.626 165.786C509.746 171.654 527.467 174.107 544.547 172.827C546.576 172.721 546.576 169.52 544.547 169.627C527.681 170.907 510.279 168.454 494.48 162.692C492.558 161.945 491.704 165.039 493.626 165.786Z" fill="#F5BDCE"/>
<path d="M317.804 186.909C321.327 183.602 324.529 179.975 327.091 175.815C327.518 175.068 327.198 174.001 326.558 173.573C325.81 173.147 324.849 173.467 324.316 174.107C321.86 177.948 318.872 181.362 315.561 184.456C314.922 184.989 314.922 186.162 315.561 186.696C316.202 187.55 317.163 187.55 317.804 186.909Z" fill="#F5BDCE"/>
<path d="M290.155 162.052C292.503 160.878 294.211 158.638 294.959 156.185C295.172 155.331 294.638 154.371 293.891 154.264C293.037 154.051 292.183 154.477 291.97 155.331C291.863 155.651 291.756 155.864 291.65 156.185C291.756 156.078 291.756 155.972 291.863 155.757C291.542 156.398 291.222 157.038 290.796 157.571C290.902 157.465 291.009 157.358 291.009 157.252C290.582 157.784 290.048 158.318 289.514 158.745C289.621 158.638 289.728 158.532 289.835 158.532C289.407 158.851 289.087 159.065 288.661 159.279C287.913 159.705 287.593 160.772 288.126 161.519C288.446 162.266 289.3 162.479 290.155 162.052Z" fill="#F5BDCE"/>
<path d="M187.352 224.249C190.233 223.501 192.903 221.902 194.931 219.768C195.464 219.128 195.571 218.061 194.931 217.528C194.29 216.994 193.329 216.887 192.689 217.528C192.262 217.954 191.729 218.488 191.194 218.914C191.194 218.914 190.981 219.128 191.088 218.914C191.301 218.808 190.981 219.021 190.981 219.021C190.874 219.128 190.768 219.234 190.661 219.234C190.34 219.447 190.127 219.662 189.807 219.768C189.487 219.981 189.273 220.088 188.953 220.194C188.846 220.301 188.633 220.301 188.526 220.408C188.419 220.408 188.419 220.514 188.312 220.514C188.098 220.622 188.312 220.514 188.419 220.514C187.778 220.835 187.138 220.942 186.498 221.155C185.643 221.368 185.109 222.328 185.43 223.075C185.643 223.929 186.498 224.462 187.352 224.249Z" fill="#F5BDCE"/>
<path d="M160.557 146.69C166.535 145.196 172.193 142.529 177.21 138.902C177.958 138.369 178.278 137.515 177.743 136.661C177.317 136.021 176.249 135.595 175.502 136.129C170.699 139.542 165.36 142.102 159.596 143.596C157.781 144.129 158.635 147.223 160.557 146.69Z" fill="#F5BDCE"/>
<path d="M213.4 120.766C214.894 119.912 216.388 118.952 217.883 118.098C218.631 117.672 218.951 116.605 218.416 115.858C217.99 115.111 217.029 114.791 216.175 115.325C214.681 116.178 213.185 117.138 211.691 117.992C210.944 118.419 210.624 119.486 211.157 120.232C211.691 120.872 212.652 121.192 213.4 120.766Z" fill="#F5BDCE"/>
<path d="M113.372 105.19C123.3 99.1088 133.121 92.8146 142.729 86.2002C144.436 85.0266 142.836 82.2529 141.127 83.4264C131.52 90.0407 121.699 96.3351 111.77 102.416C109.955 103.483 111.557 106.257 113.372 105.19Z" fill="#F5BDCE"/>
<path d="M122.339 72.7581C130.346 79.4792 139.099 85.3467 148.386 90.1475C150.202 91.1077 151.802 88.3339 149.988 87.3738C140.914 82.6797 132.481 77.0255 124.58 70.4111C122.98 69.2376 120.738 71.4779 122.339 72.7581Z" fill="black"/>
<path d="M204.645 110.844C216.388 115.965 228.452 120.445 240.622 124.286C242.542 124.927 243.397 121.833 241.475 121.192C229.519 117.459 217.776 113.084 206.247 108.071C204.432 107.217 202.724 109.99 204.645 110.844Z" fill="black"/>
<path d="M98.9599 87.8004C105.685 100.709 113.372 113.084 121.484 125.14C122.66 126.847 125.435 125.246 124.26 123.539C116.147 111.484 108.461 99.1089 101.736 86.2002C100.775 84.3865 97.9992 85.9869 98.9599 87.8004Z" fill="black"/>
<path d="M278.412 146.476C288.34 153.411 297.948 160.985 308.089 167.6C316.202 172.934 324.956 176.775 334.458 179.122C341.824 180.936 349.296 182.002 356.875 182.855C358.904 183.069 358.904 179.868 356.875 179.655C345.346 178.375 333.604 176.561 322.929 172.08C314.067 168.346 306.275 162.586 298.588 156.931C292.503 152.45 286.419 147.97 280.227 143.703C278.305 142.529 276.704 145.302 278.412 146.476Z" fill="black"/>
<path d="M166.962 200.992C176.89 220.728 191.729 238.01 208.169 252.626C216.281 259.881 224.929 266.602 234.002 272.576C240.728 277.057 247.667 280.79 255.46 283.351C271.9 288.899 289.514 290.926 306.808 291.46C322.714 291.993 338.834 291.245 354.42 288.258C366.91 285.911 378.866 281.005 390.502 275.99C405.555 269.589 420.18 262.335 434.484 254.44C466.617 236.73 497.256 215.927 525.011 191.817C550.311 169.734 574.652 143.916 588.423 112.977C589.917 109.67 591.199 106.257 592.479 102.843C593.119 100.923 590.023 100.069 589.384 101.989C578.709 132.927 555.97 158.851 532.377 180.828C505.796 205.685 475.692 226.809 444.306 245.158C430.001 253.48 415.376 261.268 400.324 268.202C388.047 273.857 375.557 279.084 362.64 283.031C349.189 287.085 334.671 287.938 320.686 288.258C303.392 288.579 285.991 287.512 269.124 283.778C261.439 282.072 253.858 279.83 246.813 276.31C238.166 272.149 230.267 266.175 222.686 260.415C205.393 246.972 189.487 231.077 177.53 212.62C174.754 208.353 172.192 203.873 169.844 199.284C168.777 197.471 166.001 199.178 166.962 200.992Z" fill="black"/>
<path d="M98.5329 89.0806C103.017 85.4534 107.5 81.8262 112.411 78.7324C117.321 75.6385 122.552 73.3982 127.997 71.4778C129.919 70.8378 129.065 67.744 127.143 68.3841C121.484 70.3044 115.934 72.7581 110.809 75.9586C105.685 79.1591 100.988 82.9997 96.2911 86.8403C94.5831 88.1205 96.9316 90.3609 98.5329 89.0806Z" fill="black"/>
<path d="M98.7465 84.6C91.2739 69.8776 83.9079 55.0487 77.7162 39.793C75.9014 35.2056 74.0866 30.6182 72.4853 25.9241C71.8448 24.0038 68.749 24.8573 69.3895 26.7776C75.0474 42.8868 82.0931 58.4626 89.6725 73.7183C91.7009 77.8789 93.8359 82.0396 95.971 86.2003C96.9318 88.1205 99.7074 86.4136 98.7465 84.6Z" fill="black"/>
<path d="M107.82 78.0923C97.4654 62.7299 85.7226 48.3276 76.2216 32.3251C73.6595 27.951 71.2041 23.4703 69.1759 18.8829C68.3219 16.9627 65.5462 18.6696 66.4003 20.4833C73.873 37.4459 85.4023 52.2748 96.1844 67.2106C99.1734 71.3713 102.163 75.4251 104.938 79.6925C106.219 81.3995 108.994 79.7992 107.82 78.0923Z" fill="black"/>
<path d="M119.03 72.6514C104.831 60.3828 92.0211 46.4073 79.8512 32.1117C76.4352 28.1644 73.1258 24.1104 69.8164 19.9497C68.5354 18.3495 66.2936 20.5898 67.5747 22.1901C79.531 37.1258 92.2346 51.5281 105.899 64.8635C109.422 68.2774 113.051 71.6912 116.788 74.8917C118.282 76.2786 120.525 74.0383 119.03 72.6514Z" fill="black"/>
<path d="M126.502 69.5576C111.983 57.2891 97.8924 44.487 83.5875 32.005C79.6376 28.4845 75.581 25.0707 71.5244 21.6568C69.9231 20.3766 67.6813 22.6169 69.2826 23.8971C83.9077 36.059 97.8924 48.9677 112.304 61.4497C116.253 64.9702 120.31 68.3841 124.367 71.798C125.862 73.0782 128.104 70.8379 126.502 69.5576Z" fill="black"/>
<path d="M518.5 149.143C526.507 149.89 534.512 150.53 542.519 150.744C547.963 150.851 553.407 150.744 558.746 150.637C562.055 150.53 565.471 150.53 568.78 150.53C570.808 150.53 570.808 147.33 568.78 147.33C557.038 147.33 545.402 147.863 533.658 147.116C528.535 146.797 523.517 146.369 518.393 145.943C516.365 145.73 516.471 148.93 518.5 149.143Z" fill="black"/>
<path d="M236.458 60.1695C259.196 60.9162 278.839 62.4099 301.684 63.2633C306.595 63.4767 311.826 63.5834 316.309 61.663C323.462 58.7826 328.052 50.888 327.625 43.2068C327.199 35.5256 322.288 28.3778 315.455 24.8572C308.089 21.0167 296.881 22.6169 294.318 30.5115C289.728 13.8689 274.142 0.213372 256.954 0.106689C239.768 5.11855e-06 223.221 15.4691 224.288 32.6451C218.631 31.685 212.439 32.5384 208.169 36.2724C203.791 39.8997 202.084 46.834 205.286 51.5281C210.731 59.4227 226.21 59.7427 236.458 60.1695Z" fill="#FBE5EB"/>
<path d="M6.83212 133.887C31.3853 133.994 55.9385 133.994 80.4917 134.101C81.4525 134.101 82.5201 134.101 83.3741 133.568C84.2281 133.035 84.6551 132.074 84.9753 131.114C87.2172 124.179 82.7336 116.712 77.0757 112.231C72.4853 108.71 66.934 106.257 61.1694 106.47C55.4048 106.683 49.6401 109.67 46.9713 114.791C44.1957 105.723 40.3526 95.5884 31.5989 91.9611C21.8843 87.9071 5.65784 94.4148 1.81472 105.723C-1.70812 115.752 -0.10683 124.713 6.83212 133.887Z" fill="#FBE5EB"/>
<path d="M333.817 97.402C337.446 109.244 342.037 120.659 347.588 131.647C348.122 132.714 348.549 133.887 349.723 134.421C351.111 135.062 352.712 134.208 354.1 133.781C357.195 132.714 360.291 131.754 363.387 130.687C369.472 128.66 375.557 126.526 381.642 124.393C388.581 121.939 395.627 119.486 402.566 116.925C403.314 116.605 403.953 115.858 403.633 115.004C401.605 108.817 399.47 102.629 397.442 96.4418C396.374 93.348 395.413 90.2542 394.346 87.1604C393.919 85.7735 393.385 84.2799 392.958 82.893C392.531 81.6129 392.104 80.1192 390.93 79.2658C388.688 77.5589 385.699 79.1591 383.458 79.9059C380.362 80.9728 377.266 81.9329 374.277 82.9997C368.191 84.9201 362.106 86.8403 356.021 88.7606C348.975 91.001 342.037 93.2413 335.098 95.5884C333.176 96.2285 334.03 99.3223 335.952 98.6821C347.375 94.7349 358.904 91.2143 370.433 87.5871C376.091 85.7735 381.749 83.6398 387.513 82.0396C387.941 81.9329 388.581 81.7195 389.008 81.8262C389.542 82.0396 389.648 82.893 389.756 83.3197C390.289 84.8133 390.716 86.3069 391.25 87.8005C392.211 90.6809 393.172 93.4547 394.133 96.3351C396.268 102.843 398.509 109.351 400.644 115.965C400.964 115.325 401.392 114.685 401.712 114.044C390.182 118.205 378.653 122.366 367.124 126.313C364.241 127.273 361.252 128.34 358.37 129.3C356.982 129.727 355.701 130.154 354.314 130.687C353.673 130.901 352.925 131.114 352.286 131.327C351.965 131.434 351.645 131.647 351.325 131.647C351.431 132.074 351.325 132.074 351.218 131.647C351.111 131.54 351.111 131.327 351.004 131.221C348.335 125.993 345.88 120.659 343.638 115.219C341.183 109.137 338.941 103.056 337.126 96.7619C336.272 94.6282 333.176 95.4817 333.817 97.402Z" fill="black"/>
<path d="M176.676 288.472C173.047 276.63 168.456 265.215 162.905 254.227C162.372 253.16 161.944 251.987 160.77 251.453C159.382 250.813 157.781 251.666 156.393 252.093C153.297 253.16 150.201 254.12 147.106 255.187C141.02 257.214 134.935 259.348 128.85 261.481C121.912 263.935 114.866 266.388 107.927 268.949C107.18 269.269 106.539 270.016 106.859 270.869C108.888 277.057 111.023 283.245 113.051 289.433C114.118 292.526 115.079 295.62 116.147 298.713C116.574 300.101 117.108 301.594 117.535 302.981C117.962 304.261 118.388 305.754 119.564 306.608C121.805 308.315 124.795 306.715 127.036 305.968C130.132 304.901 133.228 303.941 136.217 302.874C142.301 300.954 148.386 299.034 154.471 297.113C161.517 294.873 168.456 292.633 175.395 290.285C177.317 289.646 176.463 286.552 174.541 287.191C163.118 291.139 151.589 294.66 140.06 298.287C134.402 300.101 128.744 302.234 122.98 303.834C122.552 303.941 121.912 304.155 121.484 304.048C120.951 303.834 120.845 302.981 120.738 302.554C120.204 301.061 119.777 299.567 119.243 298.074C118.282 295.193 117.321 292.419 116.361 289.539C114.225 283.031 111.983 276.523 109.848 269.909C109.529 270.549 109.102 271.189 108.781 271.83C120.31 267.669 131.839 263.508 143.369 259.561C146.251 258.601 149.241 257.534 152.123 256.574C153.511 256.147 154.791 255.72 156.18 255.187C156.82 254.974 157.567 254.76 158.208 254.547C158.528 254.44 158.848 254.227 159.169 254.227C159.061 253.799 159.169 253.799 159.276 254.227C159.382 254.333 159.382 254.547 159.489 254.653C162.157 259.881 164.613 265.215 166.855 270.656C169.31 276.736 171.552 282.818 173.367 289.112C174.114 291.352 177.21 290.499 176.676 288.472Z" fill="black"/>
<path d="M336.165 99.9624C347.481 103.696 358.797 107.537 370.007 111.271C370.753 111.484 371.394 111.058 371.821 110.524C378.226 101.456 384.311 92.1745 390.076 82.6797C391.143 80.8661 388.367 79.2658 387.3 81.0794C381.536 90.5743 375.451 99.8557 369.046 108.923C369.686 108.71 370.22 108.39 370.86 108.177C359.545 104.443 348.229 100.602 337.019 96.8685C335.098 96.2285 334.243 99.3223 336.165 99.9624Z" fill="black"/>
<path d="M433.417 41.0731C436.834 55.5821 441.53 69.8776 446.121 84.0665C446.441 84.9201 447.189 85.3468 448.042 85.1334C469.18 80.226 489.783 73.5049 510.28 66.2504C510.92 66.037 511.56 65.3969 511.454 64.7568C509.746 51.6348 506.864 38.6195 502.7 26.0308C502.38 25.1773 501.633 24.6438 500.779 24.964C483.699 29.2312 466.511 33.0718 449.217 36.3791C444.306 37.3392 439.395 38.1926 434.484 39.0462C432.456 39.3662 433.31 42.46 435.339 42.1399C452.633 39.0462 469.927 35.5256 487.008 31.4716C491.918 30.2981 496.722 29.1245 501.526 27.951C500.885 27.631 500.244 27.2043 499.604 26.8842C503.661 39.1529 506.544 51.8481 508.145 64.7568C508.571 64.2234 508.892 63.69 509.319 63.2633C488.929 70.411 468.326 77.1321 447.189 82.0396C447.829 82.3596 448.47 82.7863 449.11 83.1064C444.52 68.9175 439.823 54.7286 436.406 40.113C435.98 38.1926 432.884 39.0462 433.417 41.0731Z" fill="black"/>
<path d="M436.086 43.1001C449.857 48.2209 463.628 53.3418 477.4 58.4626C478.147 58.6759 478.788 58.2492 479.214 57.7157C486.154 48.0075 493.413 38.406 501.099 29.1245C502.379 27.5243 500.138 25.2839 498.857 26.8842C491.064 36.3791 483.591 46.0872 476.546 56.1155C477.186 55.9021 477.72 55.5821 478.36 55.3687C464.589 50.2479 450.818 45.1271 437.047 40.0063C435.019 39.2594 434.165 42.3533 436.086 43.1001Z" fill="black"/>
<path d="M25.7275 206.859C29.1436 220.514 32.5597 234.171 36.0826 247.826C36.2961 248.68 37.2568 249.106 38.0041 248.893C58.0737 244.732 78.0365 239.718 97.679 233.956C98.533 233.743 98.96 232.89 98.7465 232.037C95.7575 219.768 92.0212 207.712 87.4308 195.978C87.1105 195.124 86.3633 194.698 85.5093 194.911C75.3676 196.618 65.1194 198.218 54.9778 199.925C49.9605 200.779 44.8363 201.525 39.8189 202.378C35.4421 203.125 31.0652 203.765 26.795 204.939C24.7667 205.472 25.6208 208.566 27.649 208.033C31.8124 206.859 36.0826 206.219 40.3527 205.472C45.4768 204.619 50.601 203.765 55.7251 202.912C65.8666 201.205 76.115 199.604 86.2565 197.898C85.616 197.578 84.9754 197.151 84.3349 196.831C88.9253 208.566 92.6617 220.622 95.6508 232.89C95.971 232.25 96.398 231.61 96.7183 230.97C77.0758 236.73 57.1129 241.745 37.0433 245.905C37.6838 246.225 38.3243 246.653 38.9648 246.972C35.5488 233.317 32.1327 219.662 28.6098 206.006C28.2896 203.979 25.3005 204.832 25.7275 206.859Z" fill="black"/>
<path d="M26.9018 207.926C36.4028 210.593 45.5835 214.328 54.6576 218.274C56.8993 219.234 59.0344 220.194 61.2762 221.155C63.0911 222.008 65.6531 223.716 67.6814 222.862C68.749 222.435 69.4962 221.474 70.2435 220.728C71.0975 219.875 72.0583 218.914 72.9123 217.954C74.5136 216.247 76.1148 214.434 77.7162 212.62C81.2391 208.46 84.5484 204.086 87.6442 199.498C88.8185 197.791 86.043 196.191 84.8686 197.898C79.7445 205.472 73.9798 212.514 67.468 218.914C67.2545 219.128 66.7206 219.875 66.4003 219.875C66.0801 219.981 65.3328 219.447 65.0126 219.341C63.9451 218.914 62.8776 218.381 61.81 217.954C59.6749 216.994 57.5398 216.034 55.4048 215.18C51.1347 213.367 46.8646 211.553 42.4877 209.953C37.6838 208.14 32.7732 206.432 27.7558 204.939C25.7274 204.299 24.8734 207.393 26.9018 207.926Z" fill="black"/>
<path d="M519.78 255.72C547.75 260.308 575.719 258.067 604.009 259.134C608.92 259.348 613.723 259.454 618.634 259.667C619.167 259.667 619.701 259.667 620.235 259.454C620.662 259.241 620.982 258.92 621.302 258.494C625.359 253.48 627.387 246.332 624.719 240.465C622.156 234.597 614.257 231.077 608.705 234.384C609.987 227.876 608.599 220.942 605.076 215.394C601.554 209.846 595.789 205.685 589.384 204.086C587.142 203.552 584.794 203.232 582.551 203.765C577.107 205.046 573.798 210.487 571.128 215.394C568.353 209.526 562.695 205.153 556.29 203.765C549.885 202.378 542.946 204.192 538.036 208.46C531.096 214.328 528.748 224.035 528.748 233.104C526.079 231.716 523.089 230.649 520.1 230.649C517.112 230.756 514.23 232.357 512.414 234.81C503.233 247.505 517.859 255.72 519.78 255.72Z" fill="#FBE5EB"/>
<path d="M222.366 238.971C222.473 238.971 222.473 238.971 222.366 238.971C235.176 240.144 247.881 236.304 260.157 232.57C283.109 225.528 292.183 222.862 315.028 216.353C316.202 214.007 329.119 205.685 330.187 203.232C329.76 203.552 330.508 203.658 330.187 203.232C315.989 180.508 295.492 163.972 270.939 152.984C277.131 142.102 283.643 130.58 283.856 118.098C284.069 105.51 275.849 91.8544 263.359 90.7876C240.087 88.6539 216.602 88.4405 193.329 89.9341C186.924 90.3609 178.811 92.6012 178.278 99.0022C196.425 99.3222 214.467 103.056 231.227 109.99C236.885 112.338 243.29 116.392 239.446 121.086C228.558 134.421 186.284 149.784 184.363 150.637C182.228 151.49 170.377 154.371 153.511 142.849C151.482 141.463 149.454 139.968 148.707 137.622C147.64 134.421 149.667 131.114 151.482 128.234C155.646 122.046 159.809 115.858 163.972 109.67L157.994 105.51C138.885 112.764 121.271 123.86 106.433 138.048C103.123 141.248 99.7072 145.302 100.454 149.784C100.882 152.237 102.483 154.264 104.084 156.185C121.592 177.201 145.718 192.777 172.086 199.925L171.979 200.351C188.739 213.261 205.606 226.169 222.366 238.971Z" fill="#DD235B"/>
<path d="M222.366 240.571C232.081 241.745 242.329 239.398 251.617 236.73C260.584 234.277 269.444 231.396 278.306 228.729C285.458 226.595 292.503 224.462 299.656 222.435C303.926 221.155 308.196 219.981 312.466 218.701C313.427 218.381 314.922 218.274 315.776 217.741C316.096 217.528 316.202 217.314 316.416 216.994C316.629 216.781 316.309 217.101 316.522 216.781C317.163 216.034 318.018 215.394 318.765 214.754C321.22 212.727 323.782 210.806 326.344 208.886C328.052 207.606 330.614 206.006 331.469 203.979C332.215 202.485 330.294 200.564 328.906 202.059L328.799 202.165C328.479 202.592 328.159 203.125 328.373 203.765C328.586 204.405 329.013 204.832 329.653 205.046C330.187 205.153 330.828 205.046 331.254 204.619C331.254 204.619 331.254 204.619 331.362 204.512C331.682 204.086 332.002 203.552 331.789 202.912C331.362 201.846 330.614 200.779 329.973 199.818C329.227 198.645 328.373 197.471 327.625 196.297C326.131 194.164 324.529 192.137 322.927 190.11C319.618 186.055 316.096 182.216 312.359 178.588C304.886 171.333 296.56 165.039 287.593 159.705C282.469 156.611 277.238 153.945 271.793 151.49C272.007 152.237 272.22 152.984 272.327 153.73C278.199 143.383 284.283 132.607 285.35 120.553C286.205 111.165 282.895 101.243 275.956 94.7348C272.647 91.6411 268.59 89.614 264.107 89.0806C257.595 88.3339 250.977 88.0138 244.464 87.6938C231.121 87.0537 217.777 87.0537 204.432 87.5871C200.695 87.6938 196.96 87.9071 193.223 88.2272C190.768 88.4405 188.312 88.7606 185.857 89.5074C181.267 90.8943 177.21 93.7747 176.783 98.8955C176.676 99.749 177.53 100.496 178.384 100.496C187.885 100.709 197.386 101.776 206.674 103.803C211.264 104.87 215.855 106.043 220.338 107.537C224.608 108.923 229.092 110.417 233.148 112.445C235.283 113.511 240.194 116.071 238.807 119.165C237.952 121.086 235.711 122.793 234.109 124.073C229.839 127.593 224.929 130.367 220.125 133.035C210.411 138.262 200.269 142.636 190.02 146.69C187.992 147.543 185.857 148.396 183.722 149.143C180.626 150.317 176.997 150.21 173.58 149.677C170.271 149.143 167.068 148.183 163.973 146.903C160.022 145.196 155.966 143.062 152.657 140.289C151.162 139.008 149.882 137.515 149.988 135.488C150.095 133.248 151.482 131.114 152.763 129.3C155.539 125.14 158.422 120.979 161.197 116.712C162.585 114.685 163.973 112.551 165.36 110.524C165.894 109.777 165.468 108.817 164.827 108.284C163.759 107.537 162.798 106.897 161.731 106.15C160.77 105.51 159.596 104.336 158.422 104.016C157.674 103.803 156.927 104.23 156.287 104.55C155.539 104.87 154.898 105.083 154.152 105.403C152.657 106.043 151.056 106.683 149.561 107.324C146.679 108.604 143.69 109.99 140.914 111.484C129.705 117.352 119.243 124.499 109.742 132.927C105.472 136.768 99.7074 141.248 98.8533 147.329C98.4263 150.423 99.7074 153.197 101.522 155.651C103.337 158.105 105.365 160.345 107.394 162.586C115.507 171.333 124.688 179.015 134.722 185.309C146.145 192.457 158.528 198.005 171.552 201.525C171.232 200.885 170.805 200.245 170.484 199.604C170.484 199.712 170.378 199.925 170.378 200.032C170.164 200.779 170.592 201.418 171.125 201.845C187.992 214.647 204.752 227.556 221.619 240.358C223.221 241.638 224.821 238.864 223.221 237.584C206.354 224.782 189.594 211.873 172.727 199.071C172.94 199.712 173.26 200.245 173.473 200.885C173.473 200.779 173.58 200.564 173.58 200.458C173.901 199.604 173.26 198.752 172.513 198.537C152.871 193.203 134.509 183.176 119.243 169.734C115.4 166.32 111.77 162.799 108.461 158.958C105.259 155.438 100.455 151.064 102.59 145.836C103.55 143.382 105.472 141.356 107.287 139.649C109.209 137.835 111.13 136.021 113.158 134.315C117.321 130.793 121.592 127.38 126.076 124.393C136.11 117.459 146.999 111.697 158.422 107.324C157.994 107.217 157.567 107.217 157.141 107.11C159.169 108.497 161.09 109.884 163.118 111.271C162.905 110.524 162.692 109.777 162.585 109.031C159.596 113.511 156.607 117.992 153.511 122.472C152.017 124.713 150.415 126.847 149.134 129.087C147.96 131.008 146.999 133.141 146.892 135.488C146.679 140.182 150.735 143.062 154.365 145.302C158.102 147.757 162.157 149.784 166.429 151.17C171.552 152.878 177.21 153.73 182.548 152.878C184.576 152.557 186.391 151.703 188.205 150.957C198.56 146.903 208.915 142.636 218.844 137.515C224.288 134.741 229.626 131.754 234.537 128.02C236.565 126.526 238.487 124.926 240.194 123.006C241.262 121.726 242.223 120.446 242.436 118.739C242.542 117.031 241.903 115.538 240.835 114.258C238.272 111.057 234.002 109.351 230.267 107.856C225.569 105.937 220.766 104.336 215.855 102.949C206.141 100.176 196.105 98.4688 185.964 97.8287C183.509 97.6153 180.946 97.5086 178.491 97.5086C179.025 98.042 179.559 98.5754 180.093 99.1089C180.413 95.2683 184.469 93.4547 187.672 92.6012C192.583 91.2144 197.92 91.321 202.938 91.1077C215.427 90.5743 227.917 90.4676 240.301 91.001C246.493 91.2143 252.578 91.6411 258.663 92.0678C261.224 92.2812 263.894 92.3878 266.455 93.0279C268.377 93.5613 270.192 94.5215 271.793 95.5884C278.625 100.389 282.362 109.244 282.362 117.459C282.469 130.154 275.743 141.676 269.658 152.344C269.231 152.984 269.444 154.158 270.192 154.584C288.661 162.905 305.527 174.748 318.657 190.324C320.473 192.457 322.181 194.698 323.888 196.938C324.743 198.111 325.597 199.391 326.451 200.564C326.878 201.205 327.199 201.738 327.625 202.378C327.945 202.912 328.586 203.552 328.799 204.192C328.906 203.658 329.119 203.125 329.227 202.592C329.227 202.592 329.227 202.592 329.119 202.698C329.653 202.592 330.187 202.378 330.721 202.272H330.614C330.934 202.592 331.362 203.019 331.682 203.339V203.232C331.575 203.765 331.362 204.299 331.254 204.832L331.362 204.725C330.508 204.086 329.653 203.445 328.799 202.805C328.693 203.019 328.586 203.232 328.586 203.125C328.373 203.339 328.159 203.552 327.945 203.765C327.412 204.299 326.771 204.832 326.131 205.366C324.529 206.646 322.927 207.926 321.327 209.1C319.725 210.38 318.018 211.553 316.416 212.94C315.455 213.794 314.174 214.647 313.641 215.821C313.961 215.607 314.281 215.287 314.602 215.074C303.712 218.167 292.931 221.368 282.041 224.568C269.872 228.196 257.809 232.357 245.532 235.344C238.059 237.157 230.052 238.544 222.366 237.691C220.338 237.157 220.445 240.358 222.366 240.571Z" fill="#DD235B"/>
<path d="M181.587 88.9741C182.868 86.7337 182.228 83.9598 181.16 81.6129C178.064 75.1052 171.232 70.5178 163.973 70.3044C158.315 70.091 152.017 73.1849 150.628 78.7324C149.775 82.3596 151.162 86.0936 150.522 89.7208C149.882 94.0949 146.571 97.5086 145.291 101.776C143.477 107.643 145.932 114.044 149.134 119.379C154.898 129.087 162.265 127.273 177.958 136.021" fill="black"/>
<path d="M182.974 89.7207C185.217 85.4535 182.974 80.546 180.306 77.0255C177.637 73.6116 174.008 71.0511 169.844 69.6643C162.479 67.2106 152.23 69.2376 149.454 77.3455C147.747 82.253 150.308 87.3738 148.28 92.1745C147.319 94.3081 146.038 96.3352 145.077 98.4688C144.117 100.603 143.477 102.843 143.369 105.19C143.156 110.311 145.291 115.219 147.747 119.592C149.347 122.366 151.482 124.82 154.152 126.633C157.033 128.553 160.343 129.727 163.653 130.901C168.456 132.714 173.047 134.741 177.53 137.195C179.345 138.156 180.946 135.381 179.132 134.421C175.395 132.394 171.552 130.58 167.603 128.981C164.827 127.914 161.944 126.954 159.276 125.674C157.033 124.607 155.006 123.326 153.298 121.513C150.735 118.845 148.921 115.111 147.747 111.697C146.252 107.217 146.358 103.056 148.493 98.7888C150.415 94.9483 152.657 91.5344 152.55 87.0537C152.443 82.8931 151.269 78.6257 154.472 75.2118C156.82 72.7581 160.45 71.5847 163.866 71.5847C168.029 71.5847 172.299 73.2916 175.395 76.0654C178.278 78.519 182.441 83.8532 180.413 87.8005C179.239 89.9342 182.014 91.6411 182.974 89.7207Z" fill="black"/>
<path d="M173.154 87.9072C168.99 91.1077 164.933 94.2016 160.77 97.402C158.955 98.7889 157.141 100.176 156.073 102.096C154.258 105.19 154.685 109.138 156.18 112.338C157.674 115.538 160.129 118.205 162.478 120.872C165.468 124.073 168.349 127.273 171.338 130.367C175.715 135.168 194.29 146.903 196.212 148.183C198.667 149.677 201.55 150.744 204.432 150.53C207.315 150.317 210.196 148.717 211.478 146.156C212.225 144.663 212.439 142.423 212.011 140.609C211.478 138.369 211.905 136.129 212.972 134.102C214.36 131.221 213.826 127.807 212.866 124.82C208.276 108.604 194.184 92.6012 173.154 87.9072Z" fill="white"/>
<path d="M172.406 86.5203C168.99 89.1873 165.574 91.7477 162.051 94.4149C159.061 96.6552 155.646 98.7889 154.152 102.416C151.056 109.67 156.393 116.605 161.09 121.619C165.253 126.1 169.097 131.008 173.901 134.741C177.85 137.835 182.013 140.715 186.177 143.49C189.166 145.517 192.155 147.436 195.144 149.357C200.482 152.664 208.489 153.624 212.439 147.65C213.292 146.263 213.72 144.663 213.826 143.062C213.933 141.142 213.185 139.329 213.506 137.408C213.72 135.701 214.787 134.315 215.107 132.714C215.535 131.008 215.427 129.194 215.214 127.38C214.253 121.513 211.478 115.751 208.382 110.844C200.482 98.4688 187.885 89.6141 173.58 86.4136C171.552 85.9869 170.698 89.0806 172.727 89.5074C184.469 92.1745 195.038 98.7889 202.51 108.177C205.82 112.338 208.489 117.031 210.304 122.046C211.371 124.82 212.439 128.02 212.118 131.008C211.905 132.607 211.157 133.781 210.624 135.275C210.09 136.875 209.983 138.582 210.304 140.289C210.837 143.49 210.411 146.369 207.315 147.97C204.325 149.57 200.802 148.824 197.92 147.329C195.251 145.836 192.69 144.022 190.234 142.423C186.391 139.862 182.441 137.302 178.704 134.528C177.21 133.354 175.608 132.288 174.221 131.008C172.299 129.3 170.591 127.38 168.883 125.459C166.107 122.472 163.118 119.486 160.557 116.285C158.208 113.405 156.287 109.991 156.5 106.15C156.82 102.096 160.237 99.8557 163.225 97.6153C166.748 94.8416 170.377 92.1745 173.901 89.4008C175.608 88.1205 174.008 85.3468 172.406 86.5203Z" fill="black"/>
<path d="M174.328 118.845C175.715 117.138 177.104 115.538 178.598 113.831C178.918 113.511 179.025 113.192 179.025 112.658C179.025 112.231 178.811 111.804 178.598 111.484C177.958 110.95 176.89 110.844 176.356 111.484C174.969 113.192 173.58 114.791 172.086 116.499C171.766 116.818 171.659 117.138 171.659 117.672C171.659 118.098 171.873 118.526 172.086 118.845C172.727 119.486 173.794 119.592 174.328 118.845Z" fill="black"/>
<path d="M188.633 106.363C190.555 105.617 192.475 104.87 194.29 104.123C194.718 103.91 195.038 103.803 195.251 103.376C195.465 103.056 195.571 102.523 195.465 102.096C195.358 101.669 195.145 101.349 194.718 101.136C194.397 100.923 193.864 100.816 193.436 100.923C191.516 101.669 189.594 102.416 187.779 103.163C187.352 103.376 187.031 103.483 186.818 103.91C186.605 104.23 186.498 104.763 186.605 105.19C186.711 105.617 186.925 105.937 187.352 106.15C187.779 106.363 188.205 106.47 188.633 106.363Z" fill="black"/>
<path d="M184.576 107.324C186.391 109.031 188.099 110.737 189.914 112.445C190.768 113.298 191.622 114.044 192.475 114.898C192.903 115.325 193.436 115.752 193.864 116.285C194.077 116.499 194.29 116.712 194.504 116.925C194.611 117.031 194.611 117.031 194.718 117.138C194.931 117.352 194.931 117.352 194.718 117.138C194.718 116.818 194.718 116.605 194.718 116.285C194.825 116.071 194.931 116.071 194.718 116.285C194.611 116.392 194.504 116.499 194.397 116.605C194.184 116.818 194.077 117.031 193.864 117.245C193.543 117.672 193.116 118.098 192.796 118.632C192.049 119.486 191.301 120.445 190.555 121.299C190.02 121.939 189.914 122.899 190.555 123.539C191.088 124.073 192.262 124.179 192.796 123.539C194.077 121.939 195.464 120.338 196.746 118.739C197.386 117.992 198.027 117.138 197.706 116.071C197.493 115.111 196.425 114.472 195.785 113.724C192.796 110.844 189.807 107.856 186.818 104.977C185.324 103.696 183.081 105.937 184.576 107.324Z" fill="black"/>
<path d="M186.604 132.607C190.02 133.674 193.97 133.035 196.96 131.114C197.706 130.687 198.027 129.727 197.493 128.874C197.066 128.127 195.999 127.807 195.251 128.34C194.931 128.553 194.611 128.766 194.184 128.981C193.97 129.087 193.864 129.194 193.65 129.194C193.97 129.087 193.543 129.194 193.436 129.3C192.69 129.62 191.942 129.727 191.194 129.941C191.088 129.941 191.088 129.941 191.301 129.941C191.194 129.941 191.088 129.941 190.981 129.941C190.768 129.941 190.554 129.941 190.34 129.941C190.02 129.941 189.594 129.941 189.273 129.941C189.059 129.941 188.953 129.941 188.739 129.941C188.526 129.941 188.526 129.941 188.739 129.941C188.633 129.941 188.526 129.941 188.419 129.941C187.992 129.834 187.672 129.727 187.244 129.62C186.391 129.407 185.43 129.941 185.324 130.687C185.217 131.434 185.644 132.288 186.604 132.607Z" fill="black"/>
<path d="M252.044 142.423C258.556 145.836 265.174 149.143 271.366 153.197C273.075 154.371 274.675 151.597 272.968 150.423C266.883 146.369 260.157 143.062 253.645 139.649C251.83 138.688 250.229 141.463 252.044 142.423Z" fill="white"/>
<path d="M433.31 282.711C435.873 290.499 438.862 298.18 442.278 305.648C442.598 306.288 443.452 306.608 444.093 306.395C457.864 302.447 471.422 297.967 484.766 292.846C485.727 292.526 486.26 291.46 485.727 290.499C483.484 286.658 481.349 282.818 479.107 279.084C478.04 277.164 476.866 275.243 475.798 273.323C474.837 271.723 473.983 270.336 471.955 270.122C470.034 269.909 468.006 270.442 466.191 270.656C464.056 270.976 462.027 271.296 459.892 271.723C455.942 272.576 451.992 273.536 448.042 274.817C443.665 276.204 439.395 278.017 435.125 279.937C433.31 280.79 434.912 283.565 436.727 282.711C445.374 278.657 454.555 275.777 464.056 274.176C466.297 273.75 468.752 273.323 471.102 273.216C472.276 273.216 472.596 274.07 473.129 275.03C473.77 276.204 474.411 277.27 475.157 278.444C477.72 282.924 480.388 287.512 482.951 291.993C483.271 291.245 483.591 290.393 483.912 289.646C470.567 294.767 457.01 299.247 443.239 303.195C443.879 303.408 444.413 303.727 445.054 303.942C441.744 296.687 438.862 289.326 436.406 281.751C435.766 279.938 432.67 280.684 433.31 282.711Z" fill="black"/>
<path d="M435.339 284.525C439.182 284.845 443.026 285.485 446.761 286.231C450.391 287.085 453.914 288.366 457.544 289.325C459.358 289.859 460.319 288.792 461.493 287.512C462.882 286.018 464.269 284.631 465.656 283.138C468.432 280.258 471.208 277.27 473.983 274.39C475.372 272.897 473.129 270.656 471.742 272.149C469.18 274.924 466.511 277.59 463.949 280.364C462.667 281.751 461.386 283.031 460.106 284.418C459.786 284.845 459.358 285.164 459.038 285.592C458.932 285.698 458.184 286.445 458.397 286.339C458.612 286.445 458.504 286.339 458.184 286.231C458.077 286.125 457.864 286.125 457.757 286.018C457.33 285.805 456.797 285.698 456.369 285.485C449.537 283.245 442.491 281.857 435.339 281.218C433.31 281.111 433.31 284.312 435.339 284.525Z" fill="black"/>
<path d="M539.103 150.21C547.537 145.943 554.903 139.542 561.841 133.354C569.421 126.633 576.787 119.486 583.833 112.125C586.608 109.351 589.277 106.47 591.945 103.59C593.334 102.096 591.092 99.7491 589.704 101.349C584.366 107.324 578.709 112.977 573.05 118.632C565.578 125.993 557.785 133.248 549.458 139.649C545.722 142.529 541.772 145.409 537.502 147.544C535.686 148.396 537.288 151.17 539.103 150.21Z" fill="black"/>
<path d="M314.281 217.634C328.799 207.712 341.503 195.444 355.167 184.456C357.516 182.535 359.971 180.615 362.533 178.909C366.27 176.454 370.54 174.854 374.81 173.573C380.575 171.761 386.446 170.266 392.424 169.306C398.403 168.346 404.488 167.813 410.465 167.493C423.916 166.64 437.58 166.533 450.711 163.226C452.74 162.692 451.886 159.598 449.857 160.132C438.115 163.119 425.944 163.439 413.882 164.079C407.797 164.4 401.712 164.826 395.733 165.573C389.756 166.319 383.991 167.707 378.119 169.2C372.781 170.694 367.231 172.293 362.426 175.068C359.971 176.454 357.73 178.268 355.595 179.975C348.869 185.203 342.357 190.857 335.845 196.404C328.266 202.805 320.793 209.313 312.573 214.86C310.972 216.034 312.573 218.808 314.281 217.634Z" fill="#EE91AD"/>
<path d="M168.136 202.698C176.782 215.501 187.565 227.236 201.549 234.384C208.061 237.691 215.214 239.931 222.473 240.571C231.121 241.317 239.874 239.824 248.201 237.691C256.954 235.451 265.494 232.57 274.142 230.01C282.895 227.449 291.65 224.889 300.403 222.435C318.017 217.421 335.632 212.62 353.246 207.712C388.367 198.005 423.596 188.19 458.29 176.882C476.652 170.907 494.587 164.293 511.881 155.651C536.221 143.383 559.066 128.127 580.844 111.911C584.473 109.244 587.996 106.47 591.519 103.803C590.771 103.056 590.025 102.309 589.277 101.563C582.444 111.697 575.292 121.726 567.713 131.434C563.656 136.661 559.386 141.676 555.863 147.223C554.689 148.93 557.464 150.53 558.638 148.824C562.268 143.275 566.538 138.262 570.488 133.035C577.961 123.326 585.114 113.405 591.945 103.27C592.799 101.989 590.984 100.069 589.704 101.029C566.965 118.526 543.373 135.168 518.073 148.717C502.273 157.145 485.94 164.185 468.966 169.947C436.086 181.042 402.672 190.643 369.259 199.925C334.564 209.526 299.869 218.914 265.494 229.263C249.162 234.171 231.974 240.465 214.681 236.09C200.055 232.357 187.672 222.649 178.064 211.234C175.395 208.033 172.94 204.619 170.592 201.098C169.738 199.391 166.962 200.992 168.136 202.698Z" fill="black"/>
<path d="M108.781 273.003C117.321 275.35 125.756 277.59 134.296 279.937C136.217 280.471 138.352 281.324 140.381 281.431C142.301 281.538 143.477 280.364 144.436 278.763C146.786 275.03 149.134 271.296 151.482 267.562C154.152 263.295 156.82 259.027 159.383 254.76C160.45 252.947 157.674 251.346 156.607 253.16C153.831 257.64 151.056 262.227 148.28 266.709C146.892 268.949 145.504 271.189 144.01 273.429C143.369 274.496 142.729 275.563 141.982 276.523C141.341 277.483 141.127 278.444 139.847 278.124C134.829 276.951 129.811 275.456 124.795 274.07C119.671 272.683 114.546 271.296 109.529 269.909C107.607 269.375 106.753 272.469 108.781 273.003Z" fill="black"/>
<path d="M467.365 130.58C467.365 130.367 467.365 130.793 467.365 130.793C467.258 130.687 467.258 130.58 467.365 130.58C467.365 130.58 467.365 130.474 467.471 130.367C467.578 130.047 467.365 130.58 467.471 130.367C467.578 130.261 467.578 130.154 467.685 130.047C467.791 129.941 468.006 129.727 467.685 130.047C467.791 129.941 467.791 129.941 467.898 129.834C468.006 129.727 468.006 129.727 468.112 129.62C468.219 129.62 468.539 129.3 468.219 129.513C468.006 129.727 468.326 129.513 468.326 129.407C468.432 129.3 468.539 129.3 468.646 129.194C468.752 129.087 468.859 129.087 468.966 129.087C468.966 129.087 469.073 129.087 469.073 128.981C469.287 128.874 468.752 129.087 468.966 128.981C469.18 128.874 469.393 128.874 469.607 128.766C469.713 128.766 469.82 128.766 469.926 128.66H470.033C469.607 128.766 469.82 128.66 469.926 128.66C470.141 128.66 470.354 128.66 470.567 128.66C470.781 128.66 470.994 128.766 470.567 128.66C470.674 128.66 470.781 128.66 470.887 128.766C470.994 128.766 471.102 128.767 471.102 128.874C471.422 128.981 470.887 128.767 471.102 128.874C471.208 128.981 471.315 128.981 471.422 129.087L471.528 129.194C471.742 129.3 471.208 128.981 471.422 129.194C471.528 129.3 471.528 129.3 471.635 129.407C471.742 129.513 471.848 129.727 471.635 129.407C471.742 129.62 471.848 129.834 471.955 129.941C472.061 130.154 471.848 129.62 471.848 129.727C471.848 129.727 471.848 129.834 471.955 129.834C471.955 129.941 472.061 130.047 472.061 130.154C472.061 130.261 472.061 130.367 472.169 130.474C472.169 130.687 472.169 130.047 472.169 130.261C472.169 130.367 472.169 130.367 472.169 130.474C472.169 130.58 472.169 130.793 472.169 130.901C472.169 131.008 472.169 131.434 472.169 131.114C472.169 130.793 472.169 131.221 472.169 131.327C472.169 131.434 472.061 131.541 472.061 131.754C472.061 131.754 472.061 131.86 471.955 131.86C471.955 131.754 472.169 131.541 471.955 131.754C471.848 131.86 471.848 131.968 471.742 132.074L471.635 132.181C471.528 132.288 471.422 132.394 471.635 132.074C471.528 132.181 471.422 132.288 471.315 132.394C470.674 133.035 470.674 134.102 471.315 134.634C471.955 135.275 472.916 135.275 473.557 134.634C475.585 132.607 475.692 129.194 473.77 127.06C471.955 125.033 468.539 125.246 466.404 126.74C465.017 127.7 464.162 128.981 464.056 130.58C463.949 131.434 464.803 132.181 465.656 132.181C466.617 132.074 467.258 131.434 467.365 130.58Z" fill="black"/>
<path d="M473.663 134.634C473.983 134.208 474.411 133.781 474.837 133.461C474.944 133.354 475.157 133.141 475.372 133.035L475.478 132.928C475.585 132.82 475.265 133.035 475.265 133.035C475.372 132.928 475.478 132.928 475.585 132.82C475.692 132.714 475.905 132.607 476.012 132.607C476.118 132.607 476.225 132.501 476.225 132.501C476.225 132.501 475.798 132.714 476.012 132.607H476.118C476.225 132.607 476.333 132.501 476.546 132.501C476.759 132.501 476.012 132.501 476.333 132.501C476.439 132.501 476.439 132.501 476.546 132.501C476.652 132.501 476.652 132.501 476.759 132.501C476.972 132.501 476.225 132.394 476.546 132.501C476.652 132.501 476.759 132.607 476.972 132.607C477.186 132.714 476.546 132.394 476.866 132.501C476.972 132.501 476.972 132.501 477.079 132.607C477.186 132.714 477.292 132.714 477.4 132.82C477.507 132.82 477.507 132.928 477.613 132.928C477.827 133.141 477.292 132.714 477.507 132.82L477.72 133.035C477.72 133.035 477.507 132.607 477.613 132.928C477.613 133.035 477.72 133.141 477.613 132.928C477.507 132.607 477.613 132.928 477.613 133.035V133.141C477.507 132.82 477.613 132.82 477.613 132.928C477.613 133.035 477.613 133.141 477.613 133.248V133.354C477.613 133.674 477.613 133.248 477.613 133.248C477.507 133.354 477.613 133.568 477.507 133.568C477.507 133.674 477.4 133.781 477.4 133.995C477.4 134.102 477.292 134.208 477.292 134.421C477.292 134.528 477.292 134.528 477.186 134.634C477.079 134.741 476.972 134.848 477.186 134.528C477.079 134.741 476.972 135.062 476.866 135.275C476.759 135.595 476.546 135.808 476.439 136.129C476.012 136.875 476.225 137.941 476.972 138.369C477.72 138.795 478.681 138.582 479.214 137.835C479.855 136.768 480.388 135.595 480.603 134.421C480.816 133.141 480.709 131.647 479.535 130.793C478.894 130.261 478.147 129.727 477.292 129.62C476.225 129.407 475.265 129.62 474.411 130.154C473.237 130.793 472.382 131.754 471.528 132.714C471.208 133.035 471.102 133.354 471.102 133.887C471.102 134.315 471.315 134.741 471.528 135.062C471.955 135.168 473.022 135.275 473.663 134.634Z" fill="black"/>
<path d="M479.214 136.661C479.214 136.555 479.214 136.448 479.214 136.448C479.214 136.555 479.214 136.768 479.107 136.875C479.107 136.661 479.214 136.555 479.214 136.342C479.321 136.448 479.214 136.555 479.214 136.661C479.214 136.555 479.321 136.448 479.428 136.235C479.428 136.342 479.321 136.448 479.214 136.661C479.321 136.448 479.535 136.235 479.642 136.129C479.535 136.235 479.428 136.342 479.321 136.342C479.535 136.129 479.855 136.021 480.175 135.914C480.068 136.021 479.962 136.021 479.748 136.129C480.068 136.021 480.388 135.914 480.709 135.808C480.603 135.808 480.388 135.808 480.282 135.914C480.603 135.914 480.923 135.914 481.136 135.914C481.029 135.914 480.816 135.914 480.709 135.808C480.922 135.808 481.136 135.914 481.349 136.021C481.242 135.914 481.136 135.914 480.922 135.808C481.136 135.914 481.242 136.021 481.349 136.129C481.242 136.021 481.136 135.914 481.029 135.914C481.136 136.021 481.242 136.129 481.456 136.342C481.349 136.235 481.242 136.129 481.242 136.021C481.349 136.235 481.456 136.342 481.563 136.555C481.456 136.448 481.456 136.342 481.349 136.129C481.456 136.235 481.456 136.448 481.456 136.555C481.456 136.448 481.456 136.235 481.349 136.129C481.349 136.235 481.349 136.448 481.349 136.555C481.349 136.448 481.349 136.235 481.456 136.129C481.456 136.342 481.349 136.555 481.242 136.661C481.349 136.555 481.349 136.448 481.456 136.235C481.136 136.875 480.816 137.408 480.496 138.048C480.068 138.795 480.282 139.862 481.029 140.289C481.777 140.715 482.738 140.502 483.271 139.755C483.805 138.688 484.552 137.728 484.659 136.555C484.766 135.275 483.912 134.101 482.951 133.354C482.203 132.82 481.136 132.607 480.282 132.714C479.321 132.82 478.36 133.035 477.613 133.674C476.546 134.421 475.798 135.488 475.905 136.768C475.905 137.622 476.652 138.369 477.507 138.369C478.574 138.262 479.214 137.515 479.214 136.661Z" fill="black"/>
<path d="M482.523 140.396C482.951 140.289 483.484 140.289 483.912 140.396C484.125 140.396 484.125 140.396 484.125 140.609C484.125 140.609 484.232 140.929 484.232 141.248C484.232 141.676 484.125 142.102 484.125 142.529C483.698 144.77 482.738 146.797 481.883 148.824C480.603 151.918 479.321 154.905 477.72 157.999C475.798 161.732 474.304 165.573 473.022 169.52C472.382 171.44 475.478 172.293 476.118 170.373C476.866 168.026 477.613 165.679 478.681 163.439C479.642 161.199 480.816 159.172 481.883 157.038C483.377 154.051 484.552 150.851 485.834 147.757C486.687 145.517 487.862 142.956 487.541 140.609C487.221 137.515 484.445 136.875 481.777 137.408C479.642 137.622 480.603 140.715 482.523 140.396Z" fill="black"/>
<path d="M483.484 152.237C487.114 150.423 490.53 148.396 494.053 146.369C497.363 144.556 501.312 143.062 504.088 140.289C505.69 138.688 506.436 136.768 506.757 134.528C507.077 132.607 506.864 129.834 508.358 128.34C509.96 126.633 511.24 128.34 511.454 130.047C511.881 132.394 511.454 135.062 510.706 137.302C510.066 139.222 513.162 140.075 513.802 138.156C514.869 134.741 515.617 129.834 513.589 126.633C511.454 123.326 506.97 124.179 505.155 127.38C503.127 130.793 504.622 135.488 501.526 138.369C500.244 139.542 498.537 140.396 496.935 141.142C495.441 141.889 493.946 142.743 492.452 143.596C488.929 145.623 485.512 147.65 481.883 149.463C480.068 150.423 481.67 153.198 483.484 152.237Z" fill="black"/>
<path d="M519.78 131.754C521.276 131.327 520.528 140.502 520.315 141.569C519.674 144.983 518.286 148.29 515.51 150.53C514.87 151.064 514.977 152.237 515.51 152.771C516.151 153.411 517.112 153.304 517.752 152.771C521.489 149.677 523.09 145.089 523.731 140.396C524.05 138.156 524.05 135.808 523.837 133.461C523.731 132.181 523.517 130.793 522.556 129.834C521.596 128.766 520.208 128.34 518.82 128.66C516.898 129.194 517.752 132.288 519.78 131.754Z" fill="black"/>
<path d="M440.891 180.721C440.783 176.134 443.345 172.4 446.441 169.2C449.324 166.212 451.672 162.692 453.487 159.065C455.301 155.438 456.69 151.49 457.33 147.436C458.077 142.636 457.757 137.728 458.184 132.82C458.397 130.793 458.825 128.02 460.96 127.167C463.415 126.1 464.056 128.66 464.162 130.58C464.376 132.607 467.578 132.607 467.365 130.58C467.152 128.34 466.831 125.887 464.802 124.607C463.095 123.432 460.747 123.647 458.931 124.607C454.448 127.167 454.768 133.674 454.661 138.156C454.555 143.49 454.234 148.503 452.42 153.517C450.711 158.105 448.256 162.586 444.946 166.212C443.132 168.239 441.317 170.053 439.93 172.4C438.435 174.961 437.58 177.842 437.58 180.828C437.687 182.855 440.891 182.855 440.891 180.721Z" fill="black"/>
<path d="M516.045 131.114C515.937 131.221 515.83 131.327 516.045 131.114C516.258 131.008 515.724 131.221 515.937 131.221C515.937 131.221 516.258 131.114 516.045 131.114C515.724 131.221 516.045 131.221 516.045 131.114C516.365 131.221 516.045 131.221 516.045 131.114C515.937 131.221 516.151 131.221 516.151 131.221C515.937 131.114 515.937 131.114 516.045 131.114C516.045 131.221 516.151 131.221 516.045 131.114C516.151 131.221 516.365 131.434 516.258 131.221C516.045 131.114 516.258 131.327 516.365 131.327C516.365 131.327 516.471 131.434 516.471 131.541C516.365 131.541 516.258 131.327 516.365 131.541C516.365 131.647 516.471 131.754 516.471 131.754C516.471 131.754 516.578 132.074 516.471 131.861C516.365 131.647 516.471 131.968 516.471 131.968C516.471 132.074 516.471 132.074 516.578 132.181C516.578 132.181 516.684 132.607 516.578 132.394C516.578 132.181 516.578 132.501 516.578 132.501C516.578 132.607 516.578 132.714 516.578 132.821C516.578 133.035 516.578 133.248 516.578 133.461C516.578 133.887 516.578 134.315 516.578 134.741C516.578 135.595 516.578 136.555 516.471 137.409C516.471 138.262 517.219 139.008 518.073 139.008C518.926 139.008 519.674 138.262 519.674 137.409C519.674 136.342 519.78 135.275 519.78 134.102C519.78 133.035 519.887 131.861 519.46 130.793C519.033 129.727 518.286 128.767 517.219 128.234C516.045 127.701 514.656 127.914 513.695 128.874C513.055 129.407 513.055 130.58 513.695 131.114C514.443 131.754 515.404 131.754 516.045 131.114Z" fill="black"/>
</svg>
