<svg xmlns="http://www.w3.org/2000/svg" xmlns:xlink="http://www.w3.org/1999/xlink" width="1920" height="1301" fill="none" xmlns:v="https://vecta.io/nano"><mask id="A" mask-type="alpha" maskUnits="userSpaceOnUse" x="0" y="0" width="1920" height="1302"><path fill="#c4c4c4" d="M0 0h1920v1302H0z"/></mask><g mask="url(#A)"><path fill="url(#B)" d="M0 0h1920v1302H0z"/><path transform="rotate(180 1921 1302)" fill="url(#C)" d="M1921 1302h1920v1302H1921z"/><g style="mix-blend-mode:lighten" opacity=".3"><path d="M-367.312 960.68c0-139.724 113.268-252.992 252.992-252.992S138.67 820.956 138.67 960.68s-113.268 253-252.99 253-252.992-113.27-252.992-253z" stroke="url(#D)" stroke-width="197.377"/></g><g style="mix-blend-mode:lighten" opacity=".3"><circle cx="1949" cy="1139" r="131.81" stroke="url(#E)" stroke-width="158.38"/></g><g style="mix-blend-mode:lighten" opacity=".3"><path d="M1901.67 562.68c0 139.723-113.27 252.99-253 252.99s-253-113.268-253-252.99 113.27-252.992 253-252.992 253 113.27 253 252.992z" stroke="url(#F)" stroke-width="197.377"/></g><g style="mix-blend-mode:lighten" opacity=".3"><circle cx="932" cy="211" r="147.312" stroke="url(#G)" stroke-width="197.377"/></g><g style="mix-blend-mode:lighten" opacity=".3"><circle cx="1919.5" cy="23.5" r="138.812" stroke="url(#H)" stroke-width="197.377"/></g><g style="mix-blend-mode:lighten" opacity=".2"><circle cx="372.5" cy="499.5" r="109.81" stroke="url(#I)" stroke-width="105.38"/></g><g style="mix-blend-mode:lighten" opacity=".2"><circle cx="500" cy="939" r="103.81" stroke="url(#J)" stroke-width="72.38"/></g><g style="mix-blend-mode:lighten" opacity=".1"><circle cx="1461.5" cy="1265.5" r="186.81" stroke="url(#K)" stroke-width="141.38"/></g><g style="mix-blend-mode:lighten" opacity=".2"><circle cx="960" cy="924" r="190.81" stroke="url(#L)" stroke-width="128.38"/></g><g style="mix-blend-mode:lighten" opacity=".4"><circle cx="61" cy="79" r="177.31" stroke="url(#M)" stroke-width="127.38"/></g></g><defs><linearGradient id="B" x1="960" y1="0" x2="960" y2="1302" xlink:href="#N"><stop stop-color="#6c4feb"/><stop offset="1" stop-color="#4816af"/></linearGradient><linearGradient id="C" x1="3841" y1="1165" x2="2559.85" y2="3740.12" xlink:href="#N"><stop stop-color="#4816af"/><stop offset=".295" stop-color="#6233df"/><stop offset="1" stop-color="#849bff"/></linearGradient><linearGradient id="D" x1="-114.32" y1="1312.36" x2="-114.32" y2="609" xlink:href="#N"><stop stop-color="#4816af"/><stop offset=".49" stop-color="#6233df"/><stop offset=".958" stop-color="#849bff"/><stop offset=".958" stop-color="#849bff"/></linearGradient><linearGradient id="E" x1="1949" y1="928" x2="1949" y2="1350" xlink:href="#N"><stop stop-color="#4816af"/><stop offset=".49" stop-color="#6233df"/><stop offset=".958" stop-color="#849bff"/><stop offset=".958" stop-color="#849bff"/></linearGradient><linearGradient id="F" x1="1648.68" y1="211" x2="1648.68" y2="914.359" xlink:href="#N"><stop stop-color="#4816af"/><stop offset=".49" stop-color="#6233df"/><stop offset=".958" stop-color="#849bff"/><stop offset=".958" stop-color="#849bff"/></linearGradient><linearGradient id="G" x1="932" y1="-35" x2="932" y2="457" xlink:href="#N"><stop stop-color="#4816af"/><stop offset=".49" stop-color="#6233df"/><stop offset=".958" stop-color="#849bff"/><stop offset=".958" stop-color="#849bff"/></linearGradient><linearGradient id="H" x1="1919.5" y1="-214" x2="1919.5" y2="261" xlink:href="#N"><stop stop-color="#4816af"/><stop offset=".49" stop-color="#6233df"/><stop offset=".958" stop-color="#849bff"/><stop offset=".958" stop-color="#849bff"/></linearGradient><linearGradient id="I" x1="372.5" y1="337" x2="372.5" y2="662" xlink:href="#N"><stop stop-color="#4816af"/><stop offset=".49" stop-color="#6233df"/><stop offset=".958" stop-color="#849bff"/><stop offset=".958" stop-color="#849bff"/></linearGradient><linearGradient id="J" x1="500" y1="799" x2="500" y2="1079" xlink:href="#N"><stop stop-color="#4816af"/><stop offset=".49" stop-color="#6233df"/><stop offset=".958" stop-color="#849bff"/><stop offset=".958" stop-color="#849bff"/></linearGradient><linearGradient id="K" x1="1461.5" y1="1008" x2="1461.5" y2="1523" xlink:href="#N"><stop stop-color="#4816af"/><stop offset=".49" stop-color="#6233df"/><stop offset=".958" stop-color="#849bff"/><stop offset=".958" stop-color="#849bff"/></linearGradient><linearGradient id="L" x1="960" y1="669" x2="960" y2="1179" xlink:href="#N"><stop stop-color="#4816af"/><stop offset=".49" stop-color="#6233df"/><stop offset=".958" stop-color="#849bff"/><stop offset=".958" stop-color="#849bff"/></linearGradient><linearGradient id="M" x1="61" y1="-162" x2="61" y2="320" xlink:href="#N"><stop stop-color="#4816af"/><stop offset=".49" stop-color="#6233df"/><stop offset=".958" stop-color="#849bff"/><stop offset=".958" stop-color="#849bff"/></linearGradient><linearGradient id="N" gradientUnits="userSpaceOnUse"/></defs></svg>