<svg xmlns="http://www.w3.org/2000/svg" xmlns:xlink="http://www.w3.org/1999/xlink" width="768" height="693" fill="none" xmlns:v="https://vecta.io/nano"><style><![CDATA[.B{fill-rule:evenodd}.C{color-interpolation-filters:sRGB}.D{flood-opacity:0}]]></style><g class="B"><path d="M-525 608.905L-9.5 696.5H790V0H-525v608.905z" fill="url(#E)"/><path d="M-525 608.905l518.84 88 779.16 2.53V0H-525v608.905z" fill="url(#F)" fill-opacity=".8"/></g><g filter="url(#A)" class="B"><path d="M379.874 270.248c19.666 0 35.61-15.943 35.61-35.61s-15.943-35.608-35.61-35.608-35.608 15.942-35.608 35.608 15.942 35.61 35.608 35.61zm0 177.174c117.517 0 212.783-95.266 212.783-212.783S497.39 21.856 379.874 21.856 167.092 117.122 167.092 234.64s95.266 212.783 212.782 212.783z" fill="url(#G)"/></g><g filter="url(#B)" class="B"><path d="M379.042 561.925c181.216 0 328.12-146.904 328.12-328.12s-146.904-328.12-328.12-328.12S50.92 52.59 50.92 233.805s146.905 328.12 328.12 328.12zm0 177.55c279.274 0 505.67-226.397 505.67-505.67s-226.397-505.672-505.67-505.672S-126.63-45.47-126.63 233.805s226.397 505.67 505.672 505.67z" fill="url(#H)"/></g><g filter="url(#C)" class="B"><path d="M779.913 722.447c140.76-115.73 230.537-291.274 230.537-487.803 0-288.05-192.87-531.02-456.432-606.644h380.89C1098.94-221.63 1201.8-5.513 1201.8 234.644c0 167.543-50.06 323.385-136.03 453.365l-285.857 34.438zm-958.7 115.493l285.512-34.395C-104.75 701.682-250.7 485.22-250.7 234.644c0-288.05 192.873-531.02 456.435-606.644h-380.9C-339.192-221.63-442.05-5.513-442.05 234.644c0 238.38 101.34 453.075 263.26 603.296z" fill="url(#I)"/></g><g filter="url(#D)" class="B"><path d="M1157.37 676.518l244.6-29.426c49.62-125.627 76.88-262.514 76.88-405.764 0-226.9-68.4-437.82-185.68-613.328h-265.88C1177.75-211.598 1269.9 4.11 1269.9 241.328c0 157.92-40.84 306.306-112.54 435.2zM-531.214 879.662l244.56-29.42C-434.697 690.307-525.17 476.376-525.17 241.328-525.17 4.11-433.02-211.598-282.54-372h-265.885C-665.718-196.49-734.102 14.438-734.102 241.328c0 237.773 75.1 458.016 202.888 638.334z" fill="url(#J)"/></g><g class="B"><path d="M1495.4 636.192l118.63-14.288V-372h-245.98c116.92 185.445 184.57 405.095 184.57 640.555 0 128.224-20.06 251.76-57.22 367.637zM-682.14 883c-107.07-179.812-168.572-389.943-168.572-614.445 0-235.46 67.653-455.1 184.573-640.555h-273.698c-95.843 192.96-149.733 410.46-149.733 640.555 0 219.774 49.16 428.06 137.092 614.445h270.338z" fill="url(#K)" fill-opacity=".5"/><path d="M-525 694.905H-6.16l959.16 1.53V0H-525v694.905z" fill="url(#L)" fill-opacity=".8"/></g><defs><filter id="A" x="157.092" y="15.856" width="445.565" height="445.565" filterUnits="userSpaceOnUse" class="C"><feFlood result="A" class="D"/><feColorMatrix in="SourceAlpha" values="0 0 0 0 0 0 0 0 0 0 0 0 0 0 0 0 0 0 127 0"/><feOffset dy="4"/><feGaussianBlur stdDeviation="5"/><feColorMatrix values="0 0 0 0 0 0 0 0 0 0 0 0 0 0 0 0 0 0 0.15 0"/><feBlend in2="A"/><feBlend in="SourceGraphic"/></filter><filter id="B" x="-136.63" y="-277.867" width="1031.34" height="1031.34" filterUnits="userSpaceOnUse" class="C"><feFlood result="A" class="D"/><feColorMatrix in="SourceAlpha" values="0 0 0 0 0 0 0 0 0 0 0 0 0 0 0 0 0 0 127 0"/><feOffset dy="4"/><feGaussianBlur stdDeviation="5"/><feColorMatrix values="0 0 0 0 0 0 0 0 0 0 0 0 0 0 0 0 0 0 0.15 0"/><feBlend in2="A"/><feBlend in="SourceGraphic"/></filter><filter id="C" x="-452.049" y="-378" width="1663.85" height="1229.94" filterUnits="userSpaceOnUse" class="C"><feFlood result="A" class="D"/><feColorMatrix in="SourceAlpha" values="0 0 0 0 0 0 0 0 0 0 0 0 0 0 0 0 0 0 127 0"/><feOffset dy="4"/><feGaussianBlur stdDeviation="5"/><feColorMatrix values="0 0 0 0 0 0 0 0 0 0 0 0 0 0 0 0 0 0 0.15 0"/><feBlend in2="A"/><feBlend in="SourceGraphic"/></filter><filter id="D" x="-744.102" y="-378" width="2232.94" height="1271.66" filterUnits="userSpaceOnUse" class="C"><feFlood result="A" class="D"/><feColorMatrix in="SourceAlpha" values="0 0 0 0 0 0 0 0 0 0 0 0 0 0 0 0 0 0 127 0"/><feOffset dy="4"/><feGaussianBlur stdDeviation="5"/><feColorMatrix values="0 0 0 0 0 0 0 0 0 0 0 0 0 0 0 0 0 0 0.15 0"/><feBlend in2="A"/><feBlend in="SourceGraphic"/></filter><linearGradient id="E" x1="594.591" y1="1049.62" x2="1181.58" y2="-480.613" xlink:href="#M"><stop stop-color="#4816af"/><stop offset=".295" stop-color="#6233df"/><stop offset="1" stop-color="#849bff"/></linearGradient><linearGradient id="F" x1="-285.594" y1="701.839" x2="298.492" y2="-497.703" xlink:href="#M"><stop stop-color="#4816af"/><stop offset=".295" stop-color="#6233df" stop-opacity=".35"/><stop offset="1" stop-color="#849bff"/></linearGradient><linearGradient id="G" x1="-596.875" y1="865.296" x2="1038.73" y2="255.514" xlink:href="#M"><stop stop-color="#4816af"/><stop offset=".49" stop-color="#6233df"/><stop offset=".958" stop-color="#849bff"/><stop offset=".958" stop-color="#849bff"/></linearGradient><linearGradient id="H" x1="-2363.42" y1="2117.24" x2="1944.8" y2="283.414" xlink:href="#M"><stop stop-color="#4816af"/><stop offset=".49" stop-color="#6233df"/><stop offset=".958" stop-color="#849bff"/><stop offset=".958" stop-color="#849bff"/></linearGradient><linearGradient id="I" x1="-3821.94" y1="2700.39" x2="2925.91" y2="318.276" xlink:href="#M"><stop stop-color="#4816af"/><stop offset=".49" stop-color="#6233df"/><stop offset=".958" stop-color="#849bff"/><stop offset=".958" stop-color="#849bff"/></linearGradient><linearGradient id="J" x1="-3727.85" y1="2466.11" x2="3797.69" y2="347.188" xlink:href="#M"><stop stop-color="#4816af"/><stop offset=".49" stop-color="#6233df"/><stop offset=".958" stop-color="#849bff"/><stop offset=".958" stop-color="#849bff"/></linearGradient><linearGradient id="K" x1="-4987.17" y1="3168.42" x2="4812.09" y2="412.523" xlink:href="#M"><stop stop-color="#4816af"/><stop offset=".49" stop-color="#6233df"/><stop offset=".958" stop-color="#849bff"/><stop offset=".958" stop-color="#849bff"/></linearGradient><linearGradient id="L" x1="-285.595" y1="701.839" x2="298.491" y2="-497.703" xlink:href="#M"><stop stop-color="#4816af"/><stop offset=".295" stop-color="#6233df" stop-opacity=".35"/><stop offset="1" stop-color="#849bff"/></linearGradient><linearGradient id="M" gradientUnits="userSpaceOnUse"/></defs></svg>