<svg xmlns="http://www.w3.org/2000/svg" xmlns:xlink="http://www.w3.org/1999/xlink" width="1920" height="791" fill="none" xmlns:v="https://vecta.io/nano"><style><![CDATA[.B{fill-rule:evenodd}.C{color-interpolation-filters:sRGB}.D{flood-opacity:0}]]></style><mask id="A" mask-type="alpha" maskUnits="userSpaceOnUse" x="0" y="0" width="1920" height="791"><path d="M0 791h674l1246-150V0H0v791z" fill="#000" class="B"/></mask><g mask="url(#A)" class="B"><path d="M0 791h674l1246-150V0H0v791z" fill="url(#F)"/><path d="M0 791h674l1246-150V0H0v791z" fill="url(#G)" fill-opacity=".8"/><g filter="url(#B)"><path d="M1263.06 441.674c13.55 0 24.54-10.986 24.54-24.537s-11-24.538-24.54-24.538-24.53 10.986-24.53 24.538 10.98 24.537 24.53 24.537zm0 122.09c80.98 0 146.63-65.647 146.63-146.626S1344.04 270.5 1263.06 270.5s-146.62 65.647-146.62 146.627 65.64 146.626 146.62 146.626z" fill="url(#H)"/></g><g filter="url(#C)"><path d="M1263.06 642.76c124.6 0 225.63-101.015 225.63-225.624s-101.02-225.625-225.63-225.625-225.62 101.015-225.62 225.625 101 225.624 225.62 225.624zm0 122.09c192.04 0 347.7-155.677 347.7-347.713S1455.1 69.423 1263.06 69.423 915.348 225.1 915.348 417.137 1071.02 764.85 1263.06 764.85z" fill="url(#I)"/></g><g filter="url(#D)"><path d="M1538.32 752.473c96.86-79.568 158.64-200.26 158.64-335.382 0-198.045-132.72-365.097-314.07-417.09h262.08c112.88 103.385 183.65 251.974 183.65 417.09 0 115.19-34.45 222.34-93.6 311.705l-196.7 23.677zM878.65 831.88l196.46-23.648c-145.514-70.035-245.942-218.86-245.942-391.14 0-198.045 132.714-365.097 314.072-417.09h-262.1C768.28 103.385 697.504 251.974 697.504 417.09c0 163.895 69.73 311.506 181.147 414.788z" fill="url(#J)"/></g><g filter="url(#E)"><path d="M1797.94 720.93l168.15-20.233c34.1-86.377 52.85-180.496 52.85-279 0-156.004-47.02-301.033-127.65-421.707h-182.8c103.45 110.287 166.8 258.603 166.8 421.707 0 108.58-28.07 210.607-77.36 299.223zM637.092 860.606l168.126-20.23c-101.774-109.966-163.97-257.06-163.97-418.67 0-163.104 63.35-311.42 166.8-421.707H625.26c-80.636 120.674-127.647 265.703-127.647 421.707 0 163.485 51.63 314.917 139.48 438.9z" fill="url(#K)"/></g><path d="M2030.68 693.283l81.62-9.825V0h-169.24c80.45 127.52 127 278.563 127 440.477 0 88.174-13.8 173.123-39.37 252.806zM532.552 863C458.9 739.352 416.575 594.856 416.575 440.477 416.575 278.563 463.12 127.52 543.56 0H355.258c-65.94 132.69-103.02 282.253-103.02 440.477 0 151.128 33.827 294.355 94.322 422.523h185.99z" fill="url(#L)" fill-opacity=".5"/><path d="M301.947 0H114.224C61.147 135.144 32 282.312 32 436.288 32 586.634 59.79 730.49 110.51 863h186.967c-59.776-129.852-93.113-274.39-93.113-426.712 0-156.078 35-303.98 97.582-436.288z" fill="url(#M)" fill-opacity=".2"/><path d="M0 791h674l1246-150V0H0v791z" fill="url(#G)" fill-opacity=".8"/></g><defs><filter id="B" x="1106.44" y="264.51" width="313.252" height="313.252" filterUnits="userSpaceOnUse" class="C"><feFlood result="A" class="D"/><feColorMatrix in="SourceAlpha" values="0 0 0 0 0 0 0 0 0 0 0 0 0 0 0 0 0 0 127 0"/><feOffset dy="4"/><feGaussianBlur stdDeviation="5"/><feColorMatrix values="0 0 0 0 0 0 0 0 0 0 0 0 0 0 0 0 0 0 0.15 0"/><feBlend in2="A"/><feBlend in="SourceGraphic"/></filter><filter id="C" x="905.348" y="63.423" width="715.427" height="715.427" filterUnits="userSpaceOnUse" class="C"><feFlood result="A" class="D"/><feColorMatrix in="SourceAlpha" values="0 0 0 0 0 0 0 0 0 0 0 0 0 0 0 0 0 0 127 0"/><feOffset dy="4"/><feGaussianBlur stdDeviation="5"/><feColorMatrix values="0 0 0 0 0 0 0 0 0 0 0 0 0 0 0 0 0 0 0.15 0"/><feBlend in2="A"/><feBlend in="SourceGraphic"/></filter><filter id="D" x="687.504" y="-6" width="1151.12" height="851.879" filterUnits="userSpaceOnUse" class="C"><feFlood result="A" class="D"/><feColorMatrix in="SourceAlpha" values="0 0 0 0 0 0 0 0 0 0 0 0 0 0 0 0 0 0 127 0"/><feOffset dy="4"/><feGaussianBlur stdDeviation="5"/><feColorMatrix values="0 0 0 0 0 0 0 0 0 0 0 0 0 0 0 0 0 0 0.15 0"/><feBlend in2="A"/><feBlend in="SourceGraphic"/></filter><filter id="E" x="487.613" y="-6" width="1541.32" height="880.606" filterUnits="userSpaceOnUse" class="C"><feFlood result="A" class="D"/><feColorMatrix in="SourceAlpha" values="0 0 0 0 0 0 0 0 0 0 0 0 0 0 0 0 0 0 127 0"/><feOffset dy="4"/><feGaussianBlur stdDeviation="5"/><feColorMatrix values="0 0 0 0 0 0 0 0 0 0 0 0 0 0 0 0 0 0 0.15 0"/><feBlend in2="A"/><feBlend in="SourceGraphic"/></filter><linearGradient id="F" x1="1454.41" y1="1363.52" x2="2216.94" y2="-624.342" xlink:href="#N"><stop stop-color="#4816af"/><stop offset=".295" stop-color="#6233df"/><stop offset="1" stop-color="#849bff"/></linearGradient><linearGradient id="G" x1="311" y1="911.726" x2="1069.76" y2="-646.543" xlink:href="#N"><stop stop-color="#4816af"/><stop offset=".295" stop-color="#6233df" stop-opacity=".35"/><stop offset="1" stop-color="#849bff"/></linearGradient><linearGradient id="H" x1="589.995" y1="851.715" x2="1717.07" y2="431.522" xlink:href="#N"><stop stop-color="#4816af"/><stop offset=".49" stop-color="#6233df"/><stop offset=".958" stop-color="#849bff"/><stop offset=".958" stop-color="#849bff"/></linearGradient><linearGradient id="I" x1="-622.731" y1="1712.24" x2="2339.72" y2="451.25" xlink:href="#N"><stop stop-color="#4816af"/><stop offset=".49" stop-color="#6233df"/><stop offset=".958" stop-color="#849bff"/><stop offset=".958" stop-color="#849bff"/></linearGradient><linearGradient id="J" x1="-1628.17" y1="2112.38" x2="3014.14" y2="472.25" xlink:href="#N"><stop stop-color="#4816af"/><stop offset=".49" stop-color="#6233df"/><stop offset=".958" stop-color="#849bff"/><stop offset=".958" stop-color="#849bff"/></linearGradient><linearGradient id="K" x1="-1560.49" y1="1951.4" x2="3613.18" y2="494.901" xlink:href="#N"><stop stop-color="#4816af"/><stop offset=".49" stop-color="#6233df"/><stop offset=".958" stop-color="#849bff"/><stop offset=".958" stop-color="#849bff"/></linearGradient><linearGradient id="L" x1="-2429.29" y1="2434.56" x2="4312.06" y2="537.708" xlink:href="#N"><stop stop-color="#4816af"/><stop offset=".49" stop-color="#6233df"/><stop offset=".958" stop-color="#849bff"/><stop offset=".958" stop-color="#849bff"/></linearGradient><linearGradient id="M" x1="-3198.46" y1="2838.59" x2="4922.91" y2="553.423" xlink:href="#N"><stop stop-color="#4816af"/><stop offset=".49" stop-color="#6233df"/><stop offset=".958" stop-color="#849bff"/><stop offset=".958" stop-color="#849bff"/></linearGradient><linearGradient id="N" gradientUnits="userSpaceOnUse"/></defs></svg>