<svg xmlns="http://www.w3.org/2000/svg" viewBox="0 0 373.68 107.03"><defs><style>.cls-1{fill:#6aef9f;}.cls-2{fill:#1b9b4e;}.cls-3{fill:#2ecc71;}.cls-4{fill:#24423e;}.cls-5{fill:#3d3d3d;}</style></defs><title>apolo_logo2020</title><g id="Nome"><circle class="cls-1" cx="81.39" cy="16.25" r="11.05"/><circle class="cls-1" cx="34.32" cy="95.98" r="11.05"/><circle class="cls-1" cx="34.32" cy="16.25" r="11.05"/><circle class="cls-1" cx="81.39" cy="95.98" r="11.05"/><circle class="cls-1" cx="11.05" cy="55.94" r="11.05"/><circle class="cls-1" cx="103.64" cy="55.27" r="11.05"/><circle class="cls-2" cx="57.38" cy="55.63" r="11.05"/><circle class="cls-3" cx="71.79" cy="32.58" r="11.05"/><circle class="cls-3" cx="43.93" cy="79.65" r="11.05"/><circle class="cls-3" cx="43.93" cy="32.58" r="11.05"/><circle class="cls-3" cx="71.79" cy="79.65" r="11.05"/><circle class="cls-3" cx="30" cy="55.83" r="11.05"/><circle class="cls-3" cx="84.69" cy="55.38" r="11.05"/><path class="cls-4" d="M205.76,93.67H181l-4.27,12.11H166.53l21.24-59.36H199l21.23,59.36H210ZM203,85.74,193.4,58.19l-9.73,27.55Z" transform="translate(-26.78 -21.97)"/><path class="cls-4" d="M243.8,60.24A20.53,20.53,0,0,1,253.43,58a21.31,21.31,0,0,1,19.19,11.51,26.25,26.25,0,0,1,2.9,12.54,27,27,0,0,1-2.9,12.66,21.59,21.59,0,0,1-8,8.7,21,21,0,0,1-11.22,3.12,20.4,20.4,0,0,1-9.55-2.18A21.43,21.43,0,0,1,237.06,99v29.16h-9.72V58.79h9.72V65.7A19.74,19.74,0,0,1,243.8,60.24Zm19.83,13.43a13.73,13.73,0,0,0-5.29-5.37,14.26,14.26,0,0,0-7-1.84,13.82,13.82,0,0,0-7,1.88,14,14,0,0,0-5.29,5.46,17.08,17.08,0,0,0-2,8.44,17.35,17.35,0,0,0,2,8.49,14,14,0,0,0,5.29,5.5,13.89,13.89,0,0,0,14,0,14.21,14.21,0,0,0,5.29-5.59,17.59,17.59,0,0,0,2-8.53A16.84,16.84,0,0,0,263.63,73.67Z" transform="translate(-26.78 -21.97)"/><path class="cls-4" d="M291.38,103.52A21.77,21.77,0,0,1,282.94,95a25.81,25.81,0,0,1-3.07-12.75A25.21,25.21,0,0,1,283,69.53,21.77,21.77,0,0,1,291.64,61,26.36,26.36,0,0,1,316,61a21.86,21.86,0,0,1,8.62,8.52,25.3,25.3,0,0,1,3.15,12.71A24.72,24.72,0,0,1,324.56,95a22.38,22.38,0,0,1-8.83,8.57,25.4,25.4,0,0,1-12.32,3A24.1,24.1,0,0,1,291.38,103.52Zm19.07-7.21a13.69,13.69,0,0,0,5.33-5.37,17.33,17.33,0,0,0,2-8.7,17.59,17.59,0,0,0-2-8.65,13.23,13.23,0,0,0-5.2-5.33,14.16,14.16,0,0,0-7-1.8,13.9,13.9,0,0,0-6.95,1.8,12.72,12.72,0,0,0-5.08,5.33,18.28,18.28,0,0,0-1.88,8.65q0,7.59,3.89,11.73a12.79,12.79,0,0,0,9.76,4.13A14.42,14.42,0,0,0,310.45,96.31Z" transform="translate(-26.78 -21.97)"/><path class="cls-4" d="M345,42.67v63.11H335.3V42.67Z" transform="translate(-26.78 -21.97)"/><path class="cls-4" d="M364,103.52A21.77,21.77,0,0,1,355.6,95a25.71,25.71,0,0,1-3.07-12.75,25.21,25.21,0,0,1,3.16-12.71A21.77,21.77,0,0,1,364.3,61a26.36,26.36,0,0,1,24.39,0,21.77,21.77,0,0,1,8.61,8.52,25.21,25.21,0,0,1,3.16,12.71A24.72,24.72,0,0,1,397.22,95a22.38,22.38,0,0,1-8.83,8.57,25.4,25.4,0,0,1-12.32,3A24.08,24.08,0,0,1,364,103.52Zm19.06-7.21a13.65,13.65,0,0,0,5.34-5.37,17.33,17.33,0,0,0,2-8.7,17.59,17.59,0,0,0-2-8.65,13.23,13.23,0,0,0-5.2-5.33,14.17,14.17,0,0,0-7-1.8,14,14,0,0,0-6.95,1.8,12.76,12.76,0,0,0-5.07,5.33,18.28,18.28,0,0,0-1.88,8.65q0,7.59,3.88,11.73a12.83,12.83,0,0,0,9.77,4.13A14.36,14.36,0,0,0,383.1,96.31Z" transform="translate(-26.78 -21.97)"/><path class="cls-5" d="M193.68,37.29h-2.2l-6.6-10v10h-2.2V23.89h2.2l6.6,10v-10h2.2Zm2.92-12a1.41,1.41,0,1,1,0-2.81,1.34,1.34,0,0,1,1,.4,1.46,1.46,0,0,1,0,2A1.34,1.34,0,0,1,196.6,25.28Zm1.08,1.41v10.6h-2.19V26.69Zm7.16-.18a4.8,4.8,0,0,1,2.24.52,3.79,3.79,0,0,1,1.56,1.54,5.09,5.09,0,0,1,.55,2.47v6.25H207V31.36a3,3,0,0,0-.71-2.17,2.52,2.52,0,0,0-1.95-.77,2.55,2.55,0,0,0-2,.77,3,3,0,0,0-.71,2.17v5.93h-2.2V26.69h2.2V27.9a3.57,3.57,0,0,1,1.36-1A4.42,4.42,0,0,1,204.84,26.51Zm9.93,11a5.44,5.44,0,0,1-2.25-.44A4.19,4.19,0,0,1,211,35.79a3.11,3.11,0,0,1-.61-1.75h2.27a1.58,1.58,0,0,0,.63,1.13,2.4,2.4,0,0,0,1.49.45,2.48,2.48,0,0,0,1.42-.35,1.08,1.08,0,0,0,.52-.92.93.93,0,0,0-.58-.89,10.45,10.45,0,0,0-1.79-.63,16.94,16.94,0,0,1-1.94-.64,3.45,3.45,0,0,1-1.31-.94,2.51,2.51,0,0,1-.54-1.68A2.6,2.6,0,0,1,211,28a3.34,3.34,0,0,1,1.42-1.11,5.44,5.44,0,0,1,2.16-.41,4.34,4.34,0,0,1,2.91.93,3.24,3.24,0,0,1,1.19,2.48h-2.19a1.57,1.57,0,0,0-.58-1.14,2.19,2.19,0,0,0-1.41-.42,2.24,2.24,0,0,0-1.32.33,1,1,0,0,0-.47.86,1,1,0,0,0,.31.72,2.56,2.56,0,0,0,.75.46c.3.1.73.24,1.31.4a13.26,13.26,0,0,1,1.89.64,3.36,3.36,0,0,1,1.29.92,2.52,2.52,0,0,1,.56,1.64,2.68,2.68,0,0,1-.51,1.61,3.22,3.22,0,0,1-1.42,1.12A5.17,5.17,0,0,1,214.77,37.46Zm4.64-5.52a5.91,5.91,0,0,1,.65-2.83,4.92,4.92,0,0,1,4.35-2.6,4.52,4.52,0,0,1,2.17.5,4.39,4.39,0,0,1,1.51,1.22V26.69h2.21v10.6h-2.21V35.71A4.41,4.41,0,0,1,226.57,37a4.66,4.66,0,0,1-2.2.5,4.73,4.73,0,0,1-2.5-.69,5.11,5.11,0,0,1-1.81-2A6.13,6.13,0,0,1,219.41,31.94Zm8.68,0a3.78,3.78,0,0,0-.47-1.91,3,3,0,0,0-1.17-1.23,3.18,3.18,0,0,0-3.16,0,3.22,3.22,0,0,0-1.19,1.21,3.77,3.77,0,0,0-.44,1.89,4,4,0,0,0,.44,1.93,3.48,3.48,0,0,0,1.19,1.27,3.2,3.2,0,0,0,1.58.42,3,3,0,0,0,2.75-1.66A3.85,3.85,0,0,0,228.09,32Zm13.63-5.29v10.6h-2.2V36a3.58,3.58,0,0,1-1.36,1,4.38,4.38,0,0,1-1.77.37,4.92,4.92,0,0,1-2.26-.52,3.83,3.83,0,0,1-1.55-1.54,5,5,0,0,1-.56-2.47V26.69h2.17v5.9a3.15,3.15,0,0,0,.71,2.2,2.58,2.58,0,0,0,1.95.75,2.54,2.54,0,0,0,1.94-.75,3.06,3.06,0,0,0,.73-2.2v-5.9Zm-2.81-2.85-4.26,2.09V24.32L238.91,22Zm3.9,8.1a5.91,5.91,0,0,1,.66-2.83,4.92,4.92,0,0,1,4.37-2.6,5,5,0,0,1,2,.46,4.08,4.08,0,0,1,1.61,1.2V23.05h2.22V37.29h-2.22v-1.6A4,4,0,0,1,250,37a4.48,4.48,0,0,1-2.17.5,4.84,4.84,0,0,1-2.54-.69,5.11,5.11,0,0,1-1.81-2A6.13,6.13,0,0,1,242.81,31.94Zm8.68,0a3.78,3.78,0,0,0-.46-1.91,3,3,0,0,0-1.17-1.23,3.17,3.17,0,0,0-4.35,1.21,3.78,3.78,0,0,0-.45,1.89,4,4,0,0,0,.45,1.93,3.39,3.39,0,0,0,1.19,1.27,3.2,3.2,0,0,0,1.58.42A3,3,0,0,0,251,33.9,3.84,3.84,0,0,0,251.49,32Zm13.75-.25a7,7,0,0,1-.08,1.08h-8.1a3,3,0,0,0,.94,2,3,3,0,0,0,2.08.77,2.56,2.56,0,0,0,2.5-1.49H265a4.78,4.78,0,0,1-1.75,2.41,5.06,5.06,0,0,1-3.12.92,5.52,5.52,0,0,1-2.73-.67,5,5,0,0,1-1.89-1.92,6,6,0,0,1-.67-2.89,6.1,6.1,0,0,1,.65-2.87,4.74,4.74,0,0,1,1.87-1.92,5.6,5.6,0,0,1,2.77-.68,5.4,5.4,0,0,1,2.68.66A4.63,4.63,0,0,1,264.59,29,5.58,5.58,0,0,1,265.24,31.73ZM263,31a2.49,2.49,0,0,0-.87-1.95,3.06,3.06,0,0,0-2.09-.73,2.8,2.8,0,0,0-1.95.73,3,3,0,0,0-1,1.95Z" transform="translate(-26.78 -21.97)"/></g></svg>