<svg width="138" height="136" viewBox="0 0 138 136" fill="none" xmlns="http://www.w3.org/2000/svg">
<rect width="138" height="136" rx="20" fill="#F2F2F2"/>
<path d="M31 44.7608C31 42.6838 32.6873 41 34.7686 41H103.231C105.313 41 107 42.6838 107 44.7608V90.5175C107 92.5946 105.313 94.2784 103.231 94.2784H34.7686C32.6873 94.2784 31 92.5946 31 90.5175V44.7608Z" fill="#9BA0AB"/>
<path fill-rule="evenodd" clip-rule="evenodd" d="M103.231 44.134H34.7686C34.4217 44.134 34.1405 44.4147 34.1405 44.7608V90.5175C34.1405 90.8637 34.4217 91.1443 34.7686 91.1443H103.231C103.578 91.1443 103.86 90.8637 103.86 90.5175V44.7608C103.86 44.4146 103.578 44.134 103.231 44.134ZM34.7686 41C32.6873 41 31 42.6838 31 44.7608V90.5175C31 92.5946 32.6873 94.2784 34.7686 94.2784H103.231C105.313 94.2784 107 92.5946 107 90.5175V44.7608C107 42.6838 105.313 41 103.231 41H34.7686Z" fill="#333333"/>
<path fill-rule="evenodd" clip-rule="evenodd" d="M31.2574 47.9832C31.7351 47.2542 32.7162 47.0487 33.4486 47.5243L69.4656 70.9122L104.536 47.5348C105.262 47.0504 106.246 47.2441 106.732 47.9674C107.219 48.6907 107.024 49.6697 106.297 50.154L69.4885 74.6907L31.7184 50.1645C30.9861 49.6889 30.7796 48.7123 31.2574 47.9832Z" fill="#333333"/>
</svg>
