<svg width="125" height="125" viewBox="0 0 125 125" fill="none" xmlns="http://www.w3.org/2000/svg">
<rect width="124.517" height="124.517" rx="10" fill="white"/>
<path d="M21.5 37C21.5 32.3056 25.3056 28.5 30 28.5H95C99.6944 28.5 103.5 32.3056 103.5 37V87.8333C103.5 92.5278 99.6944 96.3333 95 96.3333H21.5V37Z" fill="#BDE8C6" stroke="black" stroke-width="3"/>
<path d="M59.8763 70.4853C59.9076 68.6242 60.1188 67.1541 60.5097 66.075C60.9007 64.9959 61.6983 63.7995 62.9025 62.4859L65.9756 59.3189C67.2893 57.8332 67.9462 56.238 67.9462 54.5333C67.9462 52.8912 67.5161 51.6088 66.6559 50.6861C65.7958 49.7478 64.5446 49.2786 62.9025 49.2786C61.3073 49.2786 60.0249 49.7008 59.0553 50.5454C58.0857 51.3899 57.6009 52.5237 57.6009 53.9469H53.261C53.2923 51.4133 54.1915 49.3724 55.9587 47.8241C57.7416 46.2602 60.0562 45.4783 62.9025 45.4783C65.8583 45.4783 68.1573 46.2759 69.7994 47.8711C71.4571 49.4506 72.286 51.6245 72.286 54.3926C72.286 57.1294 71.0192 59.8272 68.4857 62.4859L65.9287 65.0194C64.787 66.2862 64.2162 68.1081 64.2162 70.4853H59.8763ZM59.6887 77.9217C59.6887 77.2179 59.8998 76.6315 60.3221 76.1623C60.76 75.6775 61.4012 75.4351 62.2457 75.4351C63.0902 75.4351 63.7314 75.6775 64.1693 76.1623C64.6072 76.6315 64.8261 77.2179 64.8261 77.9217C64.8261 78.6255 64.6072 79.2119 64.1693 79.6811C63.7314 80.1346 63.0902 80.3614 62.2457 80.3614C61.4012 80.3614 60.76 80.1346 60.3221 79.6811C59.8998 79.2119 59.6887 78.6255 59.6887 77.9217Z" fill="black"/>
</svg>
