<svg width="35" height="35" viewBox="0 0 35 35" fill="none" xmlns="http://www.w3.org/2000/svg">
<g clip-path="url(#clip0)">
<path d="M31.2291 14.2783H18.0493C15.97 14.2783 14.2784 15.9699 14.2784 18.0493V25.2099L10.8636 27.649C10.5942 27.8412 10.4342 28.1521 10.4342 28.4832C10.4342 28.8146 10.5942 29.1254 10.8636 29.3176L14.3195 31.7861C14.5894 33.6024 16.1593 35.0003 18.0493 35.0003H31.2291C33.3084 35.0003 35.0001 33.3087 35.0001 31.229V18.0493C35.0001 15.9699 33.3084 14.2783 31.2291 14.2783ZM26.7975 28.6867C26.5558 28.6867 26.3691 28.61 26.3144 28.4012L25.8968 26.9403H23.3814L22.9643 28.4012C22.9093 28.61 22.7226 28.6867 22.4809 28.6867C22.0964 28.6867 21.5803 28.4453 21.5803 28.0939C21.5803 28.0717 21.5912 28.0279 21.6021 27.9838L23.7221 21.0753C23.8209 20.7458 24.2273 20.5917 24.6337 20.5917C25.0511 20.5917 25.4575 20.7458 25.5563 21.0753L27.6763 27.9838C27.6872 28.0279 27.6982 28.0607 27.6982 28.0939C27.6982 28.4341 27.182 28.6867 26.7975 28.6867Z" fill="#4F4F4F"/>
<path d="M23.678 25.8195H25.5894L24.6334 22.4478L23.678 25.8195Z" fill="#4F4F4F"/>
<path d="M12.2275 18.049C12.2275 16.6722 12.709 15.4065 13.5109 14.4086C12.341 14.4086 11.2555 14.0425 10.3607 13.4206C9.4659 14.0428 8.38043 14.4086 7.21031 14.4086C6.89121 14.4086 6.63219 14.1496 6.63219 13.8302C6.63219 13.5109 6.89121 13.2521 7.21031 13.2521C8.02982 13.2521 8.79673 13.0251 9.45335 12.6321C8.66135 11.7773 8.13477 10.6737 8.00739 9.45229H7.21058C6.89121 9.45229 6.63219 9.19353 6.63219 8.87417C6.63219 8.5548 6.89121 8.29578 7.21058 8.29578H9.78287V6.89175C9.78287 6.57211 10.0416 6.31336 10.361 6.31336C10.6804 6.31336 10.9391 6.57211 10.9391 6.89175V8.29578H13.5114C13.8308 8.29578 14.0898 8.5548 14.0898 8.87417C14.0898 9.19353 13.8308 9.45229 13.5114 9.45229H12.7146C12.5872 10.6737 12.0606 11.7773 11.2686 12.6321C11.925 13.0257 12.6921 13.2521 13.5114 13.2521C13.8166 13.2521 14.066 13.4887 14.0876 13.7886C15.1277 12.8209 16.5203 12.2272 18.0495 12.2272H20.722V9.79034L24.1367 7.3513C24.4059 7.15904 24.5658 6.84822 24.5658 6.51711C24.5658 6.18572 24.4059 5.8749 24.1367 5.68264L20.6808 3.21423C20.4106 1.3979 18.8408 0 16.9507 0H3.77125C1.69163 0 0 1.69163 0 3.77098V16.951C0 19.0303 1.69163 20.722 3.77125 20.722H12.2275V18.049Z" fill="#4F4F4F"/>
<path d="M10.3607 11.9096C10.9936 11.2529 11.4232 10.4003 11.549 9.45264H9.17273C9.2985 10.4003 9.72842 11.2529 10.3607 11.9096Z" fill="#4F4F4F"/>
</g>
<defs>
<clipPath id="clip0">
<rect width="35" height="35" fill="white"/>
</clipPath>
</defs>
</svg>
