<svg width="298" height="90" viewBox="0 0 298 90" fill="none" xmlns="http://www.w3.org/2000/svg">
<path d="M71.2229 19.3113C76.5636 19.3113 80.8931 14.9883 80.8931 9.65566C80.8931 4.32299 76.5636 0 71.2229 0C65.8822 0 61.5527 4.32299 61.5527 9.65566C61.5527 14.9883 65.8822 19.3113 71.2229 19.3113Z" fill="#ADADAD"/>
<path d="M30.0196 89C35.3602 89 39.6897 84.6771 39.6897 79.3444C39.6897 74.0117 35.3602 69.6887 30.0196 69.6887C24.6789 69.6887 20.3494 74.0117 20.3494 79.3444C20.3494 84.6771 24.6789 89 30.0196 89Z" fill="#ADADAD"/>
<path d="M30.0196 19.3113C35.3602 19.3113 39.6897 14.9883 39.6897 9.65566C39.6897 4.32299 35.3602 0 30.0196 0C24.6789 0 20.3494 4.32299 20.3494 9.65566C20.3494 14.9883 24.6789 19.3113 30.0196 19.3113Z" fill="#ADADAD"/>
<path d="M71.2229 89C76.5636 89 80.8931 84.6771 80.8931 79.3444C80.8931 74.0117 76.5636 69.6887 71.2229 69.6887C65.8822 69.6887 61.5527 74.0117 61.5527 79.3444C61.5527 84.6771 65.8822 89 71.2229 89Z" fill="#ADADAD"/>
<path d="M9.67017 53.9878C15.0109 53.9878 19.3403 49.6648 19.3403 44.3322C19.3403 38.9995 15.0109 34.6765 9.67017 34.6765C4.32948 34.6765 0 38.9995 0 44.3322C0 49.6648 4.32948 53.9878 9.67017 53.9878Z" fill="#ADADAD"/>
<path d="M90.7314 53.3999C96.0721 53.3999 100.402 49.077 100.402 43.7443C100.402 38.4116 96.0721 34.0886 90.7314 34.0886C85.3907 34.0886 81.0612 38.4116 81.0612 43.7443C81.0612 49.077 85.3907 53.3999 90.7314 53.3999Z" fill="#ADADAD"/>
<path d="M50.2008 53.7359C55.5414 53.7359 59.8709 49.4129 59.8709 44.0802C59.8709 38.7475 55.5414 34.4246 50.2008 34.4246C44.8601 34.4246 40.5306 38.7475 40.5306 44.0802C40.5306 49.4129 44.8601 53.7359 50.2008 53.7359Z" fill="#5B5B5B"/>
<path d="M62.814 33.585C68.1547 33.585 72.4842 29.262 72.4842 23.9293C72.4842 18.5967 68.1547 14.2737 62.814 14.2737C57.4733 14.2737 53.1439 18.5967 53.1439 23.9293C53.1439 29.262 57.4733 33.585 62.814 33.585Z" fill="#7D7D7D"/>
<path d="M38.4284 74.7264C43.7691 74.7264 48.0986 70.4034 48.0986 65.0707C48.0986 59.738 43.7691 55.415 38.4284 55.415C33.0877 55.415 28.7582 59.738 28.7582 65.0707C28.7582 70.4034 33.0877 74.7264 38.4284 74.7264Z" fill="#7D7D7D"/>
<path d="M38.4284 33.585C43.7691 33.585 48.0986 29.262 48.0986 23.9293C48.0986 18.5967 43.7691 14.2737 38.4284 14.2737C33.0877 14.2737 28.7582 18.5967 28.7582 23.9293C28.7582 29.262 33.0877 33.585 38.4284 33.585Z" fill="#7D7D7D"/>
<path d="M62.814 74.7264C68.1547 74.7264 72.4842 70.4034 72.4842 65.0707C72.4842 59.738 68.1547 55.415 62.814 55.415C57.4733 55.415 53.1439 59.738 53.1439 65.0707C53.1439 70.4034 57.4733 74.7264 62.814 74.7264Z" fill="#7D7D7D"/>
<path d="M26.2356 53.9036C31.5763 53.9036 35.9057 49.5806 35.9057 44.2479C35.9057 38.9153 31.5763 34.5923 26.2356 34.5923C20.8949 34.5923 16.5654 38.9153 16.5654 44.2479C16.5654 49.5806 20.8949 53.9036 26.2356 53.9036Z" fill="#7D7D7D"/>
<path d="M74.166 53.4842C79.5067 53.4842 83.8361 49.1612 83.8361 43.8285C83.8361 38.4958 79.5067 34.1729 74.166 34.1729C68.8253 34.1729 64.4958 38.4958 64.4958 43.8285C64.4958 49.1612 68.8253 53.4842 74.166 53.4842Z" fill="#7D7D7D"/>
<path d="M149.755 63.2679H130.985L127.712 72.4208H120L136.151 27.5283H144.662L160.74 72.4208H152.956L149.755 63.2679ZM147.718 57.3113L140.443 36.4632L133.022 57.3113H147.718Z" fill="#333333"/>
<path d="M178.564 37.9886C180.747 36.899 183.148 36.3179 185.839 36.3179C188.968 36.3179 191.805 37.1169 194.351 38.6424C196.897 40.1679 198.934 42.2745 200.389 45.0349C201.844 47.7952 202.572 50.9188 202.572 54.4783C202.572 58.0377 201.844 61.2339 200.389 64.0669C198.934 66.9 196.897 69.0792 194.351 70.6773C191.805 72.2754 188.968 73.0018 185.839 73.0018C183.148 73.0018 180.747 72.4207 178.637 71.3311C176.527 70.2415 174.781 68.8613 173.472 67.2632V89.3462H166.124V36.899H173.472V42.1292C174.708 40.5311 176.382 39.1509 178.564 37.9886ZM193.551 48.1584C192.532 46.3424 191.223 45.0349 189.55 44.0905C187.876 43.1462 186.13 42.7103 184.239 42.7103C182.42 42.7103 180.601 43.2188 179.001 44.1632C177.328 45.1075 176.018 46.4877 174.999 48.3037C173.981 50.1198 173.472 52.2264 173.472 54.6962C173.472 57.166 173.981 59.2726 174.999 61.0886C176.018 62.9047 177.328 64.2849 179.001 65.2292C180.674 66.1735 182.42 66.682 184.239 66.682C186.13 66.682 187.876 66.1735 189.55 65.2292C191.223 64.2849 192.532 62.832 193.551 61.016C194.569 59.1999 195.079 57.0207 195.079 54.5509C195.079 52.0811 194.569 49.9745 193.551 48.1584Z" fill="#333333"/>
<path d="M214.576 70.7499C211.884 69.2245 209.702 67.0452 208.174 64.2848C206.646 61.5245 205.846 58.3282 205.846 54.6235C205.846 50.9915 206.646 47.7952 208.247 45.0349C209.847 42.2745 212.03 40.0952 214.794 38.5698C217.559 37.0443 220.614 36.3179 224.033 36.3179C227.453 36.3179 230.508 37.0443 233.273 38.5698C236.037 40.0952 238.22 42.2018 239.82 45.0349C241.421 47.7952 242.221 51.0641 242.221 54.6235C242.221 58.2556 241.421 61.4518 239.748 64.2122C238.074 66.9726 235.892 69.1518 233.054 70.6773C230.217 72.2028 227.089 73.0018 223.742 73.0018C220.323 73.0018 217.34 72.2754 214.576 70.7499ZM229.053 65.3018C230.726 64.4301 232.036 63.0499 233.054 61.2339C234.073 59.4179 234.582 57.2386 234.582 54.6235C234.582 52.0084 234.073 49.8292 233.127 48.0858C232.109 46.2698 230.799 44.9622 229.199 44.0905C227.525 43.2188 225.779 42.7103 223.888 42.7103C221.996 42.7103 220.25 43.1462 218.65 44.0905C217.049 44.9622 215.74 46.3424 214.794 48.0858C213.848 49.9018 213.339 52.0811 213.339 54.6235C213.339 58.4735 214.285 61.3792 216.249 63.4858C218.213 65.5924 220.687 66.6094 223.67 66.6094C225.634 66.6094 227.38 66.1735 229.053 65.3018Z" fill="#333333"/>
<path d="M255.243 24.6953V72.4208H247.896V24.6953H255.243Z" fill="#333333"/>
<path d="M269.648 70.7499C266.956 69.2245 264.774 67.0452 263.246 64.2848C261.718 61.5245 260.918 58.3282 260.918 54.6235C260.918 50.9915 261.718 47.7952 263.319 45.0349C264.919 42.2745 267.102 40.0952 269.866 38.5698C272.631 37.0443 275.686 36.3179 279.106 36.3179C282.525 36.3179 285.58 37.0443 288.345 38.5698C291.109 40.0952 293.292 42.2018 294.893 45.0349C296.493 47.7952 297.293 51.0641 297.293 54.6235C297.293 58.2556 296.493 61.4518 294.82 64.2122C293.147 66.9726 290.964 69.1518 288.127 70.6773C285.289 72.2028 282.161 73.0018 278.815 73.0018C275.395 73.0018 272.34 72.2754 269.648 70.7499ZM284.053 65.3018C285.726 64.4301 287.035 63.0499 288.054 61.2339C289.072 59.4179 289.582 57.2386 289.582 54.6235C289.582 52.0084 289.072 49.8292 288.127 48.0858C287.108 46.2698 285.799 44.9622 284.198 44.0905C282.525 43.2188 280.779 42.7103 278.887 42.7103C276.996 42.7103 275.25 43.1462 273.649 44.0905C272.049 44.9622 270.739 46.3424 269.794 48.0858C268.848 49.9018 268.339 52.0811 268.339 54.6235C268.339 58.4735 269.284 61.3792 271.249 63.4858C273.213 65.5924 275.686 66.6094 278.669 66.6094C280.633 66.6094 282.379 66.1735 284.053 65.3018Z" fill="#333333"/>
<path d="M138.628 20H136.576L130.402 10.658V20H128.35V7.472H130.402L136.576 16.796V7.472H138.628V20ZM141.367 8.768C140.995 8.768 140.683 8.642 140.431 8.39C140.179 8.138 140.053 7.826 140.053 7.454C140.053 7.082 140.179 6.77 140.431 6.518C140.683 6.266 140.995 6.14 141.367 6.14C141.727 6.14 142.033 6.266 142.285 6.518C142.537 6.77 142.663 7.082 142.663 7.454C142.663 7.826 142.537 8.138 142.285 8.39C142.033 8.642 141.727 8.768 141.367 8.768ZM142.375 10.082V20H140.323V10.082H142.375ZM149.073 9.92C149.853 9.92 150.549 10.082 151.161 10.406C151.785 10.73 152.271 11.21 152.619 11.846C152.967 12.482 153.141 13.25 153.141 14.15V20H151.107V14.456C151.107 13.568 150.885 12.89 150.441 12.422C149.997 11.942 149.391 11.702 148.623 11.702C147.855 11.702 147.243 11.942 146.787 12.422C146.343 12.89 146.121 13.568 146.121 14.456V20H144.069V10.082H146.121V11.216C146.457 10.808 146.883 10.49 147.399 10.262C147.927 10.034 148.485 9.92 149.073 9.92ZM158.358 20.162C157.578 20.162 156.876 20.024 156.252 19.748C155.64 19.46 155.154 19.076 154.794 18.596C154.434 18.104 154.242 17.558 154.218 16.958H156.342C156.378 17.378 156.576 17.732 156.936 18.02C157.308 18.296 157.77 18.434 158.322 18.434C158.898 18.434 159.342 18.326 159.654 18.11C159.978 17.882 160.14 17.594 160.14 17.246C160.14 16.874 159.96 16.598 159.6 16.418C159.252 16.238 158.694 16.04 157.926 15.824C157.182 15.62 156.576 15.422 156.108 15.23C155.64 15.038 155.232 14.744 154.884 14.348C154.548 13.952 154.38 13.43 154.38 12.782C154.38 12.254 154.536 11.774 154.848 11.342C155.16 10.898 155.604 10.55 156.18 10.298C156.768 10.046 157.44 9.92 158.196 9.92C159.324 9.92 160.23 10.208 160.914 10.784C161.61 11.348 161.982 12.122 162.03 13.106H159.978C159.942 12.662 159.762 12.308 159.438 12.044C159.114 11.78 158.676 11.648 158.124 11.648C157.584 11.648 157.17 11.75 156.882 11.954C156.594 12.158 156.45 12.428 156.45 12.764C156.45 13.028 156.546 13.25 156.738 13.43C156.93 13.61 157.164 13.754 157.44 13.862C157.716 13.958 158.124 14.084 158.664 14.24C159.384 14.432 159.972 14.63 160.428 14.834C160.896 15.026 161.298 15.314 161.634 15.698C161.97 16.082 162.144 16.592 162.156 17.228C162.156 17.792 162 18.296 161.688 18.74C161.376 19.184 160.932 19.532 160.356 19.784C159.792 20.036 159.126 20.162 158.358 20.162ZM162.689 14.996C162.689 14 162.893 13.118 163.301 12.35C163.721 11.582 164.285 10.988 164.993 10.568C165.713 10.136 166.505 9.92 167.369 9.92C168.149 9.92 168.827 10.076 169.403 10.388C169.991 10.688 170.459 11.066 170.807 11.522V10.082H172.877V20H170.807V18.524C170.459 18.992 169.985 19.382 169.385 19.694C168.785 20.006 168.101 20.162 167.333 20.162C166.481 20.162 165.701 19.946 164.993 19.514C164.285 19.07 163.721 18.458 163.301 17.678C162.893 16.886 162.689 15.992 162.689 14.996ZM170.807 15.032C170.807 14.348 170.663 13.754 170.375 13.25C170.099 12.746 169.733 12.362 169.277 12.098C168.821 11.834 168.329 11.702 167.801 11.702C167.273 11.702 166.781 11.834 166.325 12.098C165.869 12.35 165.497 12.728 165.209 13.232C164.933 13.724 164.795 14.312 164.795 14.996C164.795 15.68 164.933 16.28 165.209 16.796C165.497 17.312 165.869 17.708 166.325 17.984C166.793 18.248 167.285 18.38 167.801 18.38C168.329 18.38 168.821 18.248 169.277 17.984C169.733 17.72 170.099 17.336 170.375 16.832C170.663 16.316 170.807 15.716 170.807 15.032ZM183.555 10.082V20H181.503V18.83C181.179 19.238 180.753 19.562 180.225 19.802C179.709 20.03 179.157 20.144 178.569 20.144C177.789 20.144 177.087 19.982 176.463 19.658C175.851 19.334 175.365 18.854 175.005 18.218C174.657 17.582 174.483 16.814 174.483 15.914V10.082H176.517V15.608C176.517 16.496 176.739 17.18 177.183 17.66C177.627 18.128 178.233 18.362 179.001 18.362C179.769 18.362 180.375 18.128 180.819 17.66C181.275 17.18 181.503 16.496 181.503 15.608V10.082H183.555ZM180.927 7.418L176.949 9.38V7.868L180.927 5.672V7.418ZM184.578 14.996C184.578 14 184.782 13.118 185.19 12.35C185.61 11.582 186.174 10.988 186.882 10.568C187.602 10.136 188.4 9.92 189.276 9.92C189.924 9.92 190.56 10.064 191.184 10.352C191.82 10.628 192.324 11 192.696 11.468V6.68H194.766V20H192.696V18.506C192.36 18.986 191.892 19.382 191.292 19.694C190.704 20.006 190.026 20.162 189.258 20.162C188.394 20.162 187.602 19.946 186.882 19.514C186.174 19.07 185.61 18.458 185.19 17.678C184.782 16.886 184.578 15.992 184.578 14.996ZM192.696 15.032C192.696 14.348 192.552 13.754 192.264 13.25C191.988 12.746 191.622 12.362 191.166 12.098C190.71 11.834 190.218 11.702 189.69 11.702C189.162 11.702 188.67 11.834 188.214 12.098C187.758 12.35 187.386 12.728 187.098 13.232C186.822 13.724 186.684 14.312 186.684 14.996C186.684 15.68 186.822 16.28 187.098 16.796C187.386 17.312 187.758 17.708 188.214 17.984C188.682 18.248 189.174 18.38 189.69 18.38C190.218 18.38 190.71 18.248 191.166 17.984C191.622 17.72 191.988 17.336 192.264 16.832C192.552 16.316 192.696 15.716 192.696 15.032ZM205.551 14.798C205.551 15.17 205.527 15.506 205.479 15.806H197.901C197.961 16.598 198.255 17.234 198.783 17.714C199.311 18.194 199.959 18.434 200.727 18.434C201.831 18.434 202.611 17.972 203.067 17.048H205.281C204.981 17.96 204.435 18.71 203.643 19.298C202.863 19.874 201.891 20.162 200.727 20.162C199.779 20.162 198.927 19.952 198.171 19.532C197.427 19.1 196.839 18.5 196.407 17.732C195.987 16.952 195.777 16.052 195.777 15.032C195.777 14.012 195.981 13.118 196.389 12.35C196.809 11.57 197.391 10.97 198.135 10.55C198.891 10.13 199.755 9.92 200.727 9.92C201.663 9.92 202.497 10.124 203.229 10.532C203.961 10.94 204.531 11.516 204.939 12.26C205.347 12.992 205.551 13.838 205.551 14.798ZM203.409 14.15C203.397 13.394 203.127 12.788 202.599 12.332C202.071 11.876 201.417 11.648 200.637 11.648C199.929 11.648 199.323 11.876 198.819 12.332C198.315 12.776 198.015 13.382 197.919 14.15H203.409Z" fill="#3D3D3D"/>
</svg>
