<?xml version="1.0" encoding="utf-8"?>
<!-- Generator: Adobe Illustrator 24.0.2, SVG Export Plug-In . SVG Version: 6.00 Build 0)  -->
<svg version="1.1" id="Camada_1" xmlns="http://www.w3.org/2000/svg" xmlns:xlink="http://www.w3.org/1999/xlink" x="0px" y="0px"
	 viewBox="0 0 75 75" style="enable-background:new 0 0 75 75;" xml:space="preserve">
<style type="text/css">
	.st0{fill:#FFFFFF;stroke:#000000;stroke-width:2;stroke-miterlimit:10;}
	.st1{fill:#AFD9ED;stroke:#000000;stroke-width:2;stroke-miterlimit:10;}
	.st2{fill:#FFFFFF;}
</style>
<path class="st0" d="M54.02,32.25h-9.28c-0.46,0-0.74-0.51-0.46-0.85l0.83-4.94c1.31-2.1,1.43-4.89-0.68-6.25
	c-1.99-1.25-3.12-0.8-4.54,1.14c0,0-5.52,7.39-7.45,10c-0.4,0.57-1.08,0.91-1.82,0.91H18.28c-0.23,0-0.46,0.17-0.46,0.45v23.18
	c0,0.23,0.17,0.45,0.46,0.45h31.81c1.99,0,3.7-1.36,4.21-3.3l3.87-15.4C58.85,34.92,56.8,32.25,54.02,32.25z"/>
<path class="st1" d="M27.44,32.25h-9.16c-0.23,0-0.46,0.17-0.46,0.45v23.18c0,0.23,0.17,0.45,0.46,0.45h9.16
	C27.44,56.34,27.44,32.25,27.44,32.25z"/>
<ellipse class="st2" cx="22.66" cy="49.4" rx="1.93" ry="1.93"/>
</svg>
