<?xml version="1.0" encoding="utf-8"?>
<!-- Generator: Adobe Illustrator 24.0.2, SVG Export Plug-In . SVG Version: 6.00 Build 0)  -->
<svg version="1.1" id="Camada_1" xmlns="http://www.w3.org/2000/svg" xmlns:xlink="http://www.w3.org/1999/xlink" x="0px" y="0px"
	 viewBox="0 0 75 75" style="enable-background:new 0 0 75 75;" xml:space="preserve">
<style type="text/css">
	.st0{fill:#AFD9ED;stroke:#333333;stroke-width:2;stroke-miterlimit:10;}
	.st1{fill:#2ECC71;stroke:#333333;stroke-width:2;stroke-miterlimit:10;}
	.st2{fill:#B0E8C8;}
	.st3{fill:#333333;}
	.st4{fill:#27AE60;stroke:#333333;stroke-width:2;stroke-miterlimit:10;}
	.st5{fill:#E2F3FC;stroke:#333333;stroke-width:2;stroke-miterlimit:10;}
</style>
<path class="st0" d="M16,41h43c0.55,0,1,0.45,1,1v16c0,0.55-0.45,1-1,1H16c-0.55,0-1-0.45-1-1V42C15,41.45,15.45,41,16,41z"/>
<g>
	<path class="st1" d="M27.5,17.5h15.41c3.08,0,5.59,2.5,5.59,5.59V56.5c0,0.55-0.45,1-1,1h-20c-0.55,0-1-0.45-1-1v-38
		C26.5,17.95,26.95,17.5,27.5,17.5z"/>
	<circle class="st2" cx="37.5" cy="37.83" r="8.68"/>
	<g>
		<path class="st3" d="M32.46,35.09l-0.45-1.52l1.71-0.61h1.49v9.06h-1.8v-7.26L32.46,35.09z"/>
		<path class="st3" d="M42.26,33.96c0.49,0.77,0.73,1.95,0.73,3.54c0,1.59-0.25,2.77-0.73,3.54c-0.49,0.77-1.29,1.16-2.4,1.16
			c-1.1,0-1.9-0.39-2.39-1.16s-0.73-1.95-0.73-3.54c0-1.59,0.24-2.77,0.73-3.54c0.49-0.77,1.28-1.16,2.39-1.16
			C40.97,32.8,41.77,33.19,42.26,33.96z M38.59,37.5c0,1.06,0.08,1.83,0.25,2.29c0.16,0.47,0.5,0.7,1.02,0.7
			c0.52,0,0.86-0.23,1.03-0.7c0.17-0.47,0.25-1.23,0.25-2.29s-0.08-1.83-0.25-2.29c-0.17-0.47-0.51-0.7-1.03-0.7
			c-0.27,0-0.49,0.06-0.66,0.19c-0.17,0.13-0.3,0.33-0.39,0.6c-0.09,0.28-0.14,0.58-0.17,0.91C38.6,36.54,38.59,36.97,38.59,37.5z"
			/>
	</g>
	<path class="st4" d="M48.5,24.69h-7.19V17.5h2.64c2.51,0,4.55,2.04,4.55,4.55V24.69z"/>
</g>
<path class="st5" d="M16,50h43c0.55,0,1,0.45,1,1v7c0,0.55-0.45,1-1,1H16c-0.55,0-1-0.45-1-1v-7C15,50.45,15.45,50,16,50z"/>
</svg>
