<?xml version="1.0" encoding="utf-8"?>
<!-- Generator: Adobe Illustrator 24.0.2, SVG Export Plug-In . SVG Version: 6.00 Build 0)  -->
<svg version="1.1" id="Camada_1" xmlns="http://www.w3.org/2000/svg" xmlns:xlink="http://www.w3.org/1999/xlink" x="0px" y="0px"
	 viewBox="0 0 75 75" style="enable-background:new 0 0 75 75;" xml:space="preserve">
<style type="text/css">
	.st0{fill:#FFFFFF;}
	.st1{clip-path:url(#SVGID_2_);fill:#B6C0FB;stroke:#333333;stroke-width:2;stroke-miterlimit:10;}
	.st2{fill:none;stroke:#333333;stroke-width:2;stroke-miterlimit:10;}
	.st3{fill:#FFFFFF;stroke:#333333;stroke-width:2;stroke-miterlimit:10;}
</style>
<g>
	<path id="XMLID_24_" class="st0" d="M18,18h41c0.55,0,1,0.45,1,1v30c0,0.55-0.45,1-1,1H18c-0.55,0-1-0.45-1-1V19
		C17,18.45,17.45,18,18,18z"/>
</g>
<g>
	<defs>
		<path id="SVGID_1_" d="M18,18h41c0.55,0,1,0.45,1,1v30c0,0.55-0.45,1-1,1H18c-0.55,0-1-0.45-1-1V19C17,18.45,17.45,18,18,18z"/>
	</defs>
	<clipPath id="SVGID_2_">
		<use xlink:href="#SVGID_1_"  style="overflow:visible;"/>
	</clipPath>
	<path class="st1" d="M17,49.4c0-3.8,0-7.6,0-11.4c1.4,0.7,4.15,2.1,6.38,3.24c2.13,1.09,4.67,1,6.72-0.25L35,38.01
		c2.04-1.24,4.59-1.31,6.7-0.18l3.49,1.87c2.6,1.39,5.79,0.96,7.93-1.08c1.79-1.7,4.13-3.96,6.78-6.61c0,5.9,0,11.7,0,17.6"/>
</g>
<g>
	<path id="XMLID_1_" class="st2" d="M18,18h41c0.55,0,1,0.45,1,1v30c0,0.55-0.45,1-1,1H18c-0.55,0-1-0.45-1-1V19
		C17,18.45,17.45,18,18,18z"/>
</g>
<path class="st3" d="M23.9,60c1.2-3.4,2.3-6.7,3.5-10.1"/>
<path class="st3" d="M48.5,49.9c1.2,3.4,2.3,6.7,3.5,10.1"/>
</svg>
