<?xml version="1.0" encoding="utf-8"?>
<!-- Generator: Adobe Illustrator 24.0.2, SVG Export Plug-In . SVG Version: 6.00 Build 0)  -->
<svg version="1.1" id="Camada_1" xmlns="http://www.w3.org/2000/svg" xmlns:xlink="http://www.w3.org/1999/xlink" x="0px" y="0px"
	 viewBox="0 0 75 75" style="enable-background:new 0 0 75 75;" xml:space="preserve">
<style type="text/css">
	.st0{fill:#FFEB9D;stroke:#000000;stroke-width:2;stroke-miterlimit:10;}
	.st1{fill:none;stroke:#000000;stroke-width:2;stroke-miterlimit:10;}
	.st2{fill:none;stroke:#FFFFFF;stroke-width:2;stroke-linecap:round;stroke-linejoin:round;stroke-miterlimit:10;}
</style>
<path class="st0" d="M47.84,48.64H27.88c-3.76,0-6.83-3.06-6.83-6.83V26.93c0-3.76,3.06-6.83,6.83-6.83h19.87
	c3.76,0,6.83,3.06,6.83,6.83v14.88C54.59,45.57,51.61,48.64,47.84,48.64z"/>
<path class="st0" d="M52.57,31.57c-3.59,0-6.48,2.71-6.48,6.04v1.84H29.64v-1.93c0-3.33-2.89-6.04-6.48-6.04s-6.48,2.71-6.48,6.04
	v1.84v7.44v6.65h42.28V46.8v-7.44v-1.84C58.96,34.19,56.07,31.57,52.57,31.57z"/>
<line class="st1" x1="16.68" y1="60.89" x2="16.68" y2="54.15"/>
<line class="st1" x1="58.96" y1="60.72" x2="58.96" y2="54.33"/>
<line class="st2" x1="29.02" y1="44.26" x2="46.88" y2="44.26"/>
</svg>
