<?xml version="1.0" encoding="utf-8"?>
<!-- Generator: Adobe Illustrator 24.0.2, SVG Export Plug-In . SVG Version: 6.00 Build 0)  -->
<svg version="1.1" id="Camada_1" xmlns="http://www.w3.org/2000/svg" xmlns:xlink="http://www.w3.org/1999/xlink" x="0px" y="0px"
	 viewBox="0 0 75 75" style="enable-background:new 0 0 75 75;" xml:space="preserve">
<style type="text/css">
	.st0{fill:#FFFFFF;stroke:#000000;stroke-width:2;stroke-miterlimit:10;}
	.st1{fill:#B0E8C8;stroke:#000000;stroke-width:2;stroke-miterlimit:10;}
	.st2{fill:none;stroke:#000000;stroke-width:2;stroke-linecap:round;stroke-miterlimit:10;}
</style>
<path class="st0" d="M58.02,56.67H16.93c-0.34,0-0.57-0.23-0.57-0.57V18.91c0-0.34,0.23-0.57,0.57-0.57h41.15
	c0.34,0,0.57,0.23,0.57,0.57v37.19C58.59,56.44,58.36,56.67,58.02,56.67z"/>
<path class="st1" d="M28.12,30.67h-4.3c-1.38,0-2.47-1.09-2.47-2.47v-1.03c0-1.38,1.09-2.47,2.47-2.47h4.3
	c1.38,0,2.47,1.09,2.47,2.47v1.03C30.58,29.52,29.49,30.67,28.12,30.67z"/>
<g>
	<line class="st2" x1="21.4" y1="40.5" x2="38.62" y2="40.5"/>
	<line class="st2" x1="44.01" y1="40.5" x2="51.88" y2="40.5"/>
</g>
<path class="st2" d="M21.4,43.58"/>
<path class="st2" d="M21.4,43.58"/>
<g>
	<line class="st2" x1="21.4" y1="47.26" x2="27.2" y2="47.26"/>
	<line class="st2" x1="32.99" y1="47.26" x2="51.99" y2="47.26"/>
</g>
</svg>
