<svg width="24" height="24" viewBox="0 0 24 24" fill="none" xmlns="http://www.w3.org/2000/svg">
<path fill-rule="evenodd" clip-rule="evenodd" d="M12 24C18.6274 24 24 18.6274 24 12C24 5.37258 18.6274 0 12 0C5.37258 0 0 5.37258 0 12C0 18.6274 5.37258 24 12 24ZM10.1614 12.2458C10.1614 11.0989 11.0973 10.163 12.2442 10.163C13.3911 10.163 14.327 11.0989 14.327 12.2458C14.327 13.3927 13.3911 14.3286 12.2442 14.3286C11.0973 14.3286 10.1614 13.3927 10.1614 12.2458ZM18.4913 11.9303C18.4912 12.0353 18.4911 12.1405 18.4911 12.2458C18.4911 12.3635 18.4913 12.4811 18.4914 12.5986C18.4925 13.3417 18.4936 14.0805 18.4505 14.8239C18.402 15.8239 18.1755 16.7098 17.4427 17.4427C16.7114 18.1739 15.8239 18.402 14.8239 18.4505C14.068 18.493 13.317 18.4922 12.5613 18.4913C12.4562 18.4912 12.3511 18.4911 12.2458 18.4911C12.1407 18.4911 12.0357 18.4912 11.9308 18.4913C11.1761 18.4922 10.4249 18.493 9.66765 18.4505C8.66765 18.402 7.78171 18.1755 7.0489 17.4427C6.31765 16.7114 6.08953 15.8239 6.04109 14.8239C5.99856 14.068 5.9994 13.3157 6.00023 12.5607C6.00035 12.4558 6.00046 12.3508 6.00046 12.2458C6.00046 12.1407 6.00035 12.0357 6.00023 11.9308C5.9994 11.1761 5.99856 10.4249 6.04109 9.66765C6.08953 8.66765 6.31609 7.78171 7.0489 7.0489C7.78015 6.31765 8.66765 6.08953 9.66765 6.04109C10.4235 5.99856 11.1745 5.9994 11.9303 6.00023C12.0353 6.00035 12.1405 6.00046 12.2458 6.00046C12.3508 6.00046 12.4558 6.00035 12.5607 6.00023C13.3154 5.9994 14.0667 5.99856 14.8239 6.04109C15.8239 6.08953 16.7098 6.31609 17.4427 7.0489C18.1739 7.78015 18.402 8.66765 18.4505 9.66765C18.493 10.4235 18.4922 11.1745 18.4913 11.9303ZM9.03953 12.2458C9.03953 14.0192 10.4708 15.4505 12.2442 15.4505C14.0177 15.4505 15.4489 14.0192 15.4489 12.2458C15.4489 10.4723 14.0177 9.04109 12.2442 9.04109C10.4708 9.04109 9.03953 10.4723 9.03953 12.2458ZM14.8317 8.90984C14.8317 9.3239 15.1661 9.65828 15.5802 9.65828C15.6785 9.6584 15.7759 9.63913 15.8667 9.60156C15.9576 9.56399 16.0401 9.50886 16.1097 9.43934C16.1792 9.36982 16.2343 9.28726 16.2719 9.1964C16.3094 9.10554 16.3287 9.00816 16.3286 8.90984C16.3286 8.49578 15.9942 8.1614 15.5802 8.1614C15.1661 8.1614 14.8317 8.49578 14.8317 8.90984Z" fill="#666666"/>
</svg>
