<svg width="24" height="24" viewBox="0 0 24 24" fill="none" xmlns="http://www.w3.org/2000/svg">
<g clip-path="url(#clip0)">
<path d="M12.0209 0C5.38184 0 0 5.38184 0 12.0209C0 18.6599 5.38184 24.0417 12.0209 24.0417C18.6599 24.0417 24.0417 18.6599 24.0417 12.0209C24.0417 5.38184 18.6599 0 12.0209 0ZM9.07826 17.0033H6.64403V9.16967H9.07826V17.0033ZM7.84612 8.208C7.07729 8.208 6.58017 7.6633 6.58017 6.98963C6.58017 6.30219 7.09231 5.77377 7.87743 5.77377C8.66254 5.77377 9.14337 6.30219 9.1584 6.98963C9.1584 7.6633 8.66254 8.208 7.84612 8.208ZM17.9687 17.0033H15.5345V12.662C15.5345 11.6515 15.1814 10.9653 14.3011 10.9653C13.6287 10.9653 13.2292 11.4298 13.0527 11.8769C12.9875 12.0359 12.9713 12.2613 12.9713 12.4854V17.002H10.5358V11.6678C10.5358 10.6898 10.5045 9.87214 10.4719 9.16842H12.5869L12.6983 10.2566H12.7471C13.0677 9.74567 13.8528 8.99186 15.1663 8.99186C16.7679 8.99186 17.9687 10.065 17.9687 12.3715V17.0033V17.0033Z" fill="#666666"/>
</g>
<defs>
<clipPath id="clip0">
<rect width="24" height="24" fill="white"/>
</clipPath>
</defs>
</svg>
