<svg width="138" height="136" viewBox="0 0 138 136" fill="none" xmlns="http://www.w3.org/2000/svg">
<rect width="138" height="136" rx="20" fill="#F2F2F2"/>
<path d="M57.7859 87.0635C39.6731 71.8257 29.3948 50.4066 30.1135 48.969C34.7854 41.7814 40.5746 36.5538 42.731 34.7568C44.8872 32.9599 47.7623 31.163 49.9186 32.6005C54.9499 36.1943 59.9421 40.7033 64.6141 45.3752C68.7854 49.5465 66.8902 52.2034 66.411 52.9222L57.7858 62.2661C58.3848 62.8651 60.0013 64.8018 63.2157 68.0162C65.7313 70.5319 77.0726 81.4331 82.9425 85.2665C84.38 83.829 88.3332 79.5164 90.8489 77.0007C94.8739 72.9757 95.559 73.259 98.7552 75.9226C100.912 77.7195 105.583 81.3133 109.896 85.2665C117.054 91.8277 114.716 94.9697 113.13 96.7667C110.014 100.299 103.167 107.651 100.654 110.291C100.145 110.826 99.3993 111.049 98.6882 110.849C91.8626 108.923 74.8455 101.415 57.7859 87.0635Z" fill="#9BA0AB"/>
<path fill-rule="evenodd" clip-rule="evenodd" d="M45.9306 31.4622C47.3559 30.9023 49.0259 30.7096 50.5166 31.7034L50.5311 31.713L50.5453 31.7231C55.6434 35.3647 60.6824 39.9188 65.3765 44.6128C67.6026 46.8389 68.3504 48.809 68.3346 50.4538C68.3195 52.0126 67.6113 53.0682 67.3377 53.476C67.3271 53.4917 67.3173 53.5064 67.3081 53.5202L67.2609 53.591L59.2548 62.2643C59.3188 62.3351 59.386 62.4093 59.4561 62.4869C59.7052 62.7625 59.992 63.0798 60.3147 63.4318C61.1872 64.3836 62.384 65.6597 63.978 67.2538C65.2232 68.4989 68.6746 71.8409 72.5452 75.3482C76.1133 78.5814 79.982 81.9036 82.8006 83.8691C83.4069 83.2393 84.2087 82.3883 85.0965 81.446C85.2961 81.2342 85.5 81.0178 85.707 80.7982C87.1876 79.2279 88.8156 77.5092 90.0865 76.2383C91.0976 75.2272 91.9444 74.4397 92.6961 73.8896C93.447 73.34 94.1977 72.9553 95.0136 72.8798C95.8544 72.802 96.594 73.0671 97.283 73.4713C97.949 73.862 98.6582 74.4382 99.4455 75.0943C99.9908 75.5487 100.712 76.1295 101.556 76.8096C103.976 78.7592 107.41 81.5252 110.625 84.4717C114.275 87.8177 115.73 90.4877 115.868 92.7372C116.009 95.0317 114.753 96.5568 113.939 97.4799C110.809 101.027 103.952 108.39 101.435 111.034C100.665 111.843 99.5119 112.201 98.3955 111.886C91.4112 109.916 74.2592 102.331 57.0918 87.8884C47.9293 80.1803 40.7633 70.9237 35.9788 63.4208C33.5855 59.6677 31.7786 56.3383 30.6104 53.8418C30.0278 52.5965 29.5952 51.5396 29.3291 50.7304C29.1971 50.3289 29.0965 49.9601 29.0436 49.6448C29.0172 49.4877 28.998 49.3172 29.0002 49.1475C29.0021 48.997 29.0208 48.7435 29.1491 48.4869L29.1763 48.4324L29.2095 48.3814C33.9629 41.0686 39.8409 35.7618 42.0408 33.9285C43.1473 33.0064 44.5109 32.0199 45.9306 31.4622ZM46.719 33.4692C45.623 33.8997 44.4709 34.7102 43.4212 35.585C41.3325 37.3256 35.7376 42.3772 31.175 49.3156C31.2048 49.4798 31.2682 49.7246 31.3775 50.0568C31.6066 50.7536 32.0006 51.725 32.5635 52.928C33.6865 55.328 35.4464 58.5754 37.7969 62.2614C42.5001 69.637 49.5297 78.7088 58.4799 86.2384C75.4318 100.499 92.3141 107.93 98.9809 109.811C99.2868 109.897 99.6244 109.809 99.8732 109.548C102.383 106.912 109.218 99.5707 112.322 96.0533C113.093 95.1795 113.8 94.2351 113.716 92.869C113.629 91.4581 112.675 89.2764 109.168 86.0612C106.01 83.167 102.68 80.4843 100.263 78.5373C99.3961 77.8391 98.6468 77.2356 98.0651 76.7508C97.2542 76.0751 96.6792 75.617 96.192 75.3312C95.7279 75.059 95.4453 75.0054 95.2122 75.0269C94.9541 75.0508 94.5791 75.1835 93.9696 75.6296C93.3609 76.0751 92.6127 76.7616 91.6113 77.763C90.3665 79.0078 88.7601 80.7033 87.2758 82.2775C87.0709 82.4949 86.868 82.7102 86.6686 82.9218C85.4354 84.2308 84.3363 85.3974 83.7049 86.0288L83.0859 86.6478L82.353 86.1691C79.3374 84.1998 74.9765 80.4611 71.0973 76.9461C67.2009 73.4155 63.7239 70.0491 62.4533 68.7785C60.833 67.1582 59.6143 65.8588 58.7252 64.8889C58.3465 64.4757 58.0375 64.1336 57.7857 63.8548C57.4288 63.4597 57.1867 63.1916 57.0235 63.0284L56.291 62.2959L65.5612 52.2533C65.7987 51.8961 66.17 51.3047 66.1784 50.433C66.1871 49.5268 65.7969 48.0827 63.8517 46.1375C59.2067 41.4926 54.2668 37.0332 49.3075 33.4889C48.644 33.0537 47.8023 33.0436 46.719 33.4692Z" fill="#333333"/>
<path fill-rule="evenodd" clip-rule="evenodd" d="M47.1025 38.2114C47.6847 38.0866 48.2578 38.4575 48.3826 39.0397C48.692 40.4837 50.0043 43.3224 52.702 45.6346C54.626 47.2839 56.826 48.0079 58.7562 48.6431C59.1525 48.7735 59.5373 48.9002 59.9061 49.0304C60.4676 49.2285 60.7622 49.8444 60.564 50.4059C60.3658 50.9674 59.75 51.2619 59.1885 51.0637C58.8854 50.9567 58.5478 50.8467 58.1836 50.728C56.2557 50.0995 53.58 49.2272 51.2987 47.2718C48.2462 44.6554 46.6835 41.4018 46.2742 39.4915C46.1494 38.9093 46.5202 38.3362 47.1025 38.2114Z" fill="#333333"/>
<path fill-rule="evenodd" clip-rule="evenodd" d="M95.2597 81.3371C95.8419 81.2124 96.415 81.5832 96.5398 82.1655C96.8492 83.6094 98.1616 86.4481 100.859 88.7604C102.783 90.4096 104.983 91.1336 106.913 91.7689C107.31 91.8993 107.695 92.0259 108.063 92.1561C108.625 92.3543 108.919 92.9701 108.721 93.5316C108.523 94.0931 107.907 94.3876 107.346 94.1895C107.043 94.0825 106.705 93.9724 106.341 93.8537C104.413 93.2252 101.737 92.353 99.4559 90.3976C96.4034 87.7812 94.8407 84.5275 94.4314 82.6173C94.3066 82.035 94.6775 81.4619 95.2597 81.3371Z" fill="#333333"/>
</svg>
