<svg xmlns="http://www.w3.org/2000/svg" viewBox="0 0 42 43" width="24" height="25"><style>tspan { white-space:pre }.shp0 { fill: #666666 } .shp1 { fill: #ffffff } </style><g ><path class="shp0" d="M32.18 9.83C29.2 6.85 25.23 5.21 21.02 5.21C12.32 5.21 5.23 12.28 5.23 20.98C5.23 23.96 6.07 26.86 7.64 29.38L8.02 29.97L6.43 35.79L12.4 34.23L12.98 34.57C15.4 36.01 18.18 36.77 21.01 36.77L21.02 36.77C29.71 36.77 36.79 29.69 36.79 20.99C36.8 16.78 35.16 12.81 32.18 9.83Z" /><path fill-rule="evenodd" class="shp1" d="M16.27 13.05C15.91 12.25 15.54 12.24 15.2 12.23C14.92 12.21 14.61 12.21 14.29 12.21C13.98 12.21 13.46 12.33 13.03 12.81C12.59 13.28 11.36 14.43 11.36 16.77C11.36 19.1 13.07 21.36 13.3 21.67C13.54 21.98 16.59 26.93 21.41 28.83C25.41 30.41 26.23 30.1 27.1 30.02C27.97 29.94 29.91 28.87 30.3 27.76C30.7 26.66 30.7 25.71 30.58 25.51C30.46 25.31 30.14 25.19 29.67 24.95C29.2 24.71 26.86 23.57 26.43 23.41C25.99 23.25 25.68 23.18 25.36 23.65C25.04 24.12 24.13 25.19 23.86 25.51C23.58 25.82 23.3 25.86 22.83 25.63C22.36 25.39 20.83 24.89 19.02 23.27C17.61 22.02 16.65 20.46 16.38 19.99C16.1 19.52 16.34 19.26 16.58 19.02C16.8 18.81 17.06 18.46 17.3 18.19C17.53 17.91 17.61 17.71 17.77 17.4C17.93 17.08 17.85 16.8 17.73 16.57C17.61 16.33 16.69 13.98 16.27 13.05Z" /></g></svg>