<svg width="1920" height="550" fill="none" xmlns="http://www.w3.org/2000/svg"><path fill-rule="evenodd" clip-rule="evenodd" d="M0 550h1920V0H0v550z" fill="url(#paint0_linear)"/><path fill-rule="evenodd" clip-rule="evenodd" d="M1791.23 0C1688.62 100.646 1625 240.579 1625 395.301c0 53.689 7.66 105.596 21.95 154.699h247.91c-25.03-46.011-39.24-98.703-39.24-154.699 0-72.665 23.94-139.767 64.38-193.925V0h-128.77z" fill="url(#paint1_linear)"/><path fill-rule="evenodd" clip-rule="evenodd" d="M506 550c-82.723-109.217-215.36-180-364.878-180C91.854 370 44.42 377.685 0 391.899V550h506z" fill="url(#paint2_linear)"/><defs><linearGradient id="paint0_linear" x1="446.5" y1="760" x2="2101.38" y2="-1131.03" gradientUnits="userSpaceOnUse"><stop stop-color="#F1F4FF"/><stop offset=".295" stop-color="#F8FAFF"/><stop offset="1" stop-color="#fff"/></linearGradient><linearGradient id="paint1_linear" x1="2113" y1="-419" x2="1698.5" y2="498.5" gradientUnits="userSpaceOnUse"><stop stop-color="#FAFCFF"/><stop offset=".911" stop-color="#F3F6FF"/></linearGradient><linearGradient id="paint2_linear" x1="272.5" y1="424.5" x2="55.5" y2="907.5" gradientUnits="userSpaceOnUse"><stop stop-color="#FAFCFF"/><stop offset="1" stop-color="#F3F6FF"/></linearGradient></defs></svg>