<svg enable-background="new 0 0 1920 550" viewBox="0 0 1920 550" xmlns="http://www.w3.org/2000/svg" xmlns:xlink="http://www.w3.org/1999/xlink"><clipPath id="a"><path d="m0 0h1920v550h-1920z"/></clipPath><linearGradient id="b" gradientTransform="matrix(-1 0 0 1 943.7429 -886)" gradientUnits="userSpaceOnUse" x1="-1496.3627" x2="141.6824" y1="-605.1259" y2="2369.7244"><stop offset=".3233" stop-color="#ffc388"/><stop offset=".3912" stop-color="#e5a2af"/><stop offset=".4858" stop-color="#c479e1"/><stop offset=".5326" stop-color="#b769f4"/><stop offset=".537" stop-color="#b467f1"/><stop offset=".6236" stop-color="#7d4cc4"/><stop offset=".6982" stop-color="#5538a3"/><stop offset=".7572" stop-color="#3c2c8e"/><stop offset=".7931" stop-color="#332787"/></linearGradient><g clip-path="url(#a)"><path d="m59.1-754.6h3543.9v1329h-3543.9z" fill="none"/><path d="m-50.5-477.4v1077.7h3271.4v-360l-684.9-150.3-.6-.2-322-70.6-2.1-.4-134.6-29.5-4.5-1.1-456.9-100-6.9-1.5-221.2-48.7-2.9-.6-222.5-48.7-1.8-.4-1059.9-232.6-1-.3z" fill="url(#b)"/><g fill="#fff"><path d="m-46.6-219.7 2437.5 284.8-5.1-1-2432.4-284z" opacity=".3"/><path d="m-50.5-39.6 2598.3 130.9-2.4-.4-2595.9-130.9z" opacity=".3"/><path d="m2703.2 117.3-2753.7 159.8v-.1l2752.5-159.9z" opacity=".3"/><path d="m891.8 600.2.2.1h.3l2025.8-447-.7-.2z" opacity=".3"/><path d="m1417.2-13.8 1850.8 373v-.2-.2l-1842.8-371.3z" opacity=".33"/><path d="m1140.3-39.1 2107.9 529.9v-.2l-2104.6-529.2z" opacity=".3"/><path d="m-455.6-176.7 2103.7 915.3 4.6 1.9v-.2l-3.9-1.7-2103.3-915.1z" opacity=".3"/><path d="m2514.5 639.2.2-.1-2193.5-783.6-1.5-.2z" opacity=".3"/><path d="m862.8-72.1 2350.8 708 .2-.3-2349-707.4z" opacity=".3"/><path d="m2581.8 596.8 510.9-414.2-.2-.1-510.9 414.2z"/><path d="m3072.1 407.3h387.4v.2h-387.4z" transform="matrix(.09049873 -.9959 .9959 .09049873 2564.4895 3622.9304)"/><path d="m57.6-98.8 17.6-102.8-.4-.2-17.5 102.9z" opacity=".15"/></g></g></svg>