<svg id="Layer_1" xmlns="http://www.w3.org/2000/svg" xmlns:xlink="http://www.w3.org/1999/xlink" viewBox="0 0 1920 550"><style>.st3{opacity:.3;enable-background:new}.st3,.st5{fill:#fff}</style><defs><path id="SVGID_1_" d="M0 0h1920v550H0z"/></defs><clipPath id="SVGID_2_"><use xlink:href="#SVGID_1_" overflow="visible"/></clipPath><g clip-path="url(#SVGID_2_)"><path fill="none" d="M59.1-754.6H3603v1329H59.1z"/><linearGradient id="SVGID_3_" gradientUnits="userSpaceOnUse" x1="-1496.363" y1="-605.126" x2="141.682" y2="2369.724" gradientTransform="matrix(-1 0 0 1 943.743 -886)"><stop offset=".323" stop-color="#ffc388"/><stop offset=".391" stop-color="#e5a2af"/><stop offset=".486" stop-color="#c479e1"/><stop offset=".533" stop-color="#b769f4"/><stop offset=".537" stop-color="#b467f1"/><stop offset=".624" stop-color="#7d4cc4"/><stop offset=".698" stop-color="#5538a3"/><stop offset=".757" stop-color="#3c2c8e"/><stop offset=".793" stop-color="#332787"/></linearGradient><path fill="url(#SVGID_3_)" d="M-50.5-477.4V600.3h3271.4v-360L2536 90l-.6-.2-322-70.6-2.1-.4-134.6-29.5-4.5-1.1-456.9-100-6.9-1.5-221.2-48.7-2.9-.6-222.5-48.7-1.8-.4L100.1-444.3l-1-.3z"/><path class="st3" d="M-46.6-219.7L2390.9 65.1l-5.1-1-2432.4-284zM-50.5-39.6L2547.8 91.3l-2.4-.4L-50.5-40zM2703.2 117.3L-50.5 277.1v-.1L2702 117.1zM891.8 600.2l.2.1h.3l2025.8-447-.7-.2z"/><path opacity=".33" fill="#fff" d="M1417.2-13.8l1850.8 373v-.4L1425.2-12.5z"/><path class="st3" d="M1140.3-39.1l2107.9 529.9v-.2L1143.6-38.6zM-455.6-176.7l2103.7 915.3 4.6 1.9v-.2l-3.9-1.7-2103.3-915.1zM2514.5 639.2l.2-.1L321.2-144.5l-1.5-.2zM862.8-72.1l2350.8 708 .2-.3-2349-707.4z"/><path class="st5" d="M2581.8 596.8l510.9-414.2-.2-.1-510.9 414.2z"/><path transform="rotate(-84.808 3265.773 407.417)" class="st5" d="M3072.1 407.3h387.4v.2h-387.4z"/><path opacity=".15" fill="#fff" d="M57.6-98.8l17.6-102.8-.4-.2L57.3-98.9z"/></g></svg>