<svg width="125" height="25" viewBox="0 0 125 25" fill="none" xmlns="http://www.w3.org/2000/svg">
<path d="M24.9987 12.1589C25.0072 12.8086 24.9735 13.4583 24.8893 14.108C24.7966 14.7578 24.6619 15.3989 24.4681 16.023C24.426 16.1769 24.3671 16.3307 24.3165 16.4932L24.2323 16.724L24.1397 16.9548C24.0807 17.1087 24.0218 17.2626 23.9544 17.4079L23.7523 17.8524C23.4659 18.4423 23.1374 19.0065 22.7753 19.5366C22.4047 20.0752 22.0004 20.571 21.5625 21.0412C21.1161 21.5114 20.6445 21.9474 20.1475 22.3406C19.6422 22.7339 19.1116 23.0929 18.5557 23.4007C17.9999 23.717 17.4272 23.982 16.8292 24.2043C16.2396 24.4265 15.6248 24.5975 15.01 24.7343C14.3952 24.8625 13.7719 24.948 13.1487 24.9822C12.5254 25.0164 11.9022 24.9993 11.2874 24.948C10.6725 24.8882 10.0577 24.7856 9.45973 24.6317C8.86175 24.4778 8.27219 24.2898 7.7079 24.0504C7.14362 23.811 6.59617 23.5374 6.07399 23.2211C5.55181 22.9048 5.0549 22.5543 4.58326 22.1611C4.12003 21.7678 3.67366 21.3575 3.26939 20.9129C2.86512 20.4599 2.49454 19.9897 2.15765 19.4853C1.82076 18.9894 1.52599 18.4594 1.25648 17.9208C0.995386 17.3823 0.776408 16.818 0.591119 16.2538C0.40583 15.681 0.271075 15.0997 0.170008 14.5098C0.0689409 13.92 0.0184076 13.3301 0.00156309 12.7317C-0.00685914 12.1418 0.0184076 11.5519 0.0857854 10.9621C0.161585 10.3722 0.262652 9.79086 0.414252 9.21808C0.565853 8.64531 0.751142 8.08963 0.986964 7.5425C1.90499 5.37109 3.42941 3.49889 5.34968 2.17381C5.82975 1.8404 6.33508 1.54974 6.84884 1.28473C7.37102 1.02826 7.91004 0.80599 8.46591 0.617914L8.88702 0.489681C9.0302 0.446937 9.17337 0.412741 9.30813 0.378546L9.51868 0.327253L9.72924 0.284508C9.87242 0.258862 10.0156 0.224666 10.1588 0.199019C10.7315 0.0964329 11.321 0.0365908 11.9022 0.00239528H11.9443C13.334 -0.0574468 14.5046 1.01116 14.5804 2.40463C14.6562 3.7981 13.6035 4.98639 12.2306 5.06333C12.1296 5.07188 12.0201 5.06333 11.919 5.06333C10.5378 4.96074 9.13126 5.34544 7.95215 6.12339C6.77304 6.90134 5.83817 8.06398 5.33284 9.38906C5.19808 9.71392 5.10543 10.0644 5.02963 10.4064C4.95384 10.7483 4.91172 11.0988 4.88646 11.4493C4.86961 11.7998 4.86961 12.1589 4.89488 12.5094C4.92857 12.8599 4.9791 13.2104 5.06332 13.5438C5.39179 14.8945 6.14137 16.117 7.15204 16.9976C7.4047 17.2113 7.67422 17.4165 7.95215 17.596C8.23008 17.7755 8.52486 17.9208 8.81964 18.0576C9.11442 18.1859 9.42604 18.2884 9.72924 18.3739C10.0409 18.4594 10.3525 18.5107 10.6641 18.5449C10.9757 18.5791 11.2958 18.5877 11.6074 18.5791C11.919 18.562 12.2306 18.5278 12.5338 18.468C12.837 18.4081 13.1318 18.3397 13.4182 18.2371C13.7045 18.1346 13.9825 18.0234 14.252 17.8781C15.3216 17.331 16.2144 16.4761 16.8123 15.4673C16.9639 15.2194 17.0903 14.9544 17.2082 14.6894C17.3261 14.4243 17.4187 14.1508 17.503 13.8772L17.5619 13.672C17.5788 13.6037 17.5956 13.5267 17.6124 13.4583C17.6209 13.4241 17.6293 13.3899 17.6377 13.3557L17.6546 13.2446C17.663 13.1762 17.6882 13.0993 17.6967 13.0309C17.7388 12.7402 17.764 12.4496 17.7893 12.1589L17.8062 11.9452C17.9578 9.92764 19.6843 8.42304 21.672 8.56837C23.5333 8.70515 24.9651 10.2867 24.9987 12.1589Z" fill="#468EF1"/>
<path d="M19.1684 7.60402C21.0104 7.60402 22.5036 6.08834 22.5036 4.21867C22.5036 2.34899 21.0104 0.833313 19.1684 0.833313C17.3264 0.833313 15.8332 2.34899 15.8332 4.21867C15.8332 6.08834 17.3264 7.60402 19.1684 7.60402Z" fill="#FF6BC1"/>
<path d="M32.3188 21.3361H35.7854V3.56522H32.3188V21.3361Z" fill="#468EF1"/>
<path d="M48.8177 21.3361H52.2843V13.0617C52.2843 9.16635 50.0062 7.02773 46.812 7.02773C45.054 7.02773 43.5683 7.79152 42.6769 8.98813V7.23141H39.2104V21.3361H42.6769V13.5454C42.6769 11.2795 43.8902 10.0574 45.7721 10.0574C47.6044 10.0574 48.8177 11.2795 48.8177 13.5454V21.3361Z" fill="#468EF1"/>
<path d="M66.2281 17.3134C66.129 12.1451 58.5273 13.7491 58.5273 11.1777C58.5273 10.363 59.1959 9.8283 60.4835 9.8283C61.8453 9.8283 62.6872 10.5666 62.7863 11.6614H66.1043C65.9062 8.86083 63.9005 7.00227 60.5825 7.00227C57.1902 7.00227 55.1598 8.88629 55.1598 11.2286C55.1598 16.3969 62.9101 14.7929 62.9101 17.3134C62.9101 18.1282 62.1672 18.7646 60.8054 18.7646C59.4187 18.7646 58.4531 17.9499 58.3293 16.8806H54.8379C54.9865 19.503 57.3883 21.5652 60.8301 21.5652C64.1729 21.5652 66.2281 19.7321 66.2281 17.3134Z" fill="#468EF1"/>
<path d="M69.6184 16.957C69.6184 20.1904 71.3764 21.3361 74.0011 21.3361H76.1801V18.3318H74.5706C73.4811 18.3318 73.1097 17.9245 73.1097 16.9825V10.1593H76.1801V7.23141H73.1097V3.74343H69.6184V7.23141H67.9842V10.1593H69.6184V16.957Z" fill="#468EF1"/>
<path d="M77.782 14.2328C77.782 18.6374 80.5553 21.5652 84.0218 21.5652C86.2008 21.5652 87.7608 20.4959 88.5779 19.2738V21.3361H92.0692V7.23141H88.5779V9.24273C87.7608 8.07158 86.2503 7.00227 84.0466 7.00227C80.5553 7.00227 77.782 9.8283 77.782 14.2328ZM88.5779 14.2837C88.5779 16.957 86.8446 18.4337 84.938 18.4337C83.0809 18.4337 81.3229 16.9061 81.3229 14.2328C81.3229 11.5596 83.0809 10.1338 84.938 10.1338C86.8446 10.1338 88.5779 11.6105 88.5779 14.2837Z" fill="#468EF1"/>
<path d="M108.702 14.2837C108.702 9.8283 105.607 7.00227 101.645 7.00227C97.6834 7.00227 94.5883 9.8283 94.5883 14.2837C94.5883 18.7137 97.5844 21.5652 101.546 21.5652C105.533 21.5652 108.702 18.7137 108.702 14.2837ZM98.1043 14.2837C98.1043 11.4577 99.7633 10.1084 101.596 10.1084C103.428 10.1084 105.137 11.4577 105.137 14.2837C105.137 17.0843 103.378 18.4591 101.546 18.4591C99.6891 18.4591 98.1043 17.0843 98.1043 14.2837Z" fill="#468EF1"/>
<path d="M120.852 21.3361H124.319V13.0617C124.319 9.16635 122.041 7.02773 118.847 7.02773C117.089 7.02773 115.603 7.79152 114.712 8.98813V7.23141H111.245V21.3361H114.712V13.5454C114.712 11.2795 115.925 10.0574 117.807 10.0574C119.639 10.0574 120.852 11.2795 120.852 13.5454V21.3361Z" fill="#468EF1"/>
</svg>
