<svg fill="none" height="600" viewBox="0 0 1920 600" width="1920" xmlns="http://www.w3.org/2000/svg" xmlns:xlink="http://www.w3.org/1999/xlink"><linearGradient id="a" gradientUnits="userSpaceOnUse" x1="149.5" x2="713.463" y1="667.636" y2="-772.032"><stop offset="0" stop-color="#4816af"/><stop offset=".29452" stop-color="#6233df"/><stop offset="1" stop-color="#849bff"/></linearGradient><linearGradient id="b"><stop offset="0" stop-color="#4816af"/><stop offset=".489583" stop-color="#6233df"/><stop offset=".958333" stop-color="#849bff"/><stop offset=".958433" stop-color="#849bff"/></linearGradient><linearGradient id="c" gradientUnits="userSpaceOnUse" x1="-441" x2="-164.56" xlink:href="#b" y1="1041.5" y2="-496.446"/><linearGradient id="d" gradientUnits="userSpaceOnUse" x1="736.5" x2="2488.5" xlink:href="#b" y1="1707.5" y2="-359"/><g clip-rule="evenodd" fill-rule="evenodd"><path d="m0 600h674 1246v-600h-1920z" fill="url(#a)"/><g fill-opacity=".7"><path d="m0 458.786c34.4354-4.248 70.1349-3.072 106.007 4.25 87.291 17.818 159.38 68.717 205.87 136.964h257.589c-63.136-180.025-216.598-323.265-417.079-364.187-51.37-10.485-102.5335-13.581-152.387-10.014z" fill="url(#c)"/><path d="m1400.31 0c24.82 269 246.76 480.736 519.69 488.764v-223.242c-149.91-7.542-272.25-119.953-295.46-265.522z" fill="url(#d)"/></g></g></svg>