<svg fill="none" height="520" viewBox="0 0 1366 520" width="1366" xmlns="http://www.w3.org/2000/svg" xmlns:xlink="http://www.w3.org/1999/xlink"><linearGradient id="a" gradientUnits="userSpaceOnUse" x1="-50.6915" x2="130.006" y1="614.343" y2="-592.828"><stop offset="0" stop-color="#d0d8f5"/><stop offset=".354923" stop-color="#f4f5ff"/><stop offset="1" stop-color="#fff"/></linearGradient><linearGradient id="b"><stop offset="0" stop-color="#e9edfb"/><stop offset=".376054" stop-color="#f6f8fd"/><stop offset="1" stop-color="#fff"/></linearGradient><linearGradient id="c" gradientUnits="userSpaceOnUse" x1="573.106" x2="546.871" xlink:href="#b" y1="535.413" y2="151.328"/><linearGradient id="d" gradientUnits="userSpaceOnUse" x1="41.0178" x2="-82.3301" xlink:href="#b" y1="209.812" y2="-76.6641"/><linearGradient id="e" gradientUnits="userSpaceOnUse" x1="1132.28" x2="931.511" xlink:href="#b" y1="473.007" y2="-235.687"/><clipPath id="f"><path d="m0 0h1366v520h-1366z"/></clipPath><g clip-path="url(#f)" clip-rule="evenodd" fill-rule="evenodd"><path d="m0 520h484.859 440.57 440.571v-520h-1366z" fill="url(#a)"/><path d="m1061.71 520c-79.175-133.503-224.741-223-391.21-223s-312.034 89.497-391.207 223h205.566 53.526c38.941-22.271 84.042-35 132.115-35 48.074 0 93.174 12.729 132.115 35h122.814z" fill="url(#c)"/><path d="m109.229 0h-109.229v196.248c61.5243-45.067 103.148-115.6963 109.229-196.248z" fill="url(#d)" opacity=".6"/><path d="m1251.76 0c23.52 61.8917 63.35 115.749 114.24 156.325v286.103c-188.29-75.063-330.84-240.338-374.257-442.428z" fill="url(#e)" opacity=".6"/></g></svg>