<svg fill="none" height="570" viewBox="0 0 1920 570" width="1920" xmlns="http://www.w3.org/2000/svg" xmlns:xlink="http://www.w3.org/1999/xlink"><linearGradient id="a"><stop offset="0" stop-color="#d0d8f5"/><stop offset=".354923" stop-color="#f4f5ff"/><stop offset="1" stop-color="#fff"/></linearGradient><linearGradient id="b" gradientUnits="userSpaceOnUse" x1="-71.2501" x2="84.5583" xlink:href="#a" y1="673.414" y2="-661.291"/><linearGradient id="c" gradientUnits="userSpaceOnUse" x1="535" x2="572.545" xlink:href="#a" y1="570" y2="173.324"/><linearGradient id="d" gradientUnits="userSpaceOnUse" x1="-378" x2="368.156" y1="248" y2="-575.157"><stop offset="0" stop-color="#d0d8f5"/><stop offset=".394688" stop-color="#f4f5ff"/><stop offset="1" stop-color="#fff"/></linearGradient><linearGradient id="e" gradientUnits="userSpaceOnUse" x1="757.5" x2="1375.37" y1="633" y2="-411.388"><stop offset="0" stop-color="#d0d8f5"/><stop offset=".592454" stop-color="#f4f5ff"/><stop offset="1" stop-color="#fff"/></linearGradient><clipPath id="f"><path d="m0 0h1920v570h-1920z"/></clipPath><g clip-path="url(#f)" clip-rule="evenodd" fill-rule="evenodd"><path d="m0 570h681.5 619.25 619.25v-570h-1920z" fill="url(#b)"/><path d="m1235.65 570c-78.43-64.366-178.78-103-288.15-103-109.374 0-209.725 38.634-288.149 103h22.149z" fill="url(#c)"/><path d="m243.356 0c-9.796 60.1199-61.967 106.008-124.856 106.008-54.2477 0-100.5206-34.144-118.5-82.1141v196.6091c35.7403 17.606 75.9651 27.497 118.5 27.497 141.391 0 257.257-109.289 267.729-248z" fill="url(#d)"/><path d="m1920 232.748c-16.03 2.145-32.38 3.252-49 3.252-156.35 0-289.81-98.041-342.24-236h-260.02c59.68 277.777 306.65 486 602.26 486 16.49 0 32.83-.648 49-1.92z" fill="url(#e)"/></g></svg>