<svg fill="none" height="710" viewBox="0 0 1919 710" width="1919" xmlns="http://www.w3.org/2000/svg" xmlns:xlink="http://www.w3.org/1999/xlink"><linearGradient id="a" gradientUnits="userSpaceOnUse" x1="1453.41" x2="2482.49" y1="1543.89" y2="-705.241"><stop offset="0" stop-color="#f1f4ff"/><stop offset=".29452" stop-color="#f8faff"/><stop offset="1" stop-color="#fff"/></linearGradient><linearGradient id="b" gradientUnits="userSpaceOnUse" x1="1437.5" x2="1437.5" y1="0" y2="662.624"><stop offset="0" stop-color="#fafcff"/><stop offset=".921875" stop-color="#eff3ff"/></linearGradient><linearGradient id="c" gradientUnits="userSpaceOnUse" x1="302.226" x2="302.226" y1="0" y2="432"><stop offset="0" stop-color="#fafcff"/><stop offset="1" stop-color="#f1f4ff"/></linearGradient><g clip-rule="evenodd" fill-rule="evenodd"><path d="m-1 710h674l1246-260v-449h-1920z" fill="url(#a)"/><path d="m1158.1 0c-106.58 83.177-175.1 212.836-175.1 358.5 0 100.136 32.38 192.708 87.25 267.816l219.71-45.847c-71.71-47.761-118.96-129.347-118.96-221.969 0-147.184 119.32-266.5 266.5-266.5s266.5 119.316 266.5 266.5c0 53.235-15.61 102.824-42.5 144.44l219.78-45.86c7.02-31.741 10.72-64.728 10.72-98.58 0-145.664-68.52-275.323-175.1-358.5z" fill="url(#b)"/><path d="m416.064 0c-11.424 136.654-125.958 244-265.564 244-55.8432 0-107.6748-17.176-150.5-46.533v209.023c47.1031 16.524 97.7522 25.51 150.5 25.51 243.469 0 442.225-191.439 453.953-432z" fill="url(#c)"/></g></svg>