<svg xmlns="http://www.w3.org/2000/svg" width="1920" height="932" fill="none"><path fill="#fafbff" d="M0 0h1920v932H0z"/><g fill-rule="evenodd"><path d="M0 254.678C103.845 221.312 178.998 123.933 178.998 9c0-3.012-.052-6.013-.154-9H360.9l.1 9c0 216.036-155.696 395.708-361 432.927v-187.25z" fill="url(#A)"/><path d="M1920 355.847C1881.56 344.875 1840.96 339 1799 339c-243 0-440 196.995-440 440 0 53.802 9.66 105.348 27.33 153h204.9c-31.57-42.807-50.24-95.724-50.24-153 0-142.488 115.5-257.998 258-257.998 43.73 0 84.9 10.878 121 30.076v-195.23z" fill="url(#B)"/></g><defs><linearGradient id="A" x1="180.5" y1="0" x2="180.5" y2="441.927" gradientUnits="userSpaceOnUse"><stop stop-color="#fafcff"/><stop offset="1" stop-color="#f3f6ff"/></linearGradient><linearGradient id="B" x1="1639.5" y1="339" x2="1639.5" y2="937" gradientUnits="userSpaceOnUse"><stop stop-color="#fafcff"/><stop offset="1" stop-color="#f3f6ff"/></linearGradient></defs></svg>