<svg fill="none" height="465" viewBox="0 0 1366 465" width="1366" xmlns="http://www.w3.org/2000/svg" xmlns:xlink="http://www.w3.org/1999/xlink"><linearGradient id="a"><stop offset="0" stop-color="#d2dbfb"/><stop offset=".384698" stop-color="#f8faff"/><stop offset="1" stop-color="#fff"/></linearGradient><linearGradient id="b" gradientUnits="userSpaceOnUse" x1="-230.513" x2="1494.01" xlink:href="#a" y1="1074.61" y2="-2184.43"/><linearGradient id="c" gradientUnits="userSpaceOnUse" x1="322.346" x2="2849.3" xlink:href="#a" y1="1149.09" y2="1530.36"/><linearGradient id="d" gradientUnits="userSpaceOnUse" x1="-28.2057" x2="975.085" xlink:href="#a" y1="574.495" y2="-160.909"/><g clip-rule="evenodd" fill-rule="evenodd"><path d="m0 465h479.523 886.477v-465h-1366z" fill="url(#b)"/><path d="m1110.45 465h224.84c-23.32-39.25-36.6-84.364-36.6-132.355 0-66.195 25.26-126.917 67.31-174.325v-159.32h-125.38c-92.97 84.9148-150.62 203.033-150.62 333.645 0 45.967 7.14 90.386 20.45 132.355z" fill="url(#c)"/><path d="m0 464.072h256.275 263.276c-82.813-103.597-215.594-170.739-365.276-170.739-54.159 0-106.1068 8.791-154.275 24.918z" fill="url(#d)"/></g></svg>