<svg fill="none" height="500" viewBox="0 0 1920 500" width="1920" xmlns="http://www.w3.org/2000/svg" xmlns:xlink="http://www.w3.org/1999/xlink"><linearGradient id="a"><stop offset="0" stop-color="#d2dbfb"/><stop offset=".384698" stop-color="#f8faff"/><stop offset="1" stop-color="#fff"/></linearGradient><linearGradient id="b" gradientUnits="userSpaceOnUse" x1="-324" x2="1236.13" xlink:href="#a" y1="1155.5" y2="-2698.52"/><linearGradient id="c" gradientUnits="userSpaceOnUse" x1="804.5" x2="3505.87" xlink:href="#a" y1="1234" y2="1640.02"/><linearGradient id="d" gradientUnits="userSpaceOnUse" x1="-27.5" x2="1016.94" xlink:href="#a" y1="619" y2="-73.6157"/><g clip-rule="evenodd" fill-rule="evenodd"><path d="m0 500h674 1246v-500h-1920z" fill="url(#b)"/><path d="m1644.86 500c-12.93-44.639-19.86-91.828-19.86-140.635 0-140.657 57.57-267.8691 150.43-359.365h144.57v150.535c-53.33 53.504-86.31 127.317-86.31 208.83 0 50.905 12.86 98.807 35.51 140.635z" fill="url(#c)"/><path d="m506.551 500c-82.813-111.644-215.594-184-365.276-184-49.3206 0-96.8068 7.856-141.275 22.385v161.615h243.275z" fill="url(#d)"/></g></svg>