<svg width="1920" height="840" viewBox="0 0 1920 840" fill="none" xmlns="http://www.w3.org/2000/svg">
<path fill-rule="evenodd" clip-rule="evenodd" d="M0 840H500L1920 500V0H0V840Z" fill="url(#paint0_linear)"/>
<mask id="mask0" mask-type="alpha" maskUnits="userSpaceOnUse" x="0" y="0" width="1920" height="840">
<path fill-rule="evenodd" clip-rule="evenodd" d="M0 840H500L1920 500V0H0V840Z" fill="url(#paint1_linear)"/>
</mask>
<g mask="url(#mask0)">
<circle cx="171.859" cy="693.858" r="339.5" transform="rotate(15.9938 171.859 693.858)" stroke="url(#paint2_linear)" stroke-width="230"/>
</g>
<mask id="mask1" mask-type="alpha" maskUnits="userSpaceOnUse" x="0" y="0" width="1920" height="840">
<path fill-rule="evenodd" clip-rule="evenodd" d="M0 840H500L1920 500V0H0V840Z" fill="url(#paint3_linear)"/>
</mask>
<g mask="url(#mask1)">
<circle cx="1643.5" cy="6.5" r="349.5" stroke="url(#paint4_linear)" stroke-width="230"/>
</g>
<defs>
<linearGradient id="paint0_linear" x1="-71.2501" y1="992.4" x2="261.878" y2="-944.03" gradientUnits="userSpaceOnUse">
<stop stop-color="#D0D8F5"/>
<stop offset="0.354923" stop-color="#F4F5FF"/>
<stop offset="1" stop-color="white"/>
</linearGradient>
<linearGradient id="paint1_linear" x1="-71.2501" y1="992.4" x2="261.878" y2="-944.03" gradientUnits="userSpaceOnUse">
<stop stop-color="#D0D8F5"/>
<stop offset="0.354923" stop-color="#F4F5FF"/>
<stop offset="1" stop-color="white"/>
</linearGradient>
<linearGradient id="paint2_linear" x1="-316.374" y1="1313.28" x2="418.387" y2="-555.313" gradientUnits="userSpaceOnUse">
<stop stop-color="#D0D8F5"/>
<stop offset="0.354923" stop-color="#F4F5FF"/>
<stop offset="1" stop-color="white"/>
</linearGradient>
<linearGradient id="paint3_linear" x1="-71.2501" y1="992.4" x2="261.878" y2="-944.03" gradientUnits="userSpaceOnUse">
<stop stop-color="#D0D8F5"/>
<stop offset="0.354923" stop-color="#F4F5FF"/>
<stop offset="1" stop-color="white"/>
</linearGradient>
<linearGradient id="paint4_linear" x1="1144.53" y1="639.547" x2="1895.45" y2="-1270.16" gradientUnits="userSpaceOnUse">
<stop stop-color="#D0D8F5"/>
<stop offset="0.354923" stop-color="#F4F5FF"/>
<stop offset="1" stop-color="white"/>
</linearGradient>
</defs>
</svg>
