<svg fill="none" height="800" viewBox="0 0 1920 800" width="1920" xmlns="http://www.w3.org/2000/svg" xmlns:xlink="http://www.w3.org/1999/xlink"><linearGradient id="a" gradientUnits="userSpaceOnUse" x1="1454.41" x2="2483.49" y1="1542.89" y2="-706.242"><stop offset="0" stop-color="#f1f4ff"/><stop offset=".29452" stop-color="#f8faff"/><stop offset="1" stop-color="#fff"/></linearGradient><linearGradient id="b"><stop offset="0" stop-color="#fafcff"/><stop offset="1" stop-color="#f3f6ff"/></linearGradient><linearGradient id="c" gradientUnits="userSpaceOnUse" x1="1547.5" x2="1547.5" xlink:href="#b" y1="0" y2="536"/><linearGradient id="d" gradientUnits="userSpaceOnUse" x1="505.5" x2="249" xlink:href="#b" y1="496" y2="1303"/><g clip-rule="evenodd" fill-rule="evenodd"><path d="m0 800h500l1420-293v-507h-1920z" fill="url(#a)"/><path d="m1896 81.5c0 147.184-119.32 266.5-266.5 266.5s-266.5-119.316-266.5-266.5c0-28.4257 4.45-55.812 12.69-81.5h-193.4c-4.79 26.4413-7.29 53.6787-7.29 81.5 0 251.013 203.49 454.5 454.5 454.5 110.47 0 211.73-39.412 290.5-104.942v-431.058h-36.69c8.24 25.688 12.69 53.0743 12.69 81.5z" fill="url(#c)"/><path d="m896.254 718.238c-79.274-133.082-224.602-222.238-390.754-222.238-198.266 0-366.88 126.951-428.9902 304h209.0232c48.018-70.048 128.626-116 219.967-116 72.715 0 138.628 29.122 186.712 76.339z" fill="url(#d)"/></g></svg>