<svg width="12" height="10" viewBox="0 0 12 10" fill="none" xmlns="http://www.w3.org/2000/svg">
    <path d="M12.0001 2.25815C12.0031 2.45264 11.9244 2.63948 11.7831 2.77315L6.17808 8.25815L5.12508 9.28815C4.98605 9.42705 4.79659 9.50356 4.60008 9.50015C4.40289 9.5041 4.2126 9.42755 4.07308 9.28815L3.02008 8.25815L0.217085 5.51515C0.0757752 5.38148 -0.00295074 5.19464 8.46394e-05 5.00015C8.46394e-05 4.79815 0.0720847 4.62615 0.217085 4.48515L1.27008 3.45515C1.40919 3.31562 1.59909 3.23873 1.79608 3.24215C2.00308 3.24215 2.17808 3.31315 2.32308 3.45515L4.59908 5.68915L9.67708 0.712146C9.8166 0.572738 10.0069 0.496188 10.2041 0.500146C10.4101 0.500146 10.5861 0.570146 10.7301 0.712146L11.7831 1.74215C11.9247 1.87605 12.0034 2.06331 12.0001 2.25815Z" fill="#673DE6"/>
</svg>
