<svg width="1366" height="680" fill="none" xmlns="http://www.w3.org/2000/svg"><mask id="a" maskUnits="userSpaceOnUse" x="0" y="0" width="1366" height="680"><path fill-rule="evenodd" clip-rule="evenodd" d="M0 680h505.847L1366 480V0H0v680z" fill="url(#paint0_linear)"/></mask><g mask="url(#a)" fill-rule="evenodd" clip-rule="evenodd"><path d="M-277 803h1920V0H-277v803z" fill="url(#paint1_linear)"/><path d="M1619 74.5c0 147.184-119.32 266.5-266.5 266.5S1086 221.684 1086 74.5c0-28.426 4.45-55.812 12.69-81.5H905.287C900.5 19.441 898 46.679 898 74.5c0 251.013 203.49 454.5 454.5 454.5 110.47 0 211.73-39.412 290.5-104.942V-7h-36.69c8.24 25.688 12.69 53.074 12.69 81.5z" fill="url(#paint2_linear)" fill-opacity=".6"/><path d="M488.872 999.893c12.355-154.41-54.579-311.218-190.088-407.363-161.7-114.728-372.678-108.76-525.784-.304l170.474 120.952c79.696-29.342 172.028-20.176 246.523 32.679 59.304 42.077 96.209 103.969 108.102 170.303l190.773 83.733z" fill="url(#paint3_linear)" fill-opacity=".6"/></g><defs><linearGradient id="paint0_linear" x1="1034.75" y1="1542.89" x2="2272.21" y2="-381.275" gradientUnits="userSpaceOnUse"><stop stop-color="#F1F4FF"/><stop offset=".295" stop-color="#F8FAFF"/><stop offset="1" stop-color="#fff"/></linearGradient><linearGradient id="paint1_linear" x1="-1192.5" y1="1307" x2="-60.87" y2="-1204.38" gradientUnits="userSpaceOnUse"><stop stop-color="#E1E6F9"/><stop offset=".469" stop-color="#F8FAFF"/><stop offset="1" stop-color="#fff"/></linearGradient><linearGradient id="paint2_linear" x1="624.5" y1="529" x2="1753.56" y2="-496.063" gradientUnits="userSpaceOnUse"><stop stop-color="#E1E6F9"/><stop offset=".469" stop-color="#F8FAFF"/><stop offset="1" stop-color="#fff"/></linearGradient><linearGradient id="paint3_linear" x1="-968.231" y1="573.194" x2="-215.003" y2="-59.924" gradientUnits="userSpaceOnUse"><stop stop-color="#E1E6F9"/><stop offset=".469" stop-color="#F8FAFF"/><stop offset="1" stop-color="#fff"/></linearGradient></defs></svg>