<svg width="1920" height="800" fill="none" xmlns="http://www.w3.org/2000/svg"><mask id="a" maskUnits="userSpaceOnUse" x="0" y="0" width="1920" height="800"><path fill-rule="evenodd" clip-rule="evenodd" d="M0 800h711l1209-300V0H0v800z" fill="url(#paint0_linear)"/></mask><g mask="url(#a)" fill-rule="evenodd" clip-rule="evenodd"><path d="M0 803h1920V0H0v803z" fill="url(#paint1_linear)"/><path d="M1896 74.5c0 147.184-119.32 266.5-266.5 266.5S1363 221.684 1363 74.5c0-28.426 4.45-55.812 12.69-81.5h-193.4c-4.79 26.441-7.29 53.679-7.29 81.5 0 251.013 203.49 454.5 454.5 454.5 110.47 0 211.73-39.412 290.5-104.942V-7h-36.69c8.24 25.688 12.69 53.074 12.69 81.5z" fill="url(#paint2_linear)" fill-opacity=".6"/><path d="M437.931 999.893c12.355-154.41-54.58-311.218-190.088-407.363-161.7-114.728-372.679-108.76-525.784-.304l170.473 120.952c79.696-29.342 172.028-20.176 246.523 32.679 59.304 42.077 96.209 103.969 108.103 170.303l190.773 83.733z" fill="url(#paint3_linear)" fill-opacity=".6"/></g><defs><linearGradient id="paint0_linear" x1="721" y1="855.293" x2="584.136" y2="-515.353" gradientUnits="userSpaceOnUse"><stop stop-color="#E9EDFB"/><stop offset=".376" stop-color="#F6F8FD"/><stop offset="1" stop-color="#fff"/></linearGradient><linearGradient id="paint1_linear" x1="-915.5" y1="1307" x2="216.13" y2="-1204.38" gradientUnits="userSpaceOnUse"><stop stop-color="#E1E6F9"/><stop offset=".469" stop-color="#F8FAFF"/><stop offset="1" stop-color="#fff"/></linearGradient><linearGradient id="paint2_linear" x1="901.5" y1="529" x2="2030.56" y2="-496.063" gradientUnits="userSpaceOnUse"><stop stop-color="#E1E6F9"/><stop offset=".469" stop-color="#F8FAFF"/><stop offset="1" stop-color="#fff"/></linearGradient><linearGradient id="paint3_linear" x1="-1019.17" y1="573.194" x2="-265.944" y2="-59.924" gradientUnits="userSpaceOnUse"><stop stop-color="#E1E6F9"/><stop offset=".469" stop-color="#F8FAFF"/><stop offset="1" stop-color="#fff"/></linearGradient></defs></svg>