<svg width="60" height="60" fill="none" xmlns="http://www.w3.org/2000/svg"><path d="M25.272 27.809l2.17 2.158-2.17 2.158H9.996v7.19L.68 29.966l9.316-9.19v7.032h15.276zM31.987 9.45h18.561v18.562h-18.56V9.45z" fill="#8C93A9"/><path d="M32.191 25.274l-2.158 2.17-2.157-2.17V9.998h-7.19L30.033.68l9.19 9.317h-7.032v15.276zm-.202 6.715H50.55V50.55H31.989V31.99z" fill="#ABB3CD"/><path d="M34.728 32.191l-2.171-2.158 2.17-2.157h15.276v-7.19l9.317 9.347-9.317 9.19v-7.032H34.728zM9.45 31.989h18.561V50.55H9.451V31.99z" fill="#8C93A9"/><path d="M27.81 34.727l2.158-2.17 2.158 2.17v15.276h7.189l-9.347 9.316-9.19-9.316h7.032V34.727zM9.45 9.45h18.562v18.562H9.451V9.45z" fill="#ABB3CD"/><path d="M8.786 8.787h19.888v19.887H8.786V8.787zm1.326 18.562h17.236V10.113H10.112v17.236zM31.325 8.787h19.888v19.887H31.325V8.787zm1.326 18.562h17.236V10.113H32.65v17.236zm-1.326 3.977h19.888v19.888H31.325V31.326zm1.326 18.561h17.236V32.652H32.65v17.235zM8.786 31.326h19.888v19.888H8.786V31.326zm1.326 18.561h17.236V32.652H10.112v17.235z" fill="#fff"/><path d="M14.063 44.063L0 30l14.062-14.062L28.125 30 14.063 44.063zM1.875 30l12.188 12.188L26.25 30 14.062 17.813 1.875 30zM30 28.125L15.938 14.063 30 0l14.062 14.063L30 28.125zM17.813 14.063L30 26.25l12.188-12.187L30 1.875 17.813 14.063zm28.125 30L31.875 30l14.063-14.062L60 30 45.938 44.063zM33.75 30l12.188 12.188L58.125 30 45.938 17.813 33.75 30zM30 60L15.938 45.938 30 31.875l14.062 14.063L30 60zM17.813 45.938L30 58.125l12.188-12.187L30 33.75 17.813 45.938z" fill="#fff"/></svg>