<svg width="49" height="60" fill="none" xmlns="http://www.w3.org/2000/svg"><path d="M28.737 31.627c-.952.014.18.49 1.422.682.344-.268.655-.539.933-.803-.774.19-1.561.194-2.355.121zm5.11-1.273c.566-.782.98-1.64 1.125-2.525-.127.632-.47 1.177-.793 1.752-1.78 1.12-.167-.665 0-1.344-1.914 2.409-.263 1.444-.333 2.117zm1.887-4.907c.114-1.715-.338-1.173-.49-.519.177.093.318 1.209.49.518zM25.126 2.015c.508.091 1.098.161 1.015.282.556-.122.682-.234-1.014-.282zm1.016.282l-.359.074.334-.03.025-.044z" fill="#D70751"/><path d="M41.985 26.096c.057 1.54-.45 2.287-.908 3.609l-.822.411c-.674 1.308.065.83-.417 1.87-1.052.935-3.19 2.924-3.874 3.106-.5-.011.339-.59.448-.816-1.407.966-1.13 1.45-3.281 2.037l-.063-.14c-5.308 2.497-12.68-2.451-12.583-9.202-.057.429-.161.322-.279.495-.273-3.474 1.605-6.963 4.771-8.387 3.099-1.534 6.73-.904 8.95 1.164-1.22-1.597-3.645-3.29-6.52-3.131-2.818.044-5.453 1.835-6.332 3.777-1.443.91-1.61 3.503-2.24 3.977-.845 6.218 1.592 8.904 5.715 12.064.649.437.183.504.27.837-1.37-.642-2.624-1.61-3.655-2.796.547.802 1.138 1.58 1.901 2.192-1.291-.438-3.017-3.13-3.52-3.24 2.226 3.987 9.032 6.992 12.597 5.501-1.65.061-3.745.034-5.598-.651-.778-.4-1.836-1.23-1.648-1.385 4.865 1.817 9.89 1.376 14.098-1.998 1.071-.834 2.24-2.252 2.579-2.272-.51.766.087.369-.305 1.044 1.068-1.72-.463-.7 1.103-2.972l.579.797c-.215-1.428 1.774-3.162 1.572-5.421.456-.69.509.743.025 2.332.672-1.763.177-2.046.35-3.5.186.488.43 1.008.556 1.524-.437-1.704.45-2.87.669-3.86-.216-.095-.676.754-.78-1.259.014-.874.242-.458.33-.673-.171-.098-.621-.768-.895-2.054.198-.302.53.783.8.828-.173-1.022-.472-1.801-.485-2.585-.789-1.65-.279.22-.92-.709-.84-2.62.698-.608.802-1.799 1.273 1.845 2 4.705 2.333 5.89-.255-1.445-.666-2.844-1.168-4.197.387.162-.622-2.971.504-.896-1.203-4.424-5.147-8.559-8.776-10.498.444.406 1.005.916.804.996-1.805-1.075-1.487-1.158-1.746-1.612-1.47-.598-1.566.048-2.54 0-2.77-1.469-3.304-1.312-5.854-2.233l.116.542c-1.836-.612-2.138.232-4.122.002-.121-.095.635-.341 1.258-.432-1.775.234-1.691-.35-3.428.064.428-.3.88-.498 1.337-.754-1.447.088-3.455.842-2.835.156-2.362 1.055-6.555 2.533-8.907 4.74l-.075-.495c-1.078 1.294-4.7 3.865-4.99 5.54l-.287.068c-.561.95-.924 2.026-1.37 3.004-.733 1.25-1.075.48-.97.677-1.443 2.926-2.16 5.384-2.78 7.4.442.66.011 3.971.178 6.62C.932 42.48 10.84 55.188 21.673 58.12c1.588.567 3.949.545 5.957.604-2.37-.678-2.676-.36-4.983-1.164-1.665-.784-2.03-1.68-3.21-2.703l.467.825c-2.313-.819-1.345-1.013-3.227-1.609l.499-.65c-.75-.058-1.986-1.264-2.324-1.933l-.82.033c-.985-1.216-1.51-2.092-1.472-2.77l-.265.472c-.3-.516-3.625-4.56-1.9-3.618-.32-.294-.747-.477-1.209-1.316l.352-.402c-.83-1.068-1.528-2.437-1.475-2.893.443.598.75.71 1.054.813-2.096-5.202-2.214-.287-3.802-5.295l.336-.027c-.257-.388-.413-.809-.62-1.222l.146-1.457c-1.51-1.745-.422-7.42-.205-10.532.151-1.265 1.26-2.612 2.103-4.725l-.514-.089c.982-1.713 5.608-6.88 7.75-6.614 1.038-1.304-.206-.005-.409-.333 2.28-2.36 2.996-1.667 4.535-2.091 1.659-.985-1.424.384-.637-.376 2.867-.732 2.032-1.665 5.774-2.037.394.225-.916.347-1.245.638 2.39-1.169 7.562-.903 10.921.65 3.899 1.821 8.279 7.207 8.451 12.274l.197.052c-.1 2.015.308 4.344-.399 6.484l.485-1.012" fill="#D70751"/><path d="M18.346 32.934l-.133.668c.625.85 1.122 1.77 1.92 2.435-.574-1.123-1.001-1.586-1.787-3.103zm1.48-.058c-.332-.366-.528-.807-.747-1.246.21.772.64 1.435 1.04 2.11l-.294-.864zm26.171-5.688l-.14.35a16.929 16.929 0 0 1-1.658 5.295 16.64 16.64 0 0 0 1.797-5.645M25.315 1.559c.643-.236 1.582-.129 2.264-.284-.89.074-1.775.119-2.65.232l.386.052zM2.72 13.575c.148 1.373-1.033 1.906.262 1 .694-1.562-.271-.431-.262-1zM1.197 19.93c.299-.916.353-1.466.467-1.995-.824 1.053-.38 1.278-.467 1.995z" fill="#D70751"/></svg>