<svg width="60" height="60" fill="none" xmlns="http://www.w3.org/2000/svg"><path d="M59.91 30C59.91 13.483 46.517.09 30 .09S.09 13.46.09 29.977v23.147c0 3.752 3.056 6.786 6.809 6.786h23.123C46.54 59.91 59.91 46.517 59.91 30z" fill="#8C93A9"/><path d="M38.787 10.45c-5.933 0-10.742 4.809-10.742 10.741v10.742H17.326c-5.933 0-10.742 4.809-10.742 10.741 0 5.933 4.81 10.742 10.742 10.742 5.933 0 10.742-4.81 10.742-10.742V31.933h10.696c5.933 0 10.742-4.81 10.742-10.742.022-5.932-4.787-10.741-10.72-10.741z" stroke="#ABB3CD" stroke-width="6.564"/><path d="M41.888 7.596c-1.079-.293-1.933-.427-3.101-.427-7.753 0-14.045 6.292-14.045 14.044v7.439h-5.888c-1.842 0-3.326 1.438-3.303 3.28 0 1.82 1.46 3.26 3.28 3.26h4.877a1.05 1.05 0 0 1 1.056 1.033v6.45c0 4.09-3.325 7.393-7.415 7.393-1.394 0-1.73-.18-2.675-.18-1.977 0-3.325 1.326-3.325 3.168 0 1.506 1.303 2.81 2.876 3.236 1.079.292 1.933.427 3.101.427 7.753 0 14.045-6.292 14.045-14.045v-7.438h5.888c1.842 0 3.326-1.438 3.303-3.28 0-1.821-1.46-3.26-3.28-3.26h-4.877a1.05 1.05 0 0 1-1.056-1.033v-6.45c0-4.09 3.326-7.393 7.415-7.393 1.394 0 1.73.18 2.674.18 1.978 0 3.326-1.326 3.326-3.168 0-1.529-1.28-2.832-2.876-3.236z" fill="#fff"/></svg>