<svg width="105" height="60" fill="none" xmlns="http://www.w3.org/2000/svg"><path d="M101.376 18.577c-.629-.898-2.291-2.515-4.717-3.998-6.153-3.773-16.035-7.995-17.338-7.546-.943.314-.27 9.388-.27 9.388s-9.702-8.085-30.5-9.208c-21.38-1.168-35.979 8.669-42.807 17.742-6.558 8.715-7.59 23.268 5.166 31.129 8.984 5.525 19.54 2.38 23.088-2.65 4.178-5.885 3.953-14.868-2.605-18.956-12.173-7.591-19.72 5.3-14.33 10.197 1.977 1.796 3.64 1.886 4.403.629.629-.989-.674-2.067-1.258-3.01-1.302-2.021-.36-5.66 4.986-5.525 4.402.135 8.714 5.705 4.537 11.679-3.998 5.66-18.192 3.908-20.393-5.256-2.201-9.163 2.605-14.104 8.894-16.08 6.872-2.112 16.036.584 20.438 7.007 4.671 6.738 5.03 9.343 6.333 11.634.54.943 2.47 3.997 4.088 3.997h11.005s.09-2.245-4.582-3.144c-2.56-.494-2.066-5.076-2.066-5.076h10.51c2.022 0 5.391 1.528 7.008 4.043 1.977 3.1 1.887 4.177 2.47 4.177h10.422c.763 0 .808-1.167-1.842-2.605-2.65-1.437-4.941-2.336-4.896-6.154 0-3.593 4.537-2.38 7.591-1.931 1.348.224 5.75.494 10.96-.944 5.166-1.437 7.502-3.773 7.322-3.997-.18-.225-5.974.674-10.331-.045-4.357-.719-6.738-3.459-6.963-3.728-.494-.674-.449-1.483 1.078-.854 0 0 3.684 2.785 6.289 2.965 2.246.18 8.669.135 10.601.18.314 0 .539-.225.584-.54.045-1.976.179-9.208-2.875-13.52zm-6.199 10.78a6.115 6.115 0 0 1-6.109-6.108 6.115 6.115 0 0 1 6.11-6.11 6.115 6.115 0 0 1 6.108 6.11 6.115 6.115 0 0 1-6.109 6.109z" fill="#5EB77E"/><path d="M97.648 25.81a1.752 1.752 0 1 0 0-3.505 1.752 1.752 0 0 0 0 3.504z" fill="#5EB77E"/></svg>