<svg width="60" height="60" fill="none" xmlns="http://www.w3.org/2000/svg"><path d="M30 .169C13.515.169.168 13.516.168 30S13.536 59.832 30 59.832C46.463 59.832 59.83 46.463 59.83 30S46.484.17 30 .17zm6.694 10.273a3.949 3.949 0 0 1 5.432-1.452c1.895 1.094 2.568 3.537 1.453 5.431-1.095 1.895-3.537 2.569-5.432 1.453-1.895-1.116-2.547-3.537-1.453-5.432zM9.704 33.98A3.976 3.976 0 0 1 5.727 30a3.99 3.99 0 0 1 3.979-3.979 3.976 3.976 0 0 1 3.979 3.98 3.962 3.962 0 0 1-3.98 3.978zm3.538.358A5.58 5.58 0 0 0 15.305 30a5.58 5.58 0 0 0-2.063-4.337A17.32 17.32 0 0 1 20.399 15.6l2.906 4.884c-2.99 2.106-4.948 5.58-4.948 9.516 0 3.937 1.958 7.41 4.948 9.516L20.4 44.4a17.32 17.32 0 0 1-7.158-10.063zm28.884 16.695a3.985 3.985 0 0 1-5.432-1.453 3.985 3.985 0 0 1 1.453-5.431 3.985 3.985 0 0 1 5.431 1.452c1.116 1.895.464 4.316-1.452 5.432zm0-8.695a5.634 5.634 0 0 0-4.78.379 5.538 5.538 0 0 0-2.715 3.958 17.329 17.329 0 0 1-12.295-1.158l2.78-4.968c3.326 1.536 7.305 1.494 10.715-.485a11.616 11.616 0 0 0 5.769-9.052l5.684.084c-.295 4.21-2.084 8.232-5.158 11.242zm-.547-13.368c-.337-3.643-2.358-7.074-5.769-9.053-3.41-1.979-7.39-2.021-10.716-.484l-2.779-4.969a17.33 17.33 0 0 1 12.295-1.158 5.579 5.579 0 0 0 2.716 3.958 5.489 5.489 0 0 0 4.779.38c3.074 3.01 4.863 7.052 5.137 11.22l-5.663.106z" fill="#DD4814"/></svg>